M48
; DRILL file {KiCad 5.99.0-unknown-r17001-43768b71} date wto, 5 lis 2019, 19:13:12
; FORMAT={-:-/ absolute / inch / decimal}
; #@! TF.CreationDate,2019-11-05T19:13:12+01:00
; #@! TF.GenerationSoftware,Kicad,Pcbnew,5.99.0-unknown-r17001-43768b71
FMAT,2
INCH
T1C0.0157
T2C0.0197
T3C0.0315
T4C0.0276
%
G90
G05
T1
X5.28Y-3.93
X5.2875Y-4.2425
X5.305Y-4.3225
X5.34Y-4.2604
X5.3525Y-4.3225
X5.3603Y-3.9657
X5.408Y-3.964
X5.408Y-4.29
X5.41Y-4.49
X5.4115Y-4.3825
X5.4583Y-3.9563
X5.4685Y-4.474
X5.47Y-4.0375
X5.48Y-4.3225
X5.4873Y-4.5627
X5.61Y-3.805
X5.6132Y-4.5635
X5.6225Y-4.605
X5.6339Y-4.5036
X5.6522Y-4.3493
X5.66Y-3.94
X5.66Y-4.005
X5.6798Y-4.2923
X5.6806Y-4.2527
X5.6973Y-4.5644
X5.6975Y-4.52
X5.6975Y-4.605
X5.71Y-3.805
X5.715Y-4.09
X5.73Y-4.368
X5.73Y-4.2825
X5.785Y-3.94
X5.785Y-4.005
X5.81Y-3.805
X5.825Y-4.2825
X5.835Y-3.975
X5.86Y-4.51
X5.865Y-4.09
X5.91Y-3.805
X5.91Y-4.255
X5.93Y-4.09
X5.93Y-4.385
X5.93Y-4.51
X5.96Y-3.94
X5.96Y-3.99
X5.96Y-4.255
X6.005Y-3.94
X6.01Y-3.805
X6.0273Y-4.0523
X6.075Y-4.525
X6.08Y-4.29
X6.11Y-3.805
X6.16Y-4.0152
X6.3125Y-3.97
X6.3125Y-4.0725
X6.465Y-4.1
X6.465Y-4.155
X6.465Y-4.045
T2
X5.8919Y-4.3452
X5.8919Y-4.42
T3
X5.61Y-3.8832
X5.61Y-4.1832
X5.71Y-3.8832
X5.71Y-4.1832
X5.81Y-3.8832
X5.81Y-4.1832
X5.91Y-3.8832
X5.91Y-4.1832
X6.01Y-3.8832
X6.01Y-4.1832
X6.11Y-3.8832
X6.11Y-4.1832
T4
X5.3Y-4.0
X5.3Y-4.05
X5.3Y-4.1
X5.3Y-4.15
X5.3Y-4.2
T0
M30
