G04 #@! TF.GenerationSoftware,KiCad,Pcbnew,5.99.0-unknown-r17001-43768b71*
G04 #@! TF.CreationDate,2019-11-05T19:13:07+01:00*
G04 #@! TF.ProjectId,ada-watch,6164612d-7761-4746-9368-2e6b69636164,rev?*
G04 #@! TF.SameCoordinates,Original*
G04 #@! TF.FileFunction,Paste,Bot*
G04 #@! TF.FilePolarity,Positive*
%FSLAX46Y46*%
G04 Gerber Fmt 4.6, Leading zero omitted, Abs format (unit mm)*
G04 Created by KiCad (PCBNEW 5.99.0-unknown-r17001-43768b71) date 2019-11-05 19:13:07*
%MOMM*%
%LPD*%
G04 APERTURE LIST*
%ADD10R,3.000000X2.600000*%
%ADD11R,2.800000X3.600000*%
G04 APERTURE END LIST*
D10*
X141001500Y-104140000D03*
D11*
X162401500Y-104140000D03*
G36*
X140567029Y-113483554D02*
G01*
X140646107Y-113536393D01*
X140698946Y-113615471D01*
X140717500Y-113708750D01*
X140717500Y-114196250D01*
X140698946Y-114289529D01*
X140646107Y-114368607D01*
X140567029Y-114421446D01*
X140473750Y-114440000D01*
X139561250Y-114440000D01*
X139467971Y-114421446D01*
X139388893Y-114368607D01*
X139336054Y-114289529D01*
X139317500Y-114196250D01*
X139317500Y-113708750D01*
X139336054Y-113615471D01*
X139388893Y-113536393D01*
X139467971Y-113483554D01*
X139561250Y-113465000D01*
X140473750Y-113465000D01*
X140567029Y-113483554D01*
G37*
G36*
X140567029Y-111608554D02*
G01*
X140646107Y-111661393D01*
X140698946Y-111740471D01*
X140717500Y-111833750D01*
X140717500Y-112321250D01*
X140698946Y-112414529D01*
X140646107Y-112493607D01*
X140567029Y-112546446D01*
X140473750Y-112565000D01*
X139561250Y-112565000D01*
X139467971Y-112546446D01*
X139388893Y-112493607D01*
X139336054Y-112414529D01*
X139317500Y-112321250D01*
X139317500Y-111833750D01*
X139336054Y-111740471D01*
X139388893Y-111661393D01*
X139467971Y-111608554D01*
X139561250Y-111590000D01*
X140473750Y-111590000D01*
X140567029Y-111608554D01*
G37*
G36*
X136693529Y-112355554D02*
G01*
X136772607Y-112408393D01*
X136825446Y-112487471D01*
X136844000Y-112580750D01*
X136844000Y-113068250D01*
X136825446Y-113161529D01*
X136772607Y-113240607D01*
X136693529Y-113293446D01*
X136600250Y-113312000D01*
X135687750Y-113312000D01*
X135594471Y-113293446D01*
X135515393Y-113240607D01*
X135462554Y-113161529D01*
X135444000Y-113068250D01*
X135444000Y-112580750D01*
X135462554Y-112487471D01*
X135515393Y-112408393D01*
X135594471Y-112355554D01*
X135687750Y-112337000D01*
X136600250Y-112337000D01*
X136693529Y-112355554D01*
G37*
G36*
X136693529Y-110480554D02*
G01*
X136772607Y-110533393D01*
X136825446Y-110612471D01*
X136844000Y-110705750D01*
X136844000Y-111193250D01*
X136825446Y-111286529D01*
X136772607Y-111365607D01*
X136693529Y-111418446D01*
X136600250Y-111437000D01*
X135687750Y-111437000D01*
X135594471Y-111418446D01*
X135515393Y-111365607D01*
X135462554Y-111286529D01*
X135444000Y-111193250D01*
X135444000Y-110705750D01*
X135462554Y-110612471D01*
X135515393Y-110533393D01*
X135594471Y-110480554D01*
X135687750Y-110462000D01*
X136600250Y-110462000D01*
X136693529Y-110480554D01*
G37*
M02*
