G04 #@! TF.GenerationSoftware,KiCad,Pcbnew,5.99.0-unknown-r17001-43768b71*
G04 #@! TF.CreationDate,2019-11-05T19:13:08+01:00*
G04 #@! TF.ProjectId,ada-watch,6164612d-7761-4746-9368-2e6b69636164,rev?*
G04 #@! TF.SameCoordinates,Original*
G04 #@! TF.FileFunction,Soldermask,Top*
G04 #@! TF.FilePolarity,Negative*
%FSLAX46Y46*%
G04 Gerber Fmt 4.6, Leading zero omitted, Abs format (unit mm)*
G04 Created by KiCad (PCBNEW 5.99.0-unknown-r17001-43768b71) date 2019-11-05 19:13:08*
%MOMM*%
%LPD*%
G04 APERTURE LIST*
G04 APERTURE END LIST*
G36*
X157813899Y-116584959D02*
G01*
X157830769Y-116596231D01*
X157842041Y-116613101D01*
X157848448Y-116645312D01*
X157848448Y-117270688D01*
X157845999Y-117283000D01*
X157842041Y-117302899D01*
X157830769Y-117319769D01*
X157813899Y-117331041D01*
X157794000Y-117334999D01*
X157781688Y-117337448D01*
X156756312Y-117337448D01*
X156724101Y-117331041D01*
X156707231Y-117319769D01*
X156695959Y-117302899D01*
X156689552Y-117270688D01*
X156689552Y-116645312D01*
X156695959Y-116613101D01*
X156707231Y-116596231D01*
X156724101Y-116584959D01*
X156756312Y-116578552D01*
X157781688Y-116578552D01*
X157813899Y-116584959D01*
G37*
G36*
X153663899Y-116584959D02*
G01*
X153680769Y-116596231D01*
X153692041Y-116613101D01*
X153698448Y-116645312D01*
X153698448Y-117270688D01*
X153695999Y-117283000D01*
X153692041Y-117302899D01*
X153680769Y-117319769D01*
X153663899Y-117331041D01*
X153644000Y-117334999D01*
X153631688Y-117337448D01*
X152606312Y-117337448D01*
X152574101Y-117331041D01*
X152557231Y-117319769D01*
X152545959Y-117302899D01*
X152539552Y-117270688D01*
X152539552Y-116645312D01*
X152545959Y-116613101D01*
X152557231Y-116596231D01*
X152574101Y-116584959D01*
X152606312Y-116578552D01*
X153631688Y-116578552D01*
X153663899Y-116584959D01*
G37*
G36*
X141558899Y-110657459D02*
G01*
X141575769Y-110668731D01*
X141587041Y-110685601D01*
X141593448Y-110717812D01*
X141593448Y-111143188D01*
X141587041Y-111175400D01*
X141579921Y-111186055D01*
X141558875Y-111253270D01*
X141579921Y-111324945D01*
X141587041Y-111335600D01*
X141593448Y-111367812D01*
X141593448Y-111793188D01*
X141587041Y-111825400D01*
X141579921Y-111836055D01*
X141558875Y-111903270D01*
X141579921Y-111974945D01*
X141587041Y-111985600D01*
X141593448Y-112017812D01*
X141593448Y-112443188D01*
X141587041Y-112475400D01*
X141579921Y-112486055D01*
X141558875Y-112553270D01*
X141579921Y-112624945D01*
X141587041Y-112635600D01*
X141593448Y-112667812D01*
X141593448Y-113093188D01*
X141587041Y-113125400D01*
X141579921Y-113136055D01*
X141558875Y-113203270D01*
X141579921Y-113274945D01*
X141587041Y-113285600D01*
X141593448Y-113317812D01*
X141593448Y-113743188D01*
X141587041Y-113775400D01*
X141579921Y-113786055D01*
X141558875Y-113853270D01*
X141579921Y-113924945D01*
X141587041Y-113935600D01*
X141593448Y-113967812D01*
X141593448Y-114393188D01*
X141587041Y-114425400D01*
X141579921Y-114436055D01*
X141558875Y-114503270D01*
X141579921Y-114574945D01*
X141587041Y-114585600D01*
X141593448Y-114617812D01*
X141593448Y-115043188D01*
X141587041Y-115075400D01*
X141579921Y-115086055D01*
X141558875Y-115153270D01*
X141579921Y-115224945D01*
X141587041Y-115235600D01*
X141593448Y-115267812D01*
X141593448Y-115693188D01*
X141587041Y-115725400D01*
X141579921Y-115736055D01*
X141558875Y-115803270D01*
X141579921Y-115874945D01*
X141587041Y-115885600D01*
X141593448Y-115917812D01*
X141593448Y-116343188D01*
X141587041Y-116375400D01*
X141579921Y-116386055D01*
X141558875Y-116453270D01*
X141579921Y-116524945D01*
X141587041Y-116535600D01*
X141593448Y-116567812D01*
X141593448Y-116993188D01*
X141590999Y-117005500D01*
X141587041Y-117025399D01*
X141575769Y-117042269D01*
X141558899Y-117053541D01*
X141539000Y-117057499D01*
X141526688Y-117059948D01*
X140101312Y-117059948D01*
X140069101Y-117053541D01*
X140052231Y-117042269D01*
X140040959Y-117025399D01*
X140034552Y-116993188D01*
X140034552Y-116567812D01*
X140040959Y-116535600D01*
X140048079Y-116524945D01*
X140069125Y-116457730D01*
X140048079Y-116386055D01*
X140040959Y-116375400D01*
X140034552Y-116343188D01*
X140034552Y-115917812D01*
X140040959Y-115885600D01*
X140048079Y-115874945D01*
X140069125Y-115807730D01*
X140048079Y-115736055D01*
X140040959Y-115725400D01*
X140034552Y-115693188D01*
X140034552Y-115267812D01*
X140040959Y-115235600D01*
X140048079Y-115224945D01*
X140069125Y-115157730D01*
X140048079Y-115086055D01*
X140040959Y-115075400D01*
X140034552Y-115043188D01*
X140034552Y-114617812D01*
X140040959Y-114585600D01*
X140048079Y-114574945D01*
X140069125Y-114507730D01*
X140048079Y-114436055D01*
X140040959Y-114425400D01*
X140034552Y-114393188D01*
X140034552Y-113967812D01*
X140040959Y-113935600D01*
X140048079Y-113924945D01*
X140069125Y-113857730D01*
X140048079Y-113786055D01*
X140040959Y-113775400D01*
X140034552Y-113743188D01*
X140034552Y-113317812D01*
X140040959Y-113285600D01*
X140048079Y-113274945D01*
X140069125Y-113207730D01*
X140048079Y-113136055D01*
X140040959Y-113125400D01*
X140034552Y-113093188D01*
X140034552Y-112667812D01*
X140040959Y-112635600D01*
X140048079Y-112624945D01*
X140069125Y-112557730D01*
X140048079Y-112486055D01*
X140040959Y-112475400D01*
X140034552Y-112443188D01*
X140034552Y-112017812D01*
X140040959Y-111985600D01*
X140048079Y-111974945D01*
X140069125Y-111907730D01*
X140048079Y-111836055D01*
X140040959Y-111825400D01*
X140034552Y-111793188D01*
X140034552Y-111367812D01*
X140040959Y-111335600D01*
X140048079Y-111324945D01*
X140069125Y-111257730D01*
X140048079Y-111186055D01*
X140040959Y-111175400D01*
X140034552Y-111143188D01*
X140034552Y-110717812D01*
X140040959Y-110685601D01*
X140052231Y-110668731D01*
X140069101Y-110657459D01*
X140101312Y-110651052D01*
X141526688Y-110651052D01*
X141558899Y-110657459D01*
G37*
G36*
X147458899Y-110657459D02*
G01*
X147475769Y-110668731D01*
X147487041Y-110685601D01*
X147493448Y-110717812D01*
X147493448Y-111143188D01*
X147487041Y-111175400D01*
X147479921Y-111186055D01*
X147458875Y-111253270D01*
X147479921Y-111324945D01*
X147487041Y-111335600D01*
X147493448Y-111367812D01*
X147493448Y-111793188D01*
X147487041Y-111825400D01*
X147479921Y-111836055D01*
X147458875Y-111903270D01*
X147479921Y-111974945D01*
X147487041Y-111985600D01*
X147493448Y-112017812D01*
X147493448Y-112443188D01*
X147487041Y-112475400D01*
X147479921Y-112486055D01*
X147458875Y-112553270D01*
X147479921Y-112624945D01*
X147487041Y-112635600D01*
X147493448Y-112667812D01*
X147493448Y-113093188D01*
X147487041Y-113125400D01*
X147479921Y-113136055D01*
X147458875Y-113203270D01*
X147479921Y-113274945D01*
X147487041Y-113285600D01*
X147493448Y-113317812D01*
X147493448Y-113743188D01*
X147487041Y-113775400D01*
X147479921Y-113786055D01*
X147458875Y-113853270D01*
X147479921Y-113924945D01*
X147487041Y-113935600D01*
X147493448Y-113967812D01*
X147493448Y-114393188D01*
X147487041Y-114425400D01*
X147479921Y-114436055D01*
X147458875Y-114503270D01*
X147479921Y-114574945D01*
X147487041Y-114585600D01*
X147493448Y-114617812D01*
X147493448Y-115043188D01*
X147487041Y-115075400D01*
X147479921Y-115086055D01*
X147458875Y-115153270D01*
X147479921Y-115224945D01*
X147487041Y-115235600D01*
X147493448Y-115267812D01*
X147493448Y-115693188D01*
X147487041Y-115725400D01*
X147479921Y-115736055D01*
X147458875Y-115803270D01*
X147479921Y-115874945D01*
X147487041Y-115885600D01*
X147493448Y-115917812D01*
X147493448Y-116343188D01*
X147487041Y-116375400D01*
X147479921Y-116386055D01*
X147458875Y-116453270D01*
X147479921Y-116524945D01*
X147487041Y-116535600D01*
X147493448Y-116567812D01*
X147493448Y-116993188D01*
X147490999Y-117005500D01*
X147487041Y-117025399D01*
X147475769Y-117042269D01*
X147458899Y-117053541D01*
X147439000Y-117057499D01*
X147426688Y-117059948D01*
X146001312Y-117059948D01*
X145969101Y-117053541D01*
X145952231Y-117042269D01*
X145940959Y-117025399D01*
X145934552Y-116993188D01*
X145934552Y-116567812D01*
X145940959Y-116535600D01*
X145948079Y-116524945D01*
X145969125Y-116457730D01*
X145948079Y-116386055D01*
X145940959Y-116375400D01*
X145934552Y-116343188D01*
X145934552Y-115917812D01*
X145940959Y-115885600D01*
X145948079Y-115874945D01*
X145969125Y-115807730D01*
X145948079Y-115736055D01*
X145940959Y-115725400D01*
X145934552Y-115693188D01*
X145934552Y-115267812D01*
X145940959Y-115235600D01*
X145948079Y-115224945D01*
X145969125Y-115157730D01*
X145948079Y-115086055D01*
X145940959Y-115075400D01*
X145934552Y-115043188D01*
X145934552Y-114617812D01*
X145940959Y-114585600D01*
X145948079Y-114574945D01*
X145969125Y-114507730D01*
X145948079Y-114436055D01*
X145940959Y-114425400D01*
X145934552Y-114393188D01*
X145934552Y-113967812D01*
X145940959Y-113935600D01*
X145948079Y-113924945D01*
X145969125Y-113857730D01*
X145948079Y-113786055D01*
X145940959Y-113775400D01*
X145934552Y-113743188D01*
X145934552Y-113317812D01*
X145940959Y-113285600D01*
X145948079Y-113274945D01*
X145969125Y-113207730D01*
X145948079Y-113136055D01*
X145940959Y-113125400D01*
X145934552Y-113093188D01*
X145934552Y-112667812D01*
X145940959Y-112635600D01*
X145948079Y-112624945D01*
X145969125Y-112557730D01*
X145948079Y-112486055D01*
X145940959Y-112475400D01*
X145934552Y-112443188D01*
X145934552Y-112017812D01*
X145940959Y-111985600D01*
X145948079Y-111974945D01*
X145969125Y-111907730D01*
X145948079Y-111836055D01*
X145940959Y-111825400D01*
X145934552Y-111793188D01*
X145934552Y-111367812D01*
X145940959Y-111335600D01*
X145948079Y-111324945D01*
X145969125Y-111257730D01*
X145948079Y-111186055D01*
X145940959Y-111175400D01*
X145934552Y-111143188D01*
X145934552Y-110717812D01*
X145940959Y-110685601D01*
X145952231Y-110668731D01*
X145969101Y-110657459D01*
X146001312Y-110651052D01*
X147426688Y-110651052D01*
X147458899Y-110657459D01*
G37*
G36*
X153663899Y-114434959D02*
G01*
X153680769Y-114446231D01*
X153692041Y-114463101D01*
X153698448Y-114495312D01*
X153698448Y-115120688D01*
X153695999Y-115133000D01*
X153692041Y-115152899D01*
X153680769Y-115169769D01*
X153663899Y-115181041D01*
X153644000Y-115184999D01*
X153631688Y-115187448D01*
X152606312Y-115187448D01*
X152574101Y-115181041D01*
X152557231Y-115169769D01*
X152545959Y-115152899D01*
X152539552Y-115120688D01*
X152539552Y-114495312D01*
X152545959Y-114463101D01*
X152557231Y-114446231D01*
X152574101Y-114434959D01*
X152606312Y-114428552D01*
X153631688Y-114428552D01*
X153663899Y-114434959D01*
G37*
G36*
X157813899Y-114434959D02*
G01*
X157830769Y-114446231D01*
X157842041Y-114463101D01*
X157848448Y-114495312D01*
X157848448Y-115120688D01*
X157845999Y-115133000D01*
X157842041Y-115152899D01*
X157830769Y-115169769D01*
X157813899Y-115181041D01*
X157794000Y-115184999D01*
X157781688Y-115187448D01*
X156756312Y-115187448D01*
X156724101Y-115181041D01*
X156707231Y-115169769D01*
X156695959Y-115152899D01*
X156689552Y-115120688D01*
X156689552Y-114495312D01*
X156695959Y-114463101D01*
X156707231Y-114446231D01*
X156724101Y-114434959D01*
X156756312Y-114428552D01*
X157781688Y-114428552D01*
X157813899Y-114434959D01*
G37*
G36*
X150743022Y-113039001D02*
G01*
X150743610Y-113039001D01*
X150748203Y-113039915D01*
X150813163Y-113051369D01*
X150817040Y-113053607D01*
X150821061Y-113054407D01*
X150837815Y-113065602D01*
X150873786Y-113086369D01*
X150880026Y-113093805D01*
X150886721Y-113098279D01*
X150898222Y-113115492D01*
X150915137Y-113135651D01*
X150917444Y-113144259D01*
X150930593Y-113163939D01*
X150945999Y-113241390D01*
X150945999Y-113250828D01*
X150947715Y-113257232D01*
X150947715Y-113570290D01*
X150945999Y-113580022D01*
X150945999Y-113580610D01*
X150945085Y-113585203D01*
X150933631Y-113650163D01*
X150931393Y-113654040D01*
X150930593Y-113658061D01*
X150919398Y-113674815D01*
X150898631Y-113710786D01*
X150891194Y-113717026D01*
X150886721Y-113723721D01*
X150869511Y-113735220D01*
X150849350Y-113752137D01*
X150840740Y-113754444D01*
X150821061Y-113767593D01*
X150743610Y-113782999D01*
X150734172Y-113782999D01*
X150727768Y-113784715D01*
X150464710Y-113784715D01*
X150454978Y-113782999D01*
X150454390Y-113782999D01*
X150449797Y-113782085D01*
X150384837Y-113770631D01*
X150380960Y-113768393D01*
X150376939Y-113767593D01*
X150360185Y-113756398D01*
X150324214Y-113735631D01*
X150317974Y-113728194D01*
X150311279Y-113723721D01*
X150299780Y-113706511D01*
X150282863Y-113686350D01*
X150280556Y-113677740D01*
X150267407Y-113658061D01*
X150252001Y-113580610D01*
X150252001Y-113571172D01*
X150250285Y-113564768D01*
X150250285Y-113251710D01*
X150252001Y-113241978D01*
X150252001Y-113241390D01*
X150252915Y-113236797D01*
X150264369Y-113171837D01*
X150266607Y-113167960D01*
X150267407Y-113163939D01*
X150278602Y-113147185D01*
X150299369Y-113111214D01*
X150306805Y-113104974D01*
X150311279Y-113098279D01*
X150328492Y-113086778D01*
X150348651Y-113069863D01*
X150357259Y-113067556D01*
X150376939Y-113054407D01*
X150454390Y-113039001D01*
X150463828Y-113039001D01*
X150470232Y-113037285D01*
X150733290Y-113037285D01*
X150743022Y-113039001D01*
G37*
G36*
X149671881Y-111714783D02*
G01*
X149695234Y-111713314D01*
X149746492Y-111724209D01*
X149789718Y-111729670D01*
X149811474Y-111738021D01*
X149842899Y-111744701D01*
X149881654Y-111764961D01*
X149914224Y-111777464D01*
X149940493Y-111795721D01*
X149976685Y-111814642D01*
X150002227Y-111838628D01*
X150023739Y-111853579D01*
X150050635Y-111884086D01*
X150086733Y-111917985D01*
X150100365Y-111940493D01*
X150111933Y-111953615D01*
X150134789Y-111997334D01*
X150164937Y-112047114D01*
X150169664Y-112064043D01*
X150173720Y-112071802D01*
X150187547Y-112128095D01*
X150205534Y-112192518D01*
X150203833Y-112355006D01*
X150184487Y-112419082D01*
X150169497Y-112475026D01*
X150165281Y-112482695D01*
X150160199Y-112499527D01*
X150129008Y-112548676D01*
X150105247Y-112591898D01*
X150093408Y-112604772D01*
X150079308Y-112626991D01*
X150042506Y-112660128D01*
X150014978Y-112690064D01*
X149993157Y-112704562D01*
X149967120Y-112728006D01*
X149930545Y-112746162D01*
X149903894Y-112763869D01*
X149871065Y-112775688D01*
X149831899Y-112795130D01*
X149800338Y-112801151D01*
X149789904Y-112804907D01*
X149733041Y-112846468D01*
X149707675Y-112912174D01*
X149721858Y-112981164D01*
X149771089Y-113031533D01*
X149810539Y-113045616D01*
X149843163Y-113051369D01*
X149847040Y-113053607D01*
X149851061Y-113054407D01*
X149867815Y-113065602D01*
X149903786Y-113086369D01*
X149910026Y-113093805D01*
X149916721Y-113098279D01*
X149928222Y-113115492D01*
X149945137Y-113135651D01*
X149947444Y-113144259D01*
X149960593Y-113163939D01*
X149975999Y-113241390D01*
X149975999Y-113250828D01*
X149977715Y-113257232D01*
X149977715Y-113570290D01*
X149975999Y-113580022D01*
X149975999Y-113580610D01*
X149975085Y-113585203D01*
X149963631Y-113650163D01*
X149961393Y-113654040D01*
X149960593Y-113658061D01*
X149949398Y-113674815D01*
X149928631Y-113710786D01*
X149921194Y-113717026D01*
X149916721Y-113723721D01*
X149899511Y-113735220D01*
X149879350Y-113752137D01*
X149870740Y-113754444D01*
X149851061Y-113767593D01*
X149773610Y-113782999D01*
X149764172Y-113782999D01*
X149757768Y-113784715D01*
X149494710Y-113784715D01*
X149484978Y-113782999D01*
X149484390Y-113782999D01*
X149479797Y-113782085D01*
X149414837Y-113770631D01*
X149410960Y-113768393D01*
X149406939Y-113767593D01*
X149390185Y-113756398D01*
X149354214Y-113735631D01*
X149347974Y-113728194D01*
X149341279Y-113723721D01*
X149329780Y-113706511D01*
X149312863Y-113686350D01*
X149310556Y-113677740D01*
X149297407Y-113658061D01*
X149282001Y-113580610D01*
X149282001Y-113571172D01*
X149280285Y-113564768D01*
X149280285Y-113251710D01*
X149282001Y-113241978D01*
X149282001Y-113241390D01*
X149282915Y-113236797D01*
X149294369Y-113171837D01*
X149296607Y-113167960D01*
X149297407Y-113163939D01*
X149308602Y-113147185D01*
X149329369Y-113111214D01*
X149336806Y-113104974D01*
X149341279Y-113098279D01*
X149358489Y-113086780D01*
X149378650Y-113069863D01*
X149387260Y-113067556D01*
X149406939Y-113054407D01*
X149484390Y-113039001D01*
X149493486Y-113039001D01*
X149553358Y-113002507D01*
X149584133Y-112939154D01*
X149575772Y-112869219D01*
X149506881Y-112802204D01*
X149457093Y-112782491D01*
X149391677Y-112758163D01*
X149332752Y-112715352D01*
X149280941Y-112678532D01*
X149279037Y-112676326D01*
X149269544Y-112669429D01*
X149229802Y-112619287D01*
X149193800Y-112577579D01*
X149188501Y-112567179D01*
X149175772Y-112551119D01*
X149154338Y-112500129D01*
X149133254Y-112458749D01*
X149128596Y-112438892D01*
X149117271Y-112411950D01*
X149111428Y-112365696D01*
X149102799Y-112328909D01*
X149103104Y-112299808D01*
X149098350Y-112262176D01*
X149103892Y-112224647D01*
X149104197Y-112195552D01*
X149113592Y-112158961D01*
X149120404Y-112112831D01*
X149132291Y-112086132D01*
X149137364Y-112066375D01*
X149159315Y-112025436D01*
X149181807Y-111974918D01*
X149194866Y-111959132D01*
X149200383Y-111948843D01*
X149237253Y-111907895D01*
X149278035Y-111858598D01*
X149287671Y-111851901D01*
X149289622Y-111849734D01*
X149342200Y-111814002D01*
X149402000Y-111772440D01*
X149467935Y-111749479D01*
X149524924Y-111728285D01*
X149530723Y-111727614D01*
X149544567Y-111722793D01*
X149605537Y-111718957D01*
X149657409Y-111712955D01*
X149671881Y-111714783D01*
G37*
G36*
X160674399Y-109769959D02*
G01*
X160691269Y-109781231D01*
X160702541Y-109798101D01*
X160708948Y-109830312D01*
X160708948Y-112805688D01*
X160702541Y-112837899D01*
X160691269Y-112854769D01*
X160674399Y-112866041D01*
X160658422Y-112869219D01*
X160654500Y-112869999D01*
X160642188Y-112872448D01*
X152666812Y-112872448D01*
X152634601Y-112866041D01*
X152617731Y-112854769D01*
X152606459Y-112837899D01*
X152600052Y-112805688D01*
X152600052Y-109830312D01*
X152606459Y-109798101D01*
X152617731Y-109781231D01*
X152634601Y-109769959D01*
X152666812Y-109763552D01*
X160642188Y-109763552D01*
X160674399Y-109769959D01*
G37*
G36*
X149671881Y-109814783D02*
G01*
X149695234Y-109813314D01*
X149746492Y-109824209D01*
X149789718Y-109829670D01*
X149811474Y-109838021D01*
X149842899Y-109844701D01*
X149881654Y-109864961D01*
X149914224Y-109877464D01*
X149940493Y-109895721D01*
X149976685Y-109914642D01*
X150002227Y-109938628D01*
X150023739Y-109953579D01*
X150050635Y-109984086D01*
X150086733Y-110017985D01*
X150100365Y-110040493D01*
X150111933Y-110053615D01*
X150134789Y-110097334D01*
X150164937Y-110147114D01*
X150169664Y-110164043D01*
X150173720Y-110171802D01*
X150187547Y-110228095D01*
X150205534Y-110292518D01*
X150203833Y-110455006D01*
X150184487Y-110519082D01*
X150169497Y-110575026D01*
X150165281Y-110582695D01*
X150160199Y-110599527D01*
X150129008Y-110648676D01*
X150105247Y-110691898D01*
X150093408Y-110704772D01*
X150079308Y-110726991D01*
X150042506Y-110760128D01*
X150014978Y-110790064D01*
X149993157Y-110804562D01*
X149967120Y-110828006D01*
X149930545Y-110846162D01*
X149903894Y-110863869D01*
X149871065Y-110875688D01*
X149831899Y-110895130D01*
X149800339Y-110901150D01*
X149778416Y-110909043D01*
X149735093Y-110913597D01*
X149683608Y-110923418D01*
X149660287Y-110921460D01*
X149645784Y-110922984D01*
X149594048Y-110915897D01*
X149533173Y-110910785D01*
X149519437Y-110905677D01*
X149513650Y-110904884D01*
X149457095Y-110882492D01*
X149391677Y-110858163D01*
X149332752Y-110815352D01*
X149280941Y-110778532D01*
X149279037Y-110776326D01*
X149269544Y-110769429D01*
X149229802Y-110719287D01*
X149193800Y-110677579D01*
X149188501Y-110667179D01*
X149175772Y-110651119D01*
X149154338Y-110600129D01*
X149133254Y-110558749D01*
X149128596Y-110538892D01*
X149117271Y-110511950D01*
X149111428Y-110465696D01*
X149102799Y-110428909D01*
X149103104Y-110399808D01*
X149098350Y-110362176D01*
X149103892Y-110324647D01*
X149104197Y-110295552D01*
X149113592Y-110258961D01*
X149120404Y-110212831D01*
X149132291Y-110186132D01*
X149137364Y-110166375D01*
X149159315Y-110125436D01*
X149181807Y-110074918D01*
X149194866Y-110059132D01*
X149200383Y-110048843D01*
X149237253Y-110007895D01*
X149278035Y-109958598D01*
X149287671Y-109951901D01*
X149289622Y-109949734D01*
X149342200Y-109914002D01*
X149402000Y-109872440D01*
X149467935Y-109849479D01*
X149524924Y-109828285D01*
X149530723Y-109827614D01*
X149544567Y-109822793D01*
X149605537Y-109818957D01*
X149657409Y-109812955D01*
X149671881Y-109814783D01*
G37*
G36*
X145836022Y-109356001D02*
G01*
X145836610Y-109356001D01*
X145841203Y-109356915D01*
X145906163Y-109368369D01*
X145910040Y-109370607D01*
X145914061Y-109371407D01*
X145930815Y-109382602D01*
X145966786Y-109403369D01*
X145973026Y-109410805D01*
X145979721Y-109415279D01*
X145991222Y-109432492D01*
X146008137Y-109452651D01*
X146010444Y-109461259D01*
X146023593Y-109480939D01*
X146038999Y-109558390D01*
X146038999Y-109567828D01*
X146040715Y-109574232D01*
X146040715Y-109887290D01*
X146038999Y-109897022D01*
X146038999Y-109897610D01*
X146038085Y-109902203D01*
X146026631Y-109967163D01*
X146024393Y-109971040D01*
X146023593Y-109975061D01*
X146012398Y-109991815D01*
X145991631Y-110027786D01*
X145984194Y-110034026D01*
X145979721Y-110040721D01*
X145962511Y-110052220D01*
X145942350Y-110069137D01*
X145933740Y-110071444D01*
X145914061Y-110084593D01*
X145836610Y-110099999D01*
X145827172Y-110099999D01*
X145820768Y-110101715D01*
X145557710Y-110101715D01*
X145547978Y-110099999D01*
X145547390Y-110099999D01*
X145542797Y-110099085D01*
X145477837Y-110087631D01*
X145473960Y-110085393D01*
X145469939Y-110084593D01*
X145453185Y-110073398D01*
X145417214Y-110052631D01*
X145410974Y-110045194D01*
X145404279Y-110040721D01*
X145392780Y-110023511D01*
X145375863Y-110003350D01*
X145373556Y-109994740D01*
X145360407Y-109975061D01*
X145345001Y-109897610D01*
X145345001Y-109888172D01*
X145343285Y-109881768D01*
X145343285Y-109568710D01*
X145345001Y-109558978D01*
X145345001Y-109558390D01*
X145345915Y-109553797D01*
X145357369Y-109488837D01*
X145359607Y-109484960D01*
X145360407Y-109480939D01*
X145371602Y-109464185D01*
X145392369Y-109428214D01*
X145399805Y-109421974D01*
X145404279Y-109415279D01*
X145421492Y-109403778D01*
X145441651Y-109386863D01*
X145450259Y-109384556D01*
X145469939Y-109371407D01*
X145547390Y-109356001D01*
X145556828Y-109356001D01*
X145563232Y-109354285D01*
X145826290Y-109354285D01*
X145836022Y-109356001D01*
G37*
G36*
X146806022Y-109356001D02*
G01*
X146806610Y-109356001D01*
X146811203Y-109356915D01*
X146876163Y-109368369D01*
X146880040Y-109370607D01*
X146884061Y-109371407D01*
X146900815Y-109382602D01*
X146936786Y-109403369D01*
X146943026Y-109410805D01*
X146949721Y-109415279D01*
X146961222Y-109432492D01*
X146978137Y-109452651D01*
X146980444Y-109461259D01*
X146993593Y-109480939D01*
X147008999Y-109558390D01*
X147008999Y-109567828D01*
X147010715Y-109574232D01*
X147010715Y-109887290D01*
X147008999Y-109897022D01*
X147008999Y-109897610D01*
X147008085Y-109902203D01*
X146996631Y-109967163D01*
X146994393Y-109971040D01*
X146993593Y-109975061D01*
X146982398Y-109991815D01*
X146961631Y-110027786D01*
X146954194Y-110034026D01*
X146949721Y-110040721D01*
X146932511Y-110052220D01*
X146912350Y-110069137D01*
X146903740Y-110071444D01*
X146884061Y-110084593D01*
X146806610Y-110099999D01*
X146797172Y-110099999D01*
X146790768Y-110101715D01*
X146527710Y-110101715D01*
X146517978Y-110099999D01*
X146517390Y-110099999D01*
X146512797Y-110099085D01*
X146447837Y-110087631D01*
X146443960Y-110085393D01*
X146439939Y-110084593D01*
X146423185Y-110073398D01*
X146387214Y-110052631D01*
X146380974Y-110045194D01*
X146374279Y-110040721D01*
X146362780Y-110023511D01*
X146345863Y-110003350D01*
X146343556Y-109994740D01*
X146330407Y-109975061D01*
X146315001Y-109897610D01*
X146315001Y-109888172D01*
X146313285Y-109881768D01*
X146313285Y-109568710D01*
X146315001Y-109558978D01*
X146315001Y-109558390D01*
X146315915Y-109553797D01*
X146327369Y-109488837D01*
X146329607Y-109484960D01*
X146330407Y-109480939D01*
X146341602Y-109464185D01*
X146362369Y-109428214D01*
X146369805Y-109421974D01*
X146374279Y-109415279D01*
X146391492Y-109403778D01*
X146411651Y-109386863D01*
X146420259Y-109384556D01*
X146439939Y-109371407D01*
X146517390Y-109356001D01*
X146526828Y-109356001D01*
X146533232Y-109354285D01*
X146796290Y-109354285D01*
X146806022Y-109356001D01*
G37*
G36*
X142860231Y-109010501D02*
G01*
X142860964Y-109010501D01*
X142863829Y-109011071D01*
X142946918Y-109024231D01*
X142957760Y-109029755D01*
X142966215Y-109031437D01*
X142982768Y-109042498D01*
X143023054Y-109063024D01*
X143042316Y-109082286D01*
X143055443Y-109091057D01*
X143064214Y-109104184D01*
X143083476Y-109123446D01*
X143104002Y-109163732D01*
X143115063Y-109180285D01*
X143116745Y-109188740D01*
X143122269Y-109199582D01*
X143135429Y-109282671D01*
X143135999Y-109285536D01*
X143135999Y-109286269D01*
X143137194Y-109293814D01*
X143137194Y-109781186D01*
X143135999Y-109788731D01*
X143135999Y-109789464D01*
X143135429Y-109792329D01*
X143122269Y-109875418D01*
X143116745Y-109886260D01*
X143115063Y-109894715D01*
X143104002Y-109911268D01*
X143083476Y-109951554D01*
X143064214Y-109970816D01*
X143055443Y-109983943D01*
X143042316Y-109992714D01*
X143023054Y-110011976D01*
X142982768Y-110032502D01*
X142966215Y-110043563D01*
X142957760Y-110045245D01*
X142946918Y-110050769D01*
X142863829Y-110063929D01*
X142860964Y-110064499D01*
X142860231Y-110064499D01*
X142852686Y-110065694D01*
X142440314Y-110065694D01*
X142432769Y-110064499D01*
X142432036Y-110064499D01*
X142429171Y-110063929D01*
X142346082Y-110050769D01*
X142335240Y-110045245D01*
X142326785Y-110043563D01*
X142310232Y-110032502D01*
X142269946Y-110011976D01*
X142250684Y-109992714D01*
X142237557Y-109983943D01*
X142228786Y-109970816D01*
X142209524Y-109951554D01*
X142188998Y-109911268D01*
X142177937Y-109894715D01*
X142176255Y-109886260D01*
X142170731Y-109875418D01*
X142157571Y-109792329D01*
X142157001Y-109789464D01*
X142157001Y-109788731D01*
X142155806Y-109781186D01*
X142155806Y-109293814D01*
X142157001Y-109286269D01*
X142157001Y-109285536D01*
X142157571Y-109282671D01*
X142170731Y-109199582D01*
X142176255Y-109188740D01*
X142177937Y-109180285D01*
X142188998Y-109163732D01*
X142209524Y-109123446D01*
X142228786Y-109104184D01*
X142237557Y-109091057D01*
X142250684Y-109082286D01*
X142269946Y-109063024D01*
X142310232Y-109042498D01*
X142326785Y-109031437D01*
X142335240Y-109029755D01*
X142346082Y-109024231D01*
X142429171Y-109011071D01*
X142432036Y-109010501D01*
X142432769Y-109010501D01*
X142440314Y-109009306D01*
X142852686Y-109009306D01*
X142860231Y-109010501D01*
G37*
G36*
X141285231Y-109010501D02*
G01*
X141285964Y-109010501D01*
X141288829Y-109011071D01*
X141371918Y-109024231D01*
X141382760Y-109029755D01*
X141391215Y-109031437D01*
X141407768Y-109042498D01*
X141448054Y-109063024D01*
X141467316Y-109082286D01*
X141480443Y-109091057D01*
X141489214Y-109104184D01*
X141508476Y-109123446D01*
X141529002Y-109163732D01*
X141540063Y-109180285D01*
X141541745Y-109188740D01*
X141547269Y-109199582D01*
X141560429Y-109282671D01*
X141560999Y-109285536D01*
X141560999Y-109286269D01*
X141562194Y-109293814D01*
X141562194Y-109781186D01*
X141560999Y-109788731D01*
X141560999Y-109789464D01*
X141560429Y-109792329D01*
X141547269Y-109875418D01*
X141541745Y-109886260D01*
X141540063Y-109894715D01*
X141529002Y-109911268D01*
X141508476Y-109951554D01*
X141489214Y-109970816D01*
X141480443Y-109983943D01*
X141467316Y-109992714D01*
X141448054Y-110011976D01*
X141407768Y-110032502D01*
X141391215Y-110043563D01*
X141382760Y-110045245D01*
X141371918Y-110050769D01*
X141288829Y-110063929D01*
X141285964Y-110064499D01*
X141285231Y-110064499D01*
X141277686Y-110065694D01*
X140865314Y-110065694D01*
X140857769Y-110064499D01*
X140857036Y-110064499D01*
X140854171Y-110063929D01*
X140771082Y-110050769D01*
X140760240Y-110045245D01*
X140751785Y-110043563D01*
X140735232Y-110032502D01*
X140694946Y-110011976D01*
X140675684Y-109992714D01*
X140662557Y-109983943D01*
X140653786Y-109970816D01*
X140634524Y-109951554D01*
X140613998Y-109911268D01*
X140602937Y-109894715D01*
X140601255Y-109886260D01*
X140595731Y-109875418D01*
X140582571Y-109792329D01*
X140582001Y-109789464D01*
X140582001Y-109788731D01*
X140580806Y-109781186D01*
X140580806Y-109293814D01*
X140582001Y-109286269D01*
X140582001Y-109285536D01*
X140582571Y-109282671D01*
X140595731Y-109199582D01*
X140601255Y-109188740D01*
X140602937Y-109180285D01*
X140613998Y-109163732D01*
X140634524Y-109123446D01*
X140653786Y-109104184D01*
X140662557Y-109091057D01*
X140675684Y-109082286D01*
X140694946Y-109063024D01*
X140735232Y-109042498D01*
X140751785Y-109031437D01*
X140760240Y-109029755D01*
X140771082Y-109024231D01*
X140854171Y-109011071D01*
X140857036Y-109010501D01*
X140857769Y-109010501D01*
X140865314Y-109009306D01*
X141277686Y-109009306D01*
X141285231Y-109010501D01*
G37*
G36*
X150743022Y-108721001D02*
G01*
X150743610Y-108721001D01*
X150748203Y-108721915D01*
X150813163Y-108733369D01*
X150817040Y-108735607D01*
X150821061Y-108736407D01*
X150837815Y-108747602D01*
X150873786Y-108768369D01*
X150880026Y-108775805D01*
X150886721Y-108780279D01*
X150898222Y-108797492D01*
X150915137Y-108817651D01*
X150917444Y-108826259D01*
X150930593Y-108845939D01*
X150945999Y-108923390D01*
X150945999Y-108932828D01*
X150947715Y-108939232D01*
X150947715Y-109252290D01*
X150945999Y-109262022D01*
X150945999Y-109262610D01*
X150945085Y-109267203D01*
X150933631Y-109332163D01*
X150931393Y-109336040D01*
X150930593Y-109340061D01*
X150919398Y-109356815D01*
X150898631Y-109392786D01*
X150891194Y-109399026D01*
X150886721Y-109405721D01*
X150869511Y-109417220D01*
X150849350Y-109434137D01*
X150840740Y-109436444D01*
X150821061Y-109449593D01*
X150743610Y-109464999D01*
X150734172Y-109464999D01*
X150727768Y-109466715D01*
X150464710Y-109466715D01*
X150454978Y-109464999D01*
X150454390Y-109464999D01*
X150449797Y-109464085D01*
X150384837Y-109452631D01*
X150380960Y-109450393D01*
X150376939Y-109449593D01*
X150360185Y-109438398D01*
X150324214Y-109417631D01*
X150317974Y-109410194D01*
X150311279Y-109405721D01*
X150299780Y-109388511D01*
X150282863Y-109368350D01*
X150280556Y-109359740D01*
X150267407Y-109340061D01*
X150252001Y-109262610D01*
X150252001Y-109253172D01*
X150250285Y-109246768D01*
X150250285Y-108933710D01*
X150252001Y-108923978D01*
X150252001Y-108923390D01*
X150252915Y-108918797D01*
X150264369Y-108853837D01*
X150266607Y-108849960D01*
X150267407Y-108845939D01*
X150278602Y-108829185D01*
X150299369Y-108793214D01*
X150306805Y-108786974D01*
X150311279Y-108780279D01*
X150328492Y-108768778D01*
X150348651Y-108751863D01*
X150357259Y-108749556D01*
X150376939Y-108736407D01*
X150454390Y-108721001D01*
X150463828Y-108721001D01*
X150470232Y-108719285D01*
X150733290Y-108719285D01*
X150743022Y-108721001D01*
G37*
G36*
X149773022Y-108721001D02*
G01*
X149773610Y-108721001D01*
X149778203Y-108721915D01*
X149843163Y-108733369D01*
X149847040Y-108735607D01*
X149851061Y-108736407D01*
X149867815Y-108747602D01*
X149903786Y-108768369D01*
X149910026Y-108775805D01*
X149916721Y-108780279D01*
X149928222Y-108797492D01*
X149945137Y-108817651D01*
X149947444Y-108826259D01*
X149960593Y-108845939D01*
X149975999Y-108923390D01*
X149975999Y-108932828D01*
X149977715Y-108939232D01*
X149977715Y-109252290D01*
X149975999Y-109262022D01*
X149975999Y-109262610D01*
X149975085Y-109267203D01*
X149963631Y-109332163D01*
X149961393Y-109336040D01*
X149960593Y-109340061D01*
X149949398Y-109356815D01*
X149928631Y-109392786D01*
X149921194Y-109399026D01*
X149916721Y-109405721D01*
X149899511Y-109417220D01*
X149879350Y-109434137D01*
X149870740Y-109436444D01*
X149851061Y-109449593D01*
X149773610Y-109464999D01*
X149764172Y-109464999D01*
X149757768Y-109466715D01*
X149494710Y-109466715D01*
X149484978Y-109464999D01*
X149484390Y-109464999D01*
X149479797Y-109464085D01*
X149414837Y-109452631D01*
X149410960Y-109450393D01*
X149406939Y-109449593D01*
X149390185Y-109438398D01*
X149354214Y-109417631D01*
X149347974Y-109410194D01*
X149341279Y-109405721D01*
X149329780Y-109388511D01*
X149312863Y-109368350D01*
X149310556Y-109359740D01*
X149297407Y-109340061D01*
X149282001Y-109262610D01*
X149282001Y-109253172D01*
X149280285Y-109246768D01*
X149280285Y-108933710D01*
X149282001Y-108923978D01*
X149282001Y-108923390D01*
X149282915Y-108918797D01*
X149294369Y-108853837D01*
X149296607Y-108849960D01*
X149297407Y-108845939D01*
X149308602Y-108829185D01*
X149329369Y-108793214D01*
X149336805Y-108786974D01*
X149341279Y-108780279D01*
X149358492Y-108768778D01*
X149378651Y-108751863D01*
X149387259Y-108749556D01*
X149406939Y-108736407D01*
X149484390Y-108721001D01*
X149493828Y-108721001D01*
X149500232Y-108719285D01*
X149763290Y-108719285D01*
X149773022Y-108721001D01*
G37*
G36*
X162030980Y-106724117D02*
G01*
X162031386Y-106724117D01*
X162033637Y-106724538D01*
X162122801Y-106738660D01*
X162130691Y-106742680D01*
X162137409Y-106743936D01*
X162157176Y-106756175D01*
X162204229Y-106780150D01*
X162217776Y-106793697D01*
X162229114Y-106800717D01*
X162242432Y-106818353D01*
X162268850Y-106844771D01*
X162282267Y-106871103D01*
X162294114Y-106886791D01*
X162297418Y-106900838D01*
X162310340Y-106926199D01*
X162324686Y-107016777D01*
X162324883Y-107017614D01*
X162324883Y-107018020D01*
X162326194Y-107026297D01*
X162326194Y-107575703D01*
X162324883Y-107583980D01*
X162324883Y-107584386D01*
X162324462Y-107586637D01*
X162310340Y-107675801D01*
X162306320Y-107683691D01*
X162305064Y-107690409D01*
X162292825Y-107710176D01*
X162268850Y-107757229D01*
X162255303Y-107770776D01*
X162248283Y-107782114D01*
X162230647Y-107795432D01*
X162204229Y-107821850D01*
X162177897Y-107835267D01*
X162162209Y-107847114D01*
X162148162Y-107850418D01*
X162122801Y-107863340D01*
X162032223Y-107877686D01*
X162031386Y-107877883D01*
X162030980Y-107877883D01*
X162022703Y-107879194D01*
X161573297Y-107879194D01*
X161565020Y-107877883D01*
X161564614Y-107877883D01*
X161562363Y-107877462D01*
X161473199Y-107863340D01*
X161465309Y-107859320D01*
X161458591Y-107858064D01*
X161438824Y-107845825D01*
X161391771Y-107821850D01*
X161378224Y-107808303D01*
X161366886Y-107801283D01*
X161353568Y-107783647D01*
X161327150Y-107757229D01*
X161313733Y-107730897D01*
X161301886Y-107715209D01*
X161298582Y-107701162D01*
X161285660Y-107675801D01*
X161271314Y-107585223D01*
X161271117Y-107584386D01*
X161271117Y-107583980D01*
X161269806Y-107575703D01*
X161269806Y-107026297D01*
X161271117Y-107018020D01*
X161271117Y-107017614D01*
X161271538Y-107015363D01*
X161285660Y-106926199D01*
X161289680Y-106918309D01*
X161290936Y-106911591D01*
X161303175Y-106891824D01*
X161327150Y-106844771D01*
X161340697Y-106831224D01*
X161347717Y-106819886D01*
X161365353Y-106806568D01*
X161391771Y-106780150D01*
X161418103Y-106766733D01*
X161433791Y-106754886D01*
X161447838Y-106751582D01*
X161473199Y-106738660D01*
X161563777Y-106724314D01*
X161564614Y-106724117D01*
X161565020Y-106724117D01*
X161573297Y-106722806D01*
X162022703Y-106722806D01*
X162030980Y-106724117D01*
G37*
G36*
X160727899Y-106927959D02*
G01*
X160744769Y-106939231D01*
X160756041Y-106956101D01*
X160762448Y-106988312D01*
X160762448Y-107763688D01*
X160759999Y-107776000D01*
X160756041Y-107795899D01*
X160744769Y-107812769D01*
X160727899Y-107824041D01*
X160708000Y-107827999D01*
X160695688Y-107830448D01*
X159820312Y-107830448D01*
X159788101Y-107824041D01*
X159771231Y-107812769D01*
X159759959Y-107795899D01*
X159753552Y-107763688D01*
X159753552Y-106988312D01*
X159759959Y-106956101D01*
X159771231Y-106939231D01*
X159788101Y-106927959D01*
X159820312Y-106921552D01*
X160695688Y-106921552D01*
X160727899Y-106927959D01*
G37*
G36*
X138026899Y-106673959D02*
G01*
X138043769Y-106685231D01*
X138055041Y-106702101D01*
X138061448Y-106734312D01*
X138061448Y-107509688D01*
X138058999Y-107522000D01*
X138055041Y-107541899D01*
X138043769Y-107558769D01*
X138026899Y-107570041D01*
X138007000Y-107573999D01*
X137994688Y-107576448D01*
X137119312Y-107576448D01*
X137087101Y-107570041D01*
X137070231Y-107558769D01*
X137058959Y-107541899D01*
X137052552Y-107509688D01*
X137052552Y-106734312D01*
X137058959Y-106702101D01*
X137070231Y-106685231D01*
X137087101Y-106673959D01*
X137119312Y-106667552D01*
X137994688Y-106667552D01*
X138026899Y-106673959D01*
G37*
G36*
X136249980Y-106357117D02*
G01*
X136250386Y-106357117D01*
X136252637Y-106357538D01*
X136341801Y-106371660D01*
X136349691Y-106375680D01*
X136356409Y-106376936D01*
X136376176Y-106389175D01*
X136423229Y-106413150D01*
X136436776Y-106426697D01*
X136448114Y-106433717D01*
X136461432Y-106451353D01*
X136487850Y-106477771D01*
X136501267Y-106504103D01*
X136513114Y-106519791D01*
X136516418Y-106533838D01*
X136529340Y-106559199D01*
X136543686Y-106649777D01*
X136543883Y-106650614D01*
X136543883Y-106651020D01*
X136545194Y-106659297D01*
X136545194Y-107208703D01*
X136543883Y-107216980D01*
X136543883Y-107217386D01*
X136543462Y-107219637D01*
X136529340Y-107308801D01*
X136525320Y-107316691D01*
X136524064Y-107323409D01*
X136511825Y-107343176D01*
X136487850Y-107390229D01*
X136474303Y-107403776D01*
X136467283Y-107415114D01*
X136449647Y-107428432D01*
X136423229Y-107454850D01*
X136396897Y-107468267D01*
X136381209Y-107480114D01*
X136367162Y-107483418D01*
X136341801Y-107496340D01*
X136251223Y-107510686D01*
X136250386Y-107510883D01*
X136249980Y-107510883D01*
X136241703Y-107512194D01*
X135792297Y-107512194D01*
X135784020Y-107510883D01*
X135783614Y-107510883D01*
X135781363Y-107510462D01*
X135692199Y-107496340D01*
X135684309Y-107492320D01*
X135677591Y-107491064D01*
X135657824Y-107478825D01*
X135610771Y-107454850D01*
X135597224Y-107441303D01*
X135585886Y-107434283D01*
X135572568Y-107416647D01*
X135546150Y-107390229D01*
X135532733Y-107363897D01*
X135520886Y-107348209D01*
X135517582Y-107334162D01*
X135504660Y-107308801D01*
X135490314Y-107218223D01*
X135490117Y-107217386D01*
X135490117Y-107216980D01*
X135488806Y-107208703D01*
X135488806Y-106659297D01*
X135490117Y-106651020D01*
X135490117Y-106650614D01*
X135490538Y-106648363D01*
X135504660Y-106559199D01*
X135508680Y-106551309D01*
X135509936Y-106544591D01*
X135522175Y-106524824D01*
X135546150Y-106477771D01*
X135559697Y-106464224D01*
X135566717Y-106452886D01*
X135584353Y-106439568D01*
X135610771Y-106413150D01*
X135637103Y-106399733D01*
X135652791Y-106387886D01*
X135666838Y-106384582D01*
X135692199Y-106371660D01*
X135782777Y-106357314D01*
X135783614Y-106357117D01*
X135784020Y-106357117D01*
X135792297Y-106355806D01*
X136241703Y-106355806D01*
X136249980Y-106357117D01*
G37*
G36*
X145036976Y-105801826D02*
G01*
X145078766Y-105799782D01*
X145123056Y-105806639D01*
X145173810Y-105809476D01*
X145214163Y-105820743D01*
X145249621Y-105826232D01*
X145297204Y-105843928D01*
X145351898Y-105859199D01*
X145383622Y-105876067D01*
X145411659Y-105886494D01*
X145459757Y-105916549D01*
X145515153Y-105946004D01*
X145537968Y-105965421D01*
X145558271Y-105978108D01*
X145603641Y-106021313D01*
X145655961Y-106065841D01*
X145670463Y-106084947D01*
X145683472Y-106097335D01*
X145722616Y-106153655D01*
X145767751Y-106213118D01*
X145775302Y-106229459D01*
X145782142Y-106239301D01*
X145811508Y-106307817D01*
X145845307Y-106380965D01*
X145847885Y-106392692D01*
X145850247Y-106398202D01*
X145866429Y-106477036D01*
X145885011Y-106561551D01*
X145884345Y-106752388D01*
X145865181Y-106836738D01*
X145848443Y-106915485D01*
X145846041Y-106920982D01*
X145843381Y-106932692D01*
X145809069Y-107005609D01*
X145779227Y-107073915D01*
X145772318Y-107083709D01*
X145764655Y-107099994D01*
X145719114Y-107159130D01*
X145679570Y-107215187D01*
X145666472Y-107227487D01*
X145651840Y-107246487D01*
X145599227Y-107290635D01*
X145553544Y-107333534D01*
X145533147Y-107346082D01*
X145510199Y-107365338D01*
X145454600Y-107394405D01*
X145406293Y-107424123D01*
X145378184Y-107434354D01*
X145346341Y-107451001D01*
X145291534Y-107465892D01*
X145243831Y-107483254D01*
X145208340Y-107488495D01*
X145167911Y-107499479D01*
X145117139Y-107501962D01*
X145072803Y-107508509D01*
X145031027Y-107506174D01*
X144983233Y-107508511D01*
X144938992Y-107501028D01*
X144900189Y-107498859D01*
X144853980Y-107486650D01*
X144800923Y-107477676D01*
X144764839Y-107463097D01*
X144733035Y-107454694D01*
X144684897Y-107430799D01*
X144629488Y-107408412D01*
X144602311Y-107389804D01*
X144578182Y-107377826D01*
X144531128Y-107341063D01*
X144476926Y-107303950D01*
X144458469Y-107284295D01*
X144441950Y-107271389D01*
X144399400Y-107221393D01*
X144350354Y-107169164D01*
X144339608Y-107151138D01*
X144329896Y-107139726D01*
X144295401Y-107076981D01*
X144255678Y-107010344D01*
X144250943Y-106996111D01*
X144246610Y-106988229D01*
X144223692Y-106914192D01*
X144197314Y-106834898D01*
X144196372Y-106825934D01*
X144195486Y-106823072D01*
X144187347Y-106740068D01*
X144177987Y-106651012D01*
X144187967Y-106562044D01*
X144196687Y-106479078D01*
X144197593Y-106476220D01*
X144198598Y-106467265D01*
X144225530Y-106388153D01*
X144248963Y-106314281D01*
X144253350Y-106306432D01*
X144258184Y-106292231D01*
X144298382Y-106225857D01*
X144333304Y-106163371D01*
X144343092Y-106152031D01*
X144353967Y-106134075D01*
X144403385Y-106082181D01*
X144446273Y-106032495D01*
X144462879Y-106019707D01*
X144481477Y-106000177D01*
X144535952Y-105963433D01*
X144583250Y-105927009D01*
X144607458Y-105915202D01*
X144634765Y-105896783D01*
X144690319Y-105874787D01*
X144738633Y-105851223D01*
X144770503Y-105843040D01*
X144806679Y-105828717D01*
X144859795Y-105820114D01*
X144906088Y-105808228D01*
X144944903Y-105806330D01*
X144989199Y-105799155D01*
X145036976Y-105801826D01*
G37*
G36*
X155196976Y-105801826D02*
G01*
X155238766Y-105799782D01*
X155283056Y-105806639D01*
X155333810Y-105809476D01*
X155374163Y-105820743D01*
X155409621Y-105826232D01*
X155457204Y-105843928D01*
X155511898Y-105859199D01*
X155543622Y-105876067D01*
X155571659Y-105886494D01*
X155619757Y-105916549D01*
X155675153Y-105946004D01*
X155697968Y-105965421D01*
X155718271Y-105978108D01*
X155763641Y-106021313D01*
X155815961Y-106065841D01*
X155830463Y-106084947D01*
X155843472Y-106097335D01*
X155882616Y-106153655D01*
X155927751Y-106213118D01*
X155935302Y-106229459D01*
X155942142Y-106239301D01*
X155971508Y-106307817D01*
X156005307Y-106380965D01*
X156007885Y-106392692D01*
X156010247Y-106398202D01*
X156026429Y-106477036D01*
X156045011Y-106561551D01*
X156044345Y-106752388D01*
X156025181Y-106836738D01*
X156008443Y-106915485D01*
X156006041Y-106920982D01*
X156003381Y-106932692D01*
X155969069Y-107005609D01*
X155939227Y-107073915D01*
X155932318Y-107083709D01*
X155924655Y-107099994D01*
X155879114Y-107159130D01*
X155839570Y-107215187D01*
X155826472Y-107227487D01*
X155811840Y-107246487D01*
X155759227Y-107290635D01*
X155713544Y-107333534D01*
X155693147Y-107346082D01*
X155670199Y-107365338D01*
X155614600Y-107394405D01*
X155566293Y-107424123D01*
X155538184Y-107434354D01*
X155506341Y-107451001D01*
X155451534Y-107465892D01*
X155403831Y-107483254D01*
X155368340Y-107488495D01*
X155327911Y-107499479D01*
X155277139Y-107501962D01*
X155232803Y-107508509D01*
X155191027Y-107506174D01*
X155143233Y-107508511D01*
X155098992Y-107501028D01*
X155060189Y-107498859D01*
X155013980Y-107486650D01*
X154960923Y-107477676D01*
X154924839Y-107463097D01*
X154893035Y-107454694D01*
X154844897Y-107430799D01*
X154789488Y-107408412D01*
X154762311Y-107389804D01*
X154738182Y-107377826D01*
X154691128Y-107341063D01*
X154636926Y-107303950D01*
X154618469Y-107284295D01*
X154601950Y-107271389D01*
X154559400Y-107221393D01*
X154510354Y-107169164D01*
X154499608Y-107151138D01*
X154489896Y-107139726D01*
X154455401Y-107076981D01*
X154415678Y-107010344D01*
X154410943Y-106996111D01*
X154406610Y-106988229D01*
X154383692Y-106914192D01*
X154357314Y-106834898D01*
X154356372Y-106825934D01*
X154355486Y-106823072D01*
X154347347Y-106740068D01*
X154337987Y-106651012D01*
X154347967Y-106562044D01*
X154356687Y-106479078D01*
X154357593Y-106476220D01*
X154358598Y-106467265D01*
X154385530Y-106388153D01*
X154408963Y-106314281D01*
X154413350Y-106306432D01*
X154418184Y-106292231D01*
X154458382Y-106225857D01*
X154493304Y-106163371D01*
X154503092Y-106152031D01*
X154513967Y-106134075D01*
X154563385Y-106082181D01*
X154606273Y-106032495D01*
X154622879Y-106019707D01*
X154641477Y-106000177D01*
X154695952Y-105963433D01*
X154743250Y-105927009D01*
X154767458Y-105915202D01*
X154794765Y-105896783D01*
X154850319Y-105874787D01*
X154898633Y-105851223D01*
X154930503Y-105843040D01*
X154966679Y-105828717D01*
X155019795Y-105820114D01*
X155066088Y-105808228D01*
X155104903Y-105806330D01*
X155149199Y-105799155D01*
X155196976Y-105801826D01*
G37*
G36*
X147576976Y-105801826D02*
G01*
X147618766Y-105799782D01*
X147663056Y-105806639D01*
X147713810Y-105809476D01*
X147754163Y-105820743D01*
X147789621Y-105826232D01*
X147837204Y-105843928D01*
X147891898Y-105859199D01*
X147923622Y-105876067D01*
X147951659Y-105886494D01*
X147999757Y-105916549D01*
X148055153Y-105946004D01*
X148077968Y-105965421D01*
X148098271Y-105978108D01*
X148143641Y-106021313D01*
X148195961Y-106065841D01*
X148210463Y-106084947D01*
X148223472Y-106097335D01*
X148262616Y-106153655D01*
X148307751Y-106213118D01*
X148315302Y-106229459D01*
X148322142Y-106239301D01*
X148351508Y-106307817D01*
X148385307Y-106380965D01*
X148387885Y-106392692D01*
X148390247Y-106398202D01*
X148406429Y-106477036D01*
X148425011Y-106561551D01*
X148424345Y-106752388D01*
X148405181Y-106836738D01*
X148388443Y-106915485D01*
X148386041Y-106920982D01*
X148383381Y-106932692D01*
X148349069Y-107005609D01*
X148319227Y-107073915D01*
X148312318Y-107083709D01*
X148304655Y-107099994D01*
X148259114Y-107159130D01*
X148219570Y-107215187D01*
X148206472Y-107227487D01*
X148191840Y-107246487D01*
X148139227Y-107290635D01*
X148093544Y-107333534D01*
X148073147Y-107346082D01*
X148050199Y-107365338D01*
X147994600Y-107394405D01*
X147946293Y-107424123D01*
X147918184Y-107434354D01*
X147886341Y-107451001D01*
X147831534Y-107465892D01*
X147783831Y-107483254D01*
X147748340Y-107488495D01*
X147707911Y-107499479D01*
X147657139Y-107501962D01*
X147612803Y-107508509D01*
X147571027Y-107506174D01*
X147523233Y-107508511D01*
X147478992Y-107501028D01*
X147440189Y-107498859D01*
X147393980Y-107486650D01*
X147340923Y-107477676D01*
X147304839Y-107463097D01*
X147273035Y-107454694D01*
X147224897Y-107430799D01*
X147169488Y-107408412D01*
X147142311Y-107389804D01*
X147118182Y-107377826D01*
X147071128Y-107341063D01*
X147016926Y-107303950D01*
X146998469Y-107284295D01*
X146981950Y-107271389D01*
X146939400Y-107221393D01*
X146890354Y-107169164D01*
X146879608Y-107151138D01*
X146869896Y-107139726D01*
X146835401Y-107076981D01*
X146795678Y-107010344D01*
X146790943Y-106996111D01*
X146786610Y-106988229D01*
X146763692Y-106914192D01*
X146737314Y-106834898D01*
X146736372Y-106825934D01*
X146735486Y-106823072D01*
X146727347Y-106740068D01*
X146717987Y-106651012D01*
X146727967Y-106562044D01*
X146736687Y-106479078D01*
X146737593Y-106476220D01*
X146738598Y-106467265D01*
X146765530Y-106388153D01*
X146788963Y-106314281D01*
X146793350Y-106306432D01*
X146798184Y-106292231D01*
X146838382Y-106225857D01*
X146873304Y-106163371D01*
X146883092Y-106152031D01*
X146893967Y-106134075D01*
X146943385Y-106082181D01*
X146986273Y-106032495D01*
X147002879Y-106019707D01*
X147021477Y-106000177D01*
X147075952Y-105963433D01*
X147123250Y-105927009D01*
X147147458Y-105915202D01*
X147174765Y-105896783D01*
X147230319Y-105874787D01*
X147278633Y-105851223D01*
X147310503Y-105843040D01*
X147346679Y-105828717D01*
X147399795Y-105820114D01*
X147446088Y-105808228D01*
X147484903Y-105806330D01*
X147529199Y-105799155D01*
X147576976Y-105801826D01*
G37*
G36*
X152656976Y-105801826D02*
G01*
X152698766Y-105799782D01*
X152743056Y-105806639D01*
X152793810Y-105809476D01*
X152834163Y-105820743D01*
X152869621Y-105826232D01*
X152917204Y-105843928D01*
X152971898Y-105859199D01*
X153003622Y-105876067D01*
X153031659Y-105886494D01*
X153079757Y-105916549D01*
X153135153Y-105946004D01*
X153157968Y-105965421D01*
X153178271Y-105978108D01*
X153223641Y-106021313D01*
X153275961Y-106065841D01*
X153290463Y-106084947D01*
X153303472Y-106097335D01*
X153342616Y-106153655D01*
X153387751Y-106213118D01*
X153395302Y-106229459D01*
X153402142Y-106239301D01*
X153431508Y-106307817D01*
X153465307Y-106380965D01*
X153467885Y-106392692D01*
X153470247Y-106398202D01*
X153486429Y-106477036D01*
X153505011Y-106561551D01*
X153504345Y-106752388D01*
X153485181Y-106836738D01*
X153468443Y-106915485D01*
X153466041Y-106920982D01*
X153463381Y-106932692D01*
X153429069Y-107005609D01*
X153399227Y-107073915D01*
X153392318Y-107083709D01*
X153384655Y-107099994D01*
X153339114Y-107159130D01*
X153299570Y-107215187D01*
X153286472Y-107227487D01*
X153271840Y-107246487D01*
X153219227Y-107290635D01*
X153173544Y-107333534D01*
X153153147Y-107346082D01*
X153130199Y-107365338D01*
X153074600Y-107394405D01*
X153026293Y-107424123D01*
X152998184Y-107434354D01*
X152966341Y-107451001D01*
X152911534Y-107465892D01*
X152863831Y-107483254D01*
X152828340Y-107488495D01*
X152787911Y-107499479D01*
X152737139Y-107501962D01*
X152692803Y-107508509D01*
X152651027Y-107506174D01*
X152603233Y-107508511D01*
X152558992Y-107501028D01*
X152520189Y-107498859D01*
X152473980Y-107486650D01*
X152420923Y-107477676D01*
X152384839Y-107463097D01*
X152353035Y-107454694D01*
X152304897Y-107430799D01*
X152249488Y-107408412D01*
X152222311Y-107389804D01*
X152198182Y-107377826D01*
X152151128Y-107341063D01*
X152096926Y-107303950D01*
X152078469Y-107284295D01*
X152061950Y-107271389D01*
X152019400Y-107221393D01*
X151970354Y-107169164D01*
X151959608Y-107151138D01*
X151949896Y-107139726D01*
X151915401Y-107076981D01*
X151875678Y-107010344D01*
X151870943Y-106996111D01*
X151866610Y-106988229D01*
X151843692Y-106914192D01*
X151817314Y-106834898D01*
X151816372Y-106825934D01*
X151815486Y-106823072D01*
X151807347Y-106740068D01*
X151797987Y-106651012D01*
X151807967Y-106562044D01*
X151816687Y-106479078D01*
X151817593Y-106476220D01*
X151818598Y-106467265D01*
X151845530Y-106388153D01*
X151868963Y-106314281D01*
X151873350Y-106306432D01*
X151878184Y-106292231D01*
X151918382Y-106225857D01*
X151953304Y-106163371D01*
X151963092Y-106152031D01*
X151973967Y-106134075D01*
X152023385Y-106082181D01*
X152066273Y-106032495D01*
X152082879Y-106019707D01*
X152101477Y-106000177D01*
X152155952Y-105963433D01*
X152203250Y-105927009D01*
X152227458Y-105915202D01*
X152254765Y-105896783D01*
X152310319Y-105874787D01*
X152358633Y-105851223D01*
X152390503Y-105843040D01*
X152426679Y-105828717D01*
X152479795Y-105820114D01*
X152526088Y-105808228D01*
X152564903Y-105806330D01*
X152609199Y-105799155D01*
X152656976Y-105801826D01*
G37*
G36*
X150116976Y-105801826D02*
G01*
X150158766Y-105799782D01*
X150203056Y-105806639D01*
X150253810Y-105809476D01*
X150294163Y-105820743D01*
X150329621Y-105826232D01*
X150377204Y-105843928D01*
X150431898Y-105859199D01*
X150463622Y-105876067D01*
X150491659Y-105886494D01*
X150539757Y-105916549D01*
X150595153Y-105946004D01*
X150617968Y-105965421D01*
X150638271Y-105978108D01*
X150683641Y-106021313D01*
X150735961Y-106065841D01*
X150750463Y-106084947D01*
X150763472Y-106097335D01*
X150802616Y-106153655D01*
X150847751Y-106213118D01*
X150855302Y-106229459D01*
X150862142Y-106239301D01*
X150891508Y-106307817D01*
X150925307Y-106380965D01*
X150927885Y-106392692D01*
X150930247Y-106398202D01*
X150946429Y-106477036D01*
X150965011Y-106561551D01*
X150964345Y-106752388D01*
X150945181Y-106836738D01*
X150928443Y-106915485D01*
X150926041Y-106920982D01*
X150923381Y-106932692D01*
X150889069Y-107005609D01*
X150859227Y-107073915D01*
X150852318Y-107083709D01*
X150844655Y-107099994D01*
X150799114Y-107159130D01*
X150759570Y-107215187D01*
X150746472Y-107227487D01*
X150731840Y-107246487D01*
X150679227Y-107290635D01*
X150633544Y-107333534D01*
X150613147Y-107346082D01*
X150590199Y-107365338D01*
X150534600Y-107394405D01*
X150486293Y-107424123D01*
X150458184Y-107434354D01*
X150426341Y-107451001D01*
X150371534Y-107465892D01*
X150323831Y-107483254D01*
X150288340Y-107488495D01*
X150247911Y-107499479D01*
X150197139Y-107501962D01*
X150152803Y-107508509D01*
X150111027Y-107506174D01*
X150063233Y-107508511D01*
X150018992Y-107501028D01*
X149980189Y-107498859D01*
X149933980Y-107486650D01*
X149880923Y-107477676D01*
X149844839Y-107463097D01*
X149813035Y-107454694D01*
X149764897Y-107430799D01*
X149709488Y-107408412D01*
X149682311Y-107389804D01*
X149658182Y-107377826D01*
X149611128Y-107341063D01*
X149556926Y-107303950D01*
X149538469Y-107284295D01*
X149521950Y-107271389D01*
X149479400Y-107221393D01*
X149430354Y-107169164D01*
X149419608Y-107151138D01*
X149409896Y-107139726D01*
X149375401Y-107076981D01*
X149335678Y-107010344D01*
X149330943Y-106996111D01*
X149326610Y-106988229D01*
X149303692Y-106914192D01*
X149277314Y-106834898D01*
X149276372Y-106825934D01*
X149275486Y-106823072D01*
X149267347Y-106740068D01*
X149257987Y-106651012D01*
X149267967Y-106562044D01*
X149276687Y-106479078D01*
X149277593Y-106476220D01*
X149278598Y-106467265D01*
X149305530Y-106388153D01*
X149328963Y-106314281D01*
X149333350Y-106306432D01*
X149338184Y-106292231D01*
X149378382Y-106225857D01*
X149413304Y-106163371D01*
X149423092Y-106152031D01*
X149433967Y-106134075D01*
X149483385Y-106082181D01*
X149526273Y-106032495D01*
X149542879Y-106019707D01*
X149561477Y-106000177D01*
X149615952Y-105963433D01*
X149663250Y-105927009D01*
X149687458Y-105915202D01*
X149714765Y-105896783D01*
X149770319Y-105874787D01*
X149818633Y-105851223D01*
X149850503Y-105843040D01*
X149886679Y-105828717D01*
X149939795Y-105820114D01*
X149986088Y-105808228D01*
X150024903Y-105806330D01*
X150069199Y-105799155D01*
X150116976Y-105801826D01*
G37*
G36*
X143313899Y-105805959D02*
G01*
X143330769Y-105817231D01*
X143342041Y-105834101D01*
X143348448Y-105866312D01*
X143348448Y-107441688D01*
X143345999Y-107454000D01*
X143342041Y-107473899D01*
X143330769Y-107490769D01*
X143313899Y-107502041D01*
X143294000Y-107505999D01*
X143281688Y-107508448D01*
X141706312Y-107508448D01*
X141674101Y-107502041D01*
X141657231Y-107490769D01*
X141645959Y-107473899D01*
X141639552Y-107441688D01*
X141639552Y-105866312D01*
X141645959Y-105834101D01*
X141657231Y-105817231D01*
X141674101Y-105805959D01*
X141706312Y-105799552D01*
X143281688Y-105799552D01*
X143313899Y-105805959D01*
G37*
G36*
X134662307Y-101199001D02*
G01*
X134683512Y-101199001D01*
X134723630Y-101212036D01*
X134757117Y-101219154D01*
X134776131Y-101229094D01*
X134804319Y-101238253D01*
X134831693Y-101258141D01*
X134854480Y-101270054D01*
X134876328Y-101290570D01*
X134907084Y-101312916D01*
X134922030Y-101333487D01*
X134934572Y-101345265D01*
X134954530Y-101378220D01*
X134981747Y-101415681D01*
X134986991Y-101431820D01*
X134991487Y-101439244D01*
X135004218Y-101484841D01*
X135020999Y-101536488D01*
X135020999Y-101663512D01*
X135003157Y-101718425D01*
X134988038Y-101768502D01*
X134985678Y-101772221D01*
X134981747Y-101784319D01*
X134952135Y-101825076D01*
X134929168Y-101861267D01*
X134919548Y-101869929D01*
X134907084Y-101887084D01*
X134872962Y-101911875D01*
X134847519Y-101934784D01*
X134828298Y-101944325D01*
X134804319Y-101961747D01*
X134772137Y-101972203D01*
X134749108Y-101983635D01*
X134719672Y-101989250D01*
X134683512Y-102000999D01*
X134658081Y-102000999D01*
X134641185Y-102004222D01*
X134602801Y-102000999D01*
X134556488Y-102000999D01*
X134540349Y-101995755D01*
X134531701Y-101995029D01*
X134487345Y-101978533D01*
X134435681Y-101961747D01*
X134428838Y-101956775D01*
X134412849Y-101950829D01*
X134342591Y-101945872D01*
X134280806Y-101979686D01*
X134247110Y-102041536D01*
X134252454Y-102100922D01*
X134252243Y-102100950D01*
X134252917Y-102106069D01*
X134253795Y-102115827D01*
X134254391Y-102117266D01*
X134255081Y-102122507D01*
X134260110Y-102135506D01*
X134263970Y-102190027D01*
X134269891Y-102235000D01*
X134268111Y-102248517D01*
X134269688Y-102270785D01*
X134259253Y-102315804D01*
X134254391Y-102352734D01*
X134252841Y-102356476D01*
X134245311Y-102426505D01*
X134276836Y-102489489D01*
X134337408Y-102525430D01*
X134407796Y-102522917D01*
X134431876Y-102510857D01*
X134432300Y-102510709D01*
X134435681Y-102508253D01*
X134490543Y-102490427D01*
X134539992Y-102473208D01*
X134544392Y-102472931D01*
X134556488Y-102469001D01*
X134606856Y-102469001D01*
X134649642Y-102466309D01*
X134662307Y-102469001D01*
X134683512Y-102469001D01*
X134723630Y-102482036D01*
X134757117Y-102489154D01*
X134776131Y-102499094D01*
X134804319Y-102508253D01*
X134831693Y-102528141D01*
X134854480Y-102540054D01*
X134876328Y-102560570D01*
X134907084Y-102582916D01*
X134922030Y-102603487D01*
X134934572Y-102615265D01*
X134954530Y-102648220D01*
X134981747Y-102685681D01*
X134986991Y-102701820D01*
X134991487Y-102709244D01*
X135004218Y-102754841D01*
X135020999Y-102806488D01*
X135020999Y-102933512D01*
X135003157Y-102988425D01*
X134988038Y-103038502D01*
X134985678Y-103042221D01*
X134981747Y-103054319D01*
X134952135Y-103095076D01*
X134929168Y-103131267D01*
X134919548Y-103139929D01*
X134907084Y-103157084D01*
X134872962Y-103181875D01*
X134847519Y-103204784D01*
X134828298Y-103214325D01*
X134804319Y-103231747D01*
X134772137Y-103242203D01*
X134749108Y-103253635D01*
X134719672Y-103259250D01*
X134683512Y-103270999D01*
X134658081Y-103270999D01*
X134641185Y-103274222D01*
X134602801Y-103270999D01*
X134556488Y-103270999D01*
X134540349Y-103265755D01*
X134531701Y-103265029D01*
X134487345Y-103248533D01*
X134435681Y-103231747D01*
X134428838Y-103226775D01*
X134412849Y-103220829D01*
X134342591Y-103215872D01*
X134280806Y-103249686D01*
X134247110Y-103311536D01*
X134252454Y-103370922D01*
X134252243Y-103370950D01*
X134252917Y-103376069D01*
X134253795Y-103385827D01*
X134254391Y-103387266D01*
X134255081Y-103392507D01*
X134260110Y-103405506D01*
X134263970Y-103460027D01*
X134269891Y-103505000D01*
X134268111Y-103518517D01*
X134269688Y-103540785D01*
X134259253Y-103585804D01*
X134254391Y-103622734D01*
X134252841Y-103626476D01*
X134245311Y-103696505D01*
X134276836Y-103759489D01*
X134337408Y-103795430D01*
X134407796Y-103792917D01*
X134431876Y-103780857D01*
X134432300Y-103780709D01*
X134435681Y-103778253D01*
X134490543Y-103760427D01*
X134539992Y-103743208D01*
X134544392Y-103742931D01*
X134556488Y-103739001D01*
X134606856Y-103739001D01*
X134649642Y-103736309D01*
X134662307Y-103739001D01*
X134683512Y-103739001D01*
X134723630Y-103752036D01*
X134757117Y-103759154D01*
X134776131Y-103769094D01*
X134804319Y-103778253D01*
X134831693Y-103798141D01*
X134854480Y-103810054D01*
X134876328Y-103830570D01*
X134907084Y-103852916D01*
X134922030Y-103873487D01*
X134934572Y-103885265D01*
X134954530Y-103918220D01*
X134981747Y-103955681D01*
X134986991Y-103971820D01*
X134991487Y-103979244D01*
X135004218Y-104024841D01*
X135020999Y-104076488D01*
X135020999Y-104203512D01*
X135003157Y-104258425D01*
X134988038Y-104308502D01*
X134985678Y-104312221D01*
X134981747Y-104324319D01*
X134952135Y-104365076D01*
X134929168Y-104401267D01*
X134919548Y-104409929D01*
X134907084Y-104427084D01*
X134872962Y-104451875D01*
X134847519Y-104474784D01*
X134828298Y-104484325D01*
X134804319Y-104501747D01*
X134772137Y-104512203D01*
X134749108Y-104523635D01*
X134719672Y-104529250D01*
X134683512Y-104540999D01*
X134658081Y-104540999D01*
X134641185Y-104544222D01*
X134602801Y-104540999D01*
X134556488Y-104540999D01*
X134540349Y-104535755D01*
X134531701Y-104535029D01*
X134487345Y-104518533D01*
X134435681Y-104501747D01*
X134428838Y-104496775D01*
X134412849Y-104490829D01*
X134342591Y-104485872D01*
X134280806Y-104519686D01*
X134247110Y-104581536D01*
X134252454Y-104640922D01*
X134252243Y-104640950D01*
X134252917Y-104646069D01*
X134253795Y-104655827D01*
X134254391Y-104657266D01*
X134255081Y-104662507D01*
X134260110Y-104675506D01*
X134263970Y-104730027D01*
X134269891Y-104775000D01*
X134268111Y-104788517D01*
X134269688Y-104810785D01*
X134259253Y-104855804D01*
X134254391Y-104892734D01*
X134252841Y-104896476D01*
X134245311Y-104966505D01*
X134276836Y-105029489D01*
X134337408Y-105065430D01*
X134407796Y-105062917D01*
X134431876Y-105050857D01*
X134432300Y-105050709D01*
X134435681Y-105048253D01*
X134490543Y-105030427D01*
X134539992Y-105013208D01*
X134544392Y-105012931D01*
X134556488Y-105009001D01*
X134606856Y-105009001D01*
X134649642Y-105006309D01*
X134662307Y-105009001D01*
X134683512Y-105009001D01*
X134723630Y-105022036D01*
X134757117Y-105029154D01*
X134776131Y-105039094D01*
X134804319Y-105048253D01*
X134831693Y-105068141D01*
X134854480Y-105080054D01*
X134876328Y-105100570D01*
X134907084Y-105122916D01*
X134922030Y-105143487D01*
X134934572Y-105155265D01*
X134954530Y-105188220D01*
X134981747Y-105225681D01*
X134986991Y-105241820D01*
X134991487Y-105249244D01*
X135004218Y-105294841D01*
X135020999Y-105346488D01*
X135020999Y-105473512D01*
X135003157Y-105528425D01*
X134988038Y-105578502D01*
X134985678Y-105582221D01*
X134981747Y-105594319D01*
X134952135Y-105635076D01*
X134929168Y-105671267D01*
X134919548Y-105679929D01*
X134907084Y-105697084D01*
X134872962Y-105721875D01*
X134847519Y-105744784D01*
X134828298Y-105754325D01*
X134804319Y-105771747D01*
X134772137Y-105782203D01*
X134749108Y-105793635D01*
X134719672Y-105799250D01*
X134683512Y-105810999D01*
X134658081Y-105810999D01*
X134641185Y-105814222D01*
X134602801Y-105810999D01*
X134556488Y-105810999D01*
X134540349Y-105805755D01*
X134531701Y-105805029D01*
X134487345Y-105788533D01*
X134435681Y-105771747D01*
X134428838Y-105766775D01*
X134412849Y-105760829D01*
X134342591Y-105755872D01*
X134280806Y-105789686D01*
X134247110Y-105851536D01*
X134252454Y-105910922D01*
X134252243Y-105910950D01*
X134252917Y-105916069D01*
X134253795Y-105925827D01*
X134254391Y-105927266D01*
X134255081Y-105932507D01*
X134260110Y-105945506D01*
X134263970Y-106000027D01*
X134269891Y-106045000D01*
X134268111Y-106058517D01*
X134269688Y-106080785D01*
X134259253Y-106125804D01*
X134254391Y-106162734D01*
X134252841Y-106166476D01*
X134245311Y-106236505D01*
X134276836Y-106299489D01*
X134337408Y-106335430D01*
X134407796Y-106332917D01*
X134431876Y-106320857D01*
X134432300Y-106320709D01*
X134435681Y-106318253D01*
X134490543Y-106300427D01*
X134539992Y-106283208D01*
X134544392Y-106282931D01*
X134556488Y-106279001D01*
X134606856Y-106279001D01*
X134649642Y-106276309D01*
X134662307Y-106279001D01*
X134683512Y-106279001D01*
X134723630Y-106292036D01*
X134757117Y-106299154D01*
X134776131Y-106309094D01*
X134804319Y-106318253D01*
X134831693Y-106338141D01*
X134854480Y-106350054D01*
X134876328Y-106370570D01*
X134907084Y-106392916D01*
X134922030Y-106413487D01*
X134934572Y-106425265D01*
X134954530Y-106458220D01*
X134981747Y-106495681D01*
X134986991Y-106511820D01*
X134991487Y-106519244D01*
X135004218Y-106564841D01*
X135020999Y-106616488D01*
X135020999Y-106743512D01*
X135003157Y-106798425D01*
X134988038Y-106848502D01*
X134985678Y-106852221D01*
X134981747Y-106864319D01*
X134952135Y-106905076D01*
X134929168Y-106941267D01*
X134919548Y-106949929D01*
X134907084Y-106967084D01*
X134872962Y-106991875D01*
X134847519Y-107014784D01*
X134828298Y-107024325D01*
X134804319Y-107041747D01*
X134772137Y-107052203D01*
X134749108Y-107063635D01*
X134719672Y-107069250D01*
X134683512Y-107080999D01*
X134658081Y-107080999D01*
X134641185Y-107084222D01*
X134602800Y-107080999D01*
X134556488Y-107080999D01*
X134540350Y-107075755D01*
X134531698Y-107075029D01*
X134487326Y-107058527D01*
X134435681Y-107041747D01*
X134428839Y-107036776D01*
X134428723Y-107036733D01*
X134339837Y-106972153D01*
X134339761Y-106972057D01*
X134332916Y-106967084D01*
X134300980Y-106923128D01*
X134271590Y-106886047D01*
X134268227Y-106878048D01*
X134258253Y-106864319D01*
X134243943Y-106820278D01*
X134229014Y-106784762D01*
X134226858Y-106767692D01*
X134219001Y-106743512D01*
X134219001Y-106705502D01*
X134215244Y-106675762D01*
X134219001Y-106650320D01*
X134219001Y-106616488D01*
X134228159Y-106588302D01*
X134231682Y-106564445D01*
X134221924Y-106494692D01*
X134176003Y-106441287D01*
X134108500Y-106421187D01*
X134059717Y-106437643D01*
X134057649Y-106432650D01*
X133999467Y-106456750D01*
X133949110Y-106480931D01*
X133936519Y-106482824D01*
X133932736Y-106484391D01*
X133879348Y-106491419D01*
X133848882Y-106496000D01*
X133085445Y-106496000D01*
X132997264Y-106484391D01*
X132939232Y-106460353D01*
X132914346Y-106454585D01*
X132897953Y-106443255D01*
X132887555Y-106438948D01*
X132849755Y-106409943D01*
X132802782Y-106377478D01*
X132795642Y-106368421D01*
X132793343Y-106366657D01*
X132760183Y-106323442D01*
X132718822Y-106270976D01*
X132695881Y-106211677D01*
X132675609Y-106162736D01*
X132674919Y-106157492D01*
X132669890Y-106144494D01*
X132666030Y-106089975D01*
X132660109Y-106045000D01*
X132661889Y-106031483D01*
X132660312Y-106009215D01*
X132670747Y-105964198D01*
X132675609Y-105927264D01*
X132684007Y-105906989D01*
X132690935Y-105877101D01*
X132709940Y-105844381D01*
X132721052Y-105817554D01*
X132739445Y-105793584D01*
X132759050Y-105759831D01*
X132780704Y-105739814D01*
X132793343Y-105723343D01*
X132823827Y-105699952D01*
X132858637Y-105667774D01*
X132877679Y-105658630D01*
X132887555Y-105651052D01*
X132930535Y-105633249D01*
X132980890Y-105609069D01*
X132993481Y-105607176D01*
X132997264Y-105605609D01*
X133050652Y-105598581D01*
X133081118Y-105594000D01*
X133844555Y-105594000D01*
X133932736Y-105605609D01*
X133990768Y-105629647D01*
X134015654Y-105635415D01*
X134032048Y-105646746D01*
X134057649Y-105657350D01*
X134059429Y-105653054D01*
X134096164Y-105667250D01*
X134165158Y-105653090D01*
X134215545Y-105603877D01*
X134230562Y-105527017D01*
X134226857Y-105497692D01*
X134219001Y-105473512D01*
X134219001Y-105435502D01*
X134215244Y-105405762D01*
X134219001Y-105380320D01*
X134219001Y-105346488D01*
X134228159Y-105318302D01*
X134231682Y-105294445D01*
X134221924Y-105224692D01*
X134176003Y-105171287D01*
X134108500Y-105151187D01*
X134059717Y-105167643D01*
X134057649Y-105162650D01*
X133999467Y-105186750D01*
X133949110Y-105210931D01*
X133936519Y-105212824D01*
X133932736Y-105214391D01*
X133879348Y-105221419D01*
X133848882Y-105226000D01*
X133085445Y-105226000D01*
X132997264Y-105214391D01*
X132939232Y-105190353D01*
X132914346Y-105184585D01*
X132897953Y-105173255D01*
X132887555Y-105168948D01*
X132849755Y-105139943D01*
X132802782Y-105107478D01*
X132795642Y-105098421D01*
X132793343Y-105096657D01*
X132760183Y-105053442D01*
X132718822Y-105000976D01*
X132695881Y-104941677D01*
X132675609Y-104892736D01*
X132674919Y-104887492D01*
X132669890Y-104874494D01*
X132666030Y-104819975D01*
X132660109Y-104775000D01*
X132661889Y-104761483D01*
X132660312Y-104739215D01*
X132670747Y-104694198D01*
X132675609Y-104657264D01*
X132684007Y-104636989D01*
X132690935Y-104607101D01*
X132709940Y-104574381D01*
X132721052Y-104547554D01*
X132739445Y-104523584D01*
X132759050Y-104489831D01*
X132780704Y-104469814D01*
X132793343Y-104453343D01*
X132823827Y-104429952D01*
X132858637Y-104397774D01*
X132877679Y-104388630D01*
X132887555Y-104381052D01*
X132930535Y-104363249D01*
X132980890Y-104339069D01*
X132993481Y-104337176D01*
X132997264Y-104335609D01*
X133050652Y-104328581D01*
X133081118Y-104324000D01*
X133844555Y-104324000D01*
X133932736Y-104335609D01*
X133990768Y-104359647D01*
X134015654Y-104365415D01*
X134032048Y-104376746D01*
X134057649Y-104387350D01*
X134059429Y-104383054D01*
X134096164Y-104397250D01*
X134165158Y-104383090D01*
X134215545Y-104333877D01*
X134230562Y-104257017D01*
X134226857Y-104227692D01*
X134219001Y-104203512D01*
X134219001Y-104165502D01*
X134215244Y-104135762D01*
X134219001Y-104110320D01*
X134219001Y-104076488D01*
X134228159Y-104048302D01*
X134231682Y-104024445D01*
X134221924Y-103954692D01*
X134176003Y-103901287D01*
X134108500Y-103881187D01*
X134059717Y-103897643D01*
X134057649Y-103892650D01*
X133999467Y-103916750D01*
X133949110Y-103940931D01*
X133936519Y-103942824D01*
X133932736Y-103944391D01*
X133879348Y-103951419D01*
X133848882Y-103956000D01*
X133085445Y-103956000D01*
X132997264Y-103944391D01*
X132939232Y-103920353D01*
X132914346Y-103914585D01*
X132897953Y-103903255D01*
X132887555Y-103898948D01*
X132849755Y-103869943D01*
X132802782Y-103837478D01*
X132795642Y-103828421D01*
X132793343Y-103826657D01*
X132760183Y-103783442D01*
X132718822Y-103730976D01*
X132695881Y-103671677D01*
X132675609Y-103622736D01*
X132674919Y-103617492D01*
X132669890Y-103604494D01*
X132666030Y-103549975D01*
X132660109Y-103505000D01*
X132661889Y-103491483D01*
X132660312Y-103469215D01*
X132670747Y-103424198D01*
X132675609Y-103387264D01*
X132684007Y-103366989D01*
X132690935Y-103337101D01*
X132709940Y-103304381D01*
X132721052Y-103277554D01*
X132739445Y-103253584D01*
X132759050Y-103219831D01*
X132780704Y-103199814D01*
X132793343Y-103183343D01*
X132823827Y-103159952D01*
X132858637Y-103127774D01*
X132877679Y-103118630D01*
X132887555Y-103111052D01*
X132930535Y-103093249D01*
X132980890Y-103069069D01*
X132993481Y-103067176D01*
X132997264Y-103065609D01*
X133050652Y-103058581D01*
X133081118Y-103054000D01*
X133844555Y-103054000D01*
X133932736Y-103065609D01*
X133990768Y-103089647D01*
X134015654Y-103095415D01*
X134032048Y-103106746D01*
X134057649Y-103117350D01*
X134059429Y-103113054D01*
X134096164Y-103127250D01*
X134165158Y-103113090D01*
X134215545Y-103063877D01*
X134230562Y-102987017D01*
X134226857Y-102957692D01*
X134219001Y-102933512D01*
X134219001Y-102895502D01*
X134215244Y-102865762D01*
X134219001Y-102840320D01*
X134219001Y-102806488D01*
X134228159Y-102778302D01*
X134231682Y-102754445D01*
X134221924Y-102684692D01*
X134176003Y-102631287D01*
X134108500Y-102611187D01*
X134059717Y-102627643D01*
X134057649Y-102622650D01*
X133999467Y-102646750D01*
X133949110Y-102670931D01*
X133936519Y-102672824D01*
X133932736Y-102674391D01*
X133879348Y-102681419D01*
X133848882Y-102686000D01*
X133085445Y-102686000D01*
X132997264Y-102674391D01*
X132939232Y-102650353D01*
X132914346Y-102644585D01*
X132897953Y-102633255D01*
X132887555Y-102628948D01*
X132849755Y-102599943D01*
X132802782Y-102567478D01*
X132795642Y-102558421D01*
X132793343Y-102556657D01*
X132760183Y-102513442D01*
X132718822Y-102460976D01*
X132695881Y-102401677D01*
X132675609Y-102352736D01*
X132674919Y-102347492D01*
X132669890Y-102334494D01*
X132666030Y-102279975D01*
X132660109Y-102235000D01*
X132661889Y-102221483D01*
X132660312Y-102199215D01*
X132670747Y-102154198D01*
X132675609Y-102117264D01*
X132684007Y-102096989D01*
X132690935Y-102067101D01*
X132709940Y-102034381D01*
X132721052Y-102007554D01*
X132739445Y-101983584D01*
X132759050Y-101949831D01*
X132780704Y-101929814D01*
X132793343Y-101913343D01*
X132823827Y-101889952D01*
X132858637Y-101857774D01*
X132877679Y-101848630D01*
X132887555Y-101841052D01*
X132930535Y-101823249D01*
X132980890Y-101799069D01*
X132993481Y-101797176D01*
X132997264Y-101795609D01*
X133050652Y-101788581D01*
X133081118Y-101784000D01*
X133844555Y-101784000D01*
X133932736Y-101795609D01*
X133990768Y-101819647D01*
X134015654Y-101825415D01*
X134032048Y-101836746D01*
X134057649Y-101847350D01*
X134059429Y-101843054D01*
X134096164Y-101857250D01*
X134165158Y-101843090D01*
X134215545Y-101793877D01*
X134230562Y-101717017D01*
X134226857Y-101687692D01*
X134219001Y-101663512D01*
X134219001Y-101625503D01*
X134215244Y-101595763D01*
X134219001Y-101570322D01*
X134219001Y-101536488D01*
X134228160Y-101508299D01*
X134231295Y-101487070D01*
X134245219Y-101455796D01*
X134258253Y-101415681D01*
X134270718Y-101398524D01*
X134275983Y-101386699D01*
X134303303Y-101353675D01*
X134332916Y-101312916D01*
X134343208Y-101305439D01*
X134346016Y-101302044D01*
X134388992Y-101272175D01*
X134435681Y-101238253D01*
X134490555Y-101220424D01*
X134539992Y-101203208D01*
X134544392Y-101202931D01*
X134556488Y-101199001D01*
X134606856Y-101199001D01*
X134649642Y-101196309D01*
X134662307Y-101199001D01*
G37*
G36*
X158727899Y-105977959D02*
G01*
X158744769Y-105989231D01*
X158756041Y-106006101D01*
X158762448Y-106038312D01*
X158762448Y-106813688D01*
X158759999Y-106826000D01*
X158756041Y-106845899D01*
X158744769Y-106862769D01*
X158727899Y-106874041D01*
X158708000Y-106877999D01*
X158695688Y-106880448D01*
X157820312Y-106880448D01*
X157788101Y-106874041D01*
X157771231Y-106862769D01*
X157759959Y-106845899D01*
X157753552Y-106813688D01*
X157753552Y-106038312D01*
X157759959Y-106006101D01*
X157771231Y-105989231D01*
X157788101Y-105977959D01*
X157820312Y-105971552D01*
X158695688Y-105971552D01*
X158727899Y-105977959D01*
G37*
G36*
X140026899Y-105723959D02*
G01*
X140043769Y-105735231D01*
X140055041Y-105752101D01*
X140061448Y-105784312D01*
X140061448Y-106559688D01*
X140058999Y-106572000D01*
X140055041Y-106591899D01*
X140043769Y-106608769D01*
X140026899Y-106620041D01*
X140007000Y-106623999D01*
X139994688Y-106626448D01*
X139119312Y-106626448D01*
X139087101Y-106620041D01*
X139070231Y-106608769D01*
X139058959Y-106591899D01*
X139052552Y-106559688D01*
X139052552Y-105784312D01*
X139058959Y-105752101D01*
X139070231Y-105735231D01*
X139087101Y-105723959D01*
X139119312Y-105717552D01*
X139994688Y-105717552D01*
X140026899Y-105723959D01*
G37*
G36*
X162030980Y-104974117D02*
G01*
X162031386Y-104974117D01*
X162033637Y-104974538D01*
X162122801Y-104988660D01*
X162130691Y-104992680D01*
X162137409Y-104993936D01*
X162157176Y-105006175D01*
X162204229Y-105030150D01*
X162217776Y-105043697D01*
X162229114Y-105050717D01*
X162242432Y-105068353D01*
X162268850Y-105094771D01*
X162282267Y-105121103D01*
X162294114Y-105136791D01*
X162297418Y-105150838D01*
X162310340Y-105176199D01*
X162324686Y-105266777D01*
X162324883Y-105267614D01*
X162324883Y-105268020D01*
X162326194Y-105276297D01*
X162326194Y-105825703D01*
X162324883Y-105833980D01*
X162324883Y-105834386D01*
X162324462Y-105836637D01*
X162310340Y-105925801D01*
X162306320Y-105933691D01*
X162305064Y-105940409D01*
X162292825Y-105960176D01*
X162268850Y-106007229D01*
X162255303Y-106020776D01*
X162248283Y-106032114D01*
X162230647Y-106045432D01*
X162204229Y-106071850D01*
X162177897Y-106085267D01*
X162162209Y-106097114D01*
X162148162Y-106100418D01*
X162122801Y-106113340D01*
X162032223Y-106127686D01*
X162031386Y-106127883D01*
X162030980Y-106127883D01*
X162022703Y-106129194D01*
X161573297Y-106129194D01*
X161565020Y-106127883D01*
X161564614Y-106127883D01*
X161562363Y-106127462D01*
X161473199Y-106113340D01*
X161465309Y-106109320D01*
X161458591Y-106108064D01*
X161438824Y-106095825D01*
X161391771Y-106071850D01*
X161378224Y-106058303D01*
X161366886Y-106051283D01*
X161353568Y-106033647D01*
X161327150Y-106007229D01*
X161313733Y-105980897D01*
X161301886Y-105965209D01*
X161298582Y-105951162D01*
X161285660Y-105925801D01*
X161271314Y-105835223D01*
X161271117Y-105834386D01*
X161271117Y-105833980D01*
X161269806Y-105825703D01*
X161269806Y-105276297D01*
X161271117Y-105268020D01*
X161271117Y-105267614D01*
X161271538Y-105265363D01*
X161285660Y-105176199D01*
X161289680Y-105168309D01*
X161290936Y-105161591D01*
X161303175Y-105141824D01*
X161327150Y-105094771D01*
X161340697Y-105081224D01*
X161347717Y-105069886D01*
X161365353Y-105056568D01*
X161391771Y-105030150D01*
X161418103Y-105016733D01*
X161433791Y-105004886D01*
X161447838Y-105001582D01*
X161473199Y-104988660D01*
X161563777Y-104974314D01*
X161564614Y-104974117D01*
X161565020Y-104974117D01*
X161573297Y-104972806D01*
X162022703Y-104972806D01*
X162030980Y-104974117D01*
G37*
G36*
X160727899Y-105027959D02*
G01*
X160744769Y-105039231D01*
X160756041Y-105056101D01*
X160762448Y-105088312D01*
X160762448Y-105863688D01*
X160759999Y-105876000D01*
X160756041Y-105895899D01*
X160744769Y-105912769D01*
X160727899Y-105924041D01*
X160708000Y-105927999D01*
X160695688Y-105930448D01*
X159820312Y-105930448D01*
X159788101Y-105924041D01*
X159771231Y-105912769D01*
X159759959Y-105895899D01*
X159753552Y-105863688D01*
X159753552Y-105088312D01*
X159759959Y-105056101D01*
X159771231Y-105039231D01*
X159788101Y-105027959D01*
X159820312Y-105021552D01*
X160695688Y-105021552D01*
X160727899Y-105027959D01*
G37*
G36*
X136249980Y-104607117D02*
G01*
X136250386Y-104607117D01*
X136252637Y-104607538D01*
X136341801Y-104621660D01*
X136349691Y-104625680D01*
X136356409Y-104626936D01*
X136376176Y-104639175D01*
X136423229Y-104663150D01*
X136436776Y-104676697D01*
X136448114Y-104683717D01*
X136461432Y-104701353D01*
X136487850Y-104727771D01*
X136501267Y-104754103D01*
X136513114Y-104769791D01*
X136516418Y-104783838D01*
X136529340Y-104809199D01*
X136543686Y-104899777D01*
X136543883Y-104900614D01*
X136543883Y-104901020D01*
X136545194Y-104909297D01*
X136545194Y-105458703D01*
X136543883Y-105466980D01*
X136543883Y-105467386D01*
X136543462Y-105469637D01*
X136529340Y-105558801D01*
X136525320Y-105566691D01*
X136524064Y-105573409D01*
X136511825Y-105593176D01*
X136487850Y-105640229D01*
X136474303Y-105653776D01*
X136467283Y-105665114D01*
X136449647Y-105678432D01*
X136423229Y-105704850D01*
X136396897Y-105718267D01*
X136381209Y-105730114D01*
X136367162Y-105733418D01*
X136341801Y-105746340D01*
X136251223Y-105760686D01*
X136250386Y-105760883D01*
X136249980Y-105760883D01*
X136241703Y-105762194D01*
X135792297Y-105762194D01*
X135784020Y-105760883D01*
X135783614Y-105760883D01*
X135781363Y-105760462D01*
X135692199Y-105746340D01*
X135684309Y-105742320D01*
X135677591Y-105741064D01*
X135657824Y-105728825D01*
X135610771Y-105704850D01*
X135597224Y-105691303D01*
X135585886Y-105684283D01*
X135572568Y-105666647D01*
X135546150Y-105640229D01*
X135532733Y-105613897D01*
X135520886Y-105598209D01*
X135517582Y-105584162D01*
X135504660Y-105558801D01*
X135490314Y-105468223D01*
X135490117Y-105467386D01*
X135490117Y-105466980D01*
X135488806Y-105458703D01*
X135488806Y-104909297D01*
X135490117Y-104901020D01*
X135490117Y-104900614D01*
X135490538Y-104898363D01*
X135504660Y-104809199D01*
X135508680Y-104801309D01*
X135509936Y-104794591D01*
X135522175Y-104774824D01*
X135546150Y-104727771D01*
X135559697Y-104714224D01*
X135566717Y-104702886D01*
X135584353Y-104689568D01*
X135610771Y-104663150D01*
X135637103Y-104649733D01*
X135652791Y-104637886D01*
X135666838Y-104634582D01*
X135692199Y-104621660D01*
X135782777Y-104607314D01*
X135783614Y-104607117D01*
X135784020Y-104607117D01*
X135792297Y-104605806D01*
X136241703Y-104605806D01*
X136249980Y-104607117D01*
G37*
G36*
X138026899Y-104773959D02*
G01*
X138043769Y-104785231D01*
X138055041Y-104802101D01*
X138061448Y-104834312D01*
X138061448Y-105609688D01*
X138058999Y-105622000D01*
X138055041Y-105641899D01*
X138043769Y-105658769D01*
X138026899Y-105670041D01*
X138007000Y-105673999D01*
X137994688Y-105676448D01*
X137119312Y-105676448D01*
X137087101Y-105670041D01*
X137070231Y-105658769D01*
X137058959Y-105641899D01*
X137052552Y-105609688D01*
X137052552Y-104834312D01*
X137058959Y-104802101D01*
X137070231Y-104785231D01*
X137087101Y-104773959D01*
X137119312Y-104767552D01*
X137994688Y-104767552D01*
X138026899Y-104773959D01*
G37*
G36*
X147679980Y-104184117D02*
G01*
X147680386Y-104184117D01*
X147682637Y-104184538D01*
X147771801Y-104198660D01*
X147779691Y-104202680D01*
X147786409Y-104203936D01*
X147806176Y-104216175D01*
X147853229Y-104240150D01*
X147866776Y-104253697D01*
X147878114Y-104260717D01*
X147891432Y-104278353D01*
X147917850Y-104304771D01*
X147931267Y-104331103D01*
X147943114Y-104346791D01*
X147946418Y-104360838D01*
X147959340Y-104386199D01*
X147973686Y-104476777D01*
X147973883Y-104477614D01*
X147973883Y-104478020D01*
X147975194Y-104486297D01*
X147975194Y-105035703D01*
X147973883Y-105043980D01*
X147973883Y-105044386D01*
X147973462Y-105046637D01*
X147959340Y-105135801D01*
X147955320Y-105143691D01*
X147954064Y-105150409D01*
X147941825Y-105170176D01*
X147917850Y-105217229D01*
X147904303Y-105230776D01*
X147897283Y-105242114D01*
X147879647Y-105255432D01*
X147853229Y-105281850D01*
X147826897Y-105295267D01*
X147811209Y-105307114D01*
X147797162Y-105310418D01*
X147771801Y-105323340D01*
X147681223Y-105337686D01*
X147680386Y-105337883D01*
X147679980Y-105337883D01*
X147671703Y-105339194D01*
X147222297Y-105339194D01*
X147214020Y-105337883D01*
X147213614Y-105337883D01*
X147211363Y-105337462D01*
X147122199Y-105323340D01*
X147114309Y-105319320D01*
X147107591Y-105318064D01*
X147087824Y-105305825D01*
X147040771Y-105281850D01*
X147027224Y-105268303D01*
X147015886Y-105261283D01*
X147002568Y-105243647D01*
X146976150Y-105217229D01*
X146962733Y-105190897D01*
X146950886Y-105175209D01*
X146947582Y-105161162D01*
X146934660Y-105135801D01*
X146920314Y-105045223D01*
X146920117Y-105044386D01*
X146920117Y-105043980D01*
X146918806Y-105035703D01*
X146918806Y-104486297D01*
X146920117Y-104478020D01*
X146920117Y-104477614D01*
X146920538Y-104475363D01*
X146934660Y-104386199D01*
X146938680Y-104378309D01*
X146939936Y-104371591D01*
X146952175Y-104351824D01*
X146976150Y-104304771D01*
X146989697Y-104291224D01*
X146996717Y-104279886D01*
X147014353Y-104266568D01*
X147040771Y-104240150D01*
X147067103Y-104226733D01*
X147082791Y-104214886D01*
X147096838Y-104211582D01*
X147122199Y-104198660D01*
X147212777Y-104184314D01*
X147213614Y-104184117D01*
X147214020Y-104184117D01*
X147222297Y-104182806D01*
X147671703Y-104182806D01*
X147679980Y-104184117D01*
G37*
G36*
X143996980Y-104184117D02*
G01*
X143997386Y-104184117D01*
X143999637Y-104184538D01*
X144088801Y-104198660D01*
X144096691Y-104202680D01*
X144103409Y-104203936D01*
X144123176Y-104216175D01*
X144170229Y-104240150D01*
X144183776Y-104253697D01*
X144195114Y-104260717D01*
X144208432Y-104278353D01*
X144234850Y-104304771D01*
X144248267Y-104331103D01*
X144260114Y-104346791D01*
X144263418Y-104360838D01*
X144276340Y-104386199D01*
X144290686Y-104476777D01*
X144290883Y-104477614D01*
X144290883Y-104478020D01*
X144292194Y-104486297D01*
X144292194Y-105035703D01*
X144290883Y-105043980D01*
X144290883Y-105044386D01*
X144290462Y-105046637D01*
X144276340Y-105135801D01*
X144272320Y-105143691D01*
X144271064Y-105150409D01*
X144258825Y-105170176D01*
X144234850Y-105217229D01*
X144221303Y-105230776D01*
X144214283Y-105242114D01*
X144196647Y-105255432D01*
X144170229Y-105281850D01*
X144143897Y-105295267D01*
X144128209Y-105307114D01*
X144114162Y-105310418D01*
X144088801Y-105323340D01*
X143998223Y-105337686D01*
X143997386Y-105337883D01*
X143996980Y-105337883D01*
X143988703Y-105339194D01*
X143539297Y-105339194D01*
X143531020Y-105337883D01*
X143530614Y-105337883D01*
X143528363Y-105337462D01*
X143439199Y-105323340D01*
X143431309Y-105319320D01*
X143424591Y-105318064D01*
X143404824Y-105305825D01*
X143357771Y-105281850D01*
X143344224Y-105268303D01*
X143332886Y-105261283D01*
X143319568Y-105243647D01*
X143293150Y-105217229D01*
X143279733Y-105190897D01*
X143267886Y-105175209D01*
X143264582Y-105161162D01*
X143251660Y-105135801D01*
X143237314Y-105045223D01*
X143237117Y-105044386D01*
X143237117Y-105043980D01*
X143235806Y-105035703D01*
X143235806Y-104486297D01*
X143237117Y-104478020D01*
X143237117Y-104477614D01*
X143237538Y-104475363D01*
X143251660Y-104386199D01*
X143255680Y-104378309D01*
X143256936Y-104371591D01*
X143269175Y-104351824D01*
X143293150Y-104304771D01*
X143306697Y-104291224D01*
X143313717Y-104279886D01*
X143331353Y-104266568D01*
X143357771Y-104240150D01*
X143384103Y-104226733D01*
X143399791Y-104214886D01*
X143413838Y-104211582D01*
X143439199Y-104198660D01*
X143529777Y-104184314D01*
X143530614Y-104184117D01*
X143531020Y-104184117D01*
X143539297Y-104182806D01*
X143988703Y-104182806D01*
X143996980Y-104184117D01*
G37*
G36*
X155934980Y-104184117D02*
G01*
X155935386Y-104184117D01*
X155937637Y-104184538D01*
X156026801Y-104198660D01*
X156034691Y-104202680D01*
X156041409Y-104203936D01*
X156061176Y-104216175D01*
X156108229Y-104240150D01*
X156121776Y-104253697D01*
X156133114Y-104260717D01*
X156146432Y-104278353D01*
X156172850Y-104304771D01*
X156186267Y-104331103D01*
X156198114Y-104346791D01*
X156201418Y-104360838D01*
X156214340Y-104386199D01*
X156228686Y-104476777D01*
X156228883Y-104477614D01*
X156228883Y-104478020D01*
X156230194Y-104486297D01*
X156230194Y-105035703D01*
X156228883Y-105043980D01*
X156228883Y-105044386D01*
X156228462Y-105046637D01*
X156214340Y-105135801D01*
X156210320Y-105143691D01*
X156209064Y-105150409D01*
X156196825Y-105170176D01*
X156172850Y-105217229D01*
X156159303Y-105230776D01*
X156152283Y-105242114D01*
X156134647Y-105255432D01*
X156108229Y-105281850D01*
X156081897Y-105295267D01*
X156066209Y-105307114D01*
X156052162Y-105310418D01*
X156026801Y-105323340D01*
X155936223Y-105337686D01*
X155935386Y-105337883D01*
X155934980Y-105337883D01*
X155926703Y-105339194D01*
X155477297Y-105339194D01*
X155469020Y-105337883D01*
X155468614Y-105337883D01*
X155466363Y-105337462D01*
X155377199Y-105323340D01*
X155369309Y-105319320D01*
X155362591Y-105318064D01*
X155342824Y-105305825D01*
X155295771Y-105281850D01*
X155282224Y-105268303D01*
X155270886Y-105261283D01*
X155257568Y-105243647D01*
X155231150Y-105217229D01*
X155217733Y-105190897D01*
X155205886Y-105175209D01*
X155202582Y-105161162D01*
X155189660Y-105135801D01*
X155175314Y-105045223D01*
X155175117Y-105044386D01*
X155175117Y-105043980D01*
X155173806Y-105035703D01*
X155173806Y-104486297D01*
X155175117Y-104478020D01*
X155175117Y-104477614D01*
X155175538Y-104475363D01*
X155189660Y-104386199D01*
X155193680Y-104378309D01*
X155194936Y-104371591D01*
X155207175Y-104351824D01*
X155231150Y-104304771D01*
X155244697Y-104291224D01*
X155251717Y-104279886D01*
X155269353Y-104266568D01*
X155295771Y-104240150D01*
X155322103Y-104226733D01*
X155337791Y-104214886D01*
X155351838Y-104211582D01*
X155377199Y-104198660D01*
X155467777Y-104184314D01*
X155468614Y-104184117D01*
X155469020Y-104184117D01*
X155477297Y-104182806D01*
X155926703Y-104182806D01*
X155934980Y-104184117D01*
G37*
G36*
X152124980Y-104184117D02*
G01*
X152125386Y-104184117D01*
X152127637Y-104184538D01*
X152216801Y-104198660D01*
X152224691Y-104202680D01*
X152231409Y-104203936D01*
X152251176Y-104216175D01*
X152298229Y-104240150D01*
X152311776Y-104253697D01*
X152323114Y-104260717D01*
X152336432Y-104278353D01*
X152362850Y-104304771D01*
X152376267Y-104331103D01*
X152388114Y-104346791D01*
X152391418Y-104360838D01*
X152404340Y-104386199D01*
X152418686Y-104476777D01*
X152418883Y-104477614D01*
X152418883Y-104478020D01*
X152420194Y-104486297D01*
X152420194Y-105035703D01*
X152418883Y-105043980D01*
X152418883Y-105044386D01*
X152418462Y-105046637D01*
X152404340Y-105135801D01*
X152400320Y-105143691D01*
X152399064Y-105150409D01*
X152386825Y-105170176D01*
X152362850Y-105217229D01*
X152349303Y-105230776D01*
X152342283Y-105242114D01*
X152324647Y-105255432D01*
X152298229Y-105281850D01*
X152271897Y-105295267D01*
X152256209Y-105307114D01*
X152242162Y-105310418D01*
X152216801Y-105323340D01*
X152126223Y-105337686D01*
X152125386Y-105337883D01*
X152124980Y-105337883D01*
X152116703Y-105339194D01*
X151667297Y-105339194D01*
X151659020Y-105337883D01*
X151658614Y-105337883D01*
X151656363Y-105337462D01*
X151567199Y-105323340D01*
X151559309Y-105319320D01*
X151552591Y-105318064D01*
X151532824Y-105305825D01*
X151485771Y-105281850D01*
X151472224Y-105268303D01*
X151460886Y-105261283D01*
X151447568Y-105243647D01*
X151421150Y-105217229D01*
X151407733Y-105190897D01*
X151395886Y-105175209D01*
X151392582Y-105161162D01*
X151379660Y-105135801D01*
X151365314Y-105045223D01*
X151365117Y-105044386D01*
X151365117Y-105043980D01*
X151363806Y-105035703D01*
X151363806Y-104486297D01*
X151365117Y-104478020D01*
X151365117Y-104477614D01*
X151365538Y-104475363D01*
X151379660Y-104386199D01*
X151383680Y-104378309D01*
X151384936Y-104371591D01*
X151397175Y-104351824D01*
X151421150Y-104304771D01*
X151434697Y-104291224D01*
X151441717Y-104279886D01*
X151459353Y-104266568D01*
X151485771Y-104240150D01*
X151512103Y-104226733D01*
X151527791Y-104214886D01*
X151541838Y-104211582D01*
X151567199Y-104198660D01*
X151657777Y-104184314D01*
X151658614Y-104184117D01*
X151659020Y-104184117D01*
X151667297Y-104182806D01*
X152116703Y-104182806D01*
X152124980Y-104184117D01*
G37*
G36*
X137665231Y-103015501D02*
G01*
X137665964Y-103015501D01*
X137668829Y-103016071D01*
X137751918Y-103029231D01*
X137762760Y-103034755D01*
X137771215Y-103036437D01*
X137787768Y-103047498D01*
X137828054Y-103068024D01*
X137847316Y-103087286D01*
X137860443Y-103096057D01*
X137869214Y-103109184D01*
X137888476Y-103128446D01*
X137909002Y-103168732D01*
X137920063Y-103185285D01*
X137921745Y-103193740D01*
X137927269Y-103204582D01*
X137940429Y-103287671D01*
X137940999Y-103290536D01*
X137940999Y-103291269D01*
X137942194Y-103298814D01*
X137942194Y-103711186D01*
X137940999Y-103718731D01*
X137940999Y-103719464D01*
X137940429Y-103722329D01*
X137927269Y-103805418D01*
X137921745Y-103816260D01*
X137920063Y-103824715D01*
X137909002Y-103841268D01*
X137888476Y-103881554D01*
X137869214Y-103900816D01*
X137860443Y-103913943D01*
X137847316Y-103922714D01*
X137828054Y-103941976D01*
X137787768Y-103962502D01*
X137771215Y-103973563D01*
X137762760Y-103975245D01*
X137751918Y-103980769D01*
X137668829Y-103993929D01*
X137665964Y-103994499D01*
X137665231Y-103994499D01*
X137657686Y-103995694D01*
X137170314Y-103995694D01*
X137162769Y-103994499D01*
X137162036Y-103994499D01*
X137159171Y-103993929D01*
X137076082Y-103980769D01*
X137065240Y-103975245D01*
X137056785Y-103973563D01*
X137040232Y-103962502D01*
X136999946Y-103941976D01*
X136980684Y-103922714D01*
X136967557Y-103913943D01*
X136958786Y-103900816D01*
X136939524Y-103881554D01*
X136918998Y-103841268D01*
X136907937Y-103824715D01*
X136906255Y-103816260D01*
X136900731Y-103805418D01*
X136887571Y-103722329D01*
X136887001Y-103719464D01*
X136887001Y-103718731D01*
X136885806Y-103711186D01*
X136885806Y-103298814D01*
X136887001Y-103291269D01*
X136887001Y-103290536D01*
X136887571Y-103287671D01*
X136900731Y-103204582D01*
X136906255Y-103193740D01*
X136907937Y-103185285D01*
X136918998Y-103168732D01*
X136939524Y-103128446D01*
X136958786Y-103109184D01*
X136967557Y-103096057D01*
X136980684Y-103087286D01*
X136999946Y-103068024D01*
X137040232Y-103047498D01*
X137056785Y-103036437D01*
X137065240Y-103034755D01*
X137076082Y-103029231D01*
X137159171Y-103016071D01*
X137162036Y-103015501D01*
X137162769Y-103015501D01*
X137170314Y-103014306D01*
X137657686Y-103014306D01*
X137665231Y-103015501D01*
G37*
G36*
X140059980Y-102801117D02*
G01*
X140060386Y-102801117D01*
X140062637Y-102801538D01*
X140151801Y-102815660D01*
X140159691Y-102819680D01*
X140166409Y-102820936D01*
X140186176Y-102833175D01*
X140233229Y-102857150D01*
X140246776Y-102870697D01*
X140258114Y-102877717D01*
X140271432Y-102895353D01*
X140297850Y-102921771D01*
X140311267Y-102948103D01*
X140323114Y-102963791D01*
X140326418Y-102977838D01*
X140339340Y-103003199D01*
X140353686Y-103093777D01*
X140353883Y-103094614D01*
X140353883Y-103095020D01*
X140355194Y-103103297D01*
X140355194Y-103652703D01*
X140353883Y-103660980D01*
X140353883Y-103661386D01*
X140353462Y-103663637D01*
X140339340Y-103752801D01*
X140335320Y-103760691D01*
X140334064Y-103767409D01*
X140321825Y-103787176D01*
X140297850Y-103834229D01*
X140284303Y-103847776D01*
X140277283Y-103859114D01*
X140259647Y-103872432D01*
X140233229Y-103898850D01*
X140206897Y-103912267D01*
X140191209Y-103924114D01*
X140177162Y-103927418D01*
X140151801Y-103940340D01*
X140061223Y-103954686D01*
X140060386Y-103954883D01*
X140059980Y-103954883D01*
X140051703Y-103956194D01*
X139602297Y-103956194D01*
X139594020Y-103954883D01*
X139593614Y-103954883D01*
X139591363Y-103954462D01*
X139502199Y-103940340D01*
X139494309Y-103936320D01*
X139487591Y-103935064D01*
X139467824Y-103922825D01*
X139420771Y-103898850D01*
X139407224Y-103885303D01*
X139395886Y-103878283D01*
X139382568Y-103860647D01*
X139356150Y-103834229D01*
X139342733Y-103807897D01*
X139330886Y-103792209D01*
X139327582Y-103778162D01*
X139314660Y-103752801D01*
X139300314Y-103662223D01*
X139300117Y-103661386D01*
X139300117Y-103660980D01*
X139298806Y-103652703D01*
X139298806Y-103103297D01*
X139300117Y-103095020D01*
X139300117Y-103094614D01*
X139300538Y-103092363D01*
X139314660Y-103003199D01*
X139318680Y-102995309D01*
X139319936Y-102988591D01*
X139332175Y-102968824D01*
X139356150Y-102921771D01*
X139369697Y-102908224D01*
X139376717Y-102896886D01*
X139394353Y-102883568D01*
X139420771Y-102857150D01*
X139447103Y-102843733D01*
X139462791Y-102831886D01*
X139476838Y-102828582D01*
X139502199Y-102815660D01*
X139592777Y-102801314D01*
X139593614Y-102801117D01*
X139594020Y-102801117D01*
X139602297Y-102799806D01*
X140051703Y-102799806D01*
X140059980Y-102801117D01*
G37*
G36*
X147679980Y-102434117D02*
G01*
X147680386Y-102434117D01*
X147682637Y-102434538D01*
X147771801Y-102448660D01*
X147779691Y-102452680D01*
X147786409Y-102453936D01*
X147806176Y-102466175D01*
X147853229Y-102490150D01*
X147866776Y-102503697D01*
X147878114Y-102510717D01*
X147891432Y-102528353D01*
X147917850Y-102554771D01*
X147931267Y-102581103D01*
X147943114Y-102596791D01*
X147946418Y-102610838D01*
X147959340Y-102636199D01*
X147973686Y-102726777D01*
X147973883Y-102727614D01*
X147973883Y-102728020D01*
X147975194Y-102736297D01*
X147975194Y-103285703D01*
X147973883Y-103293980D01*
X147973883Y-103294386D01*
X147973462Y-103296637D01*
X147959340Y-103385801D01*
X147955320Y-103393691D01*
X147954064Y-103400409D01*
X147941825Y-103420176D01*
X147917850Y-103467229D01*
X147904303Y-103480776D01*
X147897283Y-103492114D01*
X147879647Y-103505432D01*
X147853229Y-103531850D01*
X147826897Y-103545267D01*
X147811209Y-103557114D01*
X147797162Y-103560418D01*
X147771801Y-103573340D01*
X147681223Y-103587686D01*
X147680386Y-103587883D01*
X147679980Y-103587883D01*
X147671703Y-103589194D01*
X147222297Y-103589194D01*
X147214020Y-103587883D01*
X147213614Y-103587883D01*
X147211363Y-103587462D01*
X147122199Y-103573340D01*
X147114309Y-103569320D01*
X147107591Y-103568064D01*
X147087824Y-103555825D01*
X147040771Y-103531850D01*
X147027224Y-103518303D01*
X147015886Y-103511283D01*
X147002568Y-103493647D01*
X146976150Y-103467229D01*
X146962733Y-103440897D01*
X146950886Y-103425209D01*
X146947582Y-103411162D01*
X146934660Y-103385801D01*
X146920314Y-103295223D01*
X146920117Y-103294386D01*
X146920117Y-103293980D01*
X146918806Y-103285703D01*
X146918806Y-102736297D01*
X146920117Y-102728020D01*
X146920117Y-102727614D01*
X146920538Y-102725363D01*
X146934660Y-102636199D01*
X146938680Y-102628309D01*
X146939936Y-102621591D01*
X146952175Y-102601824D01*
X146976150Y-102554771D01*
X146989697Y-102541224D01*
X146996717Y-102529886D01*
X147014353Y-102516568D01*
X147040771Y-102490150D01*
X147067103Y-102476733D01*
X147082791Y-102464886D01*
X147096838Y-102461582D01*
X147122199Y-102448660D01*
X147212777Y-102434314D01*
X147213614Y-102434117D01*
X147214020Y-102434117D01*
X147222297Y-102432806D01*
X147671703Y-102432806D01*
X147679980Y-102434117D01*
G37*
G36*
X152124980Y-102434117D02*
G01*
X152125386Y-102434117D01*
X152127637Y-102434538D01*
X152216801Y-102448660D01*
X152224691Y-102452680D01*
X152231409Y-102453936D01*
X152251176Y-102466175D01*
X152298229Y-102490150D01*
X152311776Y-102503697D01*
X152323114Y-102510717D01*
X152336432Y-102528353D01*
X152362850Y-102554771D01*
X152376267Y-102581103D01*
X152388114Y-102596791D01*
X152391418Y-102610838D01*
X152404340Y-102636199D01*
X152418686Y-102726777D01*
X152418883Y-102727614D01*
X152418883Y-102728020D01*
X152420194Y-102736297D01*
X152420194Y-103285703D01*
X152418883Y-103293980D01*
X152418883Y-103294386D01*
X152418462Y-103296637D01*
X152404340Y-103385801D01*
X152400320Y-103393691D01*
X152399064Y-103400409D01*
X152386825Y-103420176D01*
X152362850Y-103467229D01*
X152349303Y-103480776D01*
X152342283Y-103492114D01*
X152324647Y-103505432D01*
X152298229Y-103531850D01*
X152271897Y-103545267D01*
X152256209Y-103557114D01*
X152242162Y-103560418D01*
X152216801Y-103573340D01*
X152126223Y-103587686D01*
X152125386Y-103587883D01*
X152124980Y-103587883D01*
X152116703Y-103589194D01*
X151667297Y-103589194D01*
X151659020Y-103587883D01*
X151658614Y-103587883D01*
X151656363Y-103587462D01*
X151567199Y-103573340D01*
X151559309Y-103569320D01*
X151552591Y-103568064D01*
X151532824Y-103555825D01*
X151485771Y-103531850D01*
X151472224Y-103518303D01*
X151460886Y-103511283D01*
X151447568Y-103493647D01*
X151421150Y-103467229D01*
X151407733Y-103440897D01*
X151395886Y-103425209D01*
X151392582Y-103411162D01*
X151379660Y-103385801D01*
X151365314Y-103295223D01*
X151365117Y-103294386D01*
X151365117Y-103293980D01*
X151363806Y-103285703D01*
X151363806Y-102736297D01*
X151365117Y-102728020D01*
X151365117Y-102727614D01*
X151365538Y-102725363D01*
X151379660Y-102636199D01*
X151383680Y-102628309D01*
X151384936Y-102621591D01*
X151397175Y-102601824D01*
X151421150Y-102554771D01*
X151434697Y-102541224D01*
X151441717Y-102529886D01*
X151459353Y-102516568D01*
X151485771Y-102490150D01*
X151512103Y-102476733D01*
X151527791Y-102464886D01*
X151541838Y-102461582D01*
X151567199Y-102448660D01*
X151657777Y-102434314D01*
X151658614Y-102434117D01*
X151659020Y-102434117D01*
X151667297Y-102432806D01*
X152116703Y-102432806D01*
X152124980Y-102434117D01*
G37*
G36*
X155934980Y-102434117D02*
G01*
X155935386Y-102434117D01*
X155937637Y-102434538D01*
X156026801Y-102448660D01*
X156034691Y-102452680D01*
X156041409Y-102453936D01*
X156061176Y-102466175D01*
X156108229Y-102490150D01*
X156121776Y-102503697D01*
X156133114Y-102510717D01*
X156146432Y-102528353D01*
X156172850Y-102554771D01*
X156186267Y-102581103D01*
X156198114Y-102596791D01*
X156201418Y-102610838D01*
X156214340Y-102636199D01*
X156228686Y-102726777D01*
X156228883Y-102727614D01*
X156228883Y-102728020D01*
X156230194Y-102736297D01*
X156230194Y-103285703D01*
X156228883Y-103293980D01*
X156228883Y-103294386D01*
X156228462Y-103296637D01*
X156214340Y-103385801D01*
X156210320Y-103393691D01*
X156209064Y-103400409D01*
X156196825Y-103420176D01*
X156172850Y-103467229D01*
X156159303Y-103480776D01*
X156152283Y-103492114D01*
X156134647Y-103505432D01*
X156108229Y-103531850D01*
X156081897Y-103545267D01*
X156066209Y-103557114D01*
X156052162Y-103560418D01*
X156026801Y-103573340D01*
X155936223Y-103587686D01*
X155935386Y-103587883D01*
X155934980Y-103587883D01*
X155926703Y-103589194D01*
X155477297Y-103589194D01*
X155469020Y-103587883D01*
X155468614Y-103587883D01*
X155466363Y-103587462D01*
X155377199Y-103573340D01*
X155369309Y-103569320D01*
X155362591Y-103568064D01*
X155342824Y-103555825D01*
X155295771Y-103531850D01*
X155282224Y-103518303D01*
X155270886Y-103511283D01*
X155257568Y-103493647D01*
X155231150Y-103467229D01*
X155217733Y-103440897D01*
X155205886Y-103425209D01*
X155202582Y-103411162D01*
X155189660Y-103385801D01*
X155175314Y-103295223D01*
X155175117Y-103294386D01*
X155175117Y-103293980D01*
X155173806Y-103285703D01*
X155173806Y-102736297D01*
X155175117Y-102728020D01*
X155175117Y-102727614D01*
X155175538Y-102725363D01*
X155189660Y-102636199D01*
X155193680Y-102628309D01*
X155194936Y-102621591D01*
X155207175Y-102601824D01*
X155231150Y-102554771D01*
X155244697Y-102541224D01*
X155251717Y-102529886D01*
X155269353Y-102516568D01*
X155295771Y-102490150D01*
X155322103Y-102476733D01*
X155337791Y-102464886D01*
X155351838Y-102461582D01*
X155377199Y-102448660D01*
X155467777Y-102434314D01*
X155468614Y-102434117D01*
X155469020Y-102434117D01*
X155477297Y-102432806D01*
X155926703Y-102432806D01*
X155934980Y-102434117D01*
G37*
G36*
X143996980Y-102434117D02*
G01*
X143997386Y-102434117D01*
X143999637Y-102434538D01*
X144088801Y-102448660D01*
X144096691Y-102452680D01*
X144103409Y-102453936D01*
X144123176Y-102466175D01*
X144170229Y-102490150D01*
X144183776Y-102503697D01*
X144195114Y-102510717D01*
X144208432Y-102528353D01*
X144234850Y-102554771D01*
X144248267Y-102581103D01*
X144260114Y-102596791D01*
X144263418Y-102610838D01*
X144276340Y-102636199D01*
X144290686Y-102726777D01*
X144290883Y-102727614D01*
X144290883Y-102728020D01*
X144292194Y-102736297D01*
X144292194Y-103285703D01*
X144290883Y-103293980D01*
X144290883Y-103294386D01*
X144290462Y-103296637D01*
X144276340Y-103385801D01*
X144272320Y-103393691D01*
X144271064Y-103400409D01*
X144258825Y-103420176D01*
X144234850Y-103467229D01*
X144221303Y-103480776D01*
X144214283Y-103492114D01*
X144196647Y-103505432D01*
X144170229Y-103531850D01*
X144143897Y-103545267D01*
X144128209Y-103557114D01*
X144114162Y-103560418D01*
X144088801Y-103573340D01*
X143998223Y-103587686D01*
X143997386Y-103587883D01*
X143996980Y-103587883D01*
X143988703Y-103589194D01*
X143539297Y-103589194D01*
X143531020Y-103587883D01*
X143530614Y-103587883D01*
X143528363Y-103587462D01*
X143439199Y-103573340D01*
X143431309Y-103569320D01*
X143424591Y-103568064D01*
X143404824Y-103555825D01*
X143357771Y-103531850D01*
X143344224Y-103518303D01*
X143332886Y-103511283D01*
X143319568Y-103493647D01*
X143293150Y-103467229D01*
X143279733Y-103440897D01*
X143267886Y-103425209D01*
X143264582Y-103411162D01*
X143251660Y-103385801D01*
X143237314Y-103295223D01*
X143237117Y-103294386D01*
X143237117Y-103293980D01*
X143235806Y-103285703D01*
X143235806Y-102736297D01*
X143237117Y-102728020D01*
X143237117Y-102727614D01*
X143237538Y-102725363D01*
X143251660Y-102636199D01*
X143255680Y-102628309D01*
X143256936Y-102621591D01*
X143269175Y-102601824D01*
X143293150Y-102554771D01*
X143306697Y-102541224D01*
X143313717Y-102529886D01*
X143331353Y-102516568D01*
X143357771Y-102490150D01*
X143384103Y-102476733D01*
X143399791Y-102464886D01*
X143413838Y-102461582D01*
X143439199Y-102448660D01*
X143529777Y-102434314D01*
X143530614Y-102434117D01*
X143531020Y-102434117D01*
X143539297Y-102432806D01*
X143988703Y-102432806D01*
X143996980Y-102434117D01*
G37*
G36*
X137665231Y-101440501D02*
G01*
X137665964Y-101440501D01*
X137668829Y-101441071D01*
X137751918Y-101454231D01*
X137762760Y-101459755D01*
X137771215Y-101461437D01*
X137787768Y-101472498D01*
X137828054Y-101493024D01*
X137847316Y-101512286D01*
X137860443Y-101521057D01*
X137869214Y-101534184D01*
X137888476Y-101553446D01*
X137909002Y-101593732D01*
X137920063Y-101610285D01*
X137921745Y-101618740D01*
X137927269Y-101629582D01*
X137940429Y-101712671D01*
X137940999Y-101715536D01*
X137940999Y-101716269D01*
X137942194Y-101723814D01*
X137942194Y-102136186D01*
X137940999Y-102143731D01*
X137940999Y-102144464D01*
X137940429Y-102147329D01*
X137927269Y-102230418D01*
X137921745Y-102241260D01*
X137920063Y-102249715D01*
X137909002Y-102266268D01*
X137888476Y-102306554D01*
X137869214Y-102325816D01*
X137860443Y-102338943D01*
X137847316Y-102347714D01*
X137828054Y-102366976D01*
X137787768Y-102387502D01*
X137771215Y-102398563D01*
X137762760Y-102400245D01*
X137751918Y-102405769D01*
X137668829Y-102418929D01*
X137665964Y-102419499D01*
X137665231Y-102419499D01*
X137657686Y-102420694D01*
X137170314Y-102420694D01*
X137162769Y-102419499D01*
X137162036Y-102419499D01*
X137159171Y-102418929D01*
X137076082Y-102405769D01*
X137065240Y-102400245D01*
X137056785Y-102398563D01*
X137040232Y-102387502D01*
X136999946Y-102366976D01*
X136980684Y-102347714D01*
X136967557Y-102338943D01*
X136958786Y-102325816D01*
X136939524Y-102306554D01*
X136918998Y-102266268D01*
X136907937Y-102249715D01*
X136906255Y-102241260D01*
X136900731Y-102230418D01*
X136887571Y-102147329D01*
X136887001Y-102144464D01*
X136887001Y-102143731D01*
X136885806Y-102136186D01*
X136885806Y-101723814D01*
X136887001Y-101716269D01*
X136887001Y-101715536D01*
X136887571Y-101712671D01*
X136900731Y-101629582D01*
X136906255Y-101618740D01*
X136907937Y-101610285D01*
X136918998Y-101593732D01*
X136939524Y-101553446D01*
X136958786Y-101534184D01*
X136967557Y-101521057D01*
X136980684Y-101512286D01*
X136999946Y-101493024D01*
X137040232Y-101472498D01*
X137056785Y-101461437D01*
X137065240Y-101459755D01*
X137076082Y-101454231D01*
X137159171Y-101441071D01*
X137162036Y-101440501D01*
X137162769Y-101440501D01*
X137170314Y-101439306D01*
X137657686Y-101439306D01*
X137665231Y-101440501D01*
G37*
G36*
X142218980Y-101263117D02*
G01*
X142219386Y-101263117D01*
X142221637Y-101263538D01*
X142310801Y-101277660D01*
X142318691Y-101281680D01*
X142325409Y-101282936D01*
X142345176Y-101295175D01*
X142392229Y-101319150D01*
X142405776Y-101332697D01*
X142417114Y-101339717D01*
X142430432Y-101357353D01*
X142456850Y-101383771D01*
X142470267Y-101410103D01*
X142482114Y-101425791D01*
X142485418Y-101439838D01*
X142498340Y-101465199D01*
X142512686Y-101555777D01*
X142512883Y-101556614D01*
X142512883Y-101557020D01*
X142514194Y-101565297D01*
X142514194Y-102114703D01*
X142512883Y-102122980D01*
X142512883Y-102123386D01*
X142512462Y-102125637D01*
X142498340Y-102214801D01*
X142494320Y-102222691D01*
X142493064Y-102229409D01*
X142480825Y-102249176D01*
X142456850Y-102296229D01*
X142443303Y-102309776D01*
X142436283Y-102321114D01*
X142418647Y-102334432D01*
X142392229Y-102360850D01*
X142365897Y-102374267D01*
X142350209Y-102386114D01*
X142336162Y-102389418D01*
X142310801Y-102402340D01*
X142220223Y-102416686D01*
X142219386Y-102416883D01*
X142218980Y-102416883D01*
X142210703Y-102418194D01*
X141761297Y-102418194D01*
X141753020Y-102416883D01*
X141752614Y-102416883D01*
X141750363Y-102416462D01*
X141661199Y-102402340D01*
X141653309Y-102398320D01*
X141646591Y-102397064D01*
X141626824Y-102384825D01*
X141579771Y-102360850D01*
X141566224Y-102347303D01*
X141554886Y-102340283D01*
X141541568Y-102322647D01*
X141515150Y-102296229D01*
X141501733Y-102269897D01*
X141489886Y-102254209D01*
X141486582Y-102240162D01*
X141473660Y-102214801D01*
X141459314Y-102124223D01*
X141459117Y-102123386D01*
X141459117Y-102122980D01*
X141457806Y-102114703D01*
X141457806Y-101565297D01*
X141459117Y-101557020D01*
X141459117Y-101556614D01*
X141459538Y-101554363D01*
X141473660Y-101465199D01*
X141477680Y-101457309D01*
X141478936Y-101450591D01*
X141491175Y-101430824D01*
X141515150Y-101383771D01*
X141528697Y-101370224D01*
X141535717Y-101358886D01*
X141553353Y-101345568D01*
X141579771Y-101319150D01*
X141606103Y-101305733D01*
X141621791Y-101293886D01*
X141635838Y-101290582D01*
X141661199Y-101277660D01*
X141751777Y-101263314D01*
X141752614Y-101263117D01*
X141753020Y-101263117D01*
X141761297Y-101261806D01*
X142210703Y-101261806D01*
X142218980Y-101263117D01*
G37*
G36*
X145774980Y-101263117D02*
G01*
X145775386Y-101263117D01*
X145777637Y-101263538D01*
X145866801Y-101277660D01*
X145874691Y-101281680D01*
X145881409Y-101282936D01*
X145901176Y-101295175D01*
X145948229Y-101319150D01*
X145961776Y-101332697D01*
X145973114Y-101339717D01*
X145986432Y-101357353D01*
X146012850Y-101383771D01*
X146026267Y-101410103D01*
X146038114Y-101425791D01*
X146041418Y-101439838D01*
X146054340Y-101465199D01*
X146068686Y-101555777D01*
X146068883Y-101556614D01*
X146068883Y-101557020D01*
X146070194Y-101565297D01*
X146070194Y-102114703D01*
X146068883Y-102122980D01*
X146068883Y-102123386D01*
X146068462Y-102125637D01*
X146054340Y-102214801D01*
X146050320Y-102222691D01*
X146049064Y-102229409D01*
X146036825Y-102249176D01*
X146012850Y-102296229D01*
X145999303Y-102309776D01*
X145992283Y-102321114D01*
X145974647Y-102334432D01*
X145948229Y-102360850D01*
X145921897Y-102374267D01*
X145906209Y-102386114D01*
X145892162Y-102389418D01*
X145866801Y-102402340D01*
X145776223Y-102416686D01*
X145775386Y-102416883D01*
X145774980Y-102416883D01*
X145766703Y-102418194D01*
X145317297Y-102418194D01*
X145309020Y-102416883D01*
X145308614Y-102416883D01*
X145306363Y-102416462D01*
X145217199Y-102402340D01*
X145209309Y-102398320D01*
X145202591Y-102397064D01*
X145182824Y-102384825D01*
X145135771Y-102360850D01*
X145122224Y-102347303D01*
X145110886Y-102340283D01*
X145097568Y-102322647D01*
X145071150Y-102296229D01*
X145057733Y-102269897D01*
X145045886Y-102254209D01*
X145042582Y-102240162D01*
X145029660Y-102214801D01*
X145015314Y-102124223D01*
X145015117Y-102123386D01*
X145015117Y-102122980D01*
X145013806Y-102114703D01*
X145013806Y-101565297D01*
X145015117Y-101557020D01*
X145015117Y-101556614D01*
X145015538Y-101554363D01*
X145029660Y-101465199D01*
X145033680Y-101457309D01*
X145034936Y-101450591D01*
X145047175Y-101430824D01*
X145071150Y-101383771D01*
X145084697Y-101370224D01*
X145091717Y-101358886D01*
X145109353Y-101345568D01*
X145135771Y-101319150D01*
X145162103Y-101305733D01*
X145177791Y-101293886D01*
X145191838Y-101290582D01*
X145217199Y-101277660D01*
X145307777Y-101263314D01*
X145308614Y-101263117D01*
X145309020Y-101263117D01*
X145317297Y-101261806D01*
X145766703Y-101261806D01*
X145774980Y-101263117D01*
G37*
G36*
X150219980Y-101263117D02*
G01*
X150220386Y-101263117D01*
X150222637Y-101263538D01*
X150311801Y-101277660D01*
X150319691Y-101281680D01*
X150326409Y-101282936D01*
X150346176Y-101295175D01*
X150393229Y-101319150D01*
X150406776Y-101332697D01*
X150418114Y-101339717D01*
X150431432Y-101357353D01*
X150457850Y-101383771D01*
X150471267Y-101410103D01*
X150483114Y-101425791D01*
X150486418Y-101439838D01*
X150499340Y-101465199D01*
X150513686Y-101555777D01*
X150513883Y-101556614D01*
X150513883Y-101557020D01*
X150515194Y-101565297D01*
X150515194Y-102114703D01*
X150513883Y-102122980D01*
X150513883Y-102123386D01*
X150513462Y-102125637D01*
X150499340Y-102214801D01*
X150495320Y-102222691D01*
X150494064Y-102229409D01*
X150481825Y-102249176D01*
X150457850Y-102296229D01*
X150444303Y-102309776D01*
X150437283Y-102321114D01*
X150419647Y-102334432D01*
X150393229Y-102360850D01*
X150366897Y-102374267D01*
X150351209Y-102386114D01*
X150337162Y-102389418D01*
X150311801Y-102402340D01*
X150221223Y-102416686D01*
X150220386Y-102416883D01*
X150219980Y-102416883D01*
X150211703Y-102418194D01*
X149762297Y-102418194D01*
X149754020Y-102416883D01*
X149753614Y-102416883D01*
X149751363Y-102416462D01*
X149662199Y-102402340D01*
X149654309Y-102398320D01*
X149647591Y-102397064D01*
X149627824Y-102384825D01*
X149580771Y-102360850D01*
X149567224Y-102347303D01*
X149555886Y-102340283D01*
X149542568Y-102322647D01*
X149516150Y-102296229D01*
X149502733Y-102269897D01*
X149490886Y-102254209D01*
X149487582Y-102240162D01*
X149474660Y-102214801D01*
X149460314Y-102124223D01*
X149460117Y-102123386D01*
X149460117Y-102122980D01*
X149458806Y-102114703D01*
X149458806Y-101565297D01*
X149460117Y-101557020D01*
X149460117Y-101556614D01*
X149460538Y-101554363D01*
X149474660Y-101465199D01*
X149478680Y-101457309D01*
X149479936Y-101450591D01*
X149492175Y-101430824D01*
X149516150Y-101383771D01*
X149529697Y-101370224D01*
X149536717Y-101358886D01*
X149554353Y-101345568D01*
X149580771Y-101319150D01*
X149607103Y-101305733D01*
X149622791Y-101293886D01*
X149636838Y-101290582D01*
X149662199Y-101277660D01*
X149752777Y-101263314D01*
X149753614Y-101263117D01*
X149754020Y-101263117D01*
X149762297Y-101261806D01*
X150211703Y-101261806D01*
X150219980Y-101263117D01*
G37*
G36*
X154029980Y-101249117D02*
G01*
X154030386Y-101249117D01*
X154032637Y-101249538D01*
X154121801Y-101263660D01*
X154129691Y-101267680D01*
X154136409Y-101268936D01*
X154156176Y-101281175D01*
X154203229Y-101305150D01*
X154216776Y-101318697D01*
X154228114Y-101325717D01*
X154241432Y-101343353D01*
X154267850Y-101369771D01*
X154281267Y-101396103D01*
X154293114Y-101411791D01*
X154296418Y-101425838D01*
X154309340Y-101451199D01*
X154323686Y-101541777D01*
X154323883Y-101542614D01*
X154323883Y-101543020D01*
X154325194Y-101551297D01*
X154325194Y-102100703D01*
X154323883Y-102108980D01*
X154323883Y-102109386D01*
X154323462Y-102111637D01*
X154309340Y-102200801D01*
X154305320Y-102208691D01*
X154304064Y-102215409D01*
X154291825Y-102235176D01*
X154267850Y-102282229D01*
X154254303Y-102295776D01*
X154247283Y-102307114D01*
X154229647Y-102320432D01*
X154203229Y-102346850D01*
X154176897Y-102360267D01*
X154161209Y-102372114D01*
X154147162Y-102375418D01*
X154121801Y-102388340D01*
X154031223Y-102402686D01*
X154030386Y-102402883D01*
X154029980Y-102402883D01*
X154021703Y-102404194D01*
X153572297Y-102404194D01*
X153564020Y-102402883D01*
X153563614Y-102402883D01*
X153561363Y-102402462D01*
X153472199Y-102388340D01*
X153464309Y-102384320D01*
X153457591Y-102383064D01*
X153437824Y-102370825D01*
X153390771Y-102346850D01*
X153377224Y-102333303D01*
X153365886Y-102326283D01*
X153352568Y-102308647D01*
X153326150Y-102282229D01*
X153312733Y-102255897D01*
X153300886Y-102240209D01*
X153297582Y-102226162D01*
X153284660Y-102200801D01*
X153270314Y-102110223D01*
X153270117Y-102109386D01*
X153270117Y-102108980D01*
X153268806Y-102100703D01*
X153268806Y-101551297D01*
X153270117Y-101543020D01*
X153270117Y-101542614D01*
X153270538Y-101540363D01*
X153284660Y-101451199D01*
X153288680Y-101443309D01*
X153289936Y-101436591D01*
X153302175Y-101416824D01*
X153326150Y-101369771D01*
X153339697Y-101356224D01*
X153346717Y-101344886D01*
X153364353Y-101331568D01*
X153390771Y-101305150D01*
X153417103Y-101291733D01*
X153432791Y-101279886D01*
X153446838Y-101276582D01*
X153472199Y-101263660D01*
X153562777Y-101249314D01*
X153563614Y-101249117D01*
X153564020Y-101249117D01*
X153572297Y-101247806D01*
X154021703Y-101247806D01*
X154029980Y-101249117D01*
G37*
G36*
X140059980Y-101051117D02*
G01*
X140060386Y-101051117D01*
X140062637Y-101051538D01*
X140151801Y-101065660D01*
X140159691Y-101069680D01*
X140166409Y-101070936D01*
X140186176Y-101083175D01*
X140233229Y-101107150D01*
X140246776Y-101120697D01*
X140258114Y-101127717D01*
X140271432Y-101145353D01*
X140297850Y-101171771D01*
X140311267Y-101198103D01*
X140323114Y-101213791D01*
X140326418Y-101227838D01*
X140339340Y-101253199D01*
X140353686Y-101343777D01*
X140353883Y-101344614D01*
X140353883Y-101345020D01*
X140355194Y-101353297D01*
X140355194Y-101902703D01*
X140353883Y-101910980D01*
X140353883Y-101911386D01*
X140353462Y-101913637D01*
X140339340Y-102002801D01*
X140335320Y-102010691D01*
X140334064Y-102017409D01*
X140321825Y-102037176D01*
X140297850Y-102084229D01*
X140284303Y-102097776D01*
X140277283Y-102109114D01*
X140259647Y-102122432D01*
X140233229Y-102148850D01*
X140206897Y-102162267D01*
X140191209Y-102174114D01*
X140177162Y-102177418D01*
X140151801Y-102190340D01*
X140061223Y-102204686D01*
X140060386Y-102204883D01*
X140059980Y-102204883D01*
X140051703Y-102206194D01*
X139602297Y-102206194D01*
X139594020Y-102204883D01*
X139593614Y-102204883D01*
X139591363Y-102204462D01*
X139502199Y-102190340D01*
X139494309Y-102186320D01*
X139487591Y-102185064D01*
X139467824Y-102172825D01*
X139420771Y-102148850D01*
X139407224Y-102135303D01*
X139395886Y-102128283D01*
X139382568Y-102110647D01*
X139356150Y-102084229D01*
X139342733Y-102057897D01*
X139330886Y-102042209D01*
X139327582Y-102028162D01*
X139314660Y-102002801D01*
X139300314Y-101912223D01*
X139300117Y-101911386D01*
X139300117Y-101910980D01*
X139298806Y-101902703D01*
X139298806Y-101353297D01*
X139300117Y-101345020D01*
X139300117Y-101344614D01*
X139300538Y-101342363D01*
X139314660Y-101253199D01*
X139318680Y-101245309D01*
X139319936Y-101238591D01*
X139332175Y-101218824D01*
X139356150Y-101171771D01*
X139369697Y-101158224D01*
X139376717Y-101146886D01*
X139394353Y-101133568D01*
X139420771Y-101107150D01*
X139447103Y-101093733D01*
X139462791Y-101081886D01*
X139476838Y-101078582D01*
X139502199Y-101065660D01*
X139592777Y-101051314D01*
X139593614Y-101051117D01*
X139594020Y-101051117D01*
X139602297Y-101049806D01*
X140051703Y-101049806D01*
X140059980Y-101051117D01*
G37*
G36*
X145774980Y-99513117D02*
G01*
X145775386Y-99513117D01*
X145777637Y-99513538D01*
X145866801Y-99527660D01*
X145874691Y-99531680D01*
X145881409Y-99532936D01*
X145901176Y-99545175D01*
X145948229Y-99569150D01*
X145961776Y-99582697D01*
X145973114Y-99589717D01*
X145986432Y-99607353D01*
X146012850Y-99633771D01*
X146026267Y-99660103D01*
X146038114Y-99675791D01*
X146041418Y-99689838D01*
X146054340Y-99715199D01*
X146068686Y-99805777D01*
X146068883Y-99806614D01*
X146068883Y-99807020D01*
X146070194Y-99815297D01*
X146070194Y-100364703D01*
X146068883Y-100372980D01*
X146068883Y-100373386D01*
X146068462Y-100375637D01*
X146054340Y-100464801D01*
X146050320Y-100472691D01*
X146049064Y-100479409D01*
X146036825Y-100499176D01*
X146012850Y-100546229D01*
X145999303Y-100559776D01*
X145992283Y-100571114D01*
X145974647Y-100584432D01*
X145948229Y-100610850D01*
X145921897Y-100624267D01*
X145906209Y-100636114D01*
X145892162Y-100639418D01*
X145866801Y-100652340D01*
X145776223Y-100666686D01*
X145775386Y-100666883D01*
X145774980Y-100666883D01*
X145766703Y-100668194D01*
X145317297Y-100668194D01*
X145309020Y-100666883D01*
X145308614Y-100666883D01*
X145306363Y-100666462D01*
X145217199Y-100652340D01*
X145209309Y-100648320D01*
X145202591Y-100647064D01*
X145182824Y-100634825D01*
X145135771Y-100610850D01*
X145122224Y-100597303D01*
X145110886Y-100590283D01*
X145097568Y-100572647D01*
X145071150Y-100546229D01*
X145057733Y-100519897D01*
X145045886Y-100504209D01*
X145042582Y-100490162D01*
X145029660Y-100464801D01*
X145015314Y-100374223D01*
X145015117Y-100373386D01*
X145015117Y-100372980D01*
X145013806Y-100364703D01*
X145013806Y-99815297D01*
X145015117Y-99807020D01*
X145015117Y-99806614D01*
X145015538Y-99804363D01*
X145029660Y-99715199D01*
X145033680Y-99707309D01*
X145034936Y-99700591D01*
X145047175Y-99680824D01*
X145071150Y-99633771D01*
X145084697Y-99620224D01*
X145091717Y-99608886D01*
X145109353Y-99595568D01*
X145135771Y-99569150D01*
X145162103Y-99555733D01*
X145177791Y-99543886D01*
X145191838Y-99540582D01*
X145217199Y-99527660D01*
X145307777Y-99513314D01*
X145308614Y-99513117D01*
X145309020Y-99513117D01*
X145317297Y-99511806D01*
X145766703Y-99511806D01*
X145774980Y-99513117D01*
G37*
G36*
X142218980Y-99513117D02*
G01*
X142219386Y-99513117D01*
X142221637Y-99513538D01*
X142310801Y-99527660D01*
X142318691Y-99531680D01*
X142325409Y-99532936D01*
X142345176Y-99545175D01*
X142392229Y-99569150D01*
X142405776Y-99582697D01*
X142417114Y-99589717D01*
X142430432Y-99607353D01*
X142456850Y-99633771D01*
X142470267Y-99660103D01*
X142482114Y-99675791D01*
X142485418Y-99689838D01*
X142498340Y-99715199D01*
X142512686Y-99805777D01*
X142512883Y-99806614D01*
X142512883Y-99807020D01*
X142514194Y-99815297D01*
X142514194Y-100364703D01*
X142512883Y-100372980D01*
X142512883Y-100373386D01*
X142512462Y-100375637D01*
X142498340Y-100464801D01*
X142494320Y-100472691D01*
X142493064Y-100479409D01*
X142480825Y-100499176D01*
X142456850Y-100546229D01*
X142443303Y-100559776D01*
X142436283Y-100571114D01*
X142418647Y-100584432D01*
X142392229Y-100610850D01*
X142365897Y-100624267D01*
X142350209Y-100636114D01*
X142336162Y-100639418D01*
X142310801Y-100652340D01*
X142220223Y-100666686D01*
X142219386Y-100666883D01*
X142218980Y-100666883D01*
X142210703Y-100668194D01*
X141761297Y-100668194D01*
X141753020Y-100666883D01*
X141752614Y-100666883D01*
X141750363Y-100666462D01*
X141661199Y-100652340D01*
X141653309Y-100648320D01*
X141646591Y-100647064D01*
X141626824Y-100634825D01*
X141579771Y-100610850D01*
X141566224Y-100597303D01*
X141554886Y-100590283D01*
X141541568Y-100572647D01*
X141515150Y-100546229D01*
X141501733Y-100519897D01*
X141489886Y-100504209D01*
X141486582Y-100490162D01*
X141473660Y-100464801D01*
X141459314Y-100374223D01*
X141459117Y-100373386D01*
X141459117Y-100372980D01*
X141457806Y-100364703D01*
X141457806Y-99815297D01*
X141459117Y-99807020D01*
X141459117Y-99806614D01*
X141459538Y-99804363D01*
X141473660Y-99715199D01*
X141477680Y-99707309D01*
X141478936Y-99700591D01*
X141491175Y-99680824D01*
X141515150Y-99633771D01*
X141528697Y-99620224D01*
X141535717Y-99608886D01*
X141553353Y-99595568D01*
X141579771Y-99569150D01*
X141606103Y-99555733D01*
X141621791Y-99543886D01*
X141635838Y-99540582D01*
X141661199Y-99527660D01*
X141751777Y-99513314D01*
X141752614Y-99513117D01*
X141753020Y-99513117D01*
X141761297Y-99511806D01*
X142210703Y-99511806D01*
X142218980Y-99513117D01*
G37*
G36*
X150219980Y-99513117D02*
G01*
X150220386Y-99513117D01*
X150222637Y-99513538D01*
X150311801Y-99527660D01*
X150319691Y-99531680D01*
X150326409Y-99532936D01*
X150346176Y-99545175D01*
X150393229Y-99569150D01*
X150406776Y-99582697D01*
X150418114Y-99589717D01*
X150431432Y-99607353D01*
X150457850Y-99633771D01*
X150471267Y-99660103D01*
X150483114Y-99675791D01*
X150486418Y-99689838D01*
X150499340Y-99715199D01*
X150513686Y-99805777D01*
X150513883Y-99806614D01*
X150513883Y-99807020D01*
X150515194Y-99815297D01*
X150515194Y-100364703D01*
X150513883Y-100372980D01*
X150513883Y-100373386D01*
X150513462Y-100375637D01*
X150499340Y-100464801D01*
X150495320Y-100472691D01*
X150494064Y-100479409D01*
X150481825Y-100499176D01*
X150457850Y-100546229D01*
X150444303Y-100559776D01*
X150437283Y-100571114D01*
X150419647Y-100584432D01*
X150393229Y-100610850D01*
X150366897Y-100624267D01*
X150351209Y-100636114D01*
X150337162Y-100639418D01*
X150311801Y-100652340D01*
X150221223Y-100666686D01*
X150220386Y-100666883D01*
X150219980Y-100666883D01*
X150211703Y-100668194D01*
X149762297Y-100668194D01*
X149754020Y-100666883D01*
X149753614Y-100666883D01*
X149751363Y-100666462D01*
X149662199Y-100652340D01*
X149654309Y-100648320D01*
X149647591Y-100647064D01*
X149627824Y-100634825D01*
X149580771Y-100610850D01*
X149567224Y-100597303D01*
X149555886Y-100590283D01*
X149542568Y-100572647D01*
X149516150Y-100546229D01*
X149502733Y-100519897D01*
X149490886Y-100504209D01*
X149487582Y-100490162D01*
X149474660Y-100464801D01*
X149460314Y-100374223D01*
X149460117Y-100373386D01*
X149460117Y-100372980D01*
X149458806Y-100364703D01*
X149458806Y-99815297D01*
X149460117Y-99807020D01*
X149460117Y-99806614D01*
X149460538Y-99804363D01*
X149474660Y-99715199D01*
X149478680Y-99707309D01*
X149479936Y-99700591D01*
X149492175Y-99680824D01*
X149516150Y-99633771D01*
X149529697Y-99620224D01*
X149536717Y-99608886D01*
X149554353Y-99595568D01*
X149580771Y-99569150D01*
X149607103Y-99555733D01*
X149622791Y-99543886D01*
X149636838Y-99540582D01*
X149662199Y-99527660D01*
X149752777Y-99513314D01*
X149753614Y-99513117D01*
X149754020Y-99513117D01*
X149762297Y-99511806D01*
X150211703Y-99511806D01*
X150219980Y-99513117D01*
G37*
G36*
X154029980Y-99499117D02*
G01*
X154030386Y-99499117D01*
X154032637Y-99499538D01*
X154121801Y-99513660D01*
X154129691Y-99517680D01*
X154136409Y-99518936D01*
X154156176Y-99531175D01*
X154203229Y-99555150D01*
X154216776Y-99568697D01*
X154228114Y-99575717D01*
X154241432Y-99593353D01*
X154267850Y-99619771D01*
X154281267Y-99646103D01*
X154293114Y-99661791D01*
X154296418Y-99675838D01*
X154309340Y-99701199D01*
X154323686Y-99791777D01*
X154323883Y-99792614D01*
X154323883Y-99793020D01*
X154325194Y-99801297D01*
X154325194Y-100350703D01*
X154323883Y-100358980D01*
X154323883Y-100359386D01*
X154323462Y-100361637D01*
X154309340Y-100450801D01*
X154305320Y-100458691D01*
X154304064Y-100465409D01*
X154291825Y-100485176D01*
X154267850Y-100532229D01*
X154254303Y-100545776D01*
X154247283Y-100557114D01*
X154229647Y-100570432D01*
X154203229Y-100596850D01*
X154176897Y-100610267D01*
X154161209Y-100622114D01*
X154147162Y-100625418D01*
X154121801Y-100638340D01*
X154031223Y-100652686D01*
X154030386Y-100652883D01*
X154029980Y-100652883D01*
X154021703Y-100654194D01*
X153572297Y-100654194D01*
X153564020Y-100652883D01*
X153563614Y-100652883D01*
X153561363Y-100652462D01*
X153472199Y-100638340D01*
X153464309Y-100634320D01*
X153457591Y-100633064D01*
X153437824Y-100620825D01*
X153390771Y-100596850D01*
X153377224Y-100583303D01*
X153365886Y-100576283D01*
X153352568Y-100558647D01*
X153326150Y-100532229D01*
X153312733Y-100505897D01*
X153300886Y-100490209D01*
X153297582Y-100476162D01*
X153284660Y-100450801D01*
X153270314Y-100360223D01*
X153270117Y-100359386D01*
X153270117Y-100358980D01*
X153268806Y-100350703D01*
X153268806Y-99801297D01*
X153270117Y-99793020D01*
X153270117Y-99792614D01*
X153270538Y-99790363D01*
X153284660Y-99701199D01*
X153288680Y-99693309D01*
X153289936Y-99686591D01*
X153302175Y-99666824D01*
X153326150Y-99619771D01*
X153339697Y-99606224D01*
X153346717Y-99594886D01*
X153364353Y-99581568D01*
X153390771Y-99555150D01*
X153417103Y-99541733D01*
X153432791Y-99529886D01*
X153446838Y-99526582D01*
X153472199Y-99513660D01*
X153562777Y-99499314D01*
X153563614Y-99499117D01*
X153564020Y-99499117D01*
X153572297Y-99497806D01*
X154021703Y-99497806D01*
X154029980Y-99499117D01*
G37*
G36*
X136122980Y-98850117D02*
G01*
X136123386Y-98850117D01*
X136125637Y-98850538D01*
X136214801Y-98864660D01*
X136222691Y-98868680D01*
X136229409Y-98869936D01*
X136249176Y-98882175D01*
X136296229Y-98906150D01*
X136309776Y-98919697D01*
X136321114Y-98926717D01*
X136334432Y-98944353D01*
X136360850Y-98970771D01*
X136374267Y-98997103D01*
X136386114Y-99012791D01*
X136389418Y-99026838D01*
X136402340Y-99052199D01*
X136416686Y-99142777D01*
X136416883Y-99143614D01*
X136416883Y-99144020D01*
X136418194Y-99152297D01*
X136418194Y-99701703D01*
X136416883Y-99709980D01*
X136416883Y-99710386D01*
X136416462Y-99712637D01*
X136402340Y-99801801D01*
X136398320Y-99809691D01*
X136397064Y-99816409D01*
X136384825Y-99836176D01*
X136360850Y-99883229D01*
X136347303Y-99896776D01*
X136340283Y-99908114D01*
X136322647Y-99921432D01*
X136296229Y-99947850D01*
X136269897Y-99961267D01*
X136254209Y-99973114D01*
X136240162Y-99976418D01*
X136214801Y-99989340D01*
X136124223Y-100003686D01*
X136123386Y-100003883D01*
X136122980Y-100003883D01*
X136114703Y-100005194D01*
X135665297Y-100005194D01*
X135657020Y-100003883D01*
X135656614Y-100003883D01*
X135654363Y-100003462D01*
X135565199Y-99989340D01*
X135557309Y-99985320D01*
X135550591Y-99984064D01*
X135530824Y-99971825D01*
X135483771Y-99947850D01*
X135470224Y-99934303D01*
X135458886Y-99927283D01*
X135445568Y-99909647D01*
X135419150Y-99883229D01*
X135405733Y-99856897D01*
X135393886Y-99841209D01*
X135390582Y-99827162D01*
X135377660Y-99801801D01*
X135363314Y-99711223D01*
X135363117Y-99710386D01*
X135363117Y-99709980D01*
X135361806Y-99701703D01*
X135361806Y-99152297D01*
X135363117Y-99144020D01*
X135363117Y-99143614D01*
X135363538Y-99141363D01*
X135377660Y-99052199D01*
X135381680Y-99044309D01*
X135382936Y-99037591D01*
X135395175Y-99017824D01*
X135419150Y-98970771D01*
X135432697Y-98957224D01*
X135439717Y-98945886D01*
X135457353Y-98932568D01*
X135483771Y-98906150D01*
X135510103Y-98892733D01*
X135525791Y-98880886D01*
X135539838Y-98877582D01*
X135565199Y-98864660D01*
X135655777Y-98850314D01*
X135656614Y-98850117D01*
X135657020Y-98850117D01*
X135665297Y-98848806D01*
X136114703Y-98848806D01*
X136122980Y-98850117D01*
G37*
G36*
X162030980Y-98850117D02*
G01*
X162031386Y-98850117D01*
X162033637Y-98850538D01*
X162122801Y-98864660D01*
X162130691Y-98868680D01*
X162137409Y-98869936D01*
X162157176Y-98882175D01*
X162204229Y-98906150D01*
X162217776Y-98919697D01*
X162229114Y-98926717D01*
X162242432Y-98944353D01*
X162268850Y-98970771D01*
X162282267Y-98997103D01*
X162294114Y-99012791D01*
X162297418Y-99026838D01*
X162310340Y-99052199D01*
X162324686Y-99142777D01*
X162324883Y-99143614D01*
X162324883Y-99144020D01*
X162326194Y-99152297D01*
X162326194Y-99701703D01*
X162324883Y-99709980D01*
X162324883Y-99710386D01*
X162324462Y-99712637D01*
X162310340Y-99801801D01*
X162306320Y-99809691D01*
X162305064Y-99816409D01*
X162292825Y-99836176D01*
X162268850Y-99883229D01*
X162255303Y-99896776D01*
X162248283Y-99908114D01*
X162230647Y-99921432D01*
X162204229Y-99947850D01*
X162177897Y-99961267D01*
X162162209Y-99973114D01*
X162148162Y-99976418D01*
X162122801Y-99989340D01*
X162032223Y-100003686D01*
X162031386Y-100003883D01*
X162030980Y-100003883D01*
X162022703Y-100005194D01*
X161573297Y-100005194D01*
X161565020Y-100003883D01*
X161564614Y-100003883D01*
X161562363Y-100003462D01*
X161473199Y-99989340D01*
X161465309Y-99985320D01*
X161458591Y-99984064D01*
X161438824Y-99971825D01*
X161391771Y-99947850D01*
X161378224Y-99934303D01*
X161366886Y-99927283D01*
X161353568Y-99909647D01*
X161327150Y-99883229D01*
X161313733Y-99856897D01*
X161301886Y-99841209D01*
X161298582Y-99827162D01*
X161285660Y-99801801D01*
X161271314Y-99711223D01*
X161271117Y-99710386D01*
X161271117Y-99709980D01*
X161269806Y-99701703D01*
X161269806Y-99152297D01*
X161271117Y-99144020D01*
X161271117Y-99143614D01*
X161271538Y-99141363D01*
X161285660Y-99052199D01*
X161289680Y-99044309D01*
X161290936Y-99037591D01*
X161303175Y-99017824D01*
X161327150Y-98970771D01*
X161340697Y-98957224D01*
X161347717Y-98945886D01*
X161365353Y-98932568D01*
X161391771Y-98906150D01*
X161418103Y-98892733D01*
X161433791Y-98880886D01*
X161447838Y-98877582D01*
X161473199Y-98864660D01*
X161563777Y-98850314D01*
X161564614Y-98850117D01*
X161565020Y-98850117D01*
X161573297Y-98848806D01*
X162022703Y-98848806D01*
X162030980Y-98850117D01*
G37*
G36*
X160727899Y-99053959D02*
G01*
X160744769Y-99065231D01*
X160756041Y-99082101D01*
X160762448Y-99114312D01*
X160762448Y-99889688D01*
X160759999Y-99902000D01*
X160756041Y-99921899D01*
X160744769Y-99938769D01*
X160727899Y-99950041D01*
X160708000Y-99953999D01*
X160695688Y-99956448D01*
X159820312Y-99956448D01*
X159788101Y-99950041D01*
X159771231Y-99938769D01*
X159759959Y-99921899D01*
X159753552Y-99889688D01*
X159753552Y-99114312D01*
X159759959Y-99082101D01*
X159771231Y-99065231D01*
X159788101Y-99053959D01*
X159820312Y-99047552D01*
X160695688Y-99047552D01*
X160727899Y-99053959D01*
G37*
G36*
X138026899Y-99053959D02*
G01*
X138043769Y-99065231D01*
X138055041Y-99082101D01*
X138061448Y-99114312D01*
X138061448Y-99889688D01*
X138058999Y-99902000D01*
X138055041Y-99921899D01*
X138043769Y-99938769D01*
X138026899Y-99950041D01*
X138007000Y-99953999D01*
X137994688Y-99956448D01*
X137119312Y-99956448D01*
X137087101Y-99950041D01*
X137070231Y-99938769D01*
X137058959Y-99921899D01*
X137052552Y-99889688D01*
X137052552Y-99114312D01*
X137058959Y-99082101D01*
X137070231Y-99065231D01*
X137087101Y-99053959D01*
X137119312Y-99047552D01*
X137994688Y-99047552D01*
X138026899Y-99053959D01*
G37*
G36*
X155196976Y-97381826D02*
G01*
X155238766Y-97379782D01*
X155283056Y-97386639D01*
X155333810Y-97389476D01*
X155374163Y-97400743D01*
X155409621Y-97406232D01*
X155457204Y-97423928D01*
X155511898Y-97439199D01*
X155543622Y-97456067D01*
X155571659Y-97466494D01*
X155619757Y-97496549D01*
X155675153Y-97526004D01*
X155697968Y-97545421D01*
X155718271Y-97558108D01*
X155763641Y-97601313D01*
X155815961Y-97645841D01*
X155830463Y-97664947D01*
X155843472Y-97677335D01*
X155882616Y-97733655D01*
X155927751Y-97793118D01*
X155935302Y-97809459D01*
X155942142Y-97819301D01*
X155971508Y-97887817D01*
X156005307Y-97960965D01*
X156007885Y-97972692D01*
X156010247Y-97978202D01*
X156026429Y-98057036D01*
X156045011Y-98141551D01*
X156044345Y-98332388D01*
X156025181Y-98416738D01*
X156008443Y-98495485D01*
X156006041Y-98500982D01*
X156003381Y-98512692D01*
X155969069Y-98585609D01*
X155939227Y-98653915D01*
X155932318Y-98663709D01*
X155924655Y-98679994D01*
X155879114Y-98739130D01*
X155839570Y-98795187D01*
X155826472Y-98807487D01*
X155811840Y-98826487D01*
X155759227Y-98870635D01*
X155713544Y-98913534D01*
X155693147Y-98926082D01*
X155670199Y-98945338D01*
X155614600Y-98974405D01*
X155566293Y-99004123D01*
X155538184Y-99014354D01*
X155506341Y-99031001D01*
X155451534Y-99045892D01*
X155403831Y-99063254D01*
X155368340Y-99068495D01*
X155327911Y-99079479D01*
X155277139Y-99081962D01*
X155232803Y-99088509D01*
X155191027Y-99086174D01*
X155143233Y-99088511D01*
X155098992Y-99081028D01*
X155060189Y-99078859D01*
X155013980Y-99066650D01*
X154960923Y-99057676D01*
X154924839Y-99043097D01*
X154893035Y-99034694D01*
X154844897Y-99010799D01*
X154789488Y-98988412D01*
X154762311Y-98969804D01*
X154738182Y-98957826D01*
X154691128Y-98921063D01*
X154636926Y-98883950D01*
X154618469Y-98864295D01*
X154601950Y-98851389D01*
X154559400Y-98801393D01*
X154510354Y-98749164D01*
X154499608Y-98731138D01*
X154489896Y-98719726D01*
X154455401Y-98656981D01*
X154415678Y-98590344D01*
X154410943Y-98576111D01*
X154406610Y-98568229D01*
X154383692Y-98494192D01*
X154357314Y-98414898D01*
X154356372Y-98405934D01*
X154355486Y-98403072D01*
X154347347Y-98320068D01*
X154337987Y-98231012D01*
X154347967Y-98142044D01*
X154356687Y-98059078D01*
X154357593Y-98056220D01*
X154358598Y-98047265D01*
X154385530Y-97968153D01*
X154408963Y-97894281D01*
X154413350Y-97886432D01*
X154418184Y-97872231D01*
X154458382Y-97805857D01*
X154493304Y-97743371D01*
X154503092Y-97732031D01*
X154513967Y-97714075D01*
X154563385Y-97662181D01*
X154606273Y-97612495D01*
X154622879Y-97599707D01*
X154641477Y-97580177D01*
X154695952Y-97543433D01*
X154743250Y-97507009D01*
X154767458Y-97495202D01*
X154794765Y-97476783D01*
X154850319Y-97454787D01*
X154898633Y-97431223D01*
X154930503Y-97423040D01*
X154966679Y-97408717D01*
X155019795Y-97400114D01*
X155066088Y-97388228D01*
X155104903Y-97386330D01*
X155149199Y-97379155D01*
X155196976Y-97381826D01*
G37*
G36*
X150116976Y-97381826D02*
G01*
X150158766Y-97379782D01*
X150203056Y-97386639D01*
X150253810Y-97389476D01*
X150294163Y-97400743D01*
X150329621Y-97406232D01*
X150377204Y-97423928D01*
X150431898Y-97439199D01*
X150463622Y-97456067D01*
X150491659Y-97466494D01*
X150539757Y-97496549D01*
X150595153Y-97526004D01*
X150617968Y-97545421D01*
X150638271Y-97558108D01*
X150683641Y-97601313D01*
X150735961Y-97645841D01*
X150750463Y-97664947D01*
X150763472Y-97677335D01*
X150802616Y-97733655D01*
X150847751Y-97793118D01*
X150855302Y-97809459D01*
X150862142Y-97819301D01*
X150891508Y-97887817D01*
X150925307Y-97960965D01*
X150927885Y-97972692D01*
X150930247Y-97978202D01*
X150946429Y-98057036D01*
X150965011Y-98141551D01*
X150964345Y-98332388D01*
X150945181Y-98416738D01*
X150928443Y-98495485D01*
X150926041Y-98500982D01*
X150923381Y-98512692D01*
X150889069Y-98585609D01*
X150859227Y-98653915D01*
X150852318Y-98663709D01*
X150844655Y-98679994D01*
X150799114Y-98739130D01*
X150759570Y-98795187D01*
X150746472Y-98807487D01*
X150731840Y-98826487D01*
X150679227Y-98870635D01*
X150633544Y-98913534D01*
X150613147Y-98926082D01*
X150590199Y-98945338D01*
X150534600Y-98974405D01*
X150486293Y-99004123D01*
X150458184Y-99014354D01*
X150426341Y-99031001D01*
X150371534Y-99045892D01*
X150323831Y-99063254D01*
X150288340Y-99068495D01*
X150247911Y-99079479D01*
X150197139Y-99081962D01*
X150152803Y-99088509D01*
X150111027Y-99086174D01*
X150063233Y-99088511D01*
X150018992Y-99081028D01*
X149980189Y-99078859D01*
X149933980Y-99066650D01*
X149880923Y-99057676D01*
X149844839Y-99043097D01*
X149813035Y-99034694D01*
X149764897Y-99010799D01*
X149709488Y-98988412D01*
X149682311Y-98969804D01*
X149658182Y-98957826D01*
X149611128Y-98921063D01*
X149556926Y-98883950D01*
X149538469Y-98864295D01*
X149521950Y-98851389D01*
X149479400Y-98801393D01*
X149430354Y-98749164D01*
X149419608Y-98731138D01*
X149409896Y-98719726D01*
X149375401Y-98656981D01*
X149335678Y-98590344D01*
X149330943Y-98576111D01*
X149326610Y-98568229D01*
X149303692Y-98494192D01*
X149277314Y-98414898D01*
X149276372Y-98405934D01*
X149275486Y-98403072D01*
X149267347Y-98320068D01*
X149257987Y-98231012D01*
X149267967Y-98142044D01*
X149276687Y-98059078D01*
X149277593Y-98056220D01*
X149278598Y-98047265D01*
X149305530Y-97968153D01*
X149328963Y-97894281D01*
X149333350Y-97886432D01*
X149338184Y-97872231D01*
X149378382Y-97805857D01*
X149413304Y-97743371D01*
X149423092Y-97732031D01*
X149433967Y-97714075D01*
X149483385Y-97662181D01*
X149526273Y-97612495D01*
X149542879Y-97599707D01*
X149561477Y-97580177D01*
X149615952Y-97543433D01*
X149663250Y-97507009D01*
X149687458Y-97495202D01*
X149714765Y-97476783D01*
X149770319Y-97454787D01*
X149818633Y-97431223D01*
X149850503Y-97423040D01*
X149886679Y-97408717D01*
X149939795Y-97400114D01*
X149986088Y-97388228D01*
X150024903Y-97386330D01*
X150069199Y-97379155D01*
X150116976Y-97381826D01*
G37*
G36*
X145036976Y-97381826D02*
G01*
X145078766Y-97379782D01*
X145123056Y-97386639D01*
X145173810Y-97389476D01*
X145214163Y-97400743D01*
X145249621Y-97406232D01*
X145297204Y-97423928D01*
X145351898Y-97439199D01*
X145383622Y-97456067D01*
X145411659Y-97466494D01*
X145459757Y-97496549D01*
X145515153Y-97526004D01*
X145537968Y-97545421D01*
X145558271Y-97558108D01*
X145603641Y-97601313D01*
X145655961Y-97645841D01*
X145670463Y-97664947D01*
X145683472Y-97677335D01*
X145722616Y-97733655D01*
X145767751Y-97793118D01*
X145775302Y-97809459D01*
X145782142Y-97819301D01*
X145811508Y-97887817D01*
X145845307Y-97960965D01*
X145847885Y-97972692D01*
X145850247Y-97978202D01*
X145866429Y-98057036D01*
X145885011Y-98141551D01*
X145884345Y-98332388D01*
X145865181Y-98416738D01*
X145848443Y-98495485D01*
X145846041Y-98500982D01*
X145843381Y-98512692D01*
X145809069Y-98585609D01*
X145779227Y-98653915D01*
X145772318Y-98663709D01*
X145764655Y-98679994D01*
X145719114Y-98739130D01*
X145679570Y-98795187D01*
X145666472Y-98807487D01*
X145651840Y-98826487D01*
X145599227Y-98870635D01*
X145553544Y-98913534D01*
X145533147Y-98926082D01*
X145510199Y-98945338D01*
X145454600Y-98974405D01*
X145406293Y-99004123D01*
X145378184Y-99014354D01*
X145346341Y-99031001D01*
X145291534Y-99045892D01*
X145243831Y-99063254D01*
X145208340Y-99068495D01*
X145167911Y-99079479D01*
X145117139Y-99081962D01*
X145072803Y-99088509D01*
X145031027Y-99086174D01*
X144983233Y-99088511D01*
X144938992Y-99081028D01*
X144900189Y-99078859D01*
X144853980Y-99066650D01*
X144800923Y-99057676D01*
X144764839Y-99043097D01*
X144733035Y-99034694D01*
X144684897Y-99010799D01*
X144629488Y-98988412D01*
X144602311Y-98969804D01*
X144578182Y-98957826D01*
X144531128Y-98921063D01*
X144476926Y-98883950D01*
X144458469Y-98864295D01*
X144441950Y-98851389D01*
X144399400Y-98801393D01*
X144350354Y-98749164D01*
X144339608Y-98731138D01*
X144329896Y-98719726D01*
X144295401Y-98656981D01*
X144255678Y-98590344D01*
X144250943Y-98576111D01*
X144246610Y-98568229D01*
X144223692Y-98494192D01*
X144197314Y-98414898D01*
X144196372Y-98405934D01*
X144195486Y-98403072D01*
X144187347Y-98320068D01*
X144177987Y-98231012D01*
X144187967Y-98142044D01*
X144196687Y-98059078D01*
X144197593Y-98056220D01*
X144198598Y-98047265D01*
X144225530Y-97968153D01*
X144248963Y-97894281D01*
X144253350Y-97886432D01*
X144258184Y-97872231D01*
X144298382Y-97805857D01*
X144333304Y-97743371D01*
X144343092Y-97732031D01*
X144353967Y-97714075D01*
X144403385Y-97662181D01*
X144446273Y-97612495D01*
X144462879Y-97599707D01*
X144481477Y-97580177D01*
X144535952Y-97543433D01*
X144583250Y-97507009D01*
X144607458Y-97495202D01*
X144634765Y-97476783D01*
X144690319Y-97454787D01*
X144738633Y-97431223D01*
X144770503Y-97423040D01*
X144806679Y-97408717D01*
X144859795Y-97400114D01*
X144906088Y-97388228D01*
X144944903Y-97386330D01*
X144989199Y-97379155D01*
X145036976Y-97381826D01*
G37*
G36*
X147576976Y-97381826D02*
G01*
X147618766Y-97379782D01*
X147663056Y-97386639D01*
X147713810Y-97389476D01*
X147754163Y-97400743D01*
X147789621Y-97406232D01*
X147837204Y-97423928D01*
X147891898Y-97439199D01*
X147923622Y-97456067D01*
X147951659Y-97466494D01*
X147999757Y-97496549D01*
X148055153Y-97526004D01*
X148077968Y-97545421D01*
X148098271Y-97558108D01*
X148143641Y-97601313D01*
X148195961Y-97645841D01*
X148210463Y-97664947D01*
X148223472Y-97677335D01*
X148262616Y-97733655D01*
X148307751Y-97793118D01*
X148315302Y-97809459D01*
X148322142Y-97819301D01*
X148351508Y-97887817D01*
X148385307Y-97960965D01*
X148387885Y-97972692D01*
X148390247Y-97978202D01*
X148406429Y-98057036D01*
X148425011Y-98141551D01*
X148424345Y-98332388D01*
X148405181Y-98416738D01*
X148388443Y-98495485D01*
X148386041Y-98500982D01*
X148383381Y-98512692D01*
X148349069Y-98585609D01*
X148319227Y-98653915D01*
X148312318Y-98663709D01*
X148304655Y-98679994D01*
X148259114Y-98739130D01*
X148219570Y-98795187D01*
X148206472Y-98807487D01*
X148191840Y-98826487D01*
X148139227Y-98870635D01*
X148093544Y-98913534D01*
X148073147Y-98926082D01*
X148050199Y-98945338D01*
X147994600Y-98974405D01*
X147946293Y-99004123D01*
X147918184Y-99014354D01*
X147886341Y-99031001D01*
X147831534Y-99045892D01*
X147783831Y-99063254D01*
X147748340Y-99068495D01*
X147707911Y-99079479D01*
X147657139Y-99081962D01*
X147612803Y-99088509D01*
X147571027Y-99086174D01*
X147523233Y-99088511D01*
X147478992Y-99081028D01*
X147440189Y-99078859D01*
X147393980Y-99066650D01*
X147340923Y-99057676D01*
X147304839Y-99043097D01*
X147273035Y-99034694D01*
X147224897Y-99010799D01*
X147169488Y-98988412D01*
X147142311Y-98969804D01*
X147118182Y-98957826D01*
X147071128Y-98921063D01*
X147016926Y-98883950D01*
X146998469Y-98864295D01*
X146981950Y-98851389D01*
X146939400Y-98801393D01*
X146890354Y-98749164D01*
X146879608Y-98731138D01*
X146869896Y-98719726D01*
X146835401Y-98656981D01*
X146795678Y-98590344D01*
X146790943Y-98576111D01*
X146786610Y-98568229D01*
X146763692Y-98494192D01*
X146737314Y-98414898D01*
X146736372Y-98405934D01*
X146735486Y-98403072D01*
X146727347Y-98320068D01*
X146717987Y-98231012D01*
X146727967Y-98142044D01*
X146736687Y-98059078D01*
X146737593Y-98056220D01*
X146738598Y-98047265D01*
X146765530Y-97968153D01*
X146788963Y-97894281D01*
X146793350Y-97886432D01*
X146798184Y-97872231D01*
X146838382Y-97805857D01*
X146873304Y-97743371D01*
X146883092Y-97732031D01*
X146893967Y-97714075D01*
X146943385Y-97662181D01*
X146986273Y-97612495D01*
X147002879Y-97599707D01*
X147021477Y-97580177D01*
X147075952Y-97543433D01*
X147123250Y-97507009D01*
X147147458Y-97495202D01*
X147174765Y-97476783D01*
X147230319Y-97454787D01*
X147278633Y-97431223D01*
X147310503Y-97423040D01*
X147346679Y-97408717D01*
X147399795Y-97400114D01*
X147446088Y-97388228D01*
X147484903Y-97386330D01*
X147529199Y-97379155D01*
X147576976Y-97381826D01*
G37*
G36*
X142496976Y-97381826D02*
G01*
X142538766Y-97379782D01*
X142583056Y-97386639D01*
X142633810Y-97389476D01*
X142674163Y-97400743D01*
X142709621Y-97406232D01*
X142757204Y-97423928D01*
X142811898Y-97439199D01*
X142843622Y-97456067D01*
X142871659Y-97466494D01*
X142919757Y-97496549D01*
X142975153Y-97526004D01*
X142997968Y-97545421D01*
X143018271Y-97558108D01*
X143063641Y-97601313D01*
X143115961Y-97645841D01*
X143130463Y-97664947D01*
X143143472Y-97677335D01*
X143182616Y-97733655D01*
X143227751Y-97793118D01*
X143235302Y-97809459D01*
X143242142Y-97819301D01*
X143271508Y-97887817D01*
X143305307Y-97960965D01*
X143307885Y-97972692D01*
X143310247Y-97978202D01*
X143326429Y-98057036D01*
X143345011Y-98141551D01*
X143344345Y-98332388D01*
X143325181Y-98416738D01*
X143308443Y-98495485D01*
X143306041Y-98500982D01*
X143303381Y-98512692D01*
X143269069Y-98585609D01*
X143239227Y-98653915D01*
X143232318Y-98663709D01*
X143224655Y-98679994D01*
X143179114Y-98739130D01*
X143139570Y-98795187D01*
X143126472Y-98807487D01*
X143111840Y-98826487D01*
X143059227Y-98870635D01*
X143013544Y-98913534D01*
X142993147Y-98926082D01*
X142970199Y-98945338D01*
X142914600Y-98974405D01*
X142866293Y-99004123D01*
X142838184Y-99014354D01*
X142806341Y-99031001D01*
X142751534Y-99045892D01*
X142703831Y-99063254D01*
X142668340Y-99068495D01*
X142627911Y-99079479D01*
X142577139Y-99081962D01*
X142532803Y-99088509D01*
X142491027Y-99086174D01*
X142443233Y-99088511D01*
X142398992Y-99081028D01*
X142360189Y-99078859D01*
X142313980Y-99066650D01*
X142260923Y-99057676D01*
X142224839Y-99043097D01*
X142193035Y-99034694D01*
X142144897Y-99010799D01*
X142089488Y-98988412D01*
X142062311Y-98969804D01*
X142038182Y-98957826D01*
X141991128Y-98921063D01*
X141936926Y-98883950D01*
X141918469Y-98864295D01*
X141901950Y-98851389D01*
X141859400Y-98801393D01*
X141810354Y-98749164D01*
X141799608Y-98731138D01*
X141789896Y-98719726D01*
X141755401Y-98656981D01*
X141715678Y-98590344D01*
X141710943Y-98576111D01*
X141706610Y-98568229D01*
X141683692Y-98494192D01*
X141657314Y-98414898D01*
X141656372Y-98405934D01*
X141655486Y-98403072D01*
X141647347Y-98320068D01*
X141637987Y-98231012D01*
X141647967Y-98142044D01*
X141656687Y-98059078D01*
X141657593Y-98056220D01*
X141658598Y-98047265D01*
X141685530Y-97968153D01*
X141708963Y-97894281D01*
X141713350Y-97886432D01*
X141718184Y-97872231D01*
X141758382Y-97805857D01*
X141793304Y-97743371D01*
X141803092Y-97732031D01*
X141813967Y-97714075D01*
X141863385Y-97662181D01*
X141906273Y-97612495D01*
X141922879Y-97599707D01*
X141941477Y-97580177D01*
X141995952Y-97543433D01*
X142043250Y-97507009D01*
X142067458Y-97495202D01*
X142094765Y-97476783D01*
X142150319Y-97454787D01*
X142198633Y-97431223D01*
X142230503Y-97423040D01*
X142266679Y-97408717D01*
X142319795Y-97400114D01*
X142366088Y-97388228D01*
X142404903Y-97386330D01*
X142449199Y-97379155D01*
X142496976Y-97381826D01*
G37*
G36*
X152656976Y-97381826D02*
G01*
X152698766Y-97379782D01*
X152743056Y-97386639D01*
X152793810Y-97389476D01*
X152834163Y-97400743D01*
X152869621Y-97406232D01*
X152917204Y-97423928D01*
X152971898Y-97439199D01*
X153003622Y-97456067D01*
X153031659Y-97466494D01*
X153079757Y-97496549D01*
X153135153Y-97526004D01*
X153157968Y-97545421D01*
X153178271Y-97558108D01*
X153223641Y-97601313D01*
X153275961Y-97645841D01*
X153290463Y-97664947D01*
X153303472Y-97677335D01*
X153342616Y-97733655D01*
X153387751Y-97793118D01*
X153395302Y-97809459D01*
X153402142Y-97819301D01*
X153431508Y-97887817D01*
X153465307Y-97960965D01*
X153467885Y-97972692D01*
X153470247Y-97978202D01*
X153486429Y-98057036D01*
X153505011Y-98141551D01*
X153504345Y-98332388D01*
X153485181Y-98416738D01*
X153468443Y-98495485D01*
X153466041Y-98500982D01*
X153463381Y-98512692D01*
X153429069Y-98585609D01*
X153399227Y-98653915D01*
X153392318Y-98663709D01*
X153384655Y-98679994D01*
X153339114Y-98739130D01*
X153299570Y-98795187D01*
X153286472Y-98807487D01*
X153271840Y-98826487D01*
X153219227Y-98870635D01*
X153173544Y-98913534D01*
X153153147Y-98926082D01*
X153130199Y-98945338D01*
X153074600Y-98974405D01*
X153026293Y-99004123D01*
X152998184Y-99014354D01*
X152966341Y-99031001D01*
X152911534Y-99045892D01*
X152863831Y-99063254D01*
X152828340Y-99068495D01*
X152787911Y-99079479D01*
X152737139Y-99081962D01*
X152692803Y-99088509D01*
X152651027Y-99086174D01*
X152603233Y-99088511D01*
X152558992Y-99081028D01*
X152520189Y-99078859D01*
X152473980Y-99066650D01*
X152420923Y-99057676D01*
X152384839Y-99043097D01*
X152353035Y-99034694D01*
X152304897Y-99010799D01*
X152249488Y-98988412D01*
X152222311Y-98969804D01*
X152198182Y-98957826D01*
X152151128Y-98921063D01*
X152096926Y-98883950D01*
X152078469Y-98864295D01*
X152061950Y-98851389D01*
X152019400Y-98801393D01*
X151970354Y-98749164D01*
X151959608Y-98731138D01*
X151949896Y-98719726D01*
X151915401Y-98656981D01*
X151875678Y-98590344D01*
X151870943Y-98576111D01*
X151866610Y-98568229D01*
X151843692Y-98494192D01*
X151817314Y-98414898D01*
X151816372Y-98405934D01*
X151815486Y-98403072D01*
X151807347Y-98320068D01*
X151797987Y-98231012D01*
X151807967Y-98142044D01*
X151816687Y-98059078D01*
X151817593Y-98056220D01*
X151818598Y-98047265D01*
X151845530Y-97968153D01*
X151868963Y-97894281D01*
X151873350Y-97886432D01*
X151878184Y-97872231D01*
X151918382Y-97805857D01*
X151953304Y-97743371D01*
X151963092Y-97732031D01*
X151973967Y-97714075D01*
X152023385Y-97662181D01*
X152066273Y-97612495D01*
X152082879Y-97599707D01*
X152101477Y-97580177D01*
X152155952Y-97543433D01*
X152203250Y-97507009D01*
X152227458Y-97495202D01*
X152254765Y-97476783D01*
X152310319Y-97454787D01*
X152358633Y-97431223D01*
X152390503Y-97423040D01*
X152426679Y-97408717D01*
X152479795Y-97400114D01*
X152526088Y-97388228D01*
X152564903Y-97386330D01*
X152609199Y-97379155D01*
X152656976Y-97381826D01*
G37*
G36*
X140026899Y-98103959D02*
G01*
X140043769Y-98115231D01*
X140055041Y-98132101D01*
X140061448Y-98164312D01*
X140061448Y-98939688D01*
X140058999Y-98952000D01*
X140055041Y-98971899D01*
X140043769Y-98988769D01*
X140026899Y-99000041D01*
X140007000Y-99003999D01*
X139994688Y-99006448D01*
X139119312Y-99006448D01*
X139087101Y-99000041D01*
X139070231Y-98988769D01*
X139058959Y-98971899D01*
X139052552Y-98939688D01*
X139052552Y-98164312D01*
X139058959Y-98132101D01*
X139070231Y-98115231D01*
X139087101Y-98103959D01*
X139119312Y-98097552D01*
X139994688Y-98097552D01*
X140026899Y-98103959D01*
G37*
G36*
X158727899Y-98103959D02*
G01*
X158744769Y-98115231D01*
X158756041Y-98132101D01*
X158762448Y-98164312D01*
X158762448Y-98939688D01*
X158759999Y-98952000D01*
X158756041Y-98971899D01*
X158744769Y-98988769D01*
X158727899Y-99000041D01*
X158708000Y-99003999D01*
X158695688Y-99006448D01*
X157820312Y-99006448D01*
X157788101Y-99000041D01*
X157771231Y-98988769D01*
X157759959Y-98971899D01*
X157753552Y-98939688D01*
X157753552Y-98164312D01*
X157759959Y-98132101D01*
X157771231Y-98115231D01*
X157788101Y-98103959D01*
X157820312Y-98097552D01*
X158695688Y-98097552D01*
X158727899Y-98103959D01*
G37*
G36*
X136122980Y-97100117D02*
G01*
X136123386Y-97100117D01*
X136125637Y-97100538D01*
X136214801Y-97114660D01*
X136222691Y-97118680D01*
X136229409Y-97119936D01*
X136249176Y-97132175D01*
X136296229Y-97156150D01*
X136309776Y-97169697D01*
X136321114Y-97176717D01*
X136334432Y-97194353D01*
X136360850Y-97220771D01*
X136374267Y-97247103D01*
X136386114Y-97262791D01*
X136389418Y-97276838D01*
X136402340Y-97302199D01*
X136416686Y-97392777D01*
X136416883Y-97393614D01*
X136416883Y-97394020D01*
X136418194Y-97402297D01*
X136418194Y-97951703D01*
X136416883Y-97959980D01*
X136416883Y-97960386D01*
X136416462Y-97962637D01*
X136402340Y-98051801D01*
X136398320Y-98059691D01*
X136397064Y-98066409D01*
X136384825Y-98086176D01*
X136360850Y-98133229D01*
X136347303Y-98146776D01*
X136340283Y-98158114D01*
X136322647Y-98171432D01*
X136296229Y-98197850D01*
X136269897Y-98211267D01*
X136254209Y-98223114D01*
X136240162Y-98226418D01*
X136214801Y-98239340D01*
X136124223Y-98253686D01*
X136123386Y-98253883D01*
X136122980Y-98253883D01*
X136114703Y-98255194D01*
X135665297Y-98255194D01*
X135657020Y-98253883D01*
X135656614Y-98253883D01*
X135654363Y-98253462D01*
X135565199Y-98239340D01*
X135557309Y-98235320D01*
X135550591Y-98234064D01*
X135530824Y-98221825D01*
X135483771Y-98197850D01*
X135470224Y-98184303D01*
X135458886Y-98177283D01*
X135445568Y-98159647D01*
X135419150Y-98133229D01*
X135405733Y-98106897D01*
X135393886Y-98091209D01*
X135390582Y-98077162D01*
X135377660Y-98051801D01*
X135363314Y-97961223D01*
X135363117Y-97960386D01*
X135363117Y-97959980D01*
X135361806Y-97951703D01*
X135361806Y-97402297D01*
X135363117Y-97394020D01*
X135363117Y-97393614D01*
X135363538Y-97391363D01*
X135377660Y-97302199D01*
X135381680Y-97294309D01*
X135382936Y-97287591D01*
X135395175Y-97267824D01*
X135419150Y-97220771D01*
X135432697Y-97207224D01*
X135439717Y-97195886D01*
X135457353Y-97182568D01*
X135483771Y-97156150D01*
X135510103Y-97142733D01*
X135525791Y-97130886D01*
X135539838Y-97127582D01*
X135565199Y-97114660D01*
X135655777Y-97100314D01*
X135656614Y-97100117D01*
X135657020Y-97100117D01*
X135665297Y-97098806D01*
X136114703Y-97098806D01*
X136122980Y-97100117D01*
G37*
G36*
X162030980Y-97100117D02*
G01*
X162031386Y-97100117D01*
X162033637Y-97100538D01*
X162122801Y-97114660D01*
X162130691Y-97118680D01*
X162137409Y-97119936D01*
X162157176Y-97132175D01*
X162204229Y-97156150D01*
X162217776Y-97169697D01*
X162229114Y-97176717D01*
X162242432Y-97194353D01*
X162268850Y-97220771D01*
X162282267Y-97247103D01*
X162294114Y-97262791D01*
X162297418Y-97276838D01*
X162310340Y-97302199D01*
X162324686Y-97392777D01*
X162324883Y-97393614D01*
X162324883Y-97394020D01*
X162326194Y-97402297D01*
X162326194Y-97951703D01*
X162324883Y-97959980D01*
X162324883Y-97960386D01*
X162324462Y-97962637D01*
X162310340Y-98051801D01*
X162306320Y-98059691D01*
X162305064Y-98066409D01*
X162292825Y-98086176D01*
X162268850Y-98133229D01*
X162255303Y-98146776D01*
X162248283Y-98158114D01*
X162230647Y-98171432D01*
X162204229Y-98197850D01*
X162177897Y-98211267D01*
X162162209Y-98223114D01*
X162148162Y-98226418D01*
X162122801Y-98239340D01*
X162032223Y-98253686D01*
X162031386Y-98253883D01*
X162030980Y-98253883D01*
X162022703Y-98255194D01*
X161573297Y-98255194D01*
X161565020Y-98253883D01*
X161564614Y-98253883D01*
X161562363Y-98253462D01*
X161473199Y-98239340D01*
X161465309Y-98235320D01*
X161458591Y-98234064D01*
X161438824Y-98221825D01*
X161391771Y-98197850D01*
X161378224Y-98184303D01*
X161366886Y-98177283D01*
X161353568Y-98159647D01*
X161327150Y-98133229D01*
X161313733Y-98106897D01*
X161301886Y-98091209D01*
X161298582Y-98077162D01*
X161285660Y-98051801D01*
X161271314Y-97961223D01*
X161271117Y-97960386D01*
X161271117Y-97959980D01*
X161269806Y-97951703D01*
X161269806Y-97402297D01*
X161271117Y-97394020D01*
X161271117Y-97393614D01*
X161271538Y-97391363D01*
X161285660Y-97302199D01*
X161289680Y-97294309D01*
X161290936Y-97287591D01*
X161303175Y-97267824D01*
X161327150Y-97220771D01*
X161340697Y-97207224D01*
X161347717Y-97195886D01*
X161365353Y-97182568D01*
X161391771Y-97156150D01*
X161418103Y-97142733D01*
X161433791Y-97130886D01*
X161447838Y-97127582D01*
X161473199Y-97114660D01*
X161563777Y-97100314D01*
X161564614Y-97100117D01*
X161565020Y-97100117D01*
X161573297Y-97098806D01*
X162022703Y-97098806D01*
X162030980Y-97100117D01*
G37*
G36*
X138026899Y-97153959D02*
G01*
X138043769Y-97165231D01*
X138055041Y-97182101D01*
X138061448Y-97214312D01*
X138061448Y-97989688D01*
X138058999Y-98002000D01*
X138055041Y-98021899D01*
X138043769Y-98038769D01*
X138026899Y-98050041D01*
X138007000Y-98053999D01*
X137994688Y-98056448D01*
X137119312Y-98056448D01*
X137087101Y-98050041D01*
X137070231Y-98038769D01*
X137058959Y-98021899D01*
X137052552Y-97989688D01*
X137052552Y-97214312D01*
X137058959Y-97182101D01*
X137070231Y-97165231D01*
X137087101Y-97153959D01*
X137119312Y-97147552D01*
X137994688Y-97147552D01*
X138026899Y-97153959D01*
G37*
G36*
X160727899Y-97153959D02*
G01*
X160744769Y-97165231D01*
X160756041Y-97182101D01*
X160762448Y-97214312D01*
X160762448Y-97989688D01*
X160759999Y-98002000D01*
X160756041Y-98021899D01*
X160744769Y-98038769D01*
X160727899Y-98050041D01*
X160708000Y-98053999D01*
X160695688Y-98056448D01*
X159820312Y-98056448D01*
X159788101Y-98050041D01*
X159771231Y-98038769D01*
X159759959Y-98021899D01*
X159753552Y-97989688D01*
X159753552Y-97214312D01*
X159759959Y-97182101D01*
X159771231Y-97165231D01*
X159788101Y-97153959D01*
X159820312Y-97147552D01*
X160695688Y-97147552D01*
X160727899Y-97153959D01*
G37*
M02*
