G04 #@! TF.GenerationSoftware,KiCad,Pcbnew,5.99.0-unknown-r17001-43768b71*
G04 #@! TF.CreationDate,2019-11-05T19:13:08+01:00*
G04 #@! TF.ProjectId,ada-watch,6164612d-7761-4746-9368-2e6b69636164,rev?*
G04 #@! TF.SameCoordinates,Original*
G04 #@! TF.FileFunction,Profile,NP*
%FSLAX46Y46*%
G04 Gerber Fmt 4.6, Leading zero omitted, Abs format (unit mm)*
G04 Created by KiCad (PCBNEW 5.99.0-unknown-r17001-43768b71) date 2019-11-05 19:13:08*
%MOMM*%
%LPD*%
G04 APERTURE LIST*
%ADD10C,0.050000*%
G04 APERTURE END LIST*
D10*
X157353000Y-87868000D02*
G75*
G02X157353000Y-88916000I0J-524000D01*
G01*
X140335000Y-88916000D02*
G75*
G02X140335000Y-87868000I0J524000D01*
G01*
X157353000Y-119380000D02*
G75*
G02X157353000Y-120396000I0J-508000D01*
G01*
X140335000Y-120396000D02*
G75*
G02X140335000Y-119380000I0J508000D01*
G01*
X160511999Y-91287600D02*
G75*
G02X160511998Y-116992400I-11667999J-12852400D01*
G01*
X137176001Y-117043200D02*
G75*
G02X137176001Y-91236800I11667999J12903200D01*
G01*
X160512000Y-122428000D02*
G75*
G02X160004000Y-122936000I-508000J0D01*
G01*
X137684000Y-122936000D02*
G75*
G02X137176000Y-122428000I0J508000D01*
G01*
X137176000Y-85852000D02*
G75*
G02X137684000Y-85344000I508000J0D01*
G01*
X160004000Y-85344000D02*
G75*
G02X160512000Y-85852000I0J-508000D01*
G01*
X157353000Y-119380000D02*
X140335000Y-119380000D01*
X140335000Y-120396000D02*
X157353000Y-120396000D01*
X157353000Y-87868000D02*
X140335000Y-87868000D01*
X140335000Y-88916000D02*
X157353000Y-88916000D01*
X160512000Y-122428000D02*
X160511998Y-116992400D01*
X137684000Y-122936000D02*
X160004000Y-122936000D01*
X137176001Y-117043200D02*
X137176000Y-122428000D01*
X137176000Y-85852000D02*
X137176001Y-91236800D01*
X160004000Y-85344000D02*
X137684000Y-85344000D01*
X160511999Y-91287600D02*
X160512000Y-85852000D01*
M02*
