G04 #@! TF.GenerationSoftware,KiCad,Pcbnew,5.99.0-unknown-r19130-2af6d01f*
G04 #@! TF.CreationDate,2020-08-04T10:25:43+02:00*
G04 #@! TF.ProjectId,ada-watch,6164612d-7761-4746-9368-2e6b69636164,rev?*
G04 #@! TF.SameCoordinates,Original*
G04 #@! TF.FileFunction,Soldermask,Top*
G04 #@! TF.FilePolarity,Negative*
%FSLAX46Y46*%
G04 Gerber Fmt 4.6, Leading zero omitted, Abs format (unit mm)*
G04 Created by KiCad (PCBNEW 5.99.0-unknown-r19130-2af6d01f) date 2020-08-04 10:25:43*
%MOMM*%
%LPD*%
G01*
G04 APERTURE LIST*
%ADD10O,1.702000X1.702000*%
%ADD11C,0.802000*%
%ADD12O,1.602000X0.902000*%
G04 APERTURE END LIST*
G36*
G01*
X149140000Y-110400330D02*
X149140000Y-109817670D01*
G75*
G02*
X149199670Y-109758000I59670J0D01*
G01*
X151282330Y-109758000D01*
G75*
G02*
X151342000Y-109817670I0J-59670D01*
G01*
X151342000Y-110400330D01*
G75*
G02*
X151282330Y-110460000I-59670J0D01*
G01*
X149199670Y-110460000D01*
G75*
G02*
X149140000Y-110400330I0J59670D01*
G01*
G37*
G36*
G01*
X156340000Y-110400330D02*
X156340000Y-109817670D01*
G75*
G02*
X156399670Y-109758000I59670J0D01*
G01*
X158482330Y-109758000D01*
G75*
G02*
X158542000Y-109817670I0J-59670D01*
G01*
X158542000Y-110400330D01*
G75*
G02*
X158482330Y-110460000I-59670J0D01*
G01*
X156399670Y-110460000D01*
G75*
G02*
X156340000Y-110400330I0J59670D01*
G01*
G37*
G36*
G01*
X156340000Y-111300330D02*
X156340000Y-110717670D01*
G75*
G02*
X156399670Y-110658000I59670J0D01*
G01*
X158482330Y-110658000D01*
G75*
G02*
X158542000Y-110717670I0J-59670D01*
G01*
X158542000Y-111300330D01*
G75*
G02*
X158482330Y-111360000I-59670J0D01*
G01*
X156399670Y-111360000D01*
G75*
G02*
X156340000Y-111300330I0J59670D01*
G01*
G37*
G36*
G01*
X149140000Y-111300330D02*
X149140000Y-110717670D01*
G75*
G02*
X149199670Y-110658000I59670J0D01*
G01*
X151282330Y-110658000D01*
G75*
G02*
X151342000Y-110717670I0J-59670D01*
G01*
X151342000Y-111300330D01*
G75*
G02*
X151282330Y-111360000I-59670J0D01*
G01*
X149199670Y-111360000D01*
G75*
G02*
X149140000Y-111300330I0J59670D01*
G01*
G37*
G36*
G01*
X143290749Y-107505000D02*
X141697251Y-107505000D01*
G75*
G02*
X141643000Y-107450749I0J54251D01*
G01*
X141643000Y-105857251D01*
G75*
G02*
X141697251Y-105803000I54251J0D01*
G01*
X143290749Y-105803000D01*
G75*
G02*
X143345000Y-105857251I0J-54251D01*
G01*
X143345000Y-107450749D01*
G75*
G02*
X143290749Y-107505000I-54251J0D01*
G01*
G37*
D10*
X155194000Y-98234000D03*
X145034000Y-106654000D03*
X152654000Y-98234000D03*
X147574000Y-106654000D03*
X150114000Y-98234000D03*
X150114000Y-106654000D03*
X147574000Y-98234000D03*
X152654000Y-106654000D03*
X145034000Y-98234000D03*
X155194000Y-106654000D03*
X142494000Y-98234000D03*
G36*
G01*
X141560000Y-109255750D02*
X141560000Y-109819250D01*
G75*
G02*
X141315750Y-110063500I-244250J0D01*
G01*
X140827250Y-110063500D01*
G75*
G02*
X140583000Y-109819250I0J244250D01*
G01*
X140583000Y-109255750D01*
G75*
G02*
X140827250Y-109011500I244250J0D01*
G01*
X141315750Y-109011500D01*
G75*
G02*
X141560000Y-109255750I0J-244250D01*
G01*
G37*
G36*
G01*
X143135000Y-109255750D02*
X143135000Y-109819250D01*
G75*
G02*
X142890750Y-110063500I-244250J0D01*
G01*
X142402250Y-110063500D01*
G75*
G02*
X142158000Y-109819250I0J244250D01*
G01*
X142158000Y-109255750D01*
G75*
G02*
X142402250Y-109011500I244250J0D01*
G01*
X142890750Y-109011500D01*
G75*
G02*
X143135000Y-109255750I0J-244250D01*
G01*
G37*
G36*
G01*
X145938000Y-111143940D02*
X145938000Y-110717060D01*
G75*
G02*
X146000560Y-110654500I62560J0D01*
G01*
X147427440Y-110654500D01*
G75*
G02*
X147490000Y-110717060I0J-62560D01*
G01*
X147490000Y-111143940D01*
G75*
G02*
X147427440Y-111206500I-62560J0D01*
G01*
X146000560Y-111206500D01*
G75*
G02*
X145938000Y-111143940I0J62560D01*
G01*
G37*
G36*
G01*
X145938000Y-111793940D02*
X145938000Y-111367060D01*
G75*
G02*
X146000560Y-111304500I62560J0D01*
G01*
X147427440Y-111304500D01*
G75*
G02*
X147490000Y-111367060I0J-62560D01*
G01*
X147490000Y-111793940D01*
G75*
G02*
X147427440Y-111856500I-62560J0D01*
G01*
X146000560Y-111856500D01*
G75*
G02*
X145938000Y-111793940I0J62560D01*
G01*
G37*
G36*
G01*
X145938000Y-112443940D02*
X145938000Y-112017060D01*
G75*
G02*
X146000560Y-111954500I62560J0D01*
G01*
X147427440Y-111954500D01*
G75*
G02*
X147490000Y-112017060I0J-62560D01*
G01*
X147490000Y-112443940D01*
G75*
G02*
X147427440Y-112506500I-62560J0D01*
G01*
X146000560Y-112506500D01*
G75*
G02*
X145938000Y-112443940I0J62560D01*
G01*
G37*
G36*
G01*
X145938000Y-113093940D02*
X145938000Y-112667060D01*
G75*
G02*
X146000560Y-112604500I62560J0D01*
G01*
X147427440Y-112604500D01*
G75*
G02*
X147490000Y-112667060I0J-62560D01*
G01*
X147490000Y-113093940D01*
G75*
G02*
X147427440Y-113156500I-62560J0D01*
G01*
X146000560Y-113156500D01*
G75*
G02*
X145938000Y-113093940I0J62560D01*
G01*
G37*
G36*
G01*
X145938000Y-113743940D02*
X145938000Y-113317060D01*
G75*
G02*
X146000560Y-113254500I62560J0D01*
G01*
X147427440Y-113254500D01*
G75*
G02*
X147490000Y-113317060I0J-62560D01*
G01*
X147490000Y-113743940D01*
G75*
G02*
X147427440Y-113806500I-62560J0D01*
G01*
X146000560Y-113806500D01*
G75*
G02*
X145938000Y-113743940I0J62560D01*
G01*
G37*
G36*
G01*
X145938000Y-114393940D02*
X145938000Y-113967060D01*
G75*
G02*
X146000560Y-113904500I62560J0D01*
G01*
X147427440Y-113904500D01*
G75*
G02*
X147490000Y-113967060I0J-62560D01*
G01*
X147490000Y-114393940D01*
G75*
G02*
X147427440Y-114456500I-62560J0D01*
G01*
X146000560Y-114456500D01*
G75*
G02*
X145938000Y-114393940I0J62560D01*
G01*
G37*
G36*
G01*
X145938000Y-115043940D02*
X145938000Y-114617060D01*
G75*
G02*
X146000560Y-114554500I62560J0D01*
G01*
X147427440Y-114554500D01*
G75*
G02*
X147490000Y-114617060I0J-62560D01*
G01*
X147490000Y-115043940D01*
G75*
G02*
X147427440Y-115106500I-62560J0D01*
G01*
X146000560Y-115106500D01*
G75*
G02*
X145938000Y-115043940I0J62560D01*
G01*
G37*
G36*
G01*
X145938000Y-115693940D02*
X145938000Y-115267060D01*
G75*
G02*
X146000560Y-115204500I62560J0D01*
G01*
X147427440Y-115204500D01*
G75*
G02*
X147490000Y-115267060I0J-62560D01*
G01*
X147490000Y-115693940D01*
G75*
G02*
X147427440Y-115756500I-62560J0D01*
G01*
X146000560Y-115756500D01*
G75*
G02*
X145938000Y-115693940I0J62560D01*
G01*
G37*
G36*
G01*
X145938000Y-116343940D02*
X145938000Y-115917060D01*
G75*
G02*
X146000560Y-115854500I62560J0D01*
G01*
X147427440Y-115854500D01*
G75*
G02*
X147490000Y-115917060I0J-62560D01*
G01*
X147490000Y-116343940D01*
G75*
G02*
X147427440Y-116406500I-62560J0D01*
G01*
X146000560Y-116406500D01*
G75*
G02*
X145938000Y-116343940I0J62560D01*
G01*
G37*
G36*
G01*
X145938000Y-116993940D02*
X145938000Y-116567060D01*
G75*
G02*
X146000560Y-116504500I62560J0D01*
G01*
X147427440Y-116504500D01*
G75*
G02*
X147490000Y-116567060I0J-62560D01*
G01*
X147490000Y-116993940D01*
G75*
G02*
X147427440Y-117056500I-62560J0D01*
G01*
X146000560Y-117056500D01*
G75*
G02*
X145938000Y-116993940I0J62560D01*
G01*
G37*
G36*
G01*
X140038000Y-116993940D02*
X140038000Y-116567060D01*
G75*
G02*
X140100560Y-116504500I62560J0D01*
G01*
X141527440Y-116504500D01*
G75*
G02*
X141590000Y-116567060I0J-62560D01*
G01*
X141590000Y-116993940D01*
G75*
G02*
X141527440Y-117056500I-62560J0D01*
G01*
X140100560Y-117056500D01*
G75*
G02*
X140038000Y-116993940I0J62560D01*
G01*
G37*
G36*
G01*
X140038000Y-116343940D02*
X140038000Y-115917060D01*
G75*
G02*
X140100560Y-115854500I62560J0D01*
G01*
X141527440Y-115854500D01*
G75*
G02*
X141590000Y-115917060I0J-62560D01*
G01*
X141590000Y-116343940D01*
G75*
G02*
X141527440Y-116406500I-62560J0D01*
G01*
X140100560Y-116406500D01*
G75*
G02*
X140038000Y-116343940I0J62560D01*
G01*
G37*
G36*
G01*
X140038000Y-115693940D02*
X140038000Y-115267060D01*
G75*
G02*
X140100560Y-115204500I62560J0D01*
G01*
X141527440Y-115204500D01*
G75*
G02*
X141590000Y-115267060I0J-62560D01*
G01*
X141590000Y-115693940D01*
G75*
G02*
X141527440Y-115756500I-62560J0D01*
G01*
X140100560Y-115756500D01*
G75*
G02*
X140038000Y-115693940I0J62560D01*
G01*
G37*
G36*
G01*
X140038000Y-115043940D02*
X140038000Y-114617060D01*
G75*
G02*
X140100560Y-114554500I62560J0D01*
G01*
X141527440Y-114554500D01*
G75*
G02*
X141590000Y-114617060I0J-62560D01*
G01*
X141590000Y-115043940D01*
G75*
G02*
X141527440Y-115106500I-62560J0D01*
G01*
X140100560Y-115106500D01*
G75*
G02*
X140038000Y-115043940I0J62560D01*
G01*
G37*
G36*
G01*
X140038000Y-114393940D02*
X140038000Y-113967060D01*
G75*
G02*
X140100560Y-113904500I62560J0D01*
G01*
X141527440Y-113904500D01*
G75*
G02*
X141590000Y-113967060I0J-62560D01*
G01*
X141590000Y-114393940D01*
G75*
G02*
X141527440Y-114456500I-62560J0D01*
G01*
X140100560Y-114456500D01*
G75*
G02*
X140038000Y-114393940I0J62560D01*
G01*
G37*
G36*
G01*
X140038000Y-113743940D02*
X140038000Y-113317060D01*
G75*
G02*
X140100560Y-113254500I62560J0D01*
G01*
X141527440Y-113254500D01*
G75*
G02*
X141590000Y-113317060I0J-62560D01*
G01*
X141590000Y-113743940D01*
G75*
G02*
X141527440Y-113806500I-62560J0D01*
G01*
X140100560Y-113806500D01*
G75*
G02*
X140038000Y-113743940I0J62560D01*
G01*
G37*
G36*
G01*
X140038000Y-113093940D02*
X140038000Y-112667060D01*
G75*
G02*
X140100560Y-112604500I62560J0D01*
G01*
X141527440Y-112604500D01*
G75*
G02*
X141590000Y-112667060I0J-62560D01*
G01*
X141590000Y-113093940D01*
G75*
G02*
X141527440Y-113156500I-62560J0D01*
G01*
X140100560Y-113156500D01*
G75*
G02*
X140038000Y-113093940I0J62560D01*
G01*
G37*
G36*
G01*
X140038000Y-112443940D02*
X140038000Y-112017060D01*
G75*
G02*
X140100560Y-111954500I62560J0D01*
G01*
X141527440Y-111954500D01*
G75*
G02*
X141590000Y-112017060I0J-62560D01*
G01*
X141590000Y-112443940D01*
G75*
G02*
X141527440Y-112506500I-62560J0D01*
G01*
X140100560Y-112506500D01*
G75*
G02*
X140038000Y-112443940I0J62560D01*
G01*
G37*
G36*
G01*
X140038000Y-111793940D02*
X140038000Y-111367060D01*
G75*
G02*
X140100560Y-111304500I62560J0D01*
G01*
X141527440Y-111304500D01*
G75*
G02*
X141590000Y-111367060I0J-62560D01*
G01*
X141590000Y-111793940D01*
G75*
G02*
X141527440Y-111856500I-62560J0D01*
G01*
X140100560Y-111856500D01*
G75*
G02*
X140038000Y-111793940I0J62560D01*
G01*
G37*
G36*
G01*
X140038000Y-111143940D02*
X140038000Y-110717060D01*
G75*
G02*
X140100560Y-110654500I62560J0D01*
G01*
X141527440Y-110654500D01*
G75*
G02*
X141590000Y-110717060I0J-62560D01*
G01*
X141590000Y-111143940D01*
G75*
G02*
X141527440Y-111206500I-62560J0D01*
G01*
X140100560Y-111206500D01*
G75*
G02*
X140038000Y-111143940I0J62560D01*
G01*
G37*
G36*
G01*
X154076000Y-113289003D02*
X154076000Y-113922997D01*
G75*
G02*
X154016997Y-113982000I-59003J0D01*
G01*
X152983003Y-113982000D01*
G75*
G02*
X152924000Y-113922997I0J59003D01*
G01*
X152924000Y-113289003D01*
G75*
G02*
X152983003Y-113230000I59003J0D01*
G01*
X154016997Y-113230000D01*
G75*
G02*
X154076000Y-113289003I0J-59003D01*
G01*
G37*
G36*
G01*
X158226000Y-113289003D02*
X158226000Y-113922997D01*
G75*
G02*
X158166997Y-113982000I-59003J0D01*
G01*
X157133003Y-113982000D01*
G75*
G02*
X157074000Y-113922997I0J59003D01*
G01*
X157074000Y-113289003D01*
G75*
G02*
X157133003Y-113230000I59003J0D01*
G01*
X158166997Y-113230000D01*
G75*
G02*
X158226000Y-113289003I0J-59003D01*
G01*
G37*
G36*
G01*
X154076000Y-115439003D02*
X154076000Y-116072997D01*
G75*
G02*
X154016997Y-116132000I-59003J0D01*
G01*
X152983003Y-116132000D01*
G75*
G02*
X152924000Y-116072997I0J59003D01*
G01*
X152924000Y-115439003D01*
G75*
G02*
X152983003Y-115380000I59003J0D01*
G01*
X154016997Y-115380000D01*
G75*
G02*
X154076000Y-115439003I0J-59003D01*
G01*
G37*
G36*
G01*
X158226000Y-115439003D02*
X158226000Y-116072997D01*
G75*
G02*
X158166997Y-116132000I-59003J0D01*
G01*
X157133003Y-116132000D01*
G75*
G02*
X157074000Y-116072997I0J59003D01*
G01*
X157074000Y-115439003D01*
G75*
G02*
X157133003Y-115380000I59003J0D01*
G01*
X158166997Y-115380000D01*
G75*
G02*
X158226000Y-115439003I0J-59003D01*
G01*
G37*
G36*
G01*
X136280000Y-105760000D02*
X135754000Y-105760000D01*
G75*
G02*
X135491000Y-105497000I0J263000D01*
G01*
X135491000Y-104871000D01*
G75*
G02*
X135754000Y-104608000I263000J0D01*
G01*
X136280000Y-104608000D01*
G75*
G02*
X136543000Y-104871000I0J-263000D01*
G01*
X136543000Y-105497000D01*
G75*
G02*
X136280000Y-105760000I-263000J0D01*
G01*
G37*
G36*
G01*
X136280000Y-107510000D02*
X135754000Y-107510000D01*
G75*
G02*
X135491000Y-107247000I0J263000D01*
G01*
X135491000Y-106621000D01*
G75*
G02*
X135754000Y-106358000I263000J0D01*
G01*
X136280000Y-106358000D01*
G75*
G02*
X136543000Y-106621000I0J-263000D01*
G01*
X136543000Y-107247000D01*
G75*
G02*
X136280000Y-107510000I-263000J0D01*
G01*
G37*
G36*
G01*
X139564000Y-102802000D02*
X140090000Y-102802000D01*
G75*
G02*
X140353000Y-103065000I0J-263000D01*
G01*
X140353000Y-103691000D01*
G75*
G02*
X140090000Y-103954000I-263000J0D01*
G01*
X139564000Y-103954000D01*
G75*
G02*
X139301000Y-103691000I0J263000D01*
G01*
X139301000Y-103065000D01*
G75*
G02*
X139564000Y-102802000I263000J0D01*
G01*
G37*
G36*
G01*
X139564000Y-101052000D02*
X140090000Y-101052000D01*
G75*
G02*
X140353000Y-101315000I0J-263000D01*
G01*
X140353000Y-101941000D01*
G75*
G02*
X140090000Y-102204000I-263000J0D01*
G01*
X139564000Y-102204000D01*
G75*
G02*
X139301000Y-101941000I0J263000D01*
G01*
X139301000Y-101315000D01*
G75*
G02*
X139564000Y-101052000I263000J0D01*
G01*
G37*
G36*
G01*
X136153000Y-98253000D02*
X135627000Y-98253000D01*
G75*
G02*
X135364000Y-97990000I0J263000D01*
G01*
X135364000Y-97364000D01*
G75*
G02*
X135627000Y-97101000I263000J0D01*
G01*
X136153000Y-97101000D01*
G75*
G02*
X136416000Y-97364000I0J-263000D01*
G01*
X136416000Y-97990000D01*
G75*
G02*
X136153000Y-98253000I-263000J0D01*
G01*
G37*
G36*
G01*
X136153000Y-100003000D02*
X135627000Y-100003000D01*
G75*
G02*
X135364000Y-99740000I0J263000D01*
G01*
X135364000Y-99114000D01*
G75*
G02*
X135627000Y-98851000I263000J0D01*
G01*
X136153000Y-98851000D01*
G75*
G02*
X136416000Y-99114000I0J-263000D01*
G01*
X136416000Y-99740000D01*
G75*
G02*
X136153000Y-100003000I-263000J0D01*
G01*
G37*
G36*
G01*
X161535000Y-98851000D02*
X162061000Y-98851000D01*
G75*
G02*
X162324000Y-99114000I0J-263000D01*
G01*
X162324000Y-99740000D01*
G75*
G02*
X162061000Y-100003000I-263000J0D01*
G01*
X161535000Y-100003000D01*
G75*
G02*
X161272000Y-99740000I0J263000D01*
G01*
X161272000Y-99114000D01*
G75*
G02*
X161535000Y-98851000I263000J0D01*
G01*
G37*
G36*
G01*
X161535000Y-97101000D02*
X162061000Y-97101000D01*
G75*
G02*
X162324000Y-97364000I0J-263000D01*
G01*
X162324000Y-97990000D01*
G75*
G02*
X162061000Y-98253000I-263000J0D01*
G01*
X161535000Y-98253000D01*
G75*
G02*
X161272000Y-97990000I0J263000D01*
G01*
X161272000Y-97364000D01*
G75*
G02*
X161535000Y-97101000I263000J0D01*
G01*
G37*
G36*
G01*
X161535000Y-106725000D02*
X162061000Y-106725000D01*
G75*
G02*
X162324000Y-106988000I0J-263000D01*
G01*
X162324000Y-107614000D01*
G75*
G02*
X162061000Y-107877000I-263000J0D01*
G01*
X161535000Y-107877000D01*
G75*
G02*
X161272000Y-107614000I0J263000D01*
G01*
X161272000Y-106988000D01*
G75*
G02*
X161535000Y-106725000I263000J0D01*
G01*
G37*
G36*
G01*
X161535000Y-104975000D02*
X162061000Y-104975000D01*
G75*
G02*
X162324000Y-105238000I0J-263000D01*
G01*
X162324000Y-105864000D01*
G75*
G02*
X162061000Y-106127000I-263000J0D01*
G01*
X161535000Y-106127000D01*
G75*
G02*
X161272000Y-105864000I0J263000D01*
G01*
X161272000Y-105238000D01*
G75*
G02*
X161535000Y-104975000I263000J0D01*
G01*
G37*
G36*
G01*
X152155000Y-103587000D02*
X151629000Y-103587000D01*
G75*
G02*
X151366000Y-103324000I0J263000D01*
G01*
X151366000Y-102698000D01*
G75*
G02*
X151629000Y-102435000I263000J0D01*
G01*
X152155000Y-102435000D01*
G75*
G02*
X152418000Y-102698000I0J-263000D01*
G01*
X152418000Y-103324000D01*
G75*
G02*
X152155000Y-103587000I-263000J0D01*
G01*
G37*
G36*
G01*
X152155000Y-105337000D02*
X151629000Y-105337000D01*
G75*
G02*
X151366000Y-105074000I0J263000D01*
G01*
X151366000Y-104448000D01*
G75*
G02*
X151629000Y-104185000I263000J0D01*
G01*
X152155000Y-104185000D01*
G75*
G02*
X152418000Y-104448000I0J-263000D01*
G01*
X152418000Y-105074000D01*
G75*
G02*
X152155000Y-105337000I-263000J0D01*
G01*
G37*
G36*
G01*
X149724000Y-101264000D02*
X150250000Y-101264000D01*
G75*
G02*
X150513000Y-101527000I0J-263000D01*
G01*
X150513000Y-102153000D01*
G75*
G02*
X150250000Y-102416000I-263000J0D01*
G01*
X149724000Y-102416000D01*
G75*
G02*
X149461000Y-102153000I0J263000D01*
G01*
X149461000Y-101527000D01*
G75*
G02*
X149724000Y-101264000I263000J0D01*
G01*
G37*
G36*
G01*
X149724000Y-99514000D02*
X150250000Y-99514000D01*
G75*
G02*
X150513000Y-99777000I0J-263000D01*
G01*
X150513000Y-100403000D01*
G75*
G02*
X150250000Y-100666000I-263000J0D01*
G01*
X149724000Y-100666000D01*
G75*
G02*
X149461000Y-100403000I0J263000D01*
G01*
X149461000Y-99777000D01*
G75*
G02*
X149724000Y-99514000I263000J0D01*
G01*
G37*
G36*
G01*
X153534000Y-101250000D02*
X154060000Y-101250000D01*
G75*
G02*
X154323000Y-101513000I0J-263000D01*
G01*
X154323000Y-102139000D01*
G75*
G02*
X154060000Y-102402000I-263000J0D01*
G01*
X153534000Y-102402000D01*
G75*
G02*
X153271000Y-102139000I0J263000D01*
G01*
X153271000Y-101513000D01*
G75*
G02*
X153534000Y-101250000I263000J0D01*
G01*
G37*
G36*
G01*
X153534000Y-99500000D02*
X154060000Y-99500000D01*
G75*
G02*
X154323000Y-99763000I0J-263000D01*
G01*
X154323000Y-100389000D01*
G75*
G02*
X154060000Y-100652000I-263000J0D01*
G01*
X153534000Y-100652000D01*
G75*
G02*
X153271000Y-100389000I0J263000D01*
G01*
X153271000Y-99763000D01*
G75*
G02*
X153534000Y-99500000I263000J0D01*
G01*
G37*
G36*
G01*
X145279000Y-101264000D02*
X145805000Y-101264000D01*
G75*
G02*
X146068000Y-101527000I0J-263000D01*
G01*
X146068000Y-102153000D01*
G75*
G02*
X145805000Y-102416000I-263000J0D01*
G01*
X145279000Y-102416000D01*
G75*
G02*
X145016000Y-102153000I0J263000D01*
G01*
X145016000Y-101527000D01*
G75*
G02*
X145279000Y-101264000I263000J0D01*
G01*
G37*
G36*
G01*
X145279000Y-99514000D02*
X145805000Y-99514000D01*
G75*
G02*
X146068000Y-99777000I0J-263000D01*
G01*
X146068000Y-100403000D01*
G75*
G02*
X145805000Y-100666000I-263000J0D01*
G01*
X145279000Y-100666000D01*
G75*
G02*
X145016000Y-100403000I0J263000D01*
G01*
X145016000Y-99777000D01*
G75*
G02*
X145279000Y-99514000I263000J0D01*
G01*
G37*
G36*
G01*
X155439000Y-104185000D02*
X155965000Y-104185000D01*
G75*
G02*
X156228000Y-104448000I0J-263000D01*
G01*
X156228000Y-105074000D01*
G75*
G02*
X155965000Y-105337000I-263000J0D01*
G01*
X155439000Y-105337000D01*
G75*
G02*
X155176000Y-105074000I0J263000D01*
G01*
X155176000Y-104448000D01*
G75*
G02*
X155439000Y-104185000I263000J0D01*
G01*
G37*
G36*
G01*
X155439000Y-102435000D02*
X155965000Y-102435000D01*
G75*
G02*
X156228000Y-102698000I0J-263000D01*
G01*
X156228000Y-103324000D01*
G75*
G02*
X155965000Y-103587000I-263000J0D01*
G01*
X155439000Y-103587000D01*
G75*
G02*
X155176000Y-103324000I0J263000D01*
G01*
X155176000Y-102698000D01*
G75*
G02*
X155439000Y-102435000I263000J0D01*
G01*
G37*
G36*
G01*
X144027000Y-103587000D02*
X143501000Y-103587000D01*
G75*
G02*
X143238000Y-103324000I0J263000D01*
G01*
X143238000Y-102698000D01*
G75*
G02*
X143501000Y-102435000I263000J0D01*
G01*
X144027000Y-102435000D01*
G75*
G02*
X144290000Y-102698000I0J-263000D01*
G01*
X144290000Y-103324000D01*
G75*
G02*
X144027000Y-103587000I-263000J0D01*
G01*
G37*
G36*
G01*
X144027000Y-105337000D02*
X143501000Y-105337000D01*
G75*
G02*
X143238000Y-105074000I0J263000D01*
G01*
X143238000Y-104448000D01*
G75*
G02*
X143501000Y-104185000I263000J0D01*
G01*
X144027000Y-104185000D01*
G75*
G02*
X144290000Y-104448000I0J-263000D01*
G01*
X144290000Y-105074000D01*
G75*
G02*
X144027000Y-105337000I-263000J0D01*
G01*
G37*
G36*
G01*
X147710000Y-103587000D02*
X147184000Y-103587000D01*
G75*
G02*
X146921000Y-103324000I0J263000D01*
G01*
X146921000Y-102698000D01*
G75*
G02*
X147184000Y-102435000I263000J0D01*
G01*
X147710000Y-102435000D01*
G75*
G02*
X147973000Y-102698000I0J-263000D01*
G01*
X147973000Y-103324000D01*
G75*
G02*
X147710000Y-103587000I-263000J0D01*
G01*
G37*
G36*
G01*
X147710000Y-105337000D02*
X147184000Y-105337000D01*
G75*
G02*
X146921000Y-105074000I0J263000D01*
G01*
X146921000Y-104448000D01*
G75*
G02*
X147184000Y-104185000I263000J0D01*
G01*
X147710000Y-104185000D01*
G75*
G02*
X147973000Y-104448000I0J-263000D01*
G01*
X147973000Y-105074000D01*
G75*
G02*
X147710000Y-105337000I-263000J0D01*
G01*
G37*
G36*
G01*
X141723000Y-101264000D02*
X142249000Y-101264000D01*
G75*
G02*
X142512000Y-101527000I0J-263000D01*
G01*
X142512000Y-102153000D01*
G75*
G02*
X142249000Y-102416000I-263000J0D01*
G01*
X141723000Y-102416000D01*
G75*
G02*
X141460000Y-102153000I0J263000D01*
G01*
X141460000Y-101527000D01*
G75*
G02*
X141723000Y-101264000I263000J0D01*
G01*
G37*
G36*
G01*
X141723000Y-99514000D02*
X142249000Y-99514000D01*
G75*
G02*
X142512000Y-99777000I0J-263000D01*
G01*
X142512000Y-100403000D01*
G75*
G02*
X142249000Y-100666000I-263000J0D01*
G01*
X141723000Y-100666000D01*
G75*
G02*
X141460000Y-100403000I0J263000D01*
G01*
X141460000Y-99777000D01*
G75*
G02*
X141723000Y-99514000I263000J0D01*
G01*
G37*
G36*
G01*
X137132250Y-102851500D02*
X137695750Y-102851500D01*
G75*
G02*
X137940000Y-103095750I0J-244250D01*
G01*
X137940000Y-103584250D01*
G75*
G02*
X137695750Y-103828500I-244250J0D01*
G01*
X137132250Y-103828500D01*
G75*
G02*
X136888000Y-103584250I0J244250D01*
G01*
X136888000Y-103095750D01*
G75*
G02*
X137132250Y-102851500I244250J0D01*
G01*
G37*
G36*
G01*
X137132250Y-101276500D02*
X137695750Y-101276500D01*
G75*
G02*
X137940000Y-101520750I0J-244250D01*
G01*
X137940000Y-102009250D01*
G75*
G02*
X137695750Y-102253500I-244250J0D01*
G01*
X137132250Y-102253500D01*
G75*
G02*
X136888000Y-102009250I0J244250D01*
G01*
X136888000Y-101520750D01*
G75*
G02*
X137132250Y-101276500I244250J0D01*
G01*
G37*
G36*
G01*
X158759000Y-106032503D02*
X158759000Y-106819497D01*
G75*
G02*
X158701497Y-106877000I-57503J0D01*
G01*
X157814503Y-106877000D01*
G75*
G02*
X157757000Y-106819497I0J57503D01*
G01*
X157757000Y-106032503D01*
G75*
G02*
X157814503Y-105975000I57503J0D01*
G01*
X158701497Y-105975000D01*
G75*
G02*
X158759000Y-106032503I0J-57503D01*
G01*
G37*
G36*
G01*
X160759000Y-105082503D02*
X160759000Y-105869497D01*
G75*
G02*
X160701497Y-105927000I-57503J0D01*
G01*
X159814503Y-105927000D01*
G75*
G02*
X159757000Y-105869497I0J57503D01*
G01*
X159757000Y-105082503D01*
G75*
G02*
X159814503Y-105025000I57503J0D01*
G01*
X160701497Y-105025000D01*
G75*
G02*
X160759000Y-105082503I0J-57503D01*
G01*
G37*
G36*
G01*
X160759000Y-106982503D02*
X160759000Y-107769497D01*
G75*
G02*
X160701497Y-107827000I-57503J0D01*
G01*
X159814503Y-107827000D01*
G75*
G02*
X159757000Y-107769497I0J57503D01*
G01*
X159757000Y-106982503D01*
G75*
G02*
X159814503Y-106925000I57503J0D01*
G01*
X160701497Y-106925000D01*
G75*
G02*
X160759000Y-106982503I0J-57503D01*
G01*
G37*
G36*
G01*
X158759000Y-98158503D02*
X158759000Y-98945497D01*
G75*
G02*
X158701497Y-99003000I-57503J0D01*
G01*
X157814503Y-99003000D01*
G75*
G02*
X157757000Y-98945497I0J57503D01*
G01*
X157757000Y-98158503D01*
G75*
G02*
X157814503Y-98101000I57503J0D01*
G01*
X158701497Y-98101000D01*
G75*
G02*
X158759000Y-98158503I0J-57503D01*
G01*
G37*
G36*
G01*
X160759000Y-97208503D02*
X160759000Y-97995497D01*
G75*
G02*
X160701497Y-98053000I-57503J0D01*
G01*
X159814503Y-98053000D01*
G75*
G02*
X159757000Y-97995497I0J57503D01*
G01*
X159757000Y-97208503D01*
G75*
G02*
X159814503Y-97151000I57503J0D01*
G01*
X160701497Y-97151000D01*
G75*
G02*
X160759000Y-97208503I0J-57503D01*
G01*
G37*
G36*
G01*
X160759000Y-99108503D02*
X160759000Y-99895497D01*
G75*
G02*
X160701497Y-99953000I-57503J0D01*
G01*
X159814503Y-99953000D01*
G75*
G02*
X159757000Y-99895497I0J57503D01*
G01*
X159757000Y-99108503D01*
G75*
G02*
X159814503Y-99051000I57503J0D01*
G01*
X160701497Y-99051000D01*
G75*
G02*
X160759000Y-99108503I0J-57503D01*
G01*
G37*
G36*
G01*
X139056000Y-98945497D02*
X139056000Y-98158503D01*
G75*
G02*
X139113503Y-98101000I57503J0D01*
G01*
X140000497Y-98101000D01*
G75*
G02*
X140058000Y-98158503I0J-57503D01*
G01*
X140058000Y-98945497D01*
G75*
G02*
X140000497Y-99003000I-57503J0D01*
G01*
X139113503Y-99003000D01*
G75*
G02*
X139056000Y-98945497I0J57503D01*
G01*
G37*
G36*
G01*
X137056000Y-99895497D02*
X137056000Y-99108503D01*
G75*
G02*
X137113503Y-99051000I57503J0D01*
G01*
X138000497Y-99051000D01*
G75*
G02*
X138058000Y-99108503I0J-57503D01*
G01*
X138058000Y-99895497D01*
G75*
G02*
X138000497Y-99953000I-57503J0D01*
G01*
X137113503Y-99953000D01*
G75*
G02*
X137056000Y-99895497I0J57503D01*
G01*
G37*
G36*
G01*
X137056000Y-97995497D02*
X137056000Y-97208503D01*
G75*
G02*
X137113503Y-97151000I57503J0D01*
G01*
X138000497Y-97151000D01*
G75*
G02*
X138058000Y-97208503I0J-57503D01*
G01*
X138058000Y-97995497D01*
G75*
G02*
X138000497Y-98053000I-57503J0D01*
G01*
X137113503Y-98053000D01*
G75*
G02*
X137056000Y-97995497I0J57503D01*
G01*
G37*
G36*
G01*
X139056000Y-106565497D02*
X139056000Y-105778503D01*
G75*
G02*
X139113503Y-105721000I57503J0D01*
G01*
X140000497Y-105721000D01*
G75*
G02*
X140058000Y-105778503I0J-57503D01*
G01*
X140058000Y-106565497D01*
G75*
G02*
X140000497Y-106623000I-57503J0D01*
G01*
X139113503Y-106623000D01*
G75*
G02*
X139056000Y-106565497I0J57503D01*
G01*
G37*
G36*
G01*
X137056000Y-107515497D02*
X137056000Y-106728503D01*
G75*
G02*
X137113503Y-106671000I57503J0D01*
G01*
X138000497Y-106671000D01*
G75*
G02*
X138058000Y-106728503I0J-57503D01*
G01*
X138058000Y-107515497D01*
G75*
G02*
X138000497Y-107573000I-57503J0D01*
G01*
X137113503Y-107573000D01*
G75*
G02*
X137056000Y-107515497I0J57503D01*
G01*
G37*
G36*
G01*
X137056000Y-105615497D02*
X137056000Y-104828503D01*
G75*
G02*
X137113503Y-104771000I57503J0D01*
G01*
X138000497Y-104771000D01*
G75*
G02*
X138058000Y-104828503I0J-57503D01*
G01*
X138058000Y-105615497D01*
G75*
G02*
X138000497Y-105673000I-57503J0D01*
G01*
X137113503Y-105673000D01*
G75*
G02*
X137056000Y-105615497I0J57503D01*
G01*
G37*
D11*
X134620000Y-106680000D03*
X134620000Y-105410000D03*
X134620000Y-104140000D03*
X134620000Y-102870000D03*
X134620000Y-101600000D03*
D12*
X133465000Y-106045000D03*
X133465000Y-104775000D03*
X133465000Y-103505000D03*
X133465000Y-102235000D03*
G36*
G01*
X146316000Y-109926000D02*
X146316000Y-109530000D01*
G75*
G02*
X146489000Y-109357000I173000J0D01*
G01*
X146835000Y-109357000D01*
G75*
G02*
X147008000Y-109530000I0J-173000D01*
G01*
X147008000Y-109926000D01*
G75*
G02*
X146835000Y-110099000I-173000J0D01*
G01*
X146489000Y-110099000D01*
G75*
G02*
X146316000Y-109926000I0J173000D01*
G01*
G37*
G36*
G01*
X145346000Y-109926000D02*
X145346000Y-109530000D01*
G75*
G02*
X145519000Y-109357000I173000J0D01*
G01*
X145865000Y-109357000D01*
G75*
G02*
X146038000Y-109530000I0J-173000D01*
G01*
X146038000Y-109926000D01*
G75*
G02*
X145865000Y-110099000I-173000J0D01*
G01*
X145519000Y-110099000D01*
G75*
G02*
X145346000Y-109926000I0J173000D01*
G01*
G37*
G36*
G01*
X150761000Y-112339000D02*
X150761000Y-111943000D01*
G75*
G02*
X150934000Y-111770000I173000J0D01*
G01*
X151280000Y-111770000D01*
G75*
G02*
X151453000Y-111943000I0J-173000D01*
G01*
X151453000Y-112339000D01*
G75*
G02*
X151280000Y-112512000I-173000J0D01*
G01*
X150934000Y-112512000D01*
G75*
G02*
X150761000Y-112339000I0J173000D01*
G01*
G37*
G36*
G01*
X149791000Y-112339000D02*
X149791000Y-111943000D01*
G75*
G02*
X149964000Y-111770000I173000J0D01*
G01*
X150310000Y-111770000D01*
G75*
G02*
X150483000Y-111943000I0J-173000D01*
G01*
X150483000Y-112339000D01*
G75*
G02*
X150310000Y-112512000I-173000J0D01*
G01*
X149964000Y-112512000D01*
G75*
G02*
X149791000Y-112339000I0J173000D01*
G01*
G37*
G36*
G01*
X150761000Y-109164000D02*
X150761000Y-108768000D01*
G75*
G02*
X150934000Y-108595000I173000J0D01*
G01*
X151280000Y-108595000D01*
G75*
G02*
X151453000Y-108768000I0J-173000D01*
G01*
X151453000Y-109164000D01*
G75*
G02*
X151280000Y-109337000I-173000J0D01*
G01*
X150934000Y-109337000D01*
G75*
G02*
X150761000Y-109164000I0J173000D01*
G01*
G37*
G36*
G01*
X149791000Y-109164000D02*
X149791000Y-108768000D01*
G75*
G02*
X149964000Y-108595000I173000J0D01*
G01*
X150310000Y-108595000D01*
G75*
G02*
X150483000Y-108768000I0J-173000D01*
G01*
X150483000Y-109164000D01*
G75*
G02*
X150310000Y-109337000I-173000J0D01*
G01*
X149964000Y-109337000D01*
G75*
G02*
X149791000Y-109164000I0J173000D01*
G01*
G37*
G36*
X145970262Y-116400733D02*
G01*
X145989199Y-116404500D01*
X147438801Y-116404500D01*
X147457738Y-116400733D01*
X147472558Y-116390830D01*
X147474554Y-116390699D01*
X147475563Y-116393136D01*
X147457145Y-116447392D01*
X147476162Y-116518364D01*
X147475644Y-116520296D01*
X147473119Y-116520545D01*
X147457738Y-116510267D01*
X147438801Y-116506500D01*
X145989199Y-116506500D01*
X145970262Y-116510267D01*
X145955442Y-116520170D01*
X145953446Y-116520301D01*
X145952437Y-116517864D01*
X145970855Y-116463608D01*
X145951838Y-116392636D01*
X145952356Y-116390704D01*
X145954881Y-116390455D01*
X145970262Y-116400733D01*
G37*
G36*
X140070262Y-116400733D02*
G01*
X140089199Y-116404500D01*
X141538801Y-116404500D01*
X141557738Y-116400733D01*
X141572558Y-116390830D01*
X141574554Y-116390699D01*
X141575563Y-116393136D01*
X141557145Y-116447392D01*
X141576162Y-116518364D01*
X141575644Y-116520296D01*
X141573119Y-116520545D01*
X141557738Y-116510267D01*
X141538801Y-116506500D01*
X140089199Y-116506500D01*
X140070262Y-116510267D01*
X140055442Y-116520170D01*
X140053446Y-116520301D01*
X140052437Y-116517864D01*
X140070855Y-116463608D01*
X140051838Y-116392636D01*
X140052356Y-116390704D01*
X140054881Y-116390455D01*
X140070262Y-116400733D01*
G37*
G36*
X145970262Y-115750733D02*
G01*
X145989199Y-115754500D01*
X147438801Y-115754500D01*
X147457738Y-115750733D01*
X147472558Y-115740830D01*
X147474554Y-115740699D01*
X147475563Y-115743136D01*
X147457145Y-115797392D01*
X147476162Y-115868364D01*
X147475644Y-115870296D01*
X147473119Y-115870545D01*
X147457738Y-115860267D01*
X147438801Y-115856500D01*
X145989199Y-115856500D01*
X145970262Y-115860267D01*
X145955442Y-115870170D01*
X145953446Y-115870301D01*
X145952437Y-115867864D01*
X145970855Y-115813608D01*
X145951838Y-115742636D01*
X145952356Y-115740704D01*
X145954881Y-115740455D01*
X145970262Y-115750733D01*
G37*
G36*
X140070262Y-115750733D02*
G01*
X140089199Y-115754500D01*
X141538801Y-115754500D01*
X141557738Y-115750733D01*
X141572558Y-115740830D01*
X141574554Y-115740699D01*
X141575563Y-115743136D01*
X141557145Y-115797392D01*
X141576162Y-115868364D01*
X141575644Y-115870296D01*
X141573119Y-115870545D01*
X141557738Y-115860267D01*
X141538801Y-115856500D01*
X140089199Y-115856500D01*
X140070262Y-115860267D01*
X140055442Y-115870170D01*
X140053446Y-115870301D01*
X140052437Y-115867864D01*
X140070855Y-115813608D01*
X140051838Y-115742636D01*
X140052356Y-115740704D01*
X140054881Y-115740455D01*
X140070262Y-115750733D01*
G37*
G36*
X145970262Y-115100733D02*
G01*
X145989199Y-115104500D01*
X147438801Y-115104500D01*
X147457738Y-115100733D01*
X147472558Y-115090830D01*
X147474554Y-115090699D01*
X147475563Y-115093136D01*
X147457145Y-115147392D01*
X147476162Y-115218364D01*
X147475644Y-115220296D01*
X147473119Y-115220545D01*
X147457738Y-115210267D01*
X147438801Y-115206500D01*
X145989199Y-115206500D01*
X145970262Y-115210267D01*
X145955442Y-115220170D01*
X145953446Y-115220301D01*
X145952437Y-115217864D01*
X145970855Y-115163608D01*
X145951838Y-115092636D01*
X145952356Y-115090704D01*
X145954881Y-115090455D01*
X145970262Y-115100733D01*
G37*
G36*
X140070262Y-115100733D02*
G01*
X140089199Y-115104500D01*
X141538801Y-115104500D01*
X141557738Y-115100733D01*
X141572558Y-115090830D01*
X141574554Y-115090699D01*
X141575563Y-115093136D01*
X141557145Y-115147392D01*
X141576162Y-115218364D01*
X141575644Y-115220296D01*
X141573119Y-115220545D01*
X141557738Y-115210267D01*
X141538801Y-115206500D01*
X140089199Y-115206500D01*
X140070262Y-115210267D01*
X140055442Y-115220170D01*
X140053446Y-115220301D01*
X140052437Y-115217864D01*
X140070855Y-115163608D01*
X140051838Y-115092636D01*
X140052356Y-115090704D01*
X140054881Y-115090455D01*
X140070262Y-115100733D01*
G37*
G36*
X145970262Y-114450733D02*
G01*
X145989199Y-114454500D01*
X147438801Y-114454500D01*
X147457738Y-114450733D01*
X147472558Y-114440830D01*
X147474554Y-114440699D01*
X147475563Y-114443136D01*
X147457145Y-114497392D01*
X147476162Y-114568364D01*
X147475644Y-114570296D01*
X147473119Y-114570545D01*
X147457738Y-114560267D01*
X147438801Y-114556500D01*
X145989199Y-114556500D01*
X145970262Y-114560267D01*
X145955442Y-114570170D01*
X145953446Y-114570301D01*
X145952437Y-114567864D01*
X145970855Y-114513608D01*
X145951838Y-114442636D01*
X145952356Y-114440704D01*
X145954881Y-114440455D01*
X145970262Y-114450733D01*
G37*
G36*
X140070262Y-114450733D02*
G01*
X140089199Y-114454500D01*
X141538801Y-114454500D01*
X141557738Y-114450733D01*
X141572558Y-114440830D01*
X141574554Y-114440699D01*
X141575563Y-114443136D01*
X141557145Y-114497392D01*
X141576162Y-114568364D01*
X141575644Y-114570296D01*
X141573119Y-114570545D01*
X141557738Y-114560267D01*
X141538801Y-114556500D01*
X140089199Y-114556500D01*
X140070262Y-114560267D01*
X140055442Y-114570170D01*
X140053446Y-114570301D01*
X140052437Y-114567864D01*
X140070855Y-114513608D01*
X140051838Y-114442636D01*
X140052356Y-114440704D01*
X140054881Y-114440455D01*
X140070262Y-114450733D01*
G37*
G36*
X145970262Y-113800733D02*
G01*
X145989199Y-113804500D01*
X147438801Y-113804500D01*
X147457738Y-113800733D01*
X147472558Y-113790830D01*
X147474554Y-113790699D01*
X147475563Y-113793136D01*
X147457145Y-113847392D01*
X147476162Y-113918364D01*
X147475644Y-113920296D01*
X147473119Y-113920545D01*
X147457738Y-113910267D01*
X147438801Y-113906500D01*
X145989199Y-113906500D01*
X145970262Y-113910267D01*
X145955442Y-113920170D01*
X145953446Y-113920301D01*
X145952437Y-113917864D01*
X145970855Y-113863608D01*
X145951838Y-113792636D01*
X145952356Y-113790704D01*
X145954881Y-113790455D01*
X145970262Y-113800733D01*
G37*
G36*
X140070262Y-113800733D02*
G01*
X140089199Y-113804500D01*
X141538801Y-113804500D01*
X141557738Y-113800733D01*
X141572558Y-113790830D01*
X141574554Y-113790699D01*
X141575563Y-113793136D01*
X141557145Y-113847392D01*
X141576162Y-113918364D01*
X141575644Y-113920296D01*
X141573119Y-113920545D01*
X141557738Y-113910267D01*
X141538801Y-113906500D01*
X140089199Y-113906500D01*
X140070262Y-113910267D01*
X140055442Y-113920170D01*
X140053446Y-113920301D01*
X140052437Y-113917864D01*
X140070855Y-113863608D01*
X140051838Y-113792636D01*
X140052356Y-113790704D01*
X140054881Y-113790455D01*
X140070262Y-113800733D01*
G37*
G36*
X140070262Y-113150733D02*
G01*
X140089199Y-113154500D01*
X141538801Y-113154500D01*
X141557738Y-113150733D01*
X141572558Y-113140830D01*
X141574554Y-113140699D01*
X141575563Y-113143136D01*
X141557145Y-113197392D01*
X141576162Y-113268364D01*
X141575644Y-113270296D01*
X141573119Y-113270545D01*
X141557738Y-113260267D01*
X141538801Y-113256500D01*
X140089199Y-113256500D01*
X140070262Y-113260267D01*
X140055442Y-113270170D01*
X140053446Y-113270301D01*
X140052437Y-113267864D01*
X140070855Y-113213608D01*
X140051838Y-113142636D01*
X140052356Y-113140704D01*
X140054881Y-113140455D01*
X140070262Y-113150733D01*
G37*
G36*
X145970262Y-113150733D02*
G01*
X145989199Y-113154500D01*
X147438801Y-113154500D01*
X147457738Y-113150733D01*
X147472558Y-113140830D01*
X147474554Y-113140699D01*
X147475563Y-113143136D01*
X147457145Y-113197392D01*
X147476162Y-113268364D01*
X147475644Y-113270296D01*
X147473119Y-113270545D01*
X147457738Y-113260267D01*
X147438801Y-113256500D01*
X145989199Y-113256500D01*
X145970262Y-113260267D01*
X145955442Y-113270170D01*
X145953446Y-113270301D01*
X145952437Y-113267864D01*
X145970855Y-113213608D01*
X145951838Y-113142636D01*
X145952356Y-113140704D01*
X145954881Y-113140455D01*
X145970262Y-113150733D01*
G37*
G36*
X145970262Y-112500733D02*
G01*
X145989199Y-112504500D01*
X147438801Y-112504500D01*
X147457738Y-112500733D01*
X147472558Y-112490830D01*
X147474554Y-112490699D01*
X147475563Y-112493136D01*
X147457145Y-112547392D01*
X147476162Y-112618364D01*
X147475644Y-112620296D01*
X147473119Y-112620545D01*
X147457738Y-112610267D01*
X147438801Y-112606500D01*
X145989199Y-112606500D01*
X145970262Y-112610267D01*
X145955442Y-112620170D01*
X145953446Y-112620301D01*
X145952437Y-112617864D01*
X145970855Y-112563608D01*
X145951838Y-112492636D01*
X145952356Y-112490704D01*
X145954881Y-112490455D01*
X145970262Y-112500733D01*
G37*
G36*
X140070262Y-112500733D02*
G01*
X140089199Y-112504500D01*
X141538801Y-112504500D01*
X141557738Y-112500733D01*
X141572558Y-112490830D01*
X141574554Y-112490699D01*
X141575563Y-112493136D01*
X141557145Y-112547392D01*
X141576162Y-112618364D01*
X141575644Y-112620296D01*
X141573119Y-112620545D01*
X141557738Y-112610267D01*
X141538801Y-112606500D01*
X140089199Y-112606500D01*
X140070262Y-112610267D01*
X140055442Y-112620170D01*
X140053446Y-112620301D01*
X140052437Y-112617864D01*
X140070855Y-112563608D01*
X140051838Y-112492636D01*
X140052356Y-112490704D01*
X140054881Y-112490455D01*
X140070262Y-112500733D01*
G37*
G36*
X140070262Y-111850733D02*
G01*
X140089199Y-111854500D01*
X141538801Y-111854500D01*
X141557738Y-111850733D01*
X141572558Y-111840830D01*
X141574554Y-111840699D01*
X141575563Y-111843136D01*
X141557145Y-111897392D01*
X141576162Y-111968364D01*
X141575644Y-111970296D01*
X141573119Y-111970545D01*
X141557738Y-111960267D01*
X141538801Y-111956500D01*
X140089199Y-111956500D01*
X140070262Y-111960267D01*
X140055442Y-111970170D01*
X140053446Y-111970301D01*
X140052437Y-111967864D01*
X140070855Y-111913608D01*
X140051838Y-111842636D01*
X140052356Y-111840704D01*
X140054881Y-111840455D01*
X140070262Y-111850733D01*
G37*
G36*
X145970262Y-111850733D02*
G01*
X145989199Y-111854500D01*
X147438801Y-111854500D01*
X147457738Y-111850733D01*
X147472558Y-111840830D01*
X147474554Y-111840699D01*
X147475563Y-111843136D01*
X147457145Y-111897392D01*
X147476162Y-111968364D01*
X147475644Y-111970296D01*
X147473119Y-111970545D01*
X147457738Y-111960267D01*
X147438801Y-111956500D01*
X145989199Y-111956500D01*
X145970262Y-111960267D01*
X145955442Y-111970170D01*
X145953446Y-111970301D01*
X145952437Y-111967864D01*
X145970855Y-111913608D01*
X145951838Y-111842636D01*
X145952356Y-111840704D01*
X145954881Y-111840455D01*
X145970262Y-111850733D01*
G37*
G36*
X145970262Y-111200733D02*
G01*
X145989199Y-111204500D01*
X147438801Y-111204500D01*
X147457738Y-111200733D01*
X147472558Y-111190830D01*
X147474554Y-111190699D01*
X147475563Y-111193136D01*
X147457145Y-111247392D01*
X147476162Y-111318364D01*
X147475644Y-111320296D01*
X147473119Y-111320545D01*
X147457738Y-111310267D01*
X147438801Y-111306500D01*
X145989199Y-111306500D01*
X145970262Y-111310267D01*
X145955442Y-111320170D01*
X145953446Y-111320301D01*
X145952437Y-111317864D01*
X145970855Y-111263608D01*
X145951838Y-111192636D01*
X145952356Y-111190704D01*
X145954881Y-111190455D01*
X145970262Y-111200733D01*
G37*
G36*
X140070262Y-111200733D02*
G01*
X140089199Y-111204500D01*
X141538801Y-111204500D01*
X141557738Y-111200733D01*
X141572558Y-111190830D01*
X141574554Y-111190699D01*
X141575563Y-111193136D01*
X141557145Y-111247392D01*
X141576162Y-111318364D01*
X141575644Y-111320296D01*
X141573119Y-111320545D01*
X141557738Y-111310267D01*
X141538801Y-111306500D01*
X140089199Y-111306500D01*
X140070262Y-111310267D01*
X140055442Y-111320170D01*
X140053446Y-111320301D01*
X140052437Y-111317864D01*
X140070855Y-111263608D01*
X140051838Y-111192636D01*
X140052356Y-111190704D01*
X140054881Y-111190455D01*
X140070262Y-111200733D01*
G37*
G36*
X158507572Y-110455684D02*
G01*
X158507572Y-110458322D01*
X158466961Y-110504631D01*
X158454547Y-110567041D01*
X158475023Y-110627362D01*
X158507185Y-110659524D01*
X158507703Y-110661456D01*
X158505381Y-110662900D01*
X158490801Y-110660000D01*
X156391199Y-110660000D01*
X156376322Y-110662959D01*
X156374428Y-110662316D01*
X156374428Y-110659678D01*
X156415039Y-110613369D01*
X156427453Y-110550959D01*
X156406977Y-110490638D01*
X156374815Y-110458476D01*
X156374297Y-110456544D01*
X156376619Y-110455100D01*
X156391199Y-110458000D01*
X158490801Y-110458000D01*
X158505678Y-110455041D01*
X158507572Y-110455684D01*
G37*
G36*
X151307572Y-110455684D02*
G01*
X151307572Y-110458322D01*
X151266961Y-110504631D01*
X151254547Y-110567041D01*
X151275023Y-110627362D01*
X151307185Y-110659524D01*
X151307703Y-110661456D01*
X151305381Y-110662900D01*
X151290801Y-110660000D01*
X149191199Y-110660000D01*
X149176322Y-110662959D01*
X149174428Y-110662316D01*
X149174428Y-110659678D01*
X149215039Y-110613369D01*
X149227453Y-110550959D01*
X149206977Y-110490638D01*
X149174815Y-110458476D01*
X149174297Y-110456544D01*
X149176619Y-110455100D01*
X149191199Y-110458000D01*
X151290801Y-110458000D01*
X151305678Y-110455041D01*
X151307572Y-110455684D01*
G37*
G36*
X134253744Y-106139567D02*
G01*
X134254273Y-106141201D01*
X134251573Y-106161711D01*
X134251438Y-106162215D01*
X134243829Y-106180585D01*
X134235487Y-106243943D01*
X134259837Y-106302731D01*
X134310322Y-106341469D01*
X134373434Y-106349778D01*
X134424695Y-106329947D01*
X134426672Y-106330254D01*
X134427393Y-106332120D01*
X134426593Y-106333430D01*
X134337882Y-106397882D01*
X134264510Y-106498870D01*
X134234815Y-106590263D01*
X134233329Y-106591601D01*
X134231427Y-106590983D01*
X134230934Y-106589353D01*
X134236284Y-106553122D01*
X134228939Y-106489641D01*
X134190999Y-106438557D01*
X134132599Y-106413286D01*
X134069259Y-106420614D01*
X134059783Y-106425987D01*
X134057788Y-106425971D01*
X134057849Y-106426106D01*
X134056844Y-106427653D01*
X134042800Y-106435616D01*
X134042579Y-106435724D01*
X134003601Y-106451869D01*
X134001618Y-106451608D01*
X134000853Y-106449760D01*
X134002008Y-106448200D01*
X134055030Y-106424092D01*
X134056817Y-106424266D01*
X134056797Y-106424231D01*
X134057491Y-106422732D01*
X134153335Y-106340147D01*
X134222574Y-106233326D01*
X134250374Y-106140367D01*
X134251828Y-106138994D01*
X134253744Y-106139567D01*
G37*
G36*
X134233538Y-105495806D02*
G01*
X134264510Y-105591130D01*
X134337882Y-105692118D01*
X134432482Y-105760849D01*
X134433295Y-105762676D01*
X134432119Y-105764294D01*
X134430609Y-105764342D01*
X134415764Y-105758821D01*
X134415744Y-105758813D01*
X134370943Y-105741616D01*
X134308095Y-105751572D01*
X134258644Y-105791619D01*
X134235836Y-105851039D01*
X134244556Y-105911172D01*
X134251438Y-105927787D01*
X134251573Y-105928291D01*
X134254606Y-105951325D01*
X134253841Y-105953173D01*
X134251858Y-105953434D01*
X134250700Y-105952136D01*
X134224843Y-105861666D01*
X134156917Y-105754009D01*
X134061499Y-105669739D01*
X134001827Y-105641723D01*
X134000684Y-105640082D01*
X134001534Y-105638272D01*
X134003442Y-105638065D01*
X134040725Y-105653508D01*
X134041027Y-105653682D01*
X134100148Y-105678171D01*
X134163236Y-105669865D01*
X134213720Y-105631127D01*
X134238069Y-105572341D01*
X134232505Y-105530922D01*
X134233265Y-105529073D01*
X134233721Y-105528885D01*
X134229652Y-105496675D01*
X134230427Y-105494831D01*
X134232411Y-105494580D01*
X134233538Y-105495806D01*
G37*
G36*
X134253744Y-104869567D02*
G01*
X134254273Y-104871201D01*
X134251573Y-104891711D01*
X134251438Y-104892215D01*
X134243829Y-104910585D01*
X134235487Y-104973943D01*
X134259837Y-105032731D01*
X134310322Y-105071469D01*
X134373434Y-105079778D01*
X134424695Y-105059947D01*
X134426672Y-105060254D01*
X134427393Y-105062120D01*
X134426593Y-105063430D01*
X134337882Y-105127882D01*
X134264510Y-105228870D01*
X134234815Y-105320263D01*
X134233329Y-105321601D01*
X134231427Y-105320983D01*
X134230934Y-105319353D01*
X134236284Y-105283122D01*
X134228939Y-105219641D01*
X134190999Y-105168557D01*
X134132599Y-105143286D01*
X134069259Y-105150614D01*
X134059783Y-105155987D01*
X134057788Y-105155971D01*
X134057849Y-105156106D01*
X134056844Y-105157653D01*
X134042800Y-105165616D01*
X134042579Y-105165724D01*
X134003601Y-105181869D01*
X134001618Y-105181608D01*
X134000853Y-105179760D01*
X134002008Y-105178200D01*
X134055030Y-105154092D01*
X134056817Y-105154266D01*
X134056797Y-105154231D01*
X134057491Y-105152732D01*
X134153335Y-105070147D01*
X134222574Y-104963326D01*
X134250374Y-104870367D01*
X134251828Y-104868994D01*
X134253744Y-104869567D01*
G37*
G36*
X134233538Y-104225806D02*
G01*
X134264510Y-104321130D01*
X134337882Y-104422118D01*
X134432482Y-104490849D01*
X134433295Y-104492676D01*
X134432119Y-104494294D01*
X134430609Y-104494342D01*
X134415764Y-104488821D01*
X134415744Y-104488813D01*
X134370943Y-104471616D01*
X134308095Y-104481572D01*
X134258644Y-104521619D01*
X134235836Y-104581039D01*
X134244556Y-104641172D01*
X134251438Y-104657787D01*
X134251573Y-104658291D01*
X134254606Y-104681325D01*
X134253841Y-104683173D01*
X134251858Y-104683434D01*
X134250700Y-104682136D01*
X134224843Y-104591666D01*
X134156917Y-104484009D01*
X134061499Y-104399739D01*
X134001827Y-104371723D01*
X134000684Y-104370082D01*
X134001534Y-104368272D01*
X134003442Y-104368065D01*
X134040725Y-104383508D01*
X134041027Y-104383682D01*
X134100148Y-104408171D01*
X134163236Y-104399865D01*
X134213720Y-104361127D01*
X134238069Y-104302341D01*
X134232505Y-104260922D01*
X134233265Y-104259073D01*
X134233721Y-104258885D01*
X134229652Y-104226675D01*
X134230427Y-104224831D01*
X134232411Y-104224580D01*
X134233538Y-104225806D01*
G37*
G36*
X134253744Y-103599567D02*
G01*
X134254273Y-103601201D01*
X134251573Y-103621711D01*
X134251438Y-103622215D01*
X134243829Y-103640585D01*
X134235487Y-103703943D01*
X134259837Y-103762731D01*
X134310322Y-103801469D01*
X134373434Y-103809778D01*
X134424695Y-103789947D01*
X134426672Y-103790254D01*
X134427393Y-103792120D01*
X134426593Y-103793430D01*
X134337882Y-103857882D01*
X134264510Y-103958870D01*
X134234815Y-104050263D01*
X134233329Y-104051601D01*
X134231427Y-104050983D01*
X134230934Y-104049353D01*
X134236284Y-104013122D01*
X134228939Y-103949641D01*
X134190999Y-103898557D01*
X134132599Y-103873286D01*
X134069259Y-103880614D01*
X134059783Y-103885987D01*
X134057788Y-103885971D01*
X134057849Y-103886106D01*
X134056844Y-103887653D01*
X134042800Y-103895616D01*
X134042579Y-103895724D01*
X134003601Y-103911869D01*
X134001618Y-103911608D01*
X134000853Y-103909760D01*
X134002008Y-103908200D01*
X134055030Y-103884092D01*
X134056817Y-103884266D01*
X134056797Y-103884231D01*
X134057491Y-103882732D01*
X134153335Y-103800147D01*
X134222574Y-103693326D01*
X134250374Y-103600367D01*
X134251828Y-103598994D01*
X134253744Y-103599567D01*
G37*
G36*
X134233538Y-102955806D02*
G01*
X134264510Y-103051130D01*
X134337882Y-103152118D01*
X134432482Y-103220849D01*
X134433295Y-103222676D01*
X134432119Y-103224294D01*
X134430609Y-103224342D01*
X134415764Y-103218821D01*
X134415744Y-103218813D01*
X134370943Y-103201616D01*
X134308095Y-103211572D01*
X134258644Y-103251619D01*
X134235836Y-103311039D01*
X134244556Y-103371172D01*
X134251438Y-103387787D01*
X134251573Y-103388291D01*
X134254606Y-103411325D01*
X134253841Y-103413173D01*
X134251858Y-103413434D01*
X134250700Y-103412136D01*
X134224843Y-103321666D01*
X134156917Y-103214009D01*
X134061499Y-103129739D01*
X134001827Y-103101723D01*
X134000684Y-103100082D01*
X134001534Y-103098272D01*
X134003442Y-103098065D01*
X134040725Y-103113508D01*
X134041027Y-103113682D01*
X134100148Y-103138171D01*
X134163236Y-103129865D01*
X134213720Y-103091127D01*
X134238069Y-103032341D01*
X134232505Y-102990922D01*
X134233265Y-102989073D01*
X134233721Y-102988885D01*
X134229652Y-102956675D01*
X134230427Y-102954831D01*
X134232411Y-102954580D01*
X134233538Y-102955806D01*
G37*
G36*
X134253744Y-102329567D02*
G01*
X134254273Y-102331201D01*
X134251573Y-102351711D01*
X134251438Y-102352215D01*
X134243829Y-102370585D01*
X134235487Y-102433943D01*
X134259837Y-102492731D01*
X134310322Y-102531469D01*
X134373434Y-102539778D01*
X134424695Y-102519947D01*
X134426672Y-102520254D01*
X134427393Y-102522120D01*
X134426593Y-102523430D01*
X134337882Y-102587882D01*
X134264510Y-102688870D01*
X134234815Y-102780263D01*
X134233329Y-102781601D01*
X134231427Y-102780983D01*
X134230934Y-102779353D01*
X134236284Y-102743122D01*
X134228939Y-102679641D01*
X134190999Y-102628557D01*
X134132599Y-102603286D01*
X134069259Y-102610614D01*
X134059783Y-102615987D01*
X134057788Y-102615971D01*
X134057849Y-102616106D01*
X134056844Y-102617653D01*
X134042800Y-102625616D01*
X134042579Y-102625724D01*
X134003601Y-102641869D01*
X134001618Y-102641608D01*
X134000853Y-102639760D01*
X134002008Y-102638200D01*
X134055030Y-102614092D01*
X134056817Y-102614266D01*
X134056797Y-102614231D01*
X134057491Y-102612732D01*
X134153335Y-102530147D01*
X134222574Y-102423326D01*
X134250374Y-102330367D01*
X134251828Y-102328994D01*
X134253744Y-102329567D01*
G37*
G36*
X134233538Y-101685806D02*
G01*
X134264510Y-101781130D01*
X134337882Y-101882118D01*
X134432482Y-101950849D01*
X134433295Y-101952676D01*
X134432119Y-101954294D01*
X134430609Y-101954342D01*
X134415764Y-101948821D01*
X134415744Y-101948813D01*
X134370943Y-101931616D01*
X134308095Y-101941572D01*
X134258644Y-101981619D01*
X134235836Y-102041039D01*
X134244556Y-102101172D01*
X134251438Y-102117787D01*
X134251573Y-102118291D01*
X134254606Y-102141325D01*
X134253841Y-102143173D01*
X134251858Y-102143434D01*
X134250700Y-102142136D01*
X134224843Y-102051666D01*
X134156917Y-101944009D01*
X134061499Y-101859739D01*
X134001827Y-101831723D01*
X134000684Y-101830082D01*
X134001534Y-101828272D01*
X134003442Y-101828065D01*
X134040725Y-101843508D01*
X134041027Y-101843682D01*
X134100148Y-101868171D01*
X134163236Y-101859865D01*
X134213720Y-101821127D01*
X134238069Y-101762341D01*
X134232505Y-101720922D01*
X134233265Y-101719073D01*
X134233721Y-101718885D01*
X134229652Y-101686675D01*
X134230427Y-101684831D01*
X134232411Y-101684580D01*
X134233538Y-101685806D01*
G37*
M02*
