G04 #@! TF.GenerationSoftware,KiCad,Pcbnew,5.99.0-unknown-r19130-2af6d01f*
G04 #@! TF.CreationDate,2020-08-04T10:25:43+02:00*
G04 #@! TF.ProjectId,ada-watch,6164612d-7761-4746-9368-2e6b69636164,rev?*
G04 #@! TF.SameCoordinates,Original*
G04 #@! TF.FileFunction,Legend,Bot*
G04 #@! TF.FilePolarity,Positive*
%FSLAX46Y46*%
G04 Gerber Fmt 4.6, Leading zero omitted, Abs format (unit mm)*
G04 Created by KiCad (PCBNEW 5.99.0-unknown-r19130-2af6d01f) date 2020-08-04 10:25:43*
%MOMM*%
%LPD*%
G01*
G04 APERTURE LIST*
%ADD10C,0.150000*%
%ADD11C,0.010000*%
%ADD12C,0.120000*%
G04 APERTURE END LIST*
D10*
X152320047Y-102322380D02*
X152320047Y-103036666D01*
X152367666Y-103179523D01*
X152462904Y-103274761D01*
X152605761Y-103322380D01*
X152701000Y-103322380D01*
X151367666Y-103322380D02*
X151843857Y-103322380D01*
X151843857Y-102322380D01*
X150462904Y-103227142D02*
X150510523Y-103274761D01*
X150653380Y-103322380D01*
X150748619Y-103322380D01*
X150891476Y-103274761D01*
X150986714Y-103179523D01*
X151034333Y-103084285D01*
X151081952Y-102893809D01*
X151081952Y-102750952D01*
X151034333Y-102560476D01*
X150986714Y-102465238D01*
X150891476Y-102370000D01*
X150748619Y-102322380D01*
X150653380Y-102322380D01*
X150510523Y-102370000D01*
X150462904Y-102417619D01*
X149748619Y-102322380D02*
X149748619Y-103036666D01*
X149796238Y-103179523D01*
X149891476Y-103274761D01*
X150034333Y-103322380D01*
X150129571Y-103322380D01*
X148796238Y-103322380D02*
X149272428Y-103322380D01*
X149272428Y-102322380D01*
X147891476Y-103227142D02*
X147939095Y-103274761D01*
X148081952Y-103322380D01*
X148177190Y-103322380D01*
X148320047Y-103274761D01*
X148415285Y-103179523D01*
X148462904Y-103084285D01*
X148510523Y-102893809D01*
X148510523Y-102750952D01*
X148462904Y-102560476D01*
X148415285Y-102465238D01*
X148320047Y-102370000D01*
X148177190Y-102322380D01*
X148081952Y-102322380D01*
X147939095Y-102370000D01*
X147891476Y-102417619D01*
X147177190Y-102322380D02*
X147177190Y-103036666D01*
X147224809Y-103179523D01*
X147320047Y-103274761D01*
X147462904Y-103322380D01*
X147558142Y-103322380D01*
X146224809Y-103322380D02*
X146701000Y-103322380D01*
X146701000Y-102322380D01*
X145320047Y-103227142D02*
X145367666Y-103274761D01*
X145510523Y-103322380D01*
X145605761Y-103322380D01*
X145748619Y-103274761D01*
X145843857Y-103179523D01*
X145891476Y-103084285D01*
X145939095Y-102893809D01*
X145939095Y-102750952D01*
X145891476Y-102560476D01*
X145843857Y-102465238D01*
X145748619Y-102370000D01*
X145605761Y-102322380D01*
X145510523Y-102322380D01*
X145367666Y-102370000D01*
X145320047Y-102417619D01*
X144605761Y-102322380D02*
X144605761Y-103036666D01*
X144653380Y-103179523D01*
X144748619Y-103274761D01*
X144891476Y-103322380D01*
X144986714Y-103322380D01*
X143653380Y-103322380D02*
X144129571Y-103322380D01*
X144129571Y-102322380D01*
X142748619Y-103227142D02*
X142796238Y-103274761D01*
X142939095Y-103322380D01*
X143034333Y-103322380D01*
X143177190Y-103274761D01*
X143272428Y-103179523D01*
X143320047Y-103084285D01*
X143367666Y-102893809D01*
X143367666Y-102750952D01*
X143320047Y-102560476D01*
X143272428Y-102465238D01*
X143177190Y-102370000D01*
X143034333Y-102322380D01*
X142939095Y-102322380D01*
X142796238Y-102370000D01*
X142748619Y-102417619D01*
X138791714Y-96406880D02*
X138739333Y-96354500D01*
X138634571Y-96302119D01*
X138372666Y-96302119D01*
X138267904Y-96354500D01*
X138215523Y-96406880D01*
X138163142Y-96511642D01*
X138163142Y-96616404D01*
X138215523Y-96773547D01*
X138844095Y-97402119D01*
X138163142Y-97402119D01*
X137482190Y-96302119D02*
X137377428Y-96302119D01*
X137272666Y-96354500D01*
X137220285Y-96406880D01*
X137167904Y-96511642D01*
X137115523Y-96721166D01*
X137115523Y-96983071D01*
X137167904Y-97192595D01*
X137220285Y-97297357D01*
X137272666Y-97349738D01*
X137377428Y-97402119D01*
X137482190Y-97402119D01*
X137586952Y-97349738D01*
X137639333Y-97297357D01*
X137691714Y-97192595D01*
X137744095Y-96983071D01*
X137744095Y-96721166D01*
X137691714Y-96511642D01*
X137639333Y-96406880D01*
X137586952Y-96354500D01*
X137482190Y-96302119D01*
X136067904Y-97402119D02*
X136696476Y-97402119D01*
X136382190Y-97402119D02*
X136382190Y-96302119D01*
X136486952Y-96459261D01*
X136591714Y-96564023D01*
X136696476Y-96616404D01*
X135544095Y-97402119D02*
X135334571Y-97402119D01*
X135229809Y-97349738D01*
X135177428Y-97297357D01*
X135072666Y-97140214D01*
X135020285Y-96930690D01*
X135020285Y-96511642D01*
X135072666Y-96406880D01*
X135125047Y-96354500D01*
X135229809Y-96302119D01*
X135439333Y-96302119D01*
X135544095Y-96354500D01*
X135596476Y-96406880D01*
X135648857Y-96511642D01*
X135648857Y-96773547D01*
X135596476Y-96878309D01*
X135544095Y-96930690D01*
X135439333Y-96983071D01*
X135229809Y-96983071D01*
X135125047Y-96930690D01*
X135072666Y-96878309D01*
X135020285Y-96773547D01*
X138660761Y-98125500D02*
X138765523Y-98073119D01*
X138922666Y-98073119D01*
X139079809Y-98125500D01*
X139184571Y-98230261D01*
X139236952Y-98335023D01*
X139289333Y-98544547D01*
X139289333Y-98701690D01*
X139236952Y-98911214D01*
X139184571Y-99015976D01*
X139079809Y-99120738D01*
X138922666Y-99173119D01*
X138817904Y-99173119D01*
X138660761Y-99120738D01*
X138608380Y-99068357D01*
X138608380Y-98701690D01*
X138817904Y-98701690D01*
X137665523Y-99173119D02*
X137665523Y-98596928D01*
X137717904Y-98492166D01*
X137822666Y-98439785D01*
X138032190Y-98439785D01*
X138136952Y-98492166D01*
X137665523Y-99120738D02*
X137770285Y-99173119D01*
X138032190Y-99173119D01*
X138136952Y-99120738D01*
X138189333Y-99015976D01*
X138189333Y-98911214D01*
X138136952Y-98806452D01*
X138032190Y-98754071D01*
X137770285Y-98754071D01*
X137665523Y-98701690D01*
X136984571Y-99173119D02*
X137089333Y-99120738D01*
X137141714Y-99015976D01*
X137141714Y-98073119D01*
X136565523Y-99173119D02*
X136565523Y-98439785D01*
X136565523Y-98073119D02*
X136617904Y-98125500D01*
X136565523Y-98177880D01*
X136513142Y-98125500D01*
X136565523Y-98073119D01*
X136565523Y-98177880D01*
X135884571Y-99173119D02*
X135989333Y-99120738D01*
X136041714Y-99068357D01*
X136094095Y-98963595D01*
X136094095Y-98649309D01*
X136041714Y-98544547D01*
X135989333Y-98492166D01*
X135884571Y-98439785D01*
X135727428Y-98439785D01*
X135622666Y-98492166D01*
X135570285Y-98544547D01*
X135517904Y-98649309D01*
X135517904Y-98963595D01*
X135570285Y-99068357D01*
X135622666Y-99120738D01*
X135727428Y-99173119D01*
X135884571Y-99173119D01*
X135046476Y-98439785D02*
X135046476Y-99173119D01*
X135046476Y-98544547D02*
X134994095Y-98492166D01*
X134889333Y-98439785D01*
X134732190Y-98439785D01*
X134627428Y-98492166D01*
X134575047Y-98596928D01*
X134575047Y-99173119D01*
G36*
X135922664Y-107111926D02*
G01*
X135926465Y-107045911D01*
X136127653Y-107042772D01*
X136176575Y-107041844D01*
X136250074Y-107039208D01*
X136304009Y-107034683D01*
X136342005Y-107027438D01*
X136367687Y-107016642D01*
X136384680Y-107001462D01*
X136396611Y-106981066D01*
X136408795Y-106942797D01*
X136404060Y-106904738D01*
X136378021Y-106864549D01*
X136345467Y-106825861D01*
X135920178Y-106825861D01*
X135920178Y-106687544D01*
X136150824Y-106687544D01*
X136223118Y-106687677D01*
X136287359Y-106688413D01*
X136334382Y-106690181D01*
X136368452Y-106693411D01*
X136393830Y-106698530D01*
X136414779Y-106705967D01*
X136435564Y-106716150D01*
X136439976Y-106718564D01*
X136482953Y-106750675D01*
X136512987Y-106788256D01*
X136528757Y-106833564D01*
X136535778Y-106893561D01*
X136531975Y-106953643D01*
X136517132Y-107002525D01*
X136497948Y-107039624D01*
X136913141Y-107039624D01*
X136886646Y-106988792D01*
X136877020Y-106967558D01*
X136869949Y-106932742D01*
X137001564Y-106932742D01*
X137004529Y-106967559D01*
X137019369Y-107002020D01*
X137049431Y-107024215D01*
X137097746Y-107036097D01*
X137167350Y-107039624D01*
X137204376Y-107038712D01*
X137274272Y-107029609D01*
X137321536Y-107010828D01*
X137345832Y-106982476D01*
X137352668Y-106953840D01*
X137349463Y-106903970D01*
X137329620Y-106861833D01*
X137320520Y-106851749D01*
X137304777Y-106841063D01*
X137281342Y-106834456D01*
X137244396Y-106830532D01*
X137188120Y-106827897D01*
X137150764Y-106826749D01*
X137106151Y-106826861D01*
X137076399Y-106830272D01*
X137055165Y-106837937D01*
X137036104Y-106850814D01*
X137018383Y-106867171D01*
X137004972Y-106893329D01*
X137001564Y-106932742D01*
X136869949Y-106932742D01*
X136863408Y-106900536D01*
X136872816Y-106833930D01*
X136904095Y-106772187D01*
X136956098Y-106719757D01*
X136968320Y-106711543D01*
X136986237Y-106703649D01*
X137010596Y-106698500D01*
X137046073Y-106695527D01*
X137097344Y-106694161D01*
X137169083Y-106693831D01*
X137201816Y-106693944D01*
X137277956Y-106695872D01*
X137334834Y-106701240D01*
X137376751Y-106711406D01*
X137408004Y-106727725D01*
X137432894Y-106751553D01*
X137455718Y-106784247D01*
X137468816Y-106810759D01*
X137483261Y-106873615D01*
X137481293Y-106939869D01*
X137462567Y-106998757D01*
X137450327Y-107024030D01*
X137449062Y-107036742D01*
X137460202Y-107039624D01*
X137460539Y-107039626D01*
X137471913Y-107045838D01*
X137477744Y-107067260D01*
X137479386Y-107108782D01*
X137479386Y-107177940D01*
X135918864Y-107177940D01*
X135922664Y-107111926D01*
G37*
D11*
X135922664Y-107111926D02*
X135926465Y-107045911D01*
X136127653Y-107042772D01*
X136176575Y-107041844D01*
X136250074Y-107039208D01*
X136304009Y-107034683D01*
X136342005Y-107027438D01*
X136367687Y-107016642D01*
X136384680Y-107001462D01*
X136396611Y-106981066D01*
X136408795Y-106942797D01*
X136404060Y-106904738D01*
X136378021Y-106864549D01*
X136345467Y-106825861D01*
X135920178Y-106825861D01*
X135920178Y-106687544D01*
X136150824Y-106687544D01*
X136223118Y-106687677D01*
X136287359Y-106688413D01*
X136334382Y-106690181D01*
X136368452Y-106693411D01*
X136393830Y-106698530D01*
X136414779Y-106705967D01*
X136435564Y-106716150D01*
X136439976Y-106718564D01*
X136482953Y-106750675D01*
X136512987Y-106788256D01*
X136528757Y-106833564D01*
X136535778Y-106893561D01*
X136531975Y-106953643D01*
X136517132Y-107002525D01*
X136497948Y-107039624D01*
X136913141Y-107039624D01*
X136886646Y-106988792D01*
X136877020Y-106967558D01*
X136869949Y-106932742D01*
X137001564Y-106932742D01*
X137004529Y-106967559D01*
X137019369Y-107002020D01*
X137049431Y-107024215D01*
X137097746Y-107036097D01*
X137167350Y-107039624D01*
X137204376Y-107038712D01*
X137274272Y-107029609D01*
X137321536Y-107010828D01*
X137345832Y-106982476D01*
X137352668Y-106953840D01*
X137349463Y-106903970D01*
X137329620Y-106861833D01*
X137320520Y-106851749D01*
X137304777Y-106841063D01*
X137281342Y-106834456D01*
X137244396Y-106830532D01*
X137188120Y-106827897D01*
X137150764Y-106826749D01*
X137106151Y-106826861D01*
X137076399Y-106830272D01*
X137055165Y-106837937D01*
X137036104Y-106850814D01*
X137018383Y-106867171D01*
X137004972Y-106893329D01*
X137001564Y-106932742D01*
X136869949Y-106932742D01*
X136863408Y-106900536D01*
X136872816Y-106833930D01*
X136904095Y-106772187D01*
X136956098Y-106719757D01*
X136968320Y-106711543D01*
X136986237Y-106703649D01*
X137010596Y-106698500D01*
X137046073Y-106695527D01*
X137097344Y-106694161D01*
X137169083Y-106693831D01*
X137201816Y-106693944D01*
X137277956Y-106695872D01*
X137334834Y-106701240D01*
X137376751Y-106711406D01*
X137408004Y-106727725D01*
X137432894Y-106751553D01*
X137455718Y-106784247D01*
X137468816Y-106810759D01*
X137483261Y-106873615D01*
X137481293Y-106939869D01*
X137462567Y-106998757D01*
X137450327Y-107024030D01*
X137449062Y-107036742D01*
X137460202Y-107039624D01*
X137460539Y-107039626D01*
X137471913Y-107045838D01*
X137477744Y-107067260D01*
X137479386Y-107108782D01*
X137479386Y-107177940D01*
X135918864Y-107177940D01*
X135922664Y-107111926D01*
G36*
X136087777Y-106609299D02*
G01*
X136086118Y-106609157D01*
X136021521Y-106593835D01*
X135972937Y-106559753D01*
X135937928Y-106505218D01*
X135929411Y-106477036D01*
X135922772Y-106428764D01*
X135921241Y-106377773D01*
X136046083Y-106377773D01*
X136051621Y-106423652D01*
X136065495Y-106458410D01*
X136083839Y-106475726D01*
X136116434Y-106486356D01*
X136142271Y-106476929D01*
X136164737Y-106445764D01*
X136179150Y-106395667D01*
X136184237Y-106329582D01*
X136184237Y-106260020D01*
X136135889Y-106260020D01*
X136099096Y-106264668D01*
X136066731Y-106283015D01*
X136059726Y-106293514D01*
X136048809Y-106330988D01*
X136046083Y-106377773D01*
X135921241Y-106377773D01*
X135921187Y-106375978D01*
X135924840Y-106328353D01*
X135933917Y-106295566D01*
X135941187Y-106275652D01*
X135933917Y-106256155D01*
X135929705Y-106249023D01*
X135922874Y-106220557D01*
X135920178Y-106182059D01*
X135920178Y-106121703D01*
X136163516Y-106121703D01*
X136184560Y-106121707D01*
X136263878Y-106121937D01*
X136322846Y-106122797D01*
X136365384Y-106124679D01*
X136395408Y-106127974D01*
X136416837Y-106133073D01*
X136433589Y-106140366D01*
X136449581Y-106150246D01*
X136487052Y-106182023D01*
X136515661Y-106227055D01*
X136531445Y-106286210D01*
X136536297Y-106364161D01*
X136536292Y-106366695D01*
X136533845Y-106420880D01*
X136527744Y-106469380D01*
X136519191Y-106502478D01*
X136514904Y-106511552D01*
X136496752Y-106540433D01*
X136475178Y-106566568D01*
X136455764Y-106583764D01*
X136444091Y-106585825D01*
X136440937Y-106581803D01*
X136407261Y-106537976D01*
X136387400Y-106508671D01*
X136379387Y-106489294D01*
X136381254Y-106475253D01*
X136391035Y-106461957D01*
X136403244Y-106437418D01*
X136411385Y-106396064D01*
X136413497Y-106349326D01*
X136409200Y-106307034D01*
X136398113Y-106279017D01*
X136396764Y-106277543D01*
X136371419Y-106264953D01*
X136333589Y-106260020D01*
X136284831Y-106260020D01*
X136284784Y-106376331D01*
X136283939Y-106429760D01*
X136280260Y-106474735D01*
X136272691Y-106506907D01*
X136260192Y-106532899D01*
X136256353Y-106538948D01*
X136214155Y-106582710D01*
X136158353Y-106605987D01*
X136116434Y-106607955D01*
X136087777Y-106609299D01*
G37*
X136087777Y-106609299D02*
X136086118Y-106609157D01*
X136021521Y-106593835D01*
X135972937Y-106559753D01*
X135937928Y-106505218D01*
X135929411Y-106477036D01*
X135922772Y-106428764D01*
X135921241Y-106377773D01*
X136046083Y-106377773D01*
X136051621Y-106423652D01*
X136065495Y-106458410D01*
X136083839Y-106475726D01*
X136116434Y-106486356D01*
X136142271Y-106476929D01*
X136164737Y-106445764D01*
X136179150Y-106395667D01*
X136184237Y-106329582D01*
X136184237Y-106260020D01*
X136135889Y-106260020D01*
X136099096Y-106264668D01*
X136066731Y-106283015D01*
X136059726Y-106293514D01*
X136048809Y-106330988D01*
X136046083Y-106377773D01*
X135921241Y-106377773D01*
X135921187Y-106375978D01*
X135924840Y-106328353D01*
X135933917Y-106295566D01*
X135941187Y-106275652D01*
X135933917Y-106256155D01*
X135929705Y-106249023D01*
X135922874Y-106220557D01*
X135920178Y-106182059D01*
X135920178Y-106121703D01*
X136163516Y-106121703D01*
X136184560Y-106121707D01*
X136263878Y-106121937D01*
X136322846Y-106122797D01*
X136365384Y-106124679D01*
X136395408Y-106127974D01*
X136416837Y-106133073D01*
X136433589Y-106140366D01*
X136449581Y-106150246D01*
X136487052Y-106182023D01*
X136515661Y-106227055D01*
X136531445Y-106286210D01*
X136536297Y-106364161D01*
X136536292Y-106366695D01*
X136533845Y-106420880D01*
X136527744Y-106469380D01*
X136519191Y-106502478D01*
X136514904Y-106511552D01*
X136496752Y-106540433D01*
X136475178Y-106566568D01*
X136455764Y-106583764D01*
X136444091Y-106585825D01*
X136440937Y-106581803D01*
X136407261Y-106537976D01*
X136387400Y-106508671D01*
X136379387Y-106489294D01*
X136381254Y-106475253D01*
X136391035Y-106461957D01*
X136403244Y-106437418D01*
X136411385Y-106396064D01*
X136413497Y-106349326D01*
X136409200Y-106307034D01*
X136398113Y-106279017D01*
X136396764Y-106277543D01*
X136371419Y-106264953D01*
X136333589Y-106260020D01*
X136284831Y-106260020D01*
X136284784Y-106376331D01*
X136283939Y-106429760D01*
X136280260Y-106474735D01*
X136272691Y-106506907D01*
X136260192Y-106532899D01*
X136256353Y-106538948D01*
X136214155Y-106582710D01*
X136158353Y-106605987D01*
X136116434Y-106607955D01*
X136087777Y-106609299D01*
G36*
X136501912Y-105594543D02*
G01*
X136518116Y-105617602D01*
X136529487Y-105653995D01*
X136535260Y-105698544D01*
X136534666Y-105746072D01*
X136526937Y-105791400D01*
X136511306Y-105829351D01*
X136504007Y-105841381D01*
X136493324Y-105861632D01*
X136495770Y-105869129D01*
X136511353Y-105870218D01*
X136516947Y-105870473D01*
X136529340Y-105876539D01*
X136534980Y-105895356D01*
X136536317Y-105933089D01*
X136536317Y-105995960D01*
X135920178Y-105995960D01*
X135920178Y-105870218D01*
X136114260Y-105870218D01*
X136159406Y-105870078D01*
X136234177Y-105868649D01*
X136289533Y-105865029D01*
X136329298Y-105858434D01*
X136357300Y-105848079D01*
X136377365Y-105833178D01*
X136393319Y-105812946D01*
X136405208Y-105790859D01*
X136408579Y-105764705D01*
X136401083Y-105727508D01*
X136397962Y-105715555D01*
X136393265Y-105685718D01*
X136399995Y-105664383D01*
X136420823Y-105639655D01*
X136425353Y-105634963D01*
X136453374Y-105609020D01*
X136476157Y-105592291D01*
X136481645Y-105589996D01*
X136501912Y-105594543D01*
G37*
X136501912Y-105594543D02*
X136518116Y-105617602D01*
X136529487Y-105653995D01*
X136535260Y-105698544D01*
X136534666Y-105746072D01*
X136526937Y-105791400D01*
X136511306Y-105829351D01*
X136504007Y-105841381D01*
X136493324Y-105861632D01*
X136495770Y-105869129D01*
X136511353Y-105870218D01*
X136516947Y-105870473D01*
X136529340Y-105876539D01*
X136534980Y-105895356D01*
X136536317Y-105933089D01*
X136536317Y-105995960D01*
X135920178Y-105995960D01*
X135920178Y-105870218D01*
X136114260Y-105870218D01*
X136159406Y-105870078D01*
X136234177Y-105868649D01*
X136289533Y-105865029D01*
X136329298Y-105858434D01*
X136357300Y-105848079D01*
X136377365Y-105833178D01*
X136393319Y-105812946D01*
X136405208Y-105790859D01*
X136408579Y-105764705D01*
X136401083Y-105727508D01*
X136397962Y-105715555D01*
X136393265Y-105685718D01*
X136399995Y-105664383D01*
X136420823Y-105639655D01*
X136425353Y-105634963D01*
X136453374Y-105609020D01*
X136476157Y-105592291D01*
X136481645Y-105589996D01*
X136501912Y-105594543D01*
G36*
X136181187Y-105592761D02*
G01*
X136127429Y-105591167D01*
X136089982Y-105587962D01*
X136086550Y-105587413D01*
X136025165Y-105565838D01*
X135973123Y-105526438D01*
X135937865Y-105474752D01*
X135923271Y-105419248D01*
X135924353Y-105353974D01*
X136051418Y-105353974D01*
X136063740Y-105397989D01*
X136098112Y-105435060D01*
X136123265Y-105444859D01*
X136167806Y-105452097D01*
X136221845Y-105455279D01*
X136277272Y-105454277D01*
X136325978Y-105448961D01*
X136359852Y-105439204D01*
X136365407Y-105436087D01*
X136393326Y-105406038D01*
X136405694Y-105365315D01*
X136402817Y-105321579D01*
X136385000Y-105282491D01*
X136352548Y-105255710D01*
X136349819Y-105254603D01*
X136319366Y-105247963D01*
X136273861Y-105243278D01*
X136222070Y-105241505D01*
X136169770Y-105242496D01*
X136134950Y-105246519D01*
X136111095Y-105255108D01*
X136091105Y-105269797D01*
X136061382Y-105308584D01*
X136051418Y-105353974D01*
X135924353Y-105353974D01*
X135924403Y-105350977D01*
X135943971Y-105288173D01*
X135952229Y-105271815D01*
X135961077Y-105250779D01*
X135958324Y-105242774D01*
X135943971Y-105241505D01*
X135936814Y-105240922D01*
X135926228Y-105233394D01*
X135921355Y-105212488D01*
X135920178Y-105172346D01*
X135920178Y-105103188D01*
X136775227Y-105103188D01*
X136775227Y-105241505D01*
X136482122Y-105241505D01*
X136505307Y-105267124D01*
X136519718Y-105291792D01*
X136531764Y-105338480D01*
X136535646Y-105393056D01*
X136530880Y-105446354D01*
X136516986Y-105489207D01*
X136497221Y-105519878D01*
X136463551Y-105551471D01*
X136418270Y-105572733D01*
X136357019Y-105585514D01*
X136275437Y-105591664D01*
X136242460Y-105592568D01*
X136221845Y-105592633D01*
X136181187Y-105592761D01*
G37*
X136181187Y-105592761D02*
X136127429Y-105591167D01*
X136089982Y-105587962D01*
X136086550Y-105587413D01*
X136025165Y-105565838D01*
X135973123Y-105526438D01*
X135937865Y-105474752D01*
X135923271Y-105419248D01*
X135924353Y-105353974D01*
X136051418Y-105353974D01*
X136063740Y-105397989D01*
X136098112Y-105435060D01*
X136123265Y-105444859D01*
X136167806Y-105452097D01*
X136221845Y-105455279D01*
X136277272Y-105454277D01*
X136325978Y-105448961D01*
X136359852Y-105439204D01*
X136365407Y-105436087D01*
X136393326Y-105406038D01*
X136405694Y-105365315D01*
X136402817Y-105321579D01*
X136385000Y-105282491D01*
X136352548Y-105255710D01*
X136349819Y-105254603D01*
X136319366Y-105247963D01*
X136273861Y-105243278D01*
X136222070Y-105241505D01*
X136169770Y-105242496D01*
X136134950Y-105246519D01*
X136111095Y-105255108D01*
X136091105Y-105269797D01*
X136061382Y-105308584D01*
X136051418Y-105353974D01*
X135924353Y-105353974D01*
X135924403Y-105350977D01*
X135943971Y-105288173D01*
X135952229Y-105271815D01*
X135961077Y-105250779D01*
X135958324Y-105242774D01*
X135943971Y-105241505D01*
X135936814Y-105240922D01*
X135926228Y-105233394D01*
X135921355Y-105212488D01*
X135920178Y-105172346D01*
X135920178Y-105103188D01*
X136775227Y-105103188D01*
X136775227Y-105241505D01*
X136482122Y-105241505D01*
X136505307Y-105267124D01*
X136519718Y-105291792D01*
X136531764Y-105338480D01*
X136535646Y-105393056D01*
X136530880Y-105446354D01*
X136516986Y-105489207D01*
X136497221Y-105519878D01*
X136463551Y-105551471D01*
X136418270Y-105572733D01*
X136357019Y-105585514D01*
X136275437Y-105591664D01*
X136242460Y-105592568D01*
X136221845Y-105592633D01*
X136181187Y-105592761D01*
G36*
X136536317Y-104330612D02*
G01*
X136407430Y-104365274D01*
X136373375Y-104374488D01*
X136309885Y-104391915D01*
X136252126Y-104408054D01*
X136209386Y-104420322D01*
X136140227Y-104440709D01*
X136530029Y-104570745D01*
X136533763Y-104620476D01*
X136537496Y-104670206D01*
X136338870Y-104734997D01*
X136288150Y-104751997D01*
X136232003Y-104772107D01*
X136189468Y-104788899D01*
X136164010Y-104800986D01*
X136159097Y-104806980D01*
X136163370Y-104808426D01*
X136189578Y-104816254D01*
X136233351Y-104828723D01*
X136289789Y-104844447D01*
X136353990Y-104862043D01*
X136530029Y-104909914D01*
X136533848Y-104983007D01*
X136534154Y-104989177D01*
X136534559Y-105028592D01*
X136530513Y-105047533D01*
X136521274Y-105049945D01*
X136512251Y-105046898D01*
X136481368Y-105036874D01*
X136432456Y-105021180D01*
X136369013Y-105000934D01*
X136294538Y-104977256D01*
X136212529Y-104951263D01*
X135920178Y-104858736D01*
X135920178Y-104742993D01*
X136105648Y-104688457D01*
X136139706Y-104678386D01*
X136201622Y-104659775D01*
X136253213Y-104643872D01*
X136289870Y-104632109D01*
X136306982Y-104625918D01*
X136308259Y-104624154D01*
X136297221Y-104615571D01*
X136268031Y-104603316D01*
X136225250Y-104589426D01*
X136222737Y-104588692D01*
X136159600Y-104570096D01*
X136088111Y-104548818D01*
X136023266Y-104529321D01*
X135918878Y-104497705D01*
X135922672Y-104439402D01*
X135926465Y-104381098D01*
X136096218Y-104327098D01*
X136170807Y-104303390D01*
X136254461Y-104276833D01*
X136334658Y-104251404D01*
X136401143Y-104230354D01*
X136536317Y-104187609D01*
X136536317Y-104330612D01*
G37*
X136536317Y-104330612D02*
X136407430Y-104365274D01*
X136373375Y-104374488D01*
X136309885Y-104391915D01*
X136252126Y-104408054D01*
X136209386Y-104420322D01*
X136140227Y-104440709D01*
X136530029Y-104570745D01*
X136533763Y-104620476D01*
X136537496Y-104670206D01*
X136338870Y-104734997D01*
X136288150Y-104751997D01*
X136232003Y-104772107D01*
X136189468Y-104788899D01*
X136164010Y-104800986D01*
X136159097Y-104806980D01*
X136163370Y-104808426D01*
X136189578Y-104816254D01*
X136233351Y-104828723D01*
X136289789Y-104844447D01*
X136353990Y-104862043D01*
X136530029Y-104909914D01*
X136533848Y-104983007D01*
X136534154Y-104989177D01*
X136534559Y-105028592D01*
X136530513Y-105047533D01*
X136521274Y-105049945D01*
X136512251Y-105046898D01*
X136481368Y-105036874D01*
X136432456Y-105021180D01*
X136369013Y-105000934D01*
X136294538Y-104977256D01*
X136212529Y-104951263D01*
X135920178Y-104858736D01*
X135920178Y-104742993D01*
X136105648Y-104688457D01*
X136139706Y-104678386D01*
X136201622Y-104659775D01*
X136253213Y-104643872D01*
X136289870Y-104632109D01*
X136306982Y-104625918D01*
X136308259Y-104624154D01*
X136297221Y-104615571D01*
X136268031Y-104603316D01*
X136225250Y-104589426D01*
X136222737Y-104588692D01*
X136159600Y-104570096D01*
X136088111Y-104548818D01*
X136023266Y-104529321D01*
X135918878Y-104497705D01*
X135922672Y-104439402D01*
X135926465Y-104381098D01*
X136096218Y-104327098D01*
X136170807Y-104303390D01*
X136254461Y-104276833D01*
X136334658Y-104251404D01*
X136401143Y-104230354D01*
X136536317Y-104187609D01*
X136536317Y-104330612D01*
G36*
X136085667Y-104191413D02*
G01*
X136028581Y-104176244D01*
X135979745Y-104143277D01*
X135944614Y-104093270D01*
X135942479Y-104088362D01*
X135927097Y-104033646D01*
X135921101Y-103971993D01*
X135922900Y-103943213D01*
X136046772Y-103943213D01*
X136048181Y-103971090D01*
X136058796Y-104023255D01*
X136078575Y-104055587D01*
X136106176Y-104066492D01*
X136140257Y-104054374D01*
X136149176Y-104047304D01*
X136169182Y-104015724D01*
X136180605Y-103965744D01*
X136184237Y-103894487D01*
X136184237Y-103833188D01*
X136140227Y-103833188D01*
X136107334Y-103837924D01*
X136071069Y-103858336D01*
X136064403Y-103865871D01*
X136050380Y-103896753D01*
X136046772Y-103943213D01*
X135922900Y-103943213D01*
X135924767Y-103913376D01*
X135938371Y-103867767D01*
X135947246Y-103849549D01*
X135949363Y-103836179D01*
X135938294Y-103833188D01*
X135928058Y-103827524D01*
X135921962Y-103805607D01*
X135920178Y-103763068D01*
X135920178Y-103692948D01*
X136162232Y-103697053D01*
X136218206Y-103698169D01*
X136302004Y-103701106D01*
X136366080Y-103706058D01*
X136413927Y-103714002D01*
X136449038Y-103725917D01*
X136474907Y-103742780D01*
X136495026Y-103765572D01*
X136512890Y-103795269D01*
X136519710Y-103810589D01*
X136532583Y-103863589D01*
X136537905Y-103927513D01*
X136535773Y-103993602D01*
X136526286Y-104053099D01*
X136509539Y-104097247D01*
X136499815Y-104112604D01*
X136470995Y-104147960D01*
X136446863Y-104159926D01*
X136442200Y-104157020D01*
X136425912Y-104138909D01*
X136404183Y-104109672D01*
X136394013Y-104094725D01*
X136379603Y-104069270D01*
X136378227Y-104052728D01*
X136388173Y-104037370D01*
X136408316Y-103999094D01*
X136416600Y-103947590D01*
X136410258Y-103894957D01*
X136409970Y-103893961D01*
X136393842Y-103856838D01*
X136368595Y-103838463D01*
X136326842Y-103833380D01*
X136287121Y-103833188D01*
X136282832Y-103964423D01*
X136282127Y-103985331D01*
X136279674Y-104038043D01*
X136275820Y-104073381D01*
X136269122Y-104097267D01*
X136258136Y-104115624D01*
X136241420Y-104134376D01*
X136202756Y-104165337D01*
X136145544Y-104188029D01*
X136106176Y-104190254D01*
X136085667Y-104191413D01*
G37*
X136085667Y-104191413D02*
X136028581Y-104176244D01*
X135979745Y-104143277D01*
X135944614Y-104093270D01*
X135942479Y-104088362D01*
X135927097Y-104033646D01*
X135921101Y-103971993D01*
X135922900Y-103943213D01*
X136046772Y-103943213D01*
X136048181Y-103971090D01*
X136058796Y-104023255D01*
X136078575Y-104055587D01*
X136106176Y-104066492D01*
X136140257Y-104054374D01*
X136149176Y-104047304D01*
X136169182Y-104015724D01*
X136180605Y-103965744D01*
X136184237Y-103894487D01*
X136184237Y-103833188D01*
X136140227Y-103833188D01*
X136107334Y-103837924D01*
X136071069Y-103858336D01*
X136064403Y-103865871D01*
X136050380Y-103896753D01*
X136046772Y-103943213D01*
X135922900Y-103943213D01*
X135924767Y-103913376D01*
X135938371Y-103867767D01*
X135947246Y-103849549D01*
X135949363Y-103836179D01*
X135938294Y-103833188D01*
X135928058Y-103827524D01*
X135921962Y-103805607D01*
X135920178Y-103763068D01*
X135920178Y-103692948D01*
X136162232Y-103697053D01*
X136218206Y-103698169D01*
X136302004Y-103701106D01*
X136366080Y-103706058D01*
X136413927Y-103714002D01*
X136449038Y-103725917D01*
X136474907Y-103742780D01*
X136495026Y-103765572D01*
X136512890Y-103795269D01*
X136519710Y-103810589D01*
X136532583Y-103863589D01*
X136537905Y-103927513D01*
X136535773Y-103993602D01*
X136526286Y-104053099D01*
X136509539Y-104097247D01*
X136499815Y-104112604D01*
X136470995Y-104147960D01*
X136446863Y-104159926D01*
X136442200Y-104157020D01*
X136425912Y-104138909D01*
X136404183Y-104109672D01*
X136394013Y-104094725D01*
X136379603Y-104069270D01*
X136378227Y-104052728D01*
X136388173Y-104037370D01*
X136408316Y-103999094D01*
X136416600Y-103947590D01*
X136410258Y-103894957D01*
X136409970Y-103893961D01*
X136393842Y-103856838D01*
X136368595Y-103838463D01*
X136326842Y-103833380D01*
X136287121Y-103833188D01*
X136282832Y-103964423D01*
X136282127Y-103985331D01*
X136279674Y-104038043D01*
X136275820Y-104073381D01*
X136269122Y-104097267D01*
X136258136Y-104115624D01*
X136241420Y-104134376D01*
X136202756Y-104165337D01*
X136145544Y-104188029D01*
X136106176Y-104190254D01*
X136085667Y-104191413D01*
G36*
X136512875Y-103190886D02*
G01*
X136526985Y-103218405D01*
X136536514Y-103266745D01*
X136536826Y-103321230D01*
X136528035Y-103372265D01*
X136510255Y-103410255D01*
X136484194Y-103443386D01*
X136510255Y-103443386D01*
X136520151Y-103444211D01*
X136530642Y-103451893D01*
X136535275Y-103472667D01*
X136536317Y-103512544D01*
X136536317Y-103581703D01*
X135920178Y-103581703D01*
X135920178Y-103443386D01*
X136120774Y-103443386D01*
X136132290Y-103443369D01*
X136213242Y-103442189D01*
X136279183Y-103439294D01*
X136326742Y-103434888D01*
X136352548Y-103429181D01*
X136362290Y-103423940D01*
X136392844Y-103391676D01*
X136406369Y-103347730D01*
X136400059Y-103299743D01*
X136395783Y-103287973D01*
X136388224Y-103262898D01*
X136390572Y-103245762D01*
X136405936Y-103228518D01*
X136437429Y-103203124D01*
X136489432Y-103161936D01*
X136512875Y-103190886D01*
G37*
X136512875Y-103190886D02*
X136526985Y-103218405D01*
X136536514Y-103266745D01*
X136536826Y-103321230D01*
X136528035Y-103372265D01*
X136510255Y-103410255D01*
X136484194Y-103443386D01*
X136510255Y-103443386D01*
X136520151Y-103444211D01*
X136530642Y-103451893D01*
X136535275Y-103472667D01*
X136536317Y-103512544D01*
X136536317Y-103581703D01*
X135920178Y-103581703D01*
X135920178Y-103443386D01*
X136120774Y-103443386D01*
X136132290Y-103443369D01*
X136213242Y-103442189D01*
X136279183Y-103439294D01*
X136326742Y-103434888D01*
X136352548Y-103429181D01*
X136362290Y-103423940D01*
X136392844Y-103391676D01*
X136406369Y-103347730D01*
X136400059Y-103299743D01*
X136395783Y-103287973D01*
X136388224Y-103262898D01*
X136390572Y-103245762D01*
X136405936Y-103228518D01*
X136437429Y-103203124D01*
X136489432Y-103161936D01*
X136512875Y-103190886D01*
G36*
X136228247Y-103166353D02*
G01*
X136181308Y-103164718D01*
X136091541Y-103149827D01*
X136020955Y-103119185D01*
X135969048Y-103072524D01*
X135935314Y-103009574D01*
X135929353Y-102989235D01*
X135921029Y-102916612D01*
X135928054Y-102839928D01*
X135949735Y-102770663D01*
X135962041Y-102746262D01*
X135983121Y-102711275D01*
X136000466Y-102690072D01*
X136004429Y-102686942D01*
X136018923Y-102681085D01*
X136034679Y-102689524D01*
X136058540Y-102715221D01*
X136068928Y-102727622D01*
X136087937Y-102752052D01*
X136095707Y-102764861D01*
X136094906Y-102768530D01*
X136086255Y-102789561D01*
X136071069Y-102820960D01*
X136066074Y-102831197D01*
X136047525Y-102891590D01*
X136052306Y-102944057D01*
X136080500Y-102990065D01*
X136085709Y-102995419D01*
X136118341Y-103021013D01*
X136149658Y-103035637D01*
X136184237Y-103043736D01*
X136184237Y-102921554D01*
X136284831Y-102921554D01*
X136285232Y-102952429D01*
X136287571Y-102998002D01*
X136291535Y-103029348D01*
X136296587Y-103041010D01*
X136338173Y-103031064D01*
X136376987Y-103001947D01*
X136403914Y-102959952D01*
X136413228Y-102911440D01*
X136402728Y-102875723D01*
X136377060Y-102840020D01*
X136343619Y-102812879D01*
X136309782Y-102802099D01*
X136298797Y-102803670D01*
X136291227Y-102811738D01*
X136287025Y-102830967D01*
X136285217Y-102866019D01*
X136284831Y-102921554D01*
X136184237Y-102921554D01*
X136184237Y-102663782D01*
X136250252Y-102663852D01*
X136256818Y-102663892D01*
X136338035Y-102671758D01*
X136404105Y-102694655D01*
X136461060Y-102734607D01*
X136485152Y-102758979D01*
X136517403Y-102809315D01*
X136533030Y-102869419D01*
X136534129Y-102945338D01*
X136529821Y-102982010D01*
X136507451Y-103049703D01*
X136466737Y-103101530D01*
X136407051Y-103137945D01*
X136327764Y-103159401D01*
X136296587Y-103161579D01*
X136228247Y-103166353D01*
G37*
X136228247Y-103166353D02*
X136181308Y-103164718D01*
X136091541Y-103149827D01*
X136020955Y-103119185D01*
X135969048Y-103072524D01*
X135935314Y-103009574D01*
X135929353Y-102989235D01*
X135921029Y-102916612D01*
X135928054Y-102839928D01*
X135949735Y-102770663D01*
X135962041Y-102746262D01*
X135983121Y-102711275D01*
X136000466Y-102690072D01*
X136004429Y-102686942D01*
X136018923Y-102681085D01*
X136034679Y-102689524D01*
X136058540Y-102715221D01*
X136068928Y-102727622D01*
X136087937Y-102752052D01*
X136095707Y-102764861D01*
X136094906Y-102768530D01*
X136086255Y-102789561D01*
X136071069Y-102820960D01*
X136066074Y-102831197D01*
X136047525Y-102891590D01*
X136052306Y-102944057D01*
X136080500Y-102990065D01*
X136085709Y-102995419D01*
X136118341Y-103021013D01*
X136149658Y-103035637D01*
X136184237Y-103043736D01*
X136184237Y-102921554D01*
X136284831Y-102921554D01*
X136285232Y-102952429D01*
X136287571Y-102998002D01*
X136291535Y-103029348D01*
X136296587Y-103041010D01*
X136338173Y-103031064D01*
X136376987Y-103001947D01*
X136403914Y-102959952D01*
X136413228Y-102911440D01*
X136402728Y-102875723D01*
X136377060Y-102840020D01*
X136343619Y-102812879D01*
X136309782Y-102802099D01*
X136298797Y-102803670D01*
X136291227Y-102811738D01*
X136287025Y-102830967D01*
X136285217Y-102866019D01*
X136284831Y-102921554D01*
X136184237Y-102921554D01*
X136184237Y-102663782D01*
X136250252Y-102663852D01*
X136256818Y-102663892D01*
X136338035Y-102671758D01*
X136404105Y-102694655D01*
X136461060Y-102734607D01*
X136485152Y-102758979D01*
X136517403Y-102809315D01*
X136533030Y-102869419D01*
X136534129Y-102945338D01*
X136529821Y-102982010D01*
X136507451Y-103049703D01*
X136466737Y-103101530D01*
X136407051Y-103137945D01*
X136327764Y-103159401D01*
X136296587Y-103161579D01*
X136228247Y-103166353D01*
G36*
X137103690Y-107765373D02*
G01*
X137055668Y-107761688D01*
X137021632Y-107755410D01*
X136994662Y-107745044D01*
X136967842Y-107729092D01*
X136966825Y-107728412D01*
X136923371Y-107689132D01*
X136890228Y-107641072D01*
X136870561Y-107585185D01*
X136864176Y-107511666D01*
X136865423Y-107504505D01*
X137001347Y-107504505D01*
X137004878Y-107553802D01*
X137031306Y-107600917D01*
X137043928Y-107614207D01*
X137065535Y-107628397D01*
X137095906Y-107636266D01*
X137143230Y-107640726D01*
X137178781Y-107641955D01*
X137251380Y-107635224D01*
X137303358Y-107614567D01*
X137335001Y-107579894D01*
X137350153Y-107539249D01*
X137348877Y-107490777D01*
X137323297Y-107445845D01*
X137313558Y-107435103D01*
X137296520Y-107421548D01*
X137274228Y-107413505D01*
X137240053Y-107409043D01*
X137187362Y-107406228D01*
X137150477Y-107404920D01*
X137110426Y-107405174D01*
X137083687Y-107409421D01*
X137063141Y-107419096D01*
X137041669Y-107435638D01*
X137020361Y-107458593D01*
X137001347Y-107504505D01*
X136865423Y-107504505D01*
X136876732Y-107439609D01*
X136906989Y-107375201D01*
X136953706Y-107324627D01*
X136975779Y-107310108D01*
X137044398Y-107282993D01*
X137129061Y-107269546D01*
X137225649Y-107270583D01*
X137239349Y-107271907D01*
X137327092Y-107290374D01*
X137395207Y-107324540D01*
X137443769Y-107374479D01*
X137472852Y-107440261D01*
X137482529Y-107521961D01*
X137481621Y-107552828D01*
X137470507Y-107616128D01*
X137443979Y-107667889D01*
X137398564Y-107716147D01*
X137389449Y-107723865D01*
X137358752Y-107744681D01*
X137323993Y-107758362D01*
X137279944Y-107765948D01*
X137221379Y-107768479D01*
X137178781Y-107767672D01*
X137143069Y-107766997D01*
X137103690Y-107765373D01*
G37*
X137103690Y-107765373D02*
X137055668Y-107761688D01*
X137021632Y-107755410D01*
X136994662Y-107745044D01*
X136967842Y-107729092D01*
X136966825Y-107728412D01*
X136923371Y-107689132D01*
X136890228Y-107641072D01*
X136870561Y-107585185D01*
X136864176Y-107511666D01*
X136865423Y-107504505D01*
X137001347Y-107504505D01*
X137004878Y-107553802D01*
X137031306Y-107600917D01*
X137043928Y-107614207D01*
X137065535Y-107628397D01*
X137095906Y-107636266D01*
X137143230Y-107640726D01*
X137178781Y-107641955D01*
X137251380Y-107635224D01*
X137303358Y-107614567D01*
X137335001Y-107579894D01*
X137350153Y-107539249D01*
X137348877Y-107490777D01*
X137323297Y-107445845D01*
X137313558Y-107435103D01*
X137296520Y-107421548D01*
X137274228Y-107413505D01*
X137240053Y-107409043D01*
X137187362Y-107406228D01*
X137150477Y-107404920D01*
X137110426Y-107405174D01*
X137083687Y-107409421D01*
X137063141Y-107419096D01*
X137041669Y-107435638D01*
X137020361Y-107458593D01*
X137001347Y-107504505D01*
X136865423Y-107504505D01*
X136876732Y-107439609D01*
X136906989Y-107375201D01*
X136953706Y-107324627D01*
X136975779Y-107310108D01*
X137044398Y-107282993D01*
X137129061Y-107269546D01*
X137225649Y-107270583D01*
X137239349Y-107271907D01*
X137327092Y-107290374D01*
X137395207Y-107324540D01*
X137443769Y-107374479D01*
X137472852Y-107440261D01*
X137482529Y-107521961D01*
X137481621Y-107552828D01*
X137470507Y-107616128D01*
X137443979Y-107667889D01*
X137398564Y-107716147D01*
X137389449Y-107723865D01*
X137358752Y-107744681D01*
X137323993Y-107758362D01*
X137279944Y-107765948D01*
X137221379Y-107768479D01*
X137178781Y-107767672D01*
X137143069Y-107766997D01*
X137103690Y-107765373D01*
G36*
X137253139Y-106609022D02*
G01*
X137165064Y-106613421D01*
X137126629Y-106612322D01*
X137042633Y-106599926D01*
X136976405Y-106572608D01*
X136925216Y-106528941D01*
X136886337Y-106467495D01*
X136868188Y-106407888D01*
X136864716Y-106333110D01*
X136878070Y-106257664D01*
X136907575Y-106190366D01*
X136923988Y-106165428D01*
X136945027Y-106137951D01*
X136958871Y-106125414D01*
X136964583Y-106126124D01*
X136984045Y-106140158D01*
X137007624Y-106166533D01*
X137042487Y-106212240D01*
X137015738Y-106265799D01*
X137009118Y-106280282D01*
X136994727Y-106322916D01*
X136988990Y-106358649D01*
X136993718Y-106384998D01*
X137016486Y-106426347D01*
X137051830Y-106461104D01*
X137092727Y-106480983D01*
X137127307Y-106489083D01*
X137127307Y-106367748D01*
X137240475Y-106367748D01*
X137240483Y-106386575D01*
X137240935Y-106435470D01*
X137242887Y-106464863D01*
X137247442Y-106479115D01*
X137255701Y-106482582D01*
X137268767Y-106479625D01*
X137270248Y-106479173D01*
X137315715Y-106453699D01*
X137347019Y-106413539D01*
X137358673Y-106365651D01*
X137357741Y-106347949D01*
X137346592Y-106315094D01*
X137318237Y-106283575D01*
X137308211Y-106275085D01*
X137279577Y-106255336D01*
X137259138Y-106247445D01*
X137256566Y-106247690D01*
X137248557Y-106254604D01*
X137243636Y-106274141D01*
X137241157Y-106310467D01*
X137240475Y-106367748D01*
X137127307Y-106367748D01*
X137127307Y-106109129D01*
X137193321Y-106109199D01*
X137214243Y-106109774D01*
X137264909Y-106114512D01*
X137306834Y-106122459D01*
X137330304Y-106131168D01*
X137381354Y-106161790D01*
X137427717Y-106202799D01*
X137459486Y-106246168D01*
X137465386Y-106258699D01*
X137484954Y-106331661D01*
X137482891Y-106406168D01*
X137460069Y-106476217D01*
X137417361Y-106535807D01*
X137377975Y-106568038D01*
X137322490Y-106594392D01*
X137255701Y-106608482D01*
X137253139Y-106609022D01*
G37*
X137253139Y-106609022D02*
X137165064Y-106613421D01*
X137126629Y-106612322D01*
X137042633Y-106599926D01*
X136976405Y-106572608D01*
X136925216Y-106528941D01*
X136886337Y-106467495D01*
X136868188Y-106407888D01*
X136864716Y-106333110D01*
X136878070Y-106257664D01*
X136907575Y-106190366D01*
X136923988Y-106165428D01*
X136945027Y-106137951D01*
X136958871Y-106125414D01*
X136964583Y-106126124D01*
X136984045Y-106140158D01*
X137007624Y-106166533D01*
X137042487Y-106212240D01*
X137015738Y-106265799D01*
X137009118Y-106280282D01*
X136994727Y-106322916D01*
X136988990Y-106358649D01*
X136993718Y-106384998D01*
X137016486Y-106426347D01*
X137051830Y-106461104D01*
X137092727Y-106480983D01*
X137127307Y-106489083D01*
X137127307Y-106367748D01*
X137240475Y-106367748D01*
X137240483Y-106386575D01*
X137240935Y-106435470D01*
X137242887Y-106464863D01*
X137247442Y-106479115D01*
X137255701Y-106482582D01*
X137268767Y-106479625D01*
X137270248Y-106479173D01*
X137315715Y-106453699D01*
X137347019Y-106413539D01*
X137358673Y-106365651D01*
X137357741Y-106347949D01*
X137346592Y-106315094D01*
X137318237Y-106283575D01*
X137308211Y-106275085D01*
X137279577Y-106255336D01*
X137259138Y-106247445D01*
X137256566Y-106247690D01*
X137248557Y-106254604D01*
X137243636Y-106274141D01*
X137241157Y-106310467D01*
X137240475Y-106367748D01*
X137127307Y-106367748D01*
X137127307Y-106109129D01*
X137193321Y-106109199D01*
X137214243Y-106109774D01*
X137264909Y-106114512D01*
X137306834Y-106122459D01*
X137330304Y-106131168D01*
X137381354Y-106161790D01*
X137427717Y-106202799D01*
X137459486Y-106246168D01*
X137465386Y-106258699D01*
X137484954Y-106331661D01*
X137482891Y-106406168D01*
X137460069Y-106476217D01*
X137417361Y-106535807D01*
X137377975Y-106568038D01*
X137322490Y-106594392D01*
X137255701Y-106608482D01*
X137253139Y-106609022D01*
G36*
X137119646Y-104702921D02*
G01*
X137168248Y-104723970D01*
X137203054Y-104761864D01*
X137226202Y-104819004D01*
X137239830Y-104897785D01*
X137240817Y-104906834D01*
X137247108Y-104955885D01*
X137253691Y-104995675D01*
X137259292Y-105018312D01*
X137263803Y-105025866D01*
X137287059Y-105038637D01*
X137316829Y-105036563D01*
X137342673Y-105019495D01*
X137348309Y-105010533D01*
X137357340Y-104973188D01*
X137356733Y-104924950D01*
X137347122Y-104874650D01*
X137329142Y-104831115D01*
X137302153Y-104785372D01*
X137343616Y-104749890D01*
X137354150Y-104741280D01*
X137382368Y-104721883D01*
X137401492Y-104713897D01*
X137413219Y-104722283D01*
X137431524Y-104748226D01*
X137451223Y-104785688D01*
X137453630Y-104790966D01*
X137472518Y-104840366D01*
X137481548Y-104887983D01*
X137483361Y-104947072D01*
X137479793Y-105000874D01*
X137461592Y-105073495D01*
X137427856Y-105126546D01*
X137378358Y-105160329D01*
X137312874Y-105175147D01*
X137250180Y-105172147D01*
X137197301Y-105150493D01*
X137158204Y-105108967D01*
X137132127Y-105046736D01*
X137118305Y-104962969D01*
X137111060Y-104908540D01*
X137095385Y-104858860D01*
X137072686Y-104833211D01*
X137043002Y-104831662D01*
X137024493Y-104841984D01*
X137002557Y-104873951D01*
X136992182Y-104919395D01*
X136993601Y-104972649D01*
X137007048Y-105028048D01*
X137032757Y-105079928D01*
X137066987Y-105131653D01*
X137020951Y-105177148D01*
X136974916Y-105222643D01*
X136944124Y-105184921D01*
X136933426Y-105170253D01*
X136909120Y-105128983D01*
X136888175Y-105084327D01*
X136876155Y-105048984D01*
X136867448Y-104997234D01*
X136867333Y-104933435D01*
X136876919Y-104855200D01*
X136901217Y-104784722D01*
X136939812Y-104734836D01*
X136992802Y-104705423D01*
X137060282Y-104696365D01*
X137119646Y-104702921D01*
G37*
X137119646Y-104702921D02*
X137168248Y-104723970D01*
X137203054Y-104761864D01*
X137226202Y-104819004D01*
X137239830Y-104897785D01*
X137240817Y-104906834D01*
X137247108Y-104955885D01*
X137253691Y-104995675D01*
X137259292Y-105018312D01*
X137263803Y-105025866D01*
X137287059Y-105038637D01*
X137316829Y-105036563D01*
X137342673Y-105019495D01*
X137348309Y-105010533D01*
X137357340Y-104973188D01*
X137356733Y-104924950D01*
X137347122Y-104874650D01*
X137329142Y-104831115D01*
X137302153Y-104785372D01*
X137343616Y-104749890D01*
X137354150Y-104741280D01*
X137382368Y-104721883D01*
X137401492Y-104713897D01*
X137413219Y-104722283D01*
X137431524Y-104748226D01*
X137451223Y-104785688D01*
X137453630Y-104790966D01*
X137472518Y-104840366D01*
X137481548Y-104887983D01*
X137483361Y-104947072D01*
X137479793Y-105000874D01*
X137461592Y-105073495D01*
X137427856Y-105126546D01*
X137378358Y-105160329D01*
X137312874Y-105175147D01*
X137250180Y-105172147D01*
X137197301Y-105150493D01*
X137158204Y-105108967D01*
X137132127Y-105046736D01*
X137118305Y-104962969D01*
X137111060Y-104908540D01*
X137095385Y-104858860D01*
X137072686Y-104833211D01*
X137043002Y-104831662D01*
X137024493Y-104841984D01*
X137002557Y-104873951D01*
X136992182Y-104919395D01*
X136993601Y-104972649D01*
X137007048Y-105028048D01*
X137032757Y-105079928D01*
X137066987Y-105131653D01*
X137020951Y-105177148D01*
X136974916Y-105222643D01*
X136944124Y-105184921D01*
X136933426Y-105170253D01*
X136909120Y-105128983D01*
X136888175Y-105084327D01*
X136876155Y-105048984D01*
X136867448Y-104997234D01*
X136867333Y-104933435D01*
X136876919Y-104855200D01*
X136901217Y-104784722D01*
X136939812Y-104734836D01*
X136992802Y-104705423D01*
X137060282Y-104696365D01*
X137119646Y-104702921D01*
G36*
X137134229Y-104634857D02*
G01*
X137094435Y-104631349D01*
X137018462Y-104615844D01*
X136960489Y-104588110D01*
X136916700Y-104545898D01*
X136883278Y-104486960D01*
X136875324Y-104464076D01*
X136866023Y-104408536D01*
X137002896Y-104408536D01*
X137009980Y-104446448D01*
X137020139Y-104461244D01*
X137055666Y-104482014D01*
X137111268Y-104495083D01*
X137184234Y-104499624D01*
X137205238Y-104499551D01*
X137247797Y-104497974D01*
X137275561Y-104492728D01*
X137296075Y-104481723D01*
X137316888Y-104462868D01*
X137342113Y-104426989D01*
X137352427Y-104380280D01*
X137342604Y-104335151D01*
X137314195Y-104297680D01*
X137268747Y-104273943D01*
X137229503Y-104265675D01*
X137164295Y-104261976D01*
X137103455Y-104269549D01*
X137053462Y-104287341D01*
X137020796Y-104314296D01*
X137015188Y-104324513D01*
X137004993Y-104363473D01*
X137002896Y-104408536D01*
X136866023Y-104408536D01*
X136865399Y-104404812D01*
X136865669Y-104342447D01*
X136876570Y-104289823D01*
X136876966Y-104288789D01*
X136901913Y-104246381D01*
X136940532Y-104203537D01*
X136984694Y-104167986D01*
X137026273Y-104147459D01*
X137056666Y-104141374D01*
X137113571Y-104136164D01*
X137178379Y-104135049D01*
X137242884Y-104137844D01*
X137298879Y-104144366D01*
X137338158Y-104154432D01*
X137382628Y-104177877D01*
X137437308Y-104227637D01*
X137471945Y-104291238D01*
X137485655Y-104366790D01*
X137477552Y-104452399D01*
X137474101Y-104466644D01*
X137444336Y-104532982D01*
X137395470Y-104582971D01*
X137327499Y-104616612D01*
X137240420Y-104633906D01*
X137184234Y-104634410D01*
X137134229Y-104634857D01*
G37*
X137134229Y-104634857D02*
X137094435Y-104631349D01*
X137018462Y-104615844D01*
X136960489Y-104588110D01*
X136916700Y-104545898D01*
X136883278Y-104486960D01*
X136875324Y-104464076D01*
X136866023Y-104408536D01*
X137002896Y-104408536D01*
X137009980Y-104446448D01*
X137020139Y-104461244D01*
X137055666Y-104482014D01*
X137111268Y-104495083D01*
X137184234Y-104499624D01*
X137205238Y-104499551D01*
X137247797Y-104497974D01*
X137275561Y-104492728D01*
X137296075Y-104481723D01*
X137316888Y-104462868D01*
X137342113Y-104426989D01*
X137352427Y-104380280D01*
X137342604Y-104335151D01*
X137314195Y-104297680D01*
X137268747Y-104273943D01*
X137229503Y-104265675D01*
X137164295Y-104261976D01*
X137103455Y-104269549D01*
X137053462Y-104287341D01*
X137020796Y-104314296D01*
X137015188Y-104324513D01*
X137004993Y-104363473D01*
X137002896Y-104408536D01*
X136866023Y-104408536D01*
X136865399Y-104404812D01*
X136865669Y-104342447D01*
X136876570Y-104289823D01*
X136876966Y-104288789D01*
X136901913Y-104246381D01*
X136940532Y-104203537D01*
X136984694Y-104167986D01*
X137026273Y-104147459D01*
X137056666Y-104141374D01*
X137113571Y-104136164D01*
X137178379Y-104135049D01*
X137242884Y-104137844D01*
X137298879Y-104144366D01*
X137338158Y-104154432D01*
X137382628Y-104177877D01*
X137437308Y-104227637D01*
X137471945Y-104291238D01*
X137485655Y-104366790D01*
X137477552Y-104452399D01*
X137474101Y-104466644D01*
X137444336Y-104532982D01*
X137395470Y-104582971D01*
X137327499Y-104616612D01*
X137240420Y-104633906D01*
X137184234Y-104634410D01*
X137134229Y-104634857D01*
G36*
X137479386Y-103682297D02*
G01*
X137283658Y-103682297D01*
X137195606Y-103683357D01*
X137124490Y-103687509D01*
X137072801Y-103695921D01*
X137037640Y-103709757D01*
X137016111Y-103730182D01*
X137005318Y-103758364D01*
X137002364Y-103795465D01*
X137005000Y-103830890D01*
X137015321Y-103859500D01*
X137036228Y-103880296D01*
X137070619Y-103894442D01*
X137121390Y-103903103D01*
X137191437Y-103907445D01*
X137283658Y-103908633D01*
X137479386Y-103908633D01*
X137479386Y-104034376D01*
X137243422Y-104034376D01*
X137180439Y-104034160D01*
X137098993Y-104032484D01*
X137036879Y-104028277D01*
X136990542Y-104020521D01*
X136956427Y-104008196D01*
X136930978Y-103990285D01*
X136910638Y-103965767D01*
X136891853Y-103933623D01*
X136868072Y-103866125D01*
X136866520Y-103795681D01*
X136888420Y-103729264D01*
X136902617Y-103700286D01*
X136904739Y-103685909D01*
X136894707Y-103682297D01*
X136883444Y-103676299D01*
X136877511Y-103654830D01*
X136875821Y-103613138D01*
X136875821Y-103543980D01*
X137479386Y-103543980D01*
X137479386Y-103682297D01*
G37*
X137479386Y-103682297D02*
X137283658Y-103682297D01*
X137195606Y-103683357D01*
X137124490Y-103687509D01*
X137072801Y-103695921D01*
X137037640Y-103709757D01*
X137016111Y-103730182D01*
X137005318Y-103758364D01*
X137002364Y-103795465D01*
X137005000Y-103830890D01*
X137015321Y-103859500D01*
X137036228Y-103880296D01*
X137070619Y-103894442D01*
X137121390Y-103903103D01*
X137191437Y-103907445D01*
X137283658Y-103908633D01*
X137479386Y-103908633D01*
X137479386Y-104034376D01*
X137243422Y-104034376D01*
X137180439Y-104034160D01*
X137098993Y-104032484D01*
X137036879Y-104028277D01*
X136990542Y-104020521D01*
X136956427Y-104008196D01*
X136930978Y-103990285D01*
X136910638Y-103965767D01*
X136891853Y-103933623D01*
X136868072Y-103866125D01*
X136866520Y-103795681D01*
X136888420Y-103729264D01*
X136902617Y-103700286D01*
X136904739Y-103685909D01*
X136894707Y-103682297D01*
X136883444Y-103676299D01*
X136877511Y-103654830D01*
X136875821Y-103613138D01*
X136875821Y-103543980D01*
X137479386Y-103543980D01*
X137479386Y-103682297D01*
G36*
X137009490Y-102577351D02*
G01*
X137034591Y-102603296D01*
X137048566Y-102626764D01*
X137045489Y-102648524D01*
X137026713Y-102676356D01*
X137019362Y-102687454D01*
X137004317Y-102734337D01*
X137004327Y-102788224D01*
X137019832Y-102838675D01*
X137032284Y-102857672D01*
X137069054Y-102885537D01*
X137123061Y-102899506D01*
X137196669Y-102900405D01*
X137196711Y-102900403D01*
X137262567Y-102890009D01*
X137308228Y-102867114D01*
X137336472Y-102829439D01*
X137350080Y-102774708D01*
X137351910Y-102740241D01*
X137344416Y-102710126D01*
X137322705Y-102679240D01*
X137289074Y-102639272D01*
X137329750Y-102588656D01*
X137345333Y-102570163D01*
X137367660Y-102547065D01*
X137380817Y-102538039D01*
X137386747Y-102541236D01*
X137404952Y-102559646D01*
X137428105Y-102588973D01*
X137443170Y-102611920D01*
X137474120Y-102684774D01*
X137484927Y-102760799D01*
X137476507Y-102835409D01*
X137449776Y-102904021D01*
X137405649Y-102962048D01*
X137345042Y-103004907D01*
X137338863Y-103007801D01*
X137278591Y-103026176D01*
X137206593Y-103035357D01*
X137131631Y-103035285D01*
X137062464Y-103025901D01*
X137007851Y-103007149D01*
X136969788Y-102983995D01*
X136915865Y-102933030D01*
X136881589Y-102869306D01*
X136867728Y-102814785D01*
X136866215Y-102731767D01*
X136887118Y-102652326D01*
X136929536Y-102581879D01*
X136967120Y-102536284D01*
X137009490Y-102577351D01*
G37*
X137009490Y-102577351D02*
X137034591Y-102603296D01*
X137048566Y-102626764D01*
X137045489Y-102648524D01*
X137026713Y-102676356D01*
X137019362Y-102687454D01*
X137004317Y-102734337D01*
X137004327Y-102788224D01*
X137019832Y-102838675D01*
X137032284Y-102857672D01*
X137069054Y-102885537D01*
X137123061Y-102899506D01*
X137196669Y-102900405D01*
X137196711Y-102900403D01*
X137262567Y-102890009D01*
X137308228Y-102867114D01*
X137336472Y-102829439D01*
X137350080Y-102774708D01*
X137351910Y-102740241D01*
X137344416Y-102710126D01*
X137322705Y-102679240D01*
X137289074Y-102639272D01*
X137329750Y-102588656D01*
X137345333Y-102570163D01*
X137367660Y-102547065D01*
X137380817Y-102538039D01*
X137386747Y-102541236D01*
X137404952Y-102559646D01*
X137428105Y-102588973D01*
X137443170Y-102611920D01*
X137474120Y-102684774D01*
X137484927Y-102760799D01*
X137476507Y-102835409D01*
X137449776Y-102904021D01*
X137405649Y-102962048D01*
X137345042Y-103004907D01*
X137338863Y-103007801D01*
X137278591Y-103026176D01*
X137206593Y-103035357D01*
X137131631Y-103035285D01*
X137062464Y-103025901D01*
X137007851Y-103007149D01*
X136969788Y-102983995D01*
X136915865Y-102933030D01*
X136881589Y-102869306D01*
X136867728Y-102814785D01*
X136866215Y-102731767D01*
X136887118Y-102652326D01*
X136929536Y-102581879D01*
X136967120Y-102536284D01*
X137009490Y-102577351D01*
G36*
X137218122Y-102521444D02*
G01*
X137121879Y-102519825D01*
X137119986Y-102519615D01*
X137031675Y-102501535D01*
X136963014Y-102468870D01*
X136912494Y-102420601D01*
X136878607Y-102355713D01*
X136874732Y-102343801D01*
X136863312Y-102269971D01*
X136869680Y-102193614D01*
X136892437Y-102122626D01*
X136930181Y-102064904D01*
X136970128Y-102021667D01*
X137006468Y-102067625D01*
X137042807Y-102113583D01*
X137015899Y-102168969D01*
X136994095Y-102233056D01*
X136993442Y-102289632D01*
X137013475Y-102335920D01*
X137053685Y-102369230D01*
X137077778Y-102381171D01*
X137098370Y-102387837D01*
X137112280Y-102383980D01*
X137120819Y-102366675D01*
X137125296Y-102332997D01*
X137127022Y-102280021D01*
X137127071Y-102266846D01*
X137240475Y-102266846D01*
X137240824Y-102296603D01*
X137243133Y-102343562D01*
X137247178Y-102375416D01*
X137252458Y-102387148D01*
X137271938Y-102384146D01*
X137309214Y-102362988D01*
X137339836Y-102327731D01*
X137358332Y-102285699D01*
X137359227Y-102244220D01*
X137344396Y-102212997D01*
X137310645Y-102177618D01*
X137268767Y-102155122D01*
X137264310Y-102153805D01*
X137252790Y-102152234D01*
X137245749Y-102158399D01*
X137242084Y-102176654D01*
X137240694Y-102211352D01*
X137240475Y-102266846D01*
X137127071Y-102266846D01*
X137127307Y-102204822D01*
X137127307Y-102022495D01*
X137214508Y-102022495D01*
X137260629Y-102024136D01*
X137306260Y-102028955D01*
X137337107Y-102035840D01*
X137348883Y-102040859D01*
X137401333Y-102077390D01*
X137445079Y-102130175D01*
X137473721Y-102191904D01*
X137481543Y-102224102D01*
X137485104Y-102300820D01*
X137466991Y-102369179D01*
X137429221Y-102427299D01*
X137373809Y-102473302D01*
X137302771Y-102505310D01*
X137252458Y-102514900D01*
X137218122Y-102521444D01*
G37*
X137218122Y-102521444D02*
X137121879Y-102519825D01*
X137119986Y-102519615D01*
X137031675Y-102501535D01*
X136963014Y-102468870D01*
X136912494Y-102420601D01*
X136878607Y-102355713D01*
X136874732Y-102343801D01*
X136863312Y-102269971D01*
X136869680Y-102193614D01*
X136892437Y-102122626D01*
X136930181Y-102064904D01*
X136970128Y-102021667D01*
X137006468Y-102067625D01*
X137042807Y-102113583D01*
X137015899Y-102168969D01*
X136994095Y-102233056D01*
X136993442Y-102289632D01*
X137013475Y-102335920D01*
X137053685Y-102369230D01*
X137077778Y-102381171D01*
X137098370Y-102387837D01*
X137112280Y-102383980D01*
X137120819Y-102366675D01*
X137125296Y-102332997D01*
X137127022Y-102280021D01*
X137127071Y-102266846D01*
X137240475Y-102266846D01*
X137240824Y-102296603D01*
X137243133Y-102343562D01*
X137247178Y-102375416D01*
X137252458Y-102387148D01*
X137271938Y-102384146D01*
X137309214Y-102362988D01*
X137339836Y-102327731D01*
X137358332Y-102285699D01*
X137359227Y-102244220D01*
X137344396Y-102212997D01*
X137310645Y-102177618D01*
X137268767Y-102155122D01*
X137264310Y-102153805D01*
X137252790Y-102152234D01*
X137245749Y-102158399D01*
X137242084Y-102176654D01*
X137240694Y-102211352D01*
X137240475Y-102266846D01*
X137127071Y-102266846D01*
X137127307Y-102204822D01*
X137127307Y-102022495D01*
X137214508Y-102022495D01*
X137260629Y-102024136D01*
X137306260Y-102028955D01*
X137337107Y-102035840D01*
X137348883Y-102040859D01*
X137401333Y-102077390D01*
X137445079Y-102130175D01*
X137473721Y-102191904D01*
X137481543Y-102224102D01*
X137485104Y-102300820D01*
X137466991Y-102369179D01*
X137429221Y-102427299D01*
X137373809Y-102473302D01*
X137302771Y-102505310D01*
X137252458Y-102514900D01*
X137218122Y-102521444D01*
G36*
X137099015Y-105530989D02*
G01*
X137108956Y-105531008D01*
X137203894Y-105532207D01*
X137277642Y-105535891D01*
X137333786Y-105543006D01*
X137375913Y-105554500D01*
X137407609Y-105571318D01*
X137432459Y-105594409D01*
X137454050Y-105624717D01*
X137468998Y-105656012D01*
X137482579Y-105719037D01*
X137480576Y-105784605D01*
X137462566Y-105841926D01*
X137450326Y-105867199D01*
X137449062Y-105879910D01*
X137460202Y-105882792D01*
X137460539Y-105882795D01*
X137471913Y-105889006D01*
X137477744Y-105910428D01*
X137479386Y-105951950D01*
X137479386Y-106021109D01*
X136875821Y-106021109D01*
X136875821Y-105882792D01*
X137083868Y-105882792D01*
X137154121Y-105882697D01*
X137211830Y-105882051D01*
X137252213Y-105880320D01*
X137279385Y-105876974D01*
X137297460Y-105871481D01*
X137310553Y-105863310D01*
X137322779Y-105851928D01*
X137335783Y-105836424D01*
X137353255Y-105791843D01*
X137348127Y-105745047D01*
X137320493Y-105702180D01*
X137307632Y-105689927D01*
X137294616Y-105681132D01*
X137277294Y-105675233D01*
X137251499Y-105671651D01*
X137213061Y-105669809D01*
X137157811Y-105669128D01*
X137081582Y-105669030D01*
X136875821Y-105669030D01*
X136875821Y-105530713D01*
X137099015Y-105530989D01*
G37*
X137099015Y-105530989D02*
X137108956Y-105531008D01*
X137203894Y-105532207D01*
X137277642Y-105535891D01*
X137333786Y-105543006D01*
X137375913Y-105554500D01*
X137407609Y-105571318D01*
X137432459Y-105594409D01*
X137454050Y-105624717D01*
X137468998Y-105656012D01*
X137482579Y-105719037D01*
X137480576Y-105784605D01*
X137462566Y-105841926D01*
X137450326Y-105867199D01*
X137449062Y-105879910D01*
X137460202Y-105882792D01*
X137460539Y-105882795D01*
X137471913Y-105889006D01*
X137477744Y-105910428D01*
X137479386Y-105951950D01*
X137479386Y-106021109D01*
X136875821Y-106021109D01*
X136875821Y-105882792D01*
X137083868Y-105882792D01*
X137154121Y-105882697D01*
X137211830Y-105882051D01*
X137252213Y-105880320D01*
X137279385Y-105876974D01*
X137297460Y-105871481D01*
X137310553Y-105863310D01*
X137322779Y-105851928D01*
X137335783Y-105836424D01*
X137353255Y-105791843D01*
X137348127Y-105745047D01*
X137320493Y-105702180D01*
X137307632Y-105689927D01*
X137294616Y-105681132D01*
X137277294Y-105675233D01*
X137251499Y-105671651D01*
X137213061Y-105669809D01*
X137157811Y-105669128D01*
X137081582Y-105669030D01*
X136875821Y-105669030D01*
X136875821Y-105530713D01*
X137099015Y-105530989D01*
G36*
X137450059Y-103031442D02*
G01*
X137466755Y-103059289D01*
X137479970Y-103102540D01*
X137486522Y-103149464D01*
X137484055Y-103189128D01*
X137474432Y-103219954D01*
X137458437Y-103257916D01*
X137449841Y-103276296D01*
X137448287Y-103289561D01*
X137460202Y-103292495D01*
X137460539Y-103292498D01*
X137471913Y-103298709D01*
X137477744Y-103320131D01*
X137479386Y-103361653D01*
X137479386Y-103430812D01*
X136875821Y-103430812D01*
X136875821Y-103292495D01*
X137291973Y-103292495D01*
X137323839Y-103258110D01*
X137332896Y-103247368D01*
X137348370Y-103215370D01*
X137348990Y-103175965D01*
X137335336Y-103122312D01*
X137334471Y-103104225D01*
X137347717Y-103083008D01*
X137379200Y-103054768D01*
X137396615Y-103041069D01*
X137421203Y-103024868D01*
X137436855Y-103022371D01*
X137450059Y-103031442D01*
G37*
X137450059Y-103031442D02*
X137466755Y-103059289D01*
X137479970Y-103102540D01*
X137486522Y-103149464D01*
X137484055Y-103189128D01*
X137474432Y-103219954D01*
X137458437Y-103257916D01*
X137449841Y-103276296D01*
X137448287Y-103289561D01*
X137460202Y-103292495D01*
X137460539Y-103292498D01*
X137471913Y-103298709D01*
X137477744Y-103320131D01*
X137479386Y-103361653D01*
X137479386Y-103430812D01*
X136875821Y-103430812D01*
X136875821Y-103292495D01*
X137291973Y-103292495D01*
X137323839Y-103258110D01*
X137332896Y-103247368D01*
X137348370Y-103215370D01*
X137348990Y-103175965D01*
X137335336Y-103122312D01*
X137334471Y-103104225D01*
X137347717Y-103083008D01*
X137379200Y-103054768D01*
X137396615Y-103041069D01*
X137421203Y-103024868D01*
X137436855Y-103022371D01*
X137450059Y-103031442D01*
G36*
X139781963Y-102650168D02*
G01*
X139855388Y-102651426D01*
X139921120Y-102653728D01*
X139974800Y-102657076D01*
X140012070Y-102661474D01*
X140028573Y-102666926D01*
X140031011Y-102672491D01*
X140038695Y-102700178D01*
X140049564Y-102746979D01*
X140062808Y-102809157D01*
X140077616Y-102882979D01*
X140093177Y-102964710D01*
X140101491Y-103009336D01*
X140115908Y-103085824D01*
X140128533Y-103151660D01*
X140138679Y-103203323D01*
X140145659Y-103237293D01*
X140148788Y-103250048D01*
X140149432Y-103250528D01*
X140165819Y-103258651D01*
X140200148Y-103274137D01*
X140247864Y-103295050D01*
X140304414Y-103319455D01*
X140365242Y-103345416D01*
X140425794Y-103370997D01*
X140481515Y-103394262D01*
X140527850Y-103413277D01*
X140560245Y-103426105D01*
X140574145Y-103430812D01*
X140579035Y-103428736D01*
X140602308Y-103414920D01*
X140641481Y-103389860D01*
X140693480Y-103355568D01*
X140755232Y-103314059D01*
X140823664Y-103267346D01*
X140861140Y-103241718D01*
X140926844Y-103197490D01*
X140984508Y-103159570D01*
X141030986Y-103129980D01*
X141063135Y-103110743D01*
X141077810Y-103103881D01*
X141085770Y-103108649D01*
X141109554Y-103128593D01*
X141145549Y-103161313D01*
X141190705Y-103203805D01*
X141241972Y-103253065D01*
X141296299Y-103306091D01*
X141350636Y-103359877D01*
X141401933Y-103411421D01*
X141447141Y-103457720D01*
X141483208Y-103495769D01*
X141507086Y-103522565D01*
X141515722Y-103535105D01*
X141512364Y-103542066D01*
X141496790Y-103567627D01*
X141470285Y-103608874D01*
X141434790Y-103662837D01*
X141392250Y-103726542D01*
X141344605Y-103797016D01*
X141173488Y-104048662D01*
X141346430Y-104468188D01*
X141647982Y-104525036D01*
X141949534Y-104581885D01*
X141949534Y-105209540D01*
X141647982Y-105266389D01*
X141346430Y-105323237D01*
X141259959Y-105533001D01*
X141173488Y-105742764D01*
X141344605Y-105994410D01*
X141378339Y-106044216D01*
X141422619Y-106110244D01*
X141460439Y-106167410D01*
X141489858Y-106212744D01*
X141508933Y-106243280D01*
X141515722Y-106256046D01*
X141510894Y-106263887D01*
X141490661Y-106287325D01*
X141457457Y-106322794D01*
X141414330Y-106367289D01*
X141364330Y-106417805D01*
X141310505Y-106471336D01*
X141255905Y-106524877D01*
X141203577Y-106575423D01*
X141156572Y-106619968D01*
X141117937Y-106655507D01*
X141090722Y-106679034D01*
X141077976Y-106687544D01*
X141072500Y-106685565D01*
X141048073Y-106671857D01*
X141007871Y-106646825D01*
X140955048Y-106612499D01*
X140892753Y-106570907D01*
X140824138Y-106524079D01*
X140786717Y-106498380D01*
X140721568Y-106454173D01*
X140664711Y-106416272D01*
X140619230Y-106386698D01*
X140588207Y-106367472D01*
X140574726Y-106360614D01*
X140573979Y-106360726D01*
X140556890Y-106366776D01*
X140521994Y-106380654D01*
X140473849Y-106400427D01*
X140417014Y-106424160D01*
X140356047Y-106449918D01*
X140295508Y-106475766D01*
X140239953Y-106499771D01*
X140193943Y-106519998D01*
X140162035Y-106534511D01*
X140148788Y-106541377D01*
X140147613Y-106545439D01*
X140142313Y-106570121D01*
X140133533Y-106614111D01*
X140121960Y-106673887D01*
X140108279Y-106745929D01*
X140093177Y-106826716D01*
X140085170Y-106869294D01*
X140069893Y-106947445D01*
X140055785Y-107015775D01*
X140043655Y-107070551D01*
X140034314Y-107108037D01*
X140028573Y-107124500D01*
X140022881Y-107127457D01*
X139995070Y-107132362D01*
X139948750Y-107136216D01*
X139888280Y-107139021D01*
X139818017Y-107140781D01*
X139742320Y-107141499D01*
X139665547Y-107141177D01*
X139592056Y-107139819D01*
X139526206Y-107137428D01*
X139472355Y-107134006D01*
X139434862Y-107129556D01*
X139418084Y-107124082D01*
X139416191Y-107120760D01*
X139408074Y-107095987D01*
X139397334Y-107053011D01*
X139385147Y-106996802D01*
X139372690Y-106932325D01*
X139368723Y-106910570D01*
X139350271Y-106810093D01*
X139335441Y-106731126D01*
X139323620Y-106670934D01*
X139314191Y-106626778D01*
X139306540Y-106595920D01*
X139300052Y-106575625D01*
X139294112Y-106563154D01*
X139288106Y-106555771D01*
X139287098Y-106554913D01*
X139266081Y-106542838D01*
X139227624Y-106524971D01*
X139176239Y-106503042D01*
X139116437Y-106478784D01*
X139052730Y-106453927D01*
X138989629Y-106430205D01*
X138931645Y-106409347D01*
X138883291Y-106393087D01*
X138849078Y-106383156D01*
X138833517Y-106381285D01*
X138831498Y-106382536D01*
X138811972Y-106395486D01*
X138775958Y-106419840D01*
X138726772Y-106453340D01*
X138667733Y-106493727D01*
X138602158Y-106538745D01*
X138584116Y-106551100D01*
X138519401Y-106594545D01*
X138461524Y-106632091D01*
X138413918Y-106661594D01*
X138380015Y-106680914D01*
X138363248Y-106687905D01*
X138358839Y-106686398D01*
X138337118Y-106670695D01*
X138301646Y-106639714D01*
X138254812Y-106595673D01*
X138199004Y-106540790D01*
X138136608Y-106477286D01*
X138101683Y-106440988D01*
X138047289Y-106383595D01*
X138000698Y-106333361D01*
X137964364Y-106292984D01*
X137940739Y-106265161D01*
X137932276Y-106252590D01*
X137935413Y-106243952D01*
X137950253Y-106217360D01*
X137974523Y-106178741D01*
X138005148Y-106133134D01*
X138027497Y-106100707D01*
X138071878Y-106035970D01*
X138119013Y-105966886D01*
X138161845Y-105903787D01*
X138245453Y-105780178D01*
X138189350Y-105676417D01*
X138176401Y-105651984D01*
X138154251Y-105607552D01*
X138138959Y-105573191D01*
X138133257Y-105554828D01*
X138140579Y-105548818D01*
X138168459Y-105533895D01*
X138214425Y-105511852D01*
X138275559Y-105483917D01*
X138348945Y-105451317D01*
X138431665Y-105415276D01*
X138520803Y-105377023D01*
X138613441Y-105337783D01*
X138706663Y-105298783D01*
X138797550Y-105261249D01*
X138883186Y-105226409D01*
X138960655Y-105195488D01*
X139027038Y-105169714D01*
X139079418Y-105150311D01*
X139114879Y-105138508D01*
X139130504Y-105135531D01*
X139130961Y-105135732D01*
X139145405Y-105149601D01*
X139168026Y-105178611D01*
X139194136Y-105216772D01*
X139202108Y-105228817D01*
X139277744Y-105320469D01*
X139367831Y-105396323D01*
X139468619Y-105454581D01*
X139576360Y-105493448D01*
X139687303Y-105511128D01*
X139797697Y-105505826D01*
X139895885Y-105484347D01*
X139995034Y-105445782D01*
X140083488Y-105389562D01*
X140167513Y-105312410D01*
X140194355Y-105282095D01*
X140260490Y-105184094D01*
X140305030Y-105078227D01*
X140328375Y-104967561D01*
X140330922Y-104855164D01*
X140313071Y-104744105D01*
X140275220Y-104637451D01*
X140217768Y-104538270D01*
X140141113Y-104449631D01*
X140045655Y-104374600D01*
X140022015Y-104360175D01*
X139913966Y-104311143D01*
X139801452Y-104285103D01*
X139687386Y-104281372D01*
X139574682Y-104299268D01*
X139466255Y-104338109D01*
X139365018Y-104397214D01*
X139273886Y-104475900D01*
X139195772Y-104573485D01*
X139193667Y-104576654D01*
X139167060Y-104614411D01*
X139144439Y-104642709D01*
X139130504Y-104655634D01*
X139119579Y-104654003D01*
X139087769Y-104643864D01*
X139038466Y-104625884D01*
X138974587Y-104601292D01*
X138899052Y-104571311D01*
X138814777Y-104537170D01*
X138724680Y-104500092D01*
X138631679Y-104461306D01*
X138538692Y-104422036D01*
X138448636Y-104383509D01*
X138364429Y-104346950D01*
X138288990Y-104313586D01*
X138225235Y-104284643D01*
X138176083Y-104261346D01*
X138144451Y-104244923D01*
X138133257Y-104236598D01*
X138134773Y-104229674D01*
X138145669Y-104202477D01*
X138164772Y-104162280D01*
X138189350Y-104115009D01*
X138245453Y-104011248D01*
X138161845Y-103887639D01*
X138137087Y-103851120D01*
X138090829Y-103783194D01*
X138044497Y-103715475D01*
X138005148Y-103658291D01*
X137983703Y-103626732D01*
X137957061Y-103585714D01*
X137938822Y-103555301D01*
X137932059Y-103540446D01*
X137934930Y-103534065D01*
X137952515Y-103510996D01*
X137983477Y-103475433D01*
X138024769Y-103430471D01*
X138073347Y-103379206D01*
X138126165Y-103324733D01*
X138180177Y-103270148D01*
X138232339Y-103218547D01*
X138279604Y-103173024D01*
X138318928Y-103136675D01*
X138347264Y-103112595D01*
X138361568Y-103103881D01*
X138364289Y-103104383D01*
X138386440Y-103114755D01*
X138424765Y-103136912D01*
X138475800Y-103168712D01*
X138536086Y-103208016D01*
X138602158Y-103252681D01*
X138620383Y-103265207D01*
X138684515Y-103309193D01*
X138741211Y-103347937D01*
X138787156Y-103379182D01*
X138819030Y-103400669D01*
X138833517Y-103410140D01*
X138834138Y-103410373D01*
X138851861Y-103407578D01*
X138887765Y-103396903D01*
X138937338Y-103380081D01*
X138996068Y-103358843D01*
X139059444Y-103334921D01*
X139122954Y-103310046D01*
X139182087Y-103285950D01*
X139232331Y-103264365D01*
X139269174Y-103247023D01*
X139288106Y-103235655D01*
X139289281Y-103234516D01*
X139295227Y-103226376D01*
X139301224Y-103212629D01*
X139307886Y-103190537D01*
X139315827Y-103157363D01*
X139325663Y-103110370D01*
X139338009Y-103046820D01*
X139353480Y-102963976D01*
X139372690Y-102859100D01*
X139376733Y-102837348D01*
X139389231Y-102775036D01*
X139401073Y-102722619D01*
X139411083Y-102685066D01*
X139418084Y-102667343D01*
X139423925Y-102664378D01*
X139451984Y-102659435D01*
X139498500Y-102655518D01*
X139559114Y-102652629D01*
X139629468Y-102650773D01*
X139705204Y-102649952D01*
X139781963Y-102650168D01*
G37*
X139781963Y-102650168D02*
X139855388Y-102651426D01*
X139921120Y-102653728D01*
X139974800Y-102657076D01*
X140012070Y-102661474D01*
X140028573Y-102666926D01*
X140031011Y-102672491D01*
X140038695Y-102700178D01*
X140049564Y-102746979D01*
X140062808Y-102809157D01*
X140077616Y-102882979D01*
X140093177Y-102964710D01*
X140101491Y-103009336D01*
X140115908Y-103085824D01*
X140128533Y-103151660D01*
X140138679Y-103203323D01*
X140145659Y-103237293D01*
X140148788Y-103250048D01*
X140149432Y-103250528D01*
X140165819Y-103258651D01*
X140200148Y-103274137D01*
X140247864Y-103295050D01*
X140304414Y-103319455D01*
X140365242Y-103345416D01*
X140425794Y-103370997D01*
X140481515Y-103394262D01*
X140527850Y-103413277D01*
X140560245Y-103426105D01*
X140574145Y-103430812D01*
X140579035Y-103428736D01*
X140602308Y-103414920D01*
X140641481Y-103389860D01*
X140693480Y-103355568D01*
X140755232Y-103314059D01*
X140823664Y-103267346D01*
X140861140Y-103241718D01*
X140926844Y-103197490D01*
X140984508Y-103159570D01*
X141030986Y-103129980D01*
X141063135Y-103110743D01*
X141077810Y-103103881D01*
X141085770Y-103108649D01*
X141109554Y-103128593D01*
X141145549Y-103161313D01*
X141190705Y-103203805D01*
X141241972Y-103253065D01*
X141296299Y-103306091D01*
X141350636Y-103359877D01*
X141401933Y-103411421D01*
X141447141Y-103457720D01*
X141483208Y-103495769D01*
X141507086Y-103522565D01*
X141515722Y-103535105D01*
X141512364Y-103542066D01*
X141496790Y-103567627D01*
X141470285Y-103608874D01*
X141434790Y-103662837D01*
X141392250Y-103726542D01*
X141344605Y-103797016D01*
X141173488Y-104048662D01*
X141346430Y-104468188D01*
X141647982Y-104525036D01*
X141949534Y-104581885D01*
X141949534Y-105209540D01*
X141647982Y-105266389D01*
X141346430Y-105323237D01*
X141259959Y-105533001D01*
X141173488Y-105742764D01*
X141344605Y-105994410D01*
X141378339Y-106044216D01*
X141422619Y-106110244D01*
X141460439Y-106167410D01*
X141489858Y-106212744D01*
X141508933Y-106243280D01*
X141515722Y-106256046D01*
X141510894Y-106263887D01*
X141490661Y-106287325D01*
X141457457Y-106322794D01*
X141414330Y-106367289D01*
X141364330Y-106417805D01*
X141310505Y-106471336D01*
X141255905Y-106524877D01*
X141203577Y-106575423D01*
X141156572Y-106619968D01*
X141117937Y-106655507D01*
X141090722Y-106679034D01*
X141077976Y-106687544D01*
X141072500Y-106685565D01*
X141048073Y-106671857D01*
X141007871Y-106646825D01*
X140955048Y-106612499D01*
X140892753Y-106570907D01*
X140824138Y-106524079D01*
X140786717Y-106498380D01*
X140721568Y-106454173D01*
X140664711Y-106416272D01*
X140619230Y-106386698D01*
X140588207Y-106367472D01*
X140574726Y-106360614D01*
X140573979Y-106360726D01*
X140556890Y-106366776D01*
X140521994Y-106380654D01*
X140473849Y-106400427D01*
X140417014Y-106424160D01*
X140356047Y-106449918D01*
X140295508Y-106475766D01*
X140239953Y-106499771D01*
X140193943Y-106519998D01*
X140162035Y-106534511D01*
X140148788Y-106541377D01*
X140147613Y-106545439D01*
X140142313Y-106570121D01*
X140133533Y-106614111D01*
X140121960Y-106673887D01*
X140108279Y-106745929D01*
X140093177Y-106826716D01*
X140085170Y-106869294D01*
X140069893Y-106947445D01*
X140055785Y-107015775D01*
X140043655Y-107070551D01*
X140034314Y-107108037D01*
X140028573Y-107124500D01*
X140022881Y-107127457D01*
X139995070Y-107132362D01*
X139948750Y-107136216D01*
X139888280Y-107139021D01*
X139818017Y-107140781D01*
X139742320Y-107141499D01*
X139665547Y-107141177D01*
X139592056Y-107139819D01*
X139526206Y-107137428D01*
X139472355Y-107134006D01*
X139434862Y-107129556D01*
X139418084Y-107124082D01*
X139416191Y-107120760D01*
X139408074Y-107095987D01*
X139397334Y-107053011D01*
X139385147Y-106996802D01*
X139372690Y-106932325D01*
X139368723Y-106910570D01*
X139350271Y-106810093D01*
X139335441Y-106731126D01*
X139323620Y-106670934D01*
X139314191Y-106626778D01*
X139306540Y-106595920D01*
X139300052Y-106575625D01*
X139294112Y-106563154D01*
X139288106Y-106555771D01*
X139287098Y-106554913D01*
X139266081Y-106542838D01*
X139227624Y-106524971D01*
X139176239Y-106503042D01*
X139116437Y-106478784D01*
X139052730Y-106453927D01*
X138989629Y-106430205D01*
X138931645Y-106409347D01*
X138883291Y-106393087D01*
X138849078Y-106383156D01*
X138833517Y-106381285D01*
X138831498Y-106382536D01*
X138811972Y-106395486D01*
X138775958Y-106419840D01*
X138726772Y-106453340D01*
X138667733Y-106493727D01*
X138602158Y-106538745D01*
X138584116Y-106551100D01*
X138519401Y-106594545D01*
X138461524Y-106632091D01*
X138413918Y-106661594D01*
X138380015Y-106680914D01*
X138363248Y-106687905D01*
X138358839Y-106686398D01*
X138337118Y-106670695D01*
X138301646Y-106639714D01*
X138254812Y-106595673D01*
X138199004Y-106540790D01*
X138136608Y-106477286D01*
X138101683Y-106440988D01*
X138047289Y-106383595D01*
X138000698Y-106333361D01*
X137964364Y-106292984D01*
X137940739Y-106265161D01*
X137932276Y-106252590D01*
X137935413Y-106243952D01*
X137950253Y-106217360D01*
X137974523Y-106178741D01*
X138005148Y-106133134D01*
X138027497Y-106100707D01*
X138071878Y-106035970D01*
X138119013Y-105966886D01*
X138161845Y-105903787D01*
X138245453Y-105780178D01*
X138189350Y-105676417D01*
X138176401Y-105651984D01*
X138154251Y-105607552D01*
X138138959Y-105573191D01*
X138133257Y-105554828D01*
X138140579Y-105548818D01*
X138168459Y-105533895D01*
X138214425Y-105511852D01*
X138275559Y-105483917D01*
X138348945Y-105451317D01*
X138431665Y-105415276D01*
X138520803Y-105377023D01*
X138613441Y-105337783D01*
X138706663Y-105298783D01*
X138797550Y-105261249D01*
X138883186Y-105226409D01*
X138960655Y-105195488D01*
X139027038Y-105169714D01*
X139079418Y-105150311D01*
X139114879Y-105138508D01*
X139130504Y-105135531D01*
X139130961Y-105135732D01*
X139145405Y-105149601D01*
X139168026Y-105178611D01*
X139194136Y-105216772D01*
X139202108Y-105228817D01*
X139277744Y-105320469D01*
X139367831Y-105396323D01*
X139468619Y-105454581D01*
X139576360Y-105493448D01*
X139687303Y-105511128D01*
X139797697Y-105505826D01*
X139895885Y-105484347D01*
X139995034Y-105445782D01*
X140083488Y-105389562D01*
X140167513Y-105312410D01*
X140194355Y-105282095D01*
X140260490Y-105184094D01*
X140305030Y-105078227D01*
X140328375Y-104967561D01*
X140330922Y-104855164D01*
X140313071Y-104744105D01*
X140275220Y-104637451D01*
X140217768Y-104538270D01*
X140141113Y-104449631D01*
X140045655Y-104374600D01*
X140022015Y-104360175D01*
X139913966Y-104311143D01*
X139801452Y-104285103D01*
X139687386Y-104281372D01*
X139574682Y-104299268D01*
X139466255Y-104338109D01*
X139365018Y-104397214D01*
X139273886Y-104475900D01*
X139195772Y-104573485D01*
X139193667Y-104576654D01*
X139167060Y-104614411D01*
X139144439Y-104642709D01*
X139130504Y-104655634D01*
X139119579Y-104654003D01*
X139087769Y-104643864D01*
X139038466Y-104625884D01*
X138974587Y-104601292D01*
X138899052Y-104571311D01*
X138814777Y-104537170D01*
X138724680Y-104500092D01*
X138631679Y-104461306D01*
X138538692Y-104422036D01*
X138448636Y-104383509D01*
X138364429Y-104346950D01*
X138288990Y-104313586D01*
X138225235Y-104284643D01*
X138176083Y-104261346D01*
X138144451Y-104244923D01*
X138133257Y-104236598D01*
X138134773Y-104229674D01*
X138145669Y-104202477D01*
X138164772Y-104162280D01*
X138189350Y-104115009D01*
X138245453Y-104011248D01*
X138161845Y-103887639D01*
X138137087Y-103851120D01*
X138090829Y-103783194D01*
X138044497Y-103715475D01*
X138005148Y-103658291D01*
X137983703Y-103626732D01*
X137957061Y-103585714D01*
X137938822Y-103555301D01*
X137932059Y-103540446D01*
X137934930Y-103534065D01*
X137952515Y-103510996D01*
X137983477Y-103475433D01*
X138024769Y-103430471D01*
X138073347Y-103379206D01*
X138126165Y-103324733D01*
X138180177Y-103270148D01*
X138232339Y-103218547D01*
X138279604Y-103173024D01*
X138318928Y-103136675D01*
X138347264Y-103112595D01*
X138361568Y-103103881D01*
X138364289Y-103104383D01*
X138386440Y-103114755D01*
X138424765Y-103136912D01*
X138475800Y-103168712D01*
X138536086Y-103208016D01*
X138602158Y-103252681D01*
X138620383Y-103265207D01*
X138684515Y-103309193D01*
X138741211Y-103347937D01*
X138787156Y-103379182D01*
X138819030Y-103400669D01*
X138833517Y-103410140D01*
X138834138Y-103410373D01*
X138851861Y-103407578D01*
X138887765Y-103396903D01*
X138937338Y-103380081D01*
X138996068Y-103358843D01*
X139059444Y-103334921D01*
X139122954Y-103310046D01*
X139182087Y-103285950D01*
X139232331Y-103264365D01*
X139269174Y-103247023D01*
X139288106Y-103235655D01*
X139289281Y-103234516D01*
X139295227Y-103226376D01*
X139301224Y-103212629D01*
X139307886Y-103190537D01*
X139315827Y-103157363D01*
X139325663Y-103110370D01*
X139338009Y-103046820D01*
X139353480Y-102963976D01*
X139372690Y-102859100D01*
X139376733Y-102837348D01*
X139389231Y-102775036D01*
X139401073Y-102722619D01*
X139411083Y-102685066D01*
X139418084Y-102667343D01*
X139423925Y-102664378D01*
X139451984Y-102659435D01*
X139498500Y-102655518D01*
X139559114Y-102652629D01*
X139629468Y-102650773D01*
X139705204Y-102649952D01*
X139781963Y-102650168D01*
G36*
X157991690Y-111669532D02*
G01*
X157899976Y-111667777D01*
X157821883Y-111665646D01*
X157756276Y-111663102D01*
X157702019Y-111660111D01*
X157657977Y-111656635D01*
X157623015Y-111652640D01*
X157595997Y-111648089D01*
X157575788Y-111642947D01*
X157561253Y-111637179D01*
X157551256Y-111630748D01*
X157544662Y-111623619D01*
X157540335Y-111615755D01*
X157537141Y-111607122D01*
X157533944Y-111597684D01*
X157529609Y-111587404D01*
X157527437Y-111581620D01*
X157525064Y-111571010D01*
X157522890Y-111555245D01*
X157520907Y-111533210D01*
X157519104Y-111503790D01*
X157517475Y-111465869D01*
X157516009Y-111418332D01*
X157514699Y-111360064D01*
X157513535Y-111289950D01*
X157512509Y-111206874D01*
X157511612Y-111109721D01*
X157510835Y-110997376D01*
X157510170Y-110868725D01*
X157509608Y-110722650D01*
X157509140Y-110558038D01*
X157508758Y-110373773D01*
X157508452Y-110168740D01*
X157508215Y-109941824D01*
X157508037Y-109691909D01*
X157507909Y-109417881D01*
X157507831Y-109141054D01*
X158138969Y-109141054D01*
X158224981Y-109136595D01*
X158229303Y-109136379D01*
X158263687Y-109135532D01*
X158296632Y-109137137D01*
X158329942Y-109142266D01*
X158365422Y-109151993D01*
X158404875Y-109167391D01*
X158450107Y-109189534D01*
X158502923Y-109219495D01*
X158565126Y-109258348D01*
X158638523Y-109307166D01*
X158724916Y-109367022D01*
X158826110Y-109438990D01*
X158943912Y-109524143D01*
X159080124Y-109623554D01*
X159236551Y-109738298D01*
X159787959Y-110143325D01*
X159148618Y-110146893D01*
X159088980Y-110147209D01*
X158928343Y-110147767D01*
X158791711Y-110147513D01*
X158676498Y-110146150D01*
X158580117Y-110143377D01*
X158499984Y-110138898D01*
X158433513Y-110132413D01*
X158378117Y-110123623D01*
X158331212Y-110112230D01*
X158290212Y-110097935D01*
X158252531Y-110080440D01*
X158215583Y-110059447D01*
X158176783Y-110034655D01*
X158139027Y-110009734D01*
X158139027Y-111304884D01*
X158183648Y-111271429D01*
X158190707Y-111266190D01*
X158255406Y-111224302D01*
X158320810Y-111195427D01*
X158395752Y-111176466D01*
X158489067Y-111164321D01*
X158493135Y-111163987D01*
X158531625Y-111162225D01*
X158595844Y-111160633D01*
X158684324Y-111159220D01*
X158795597Y-111157992D01*
X158928197Y-111156956D01*
X159080655Y-111156118D01*
X159251504Y-111155486D01*
X159439278Y-111155067D01*
X159642507Y-111154868D01*
X159859726Y-111154895D01*
X160089465Y-111155155D01*
X160330259Y-111155655D01*
X160546252Y-111156185D01*
X160781365Y-111156752D01*
X160991721Y-111157311D01*
X161178794Y-111157930D01*
X161344058Y-111158681D01*
X161488987Y-111159634D01*
X161615053Y-111160858D01*
X161723732Y-111162423D01*
X161816496Y-111164401D01*
X161894820Y-111166860D01*
X161960178Y-111169871D01*
X162014042Y-111173504D01*
X162057887Y-111177829D01*
X162093187Y-111182916D01*
X162121415Y-111188835D01*
X162144045Y-111195657D01*
X162162551Y-111203451D01*
X162178406Y-111212288D01*
X162193085Y-111222237D01*
X162208060Y-111233369D01*
X162224807Y-111245754D01*
X162241588Y-111257732D01*
X162274769Y-111280885D01*
X162295702Y-111294753D01*
X162296579Y-111295088D01*
X162300538Y-111290246D01*
X162303841Y-111273157D01*
X162306539Y-111241921D01*
X162308683Y-111194635D01*
X162310324Y-111129398D01*
X162311511Y-111044310D01*
X162312297Y-110937467D01*
X162312731Y-110806969D01*
X162312865Y-110650914D01*
X162312865Y-109996722D01*
X162271890Y-110031200D01*
X162243747Y-110051182D01*
X162177392Y-110084443D01*
X162094865Y-110113591D01*
X162003321Y-110135838D01*
X161994631Y-110137256D01*
X161948817Y-110141474D01*
X161878011Y-110144669D01*
X161781725Y-110146849D01*
X161659468Y-110148021D01*
X161510749Y-110148195D01*
X161335078Y-110147378D01*
X160748588Y-110143325D01*
X161278141Y-109724568D01*
X161293310Y-109712574D01*
X161427745Y-109606381D01*
X161542876Y-109515721D01*
X161640661Y-109439151D01*
X161723057Y-109375227D01*
X161792022Y-109322507D01*
X161849514Y-109279549D01*
X161897490Y-109244909D01*
X161937907Y-109217145D01*
X161972724Y-109194814D01*
X162003897Y-109176472D01*
X162033385Y-109160678D01*
X162063145Y-109145988D01*
X162115823Y-109123390D01*
X162171394Y-109108791D01*
X162231334Y-109104908D01*
X162312865Y-109105298D01*
X162312865Y-107715907D01*
X162269401Y-107776319D01*
X162228552Y-107827410D01*
X162161924Y-107899403D01*
X162078420Y-107981060D01*
X161981222Y-108069290D01*
X161873513Y-108161000D01*
X161844710Y-108184617D01*
X161795308Y-108224827D01*
X161730495Y-108277387D01*
X161652434Y-108340556D01*
X161563289Y-108412592D01*
X161465222Y-108491754D01*
X161360396Y-108576302D01*
X161250976Y-108664493D01*
X161200756Y-108704944D01*
X161139124Y-108754586D01*
X161027003Y-108844840D01*
X160916776Y-108933515D01*
X160810608Y-109018868D01*
X160710660Y-109099158D01*
X160619097Y-109172644D01*
X160538081Y-109237585D01*
X160469776Y-109292240D01*
X160416345Y-109334866D01*
X160379952Y-109363724D01*
X160362758Y-109377071D01*
X160356297Y-109378173D01*
X160344008Y-109374508D01*
X160324675Y-109365013D01*
X160296926Y-109348738D01*
X160259390Y-109324736D01*
X160210696Y-109292060D01*
X160149471Y-109249761D01*
X160074346Y-109196891D01*
X159983948Y-109132503D01*
X159876906Y-109055648D01*
X159751848Y-108965380D01*
X159607404Y-108860749D01*
X159442202Y-108740809D01*
X159310703Y-108645242D01*
X159150395Y-108528648D01*
X159009613Y-108426088D01*
X158886796Y-108336369D01*
X158780381Y-108258300D01*
X158688805Y-108190688D01*
X158610506Y-108132338D01*
X158543921Y-108082060D01*
X158487489Y-108038661D01*
X158439646Y-108000946D01*
X158398831Y-107967725D01*
X158363480Y-107937803D01*
X158332032Y-107909989D01*
X158302924Y-107883090D01*
X158274594Y-107855913D01*
X158245478Y-107827265D01*
X158139027Y-107721692D01*
X158138969Y-109141054D01*
X157507831Y-109141054D01*
X157507824Y-109118623D01*
X157507772Y-108793021D01*
X157507762Y-108689839D01*
X157507755Y-108371303D01*
X157507795Y-108078787D01*
X157507890Y-107811188D01*
X157508047Y-107567404D01*
X157508275Y-107346332D01*
X157508581Y-107146872D01*
X157508975Y-106967921D01*
X157509284Y-106866396D01*
X158139027Y-106866396D01*
X158139027Y-107472373D01*
X158231702Y-107421146D01*
X158324378Y-107369919D01*
X161015405Y-107369919D01*
X161108081Y-107421146D01*
X161200756Y-107472373D01*
X161200756Y-106389211D01*
X158351838Y-106381379D01*
X158269832Y-106342981D01*
X158229185Y-106322736D01*
X158188468Y-106299813D01*
X158163426Y-106282501D01*
X158163378Y-106282458D01*
X158157560Y-106278255D01*
X158152749Y-106278652D01*
X158148850Y-106285935D01*
X158145768Y-106302389D01*
X158143406Y-106330301D01*
X158141670Y-106371957D01*
X158140464Y-106429642D01*
X158139692Y-106505642D01*
X158139259Y-106602244D01*
X158139069Y-106721734D01*
X158139027Y-106866396D01*
X157509284Y-106866396D01*
X157509462Y-106808376D01*
X157510053Y-106667136D01*
X157510753Y-106543099D01*
X157511573Y-106435163D01*
X157512519Y-106342226D01*
X157513600Y-106263185D01*
X157514823Y-106196939D01*
X157516197Y-106142385D01*
X157517729Y-106098422D01*
X157519428Y-106063947D01*
X157521302Y-106037859D01*
X157523358Y-106019056D01*
X157525604Y-106006435D01*
X157528050Y-105998894D01*
X157529138Y-105996495D01*
X157532713Y-105986673D01*
X157535324Y-105977666D01*
X157538107Y-105969437D01*
X157542200Y-105961950D01*
X157548740Y-105955168D01*
X157558863Y-105949055D01*
X157573707Y-105943575D01*
X157594409Y-105938690D01*
X157622105Y-105934364D01*
X157657932Y-105930561D01*
X157703027Y-105927244D01*
X157758528Y-105924376D01*
X157825571Y-105921922D01*
X157905293Y-105919844D01*
X157998830Y-105918107D01*
X158107321Y-105916673D01*
X158231902Y-105915506D01*
X158373710Y-105914570D01*
X158533881Y-105913828D01*
X158713553Y-105913243D01*
X158913863Y-105912779D01*
X159135948Y-105912400D01*
X159380944Y-105912069D01*
X159649988Y-105911749D01*
X159944218Y-105911404D01*
X160264770Y-105910998D01*
X160303576Y-105910945D01*
X160622097Y-105910492D01*
X160914428Y-105910059D01*
X161181707Y-105909677D01*
X161425071Y-105909380D01*
X161645658Y-105909198D01*
X161844605Y-105909165D01*
X162023050Y-105909311D01*
X162182129Y-105909670D01*
X162322981Y-105910274D01*
X162446743Y-105911154D01*
X162554553Y-105912342D01*
X162647547Y-105913871D01*
X162726863Y-105915772D01*
X162793640Y-105918078D01*
X162849013Y-105920821D01*
X162894121Y-105924032D01*
X162930101Y-105927745D01*
X162958091Y-105931990D01*
X162979228Y-105936801D01*
X162994649Y-105942208D01*
X163005492Y-105948245D01*
X163012894Y-105954943D01*
X163017993Y-105962335D01*
X163021927Y-105970451D01*
X163025832Y-105979325D01*
X163030846Y-105988989D01*
X163032444Y-105991817D01*
X163047911Y-106034604D01*
X163054268Y-106081443D01*
X163054266Y-106134244D01*
X162934133Y-106135124D01*
X162920308Y-106135347D01*
X162779785Y-106152129D01*
X162647565Y-106194873D01*
X162525048Y-106262983D01*
X162413637Y-106355868D01*
X162368197Y-106405712D01*
X162292880Y-106516695D01*
X162240357Y-106637788D01*
X162210658Y-106765465D01*
X162203810Y-106896197D01*
X162219841Y-107026460D01*
X162258779Y-107152725D01*
X162320652Y-107271466D01*
X162405489Y-107379157D01*
X162435398Y-107409094D01*
X162546138Y-107497577D01*
X162666316Y-107560364D01*
X162796709Y-107597789D01*
X162938090Y-107610189D01*
X163054270Y-107610189D01*
X163054270Y-109581088D01*
X163054275Y-109704220D01*
X163054311Y-109968743D01*
X163054337Y-110207702D01*
X163054301Y-110422418D01*
X163054151Y-110614213D01*
X163053834Y-110784407D01*
X163053298Y-110934323D01*
X163052492Y-111065282D01*
X163051362Y-111178605D01*
X163049856Y-111275614D01*
X163047923Y-111357629D01*
X163045509Y-111425974D01*
X163042564Y-111481968D01*
X163039034Y-111526933D01*
X163034867Y-111562191D01*
X163030011Y-111589063D01*
X163024414Y-111608871D01*
X163018024Y-111622935D01*
X163010788Y-111632578D01*
X163002654Y-111639121D01*
X162993569Y-111643885D01*
X162983482Y-111648192D01*
X162972341Y-111653363D01*
X162972159Y-111653455D01*
X162964866Y-111655966D01*
X162952653Y-111658268D01*
X162934395Y-111660372D01*
X162908963Y-111662286D01*
X162875231Y-111664018D01*
X162832072Y-111665578D01*
X162778359Y-111666973D01*
X162712965Y-111668213D01*
X162634762Y-111669307D01*
X162542624Y-111670263D01*
X162435424Y-111671090D01*
X162312034Y-111671797D01*
X162171329Y-111672393D01*
X162012180Y-111672885D01*
X161833460Y-111673284D01*
X161634043Y-111673597D01*
X161412802Y-111673833D01*
X161168610Y-111674002D01*
X160900339Y-111674112D01*
X160606863Y-111674172D01*
X160287054Y-111674189D01*
X160224227Y-111674190D01*
X159907751Y-111674220D01*
X159617385Y-111674267D01*
X159351993Y-111674295D01*
X159110440Y-111674267D01*
X158891590Y-111674150D01*
X158694309Y-111673905D01*
X158517461Y-111673498D01*
X158359910Y-111672893D01*
X158220521Y-111672054D01*
X158139027Y-111671315D01*
X158098160Y-111670945D01*
X157991690Y-111669532D01*
G37*
X157991690Y-111669532D02*
X157899976Y-111667777D01*
X157821883Y-111665646D01*
X157756276Y-111663102D01*
X157702019Y-111660111D01*
X157657977Y-111656635D01*
X157623015Y-111652640D01*
X157595997Y-111648089D01*
X157575788Y-111642947D01*
X157561253Y-111637179D01*
X157551256Y-111630748D01*
X157544662Y-111623619D01*
X157540335Y-111615755D01*
X157537141Y-111607122D01*
X157533944Y-111597684D01*
X157529609Y-111587404D01*
X157527437Y-111581620D01*
X157525064Y-111571010D01*
X157522890Y-111555245D01*
X157520907Y-111533210D01*
X157519104Y-111503790D01*
X157517475Y-111465869D01*
X157516009Y-111418332D01*
X157514699Y-111360064D01*
X157513535Y-111289950D01*
X157512509Y-111206874D01*
X157511612Y-111109721D01*
X157510835Y-110997376D01*
X157510170Y-110868725D01*
X157509608Y-110722650D01*
X157509140Y-110558038D01*
X157508758Y-110373773D01*
X157508452Y-110168740D01*
X157508215Y-109941824D01*
X157508037Y-109691909D01*
X157507909Y-109417881D01*
X157507831Y-109141054D01*
X158138969Y-109141054D01*
X158224981Y-109136595D01*
X158229303Y-109136379D01*
X158263687Y-109135532D01*
X158296632Y-109137137D01*
X158329942Y-109142266D01*
X158365422Y-109151993D01*
X158404875Y-109167391D01*
X158450107Y-109189534D01*
X158502923Y-109219495D01*
X158565126Y-109258348D01*
X158638523Y-109307166D01*
X158724916Y-109367022D01*
X158826110Y-109438990D01*
X158943912Y-109524143D01*
X159080124Y-109623554D01*
X159236551Y-109738298D01*
X159787959Y-110143325D01*
X159148618Y-110146893D01*
X159088980Y-110147209D01*
X158928343Y-110147767D01*
X158791711Y-110147513D01*
X158676498Y-110146150D01*
X158580117Y-110143377D01*
X158499984Y-110138898D01*
X158433513Y-110132413D01*
X158378117Y-110123623D01*
X158331212Y-110112230D01*
X158290212Y-110097935D01*
X158252531Y-110080440D01*
X158215583Y-110059447D01*
X158176783Y-110034655D01*
X158139027Y-110009734D01*
X158139027Y-111304884D01*
X158183648Y-111271429D01*
X158190707Y-111266190D01*
X158255406Y-111224302D01*
X158320810Y-111195427D01*
X158395752Y-111176466D01*
X158489067Y-111164321D01*
X158493135Y-111163987D01*
X158531625Y-111162225D01*
X158595844Y-111160633D01*
X158684324Y-111159220D01*
X158795597Y-111157992D01*
X158928197Y-111156956D01*
X159080655Y-111156118D01*
X159251504Y-111155486D01*
X159439278Y-111155067D01*
X159642507Y-111154868D01*
X159859726Y-111154895D01*
X160089465Y-111155155D01*
X160330259Y-111155655D01*
X160546252Y-111156185D01*
X160781365Y-111156752D01*
X160991721Y-111157311D01*
X161178794Y-111157930D01*
X161344058Y-111158681D01*
X161488987Y-111159634D01*
X161615053Y-111160858D01*
X161723732Y-111162423D01*
X161816496Y-111164401D01*
X161894820Y-111166860D01*
X161960178Y-111169871D01*
X162014042Y-111173504D01*
X162057887Y-111177829D01*
X162093187Y-111182916D01*
X162121415Y-111188835D01*
X162144045Y-111195657D01*
X162162551Y-111203451D01*
X162178406Y-111212288D01*
X162193085Y-111222237D01*
X162208060Y-111233369D01*
X162224807Y-111245754D01*
X162241588Y-111257732D01*
X162274769Y-111280885D01*
X162295702Y-111294753D01*
X162296579Y-111295088D01*
X162300538Y-111290246D01*
X162303841Y-111273157D01*
X162306539Y-111241921D01*
X162308683Y-111194635D01*
X162310324Y-111129398D01*
X162311511Y-111044310D01*
X162312297Y-110937467D01*
X162312731Y-110806969D01*
X162312865Y-110650914D01*
X162312865Y-109996722D01*
X162271890Y-110031200D01*
X162243747Y-110051182D01*
X162177392Y-110084443D01*
X162094865Y-110113591D01*
X162003321Y-110135838D01*
X161994631Y-110137256D01*
X161948817Y-110141474D01*
X161878011Y-110144669D01*
X161781725Y-110146849D01*
X161659468Y-110148021D01*
X161510749Y-110148195D01*
X161335078Y-110147378D01*
X160748588Y-110143325D01*
X161278141Y-109724568D01*
X161293310Y-109712574D01*
X161427745Y-109606381D01*
X161542876Y-109515721D01*
X161640661Y-109439151D01*
X161723057Y-109375227D01*
X161792022Y-109322507D01*
X161849514Y-109279549D01*
X161897490Y-109244909D01*
X161937907Y-109217145D01*
X161972724Y-109194814D01*
X162003897Y-109176472D01*
X162033385Y-109160678D01*
X162063145Y-109145988D01*
X162115823Y-109123390D01*
X162171394Y-109108791D01*
X162231334Y-109104908D01*
X162312865Y-109105298D01*
X162312865Y-107715907D01*
X162269401Y-107776319D01*
X162228552Y-107827410D01*
X162161924Y-107899403D01*
X162078420Y-107981060D01*
X161981222Y-108069290D01*
X161873513Y-108161000D01*
X161844710Y-108184617D01*
X161795308Y-108224827D01*
X161730495Y-108277387D01*
X161652434Y-108340556D01*
X161563289Y-108412592D01*
X161465222Y-108491754D01*
X161360396Y-108576302D01*
X161250976Y-108664493D01*
X161200756Y-108704944D01*
X161139124Y-108754586D01*
X161027003Y-108844840D01*
X160916776Y-108933515D01*
X160810608Y-109018868D01*
X160710660Y-109099158D01*
X160619097Y-109172644D01*
X160538081Y-109237585D01*
X160469776Y-109292240D01*
X160416345Y-109334866D01*
X160379952Y-109363724D01*
X160362758Y-109377071D01*
X160356297Y-109378173D01*
X160344008Y-109374508D01*
X160324675Y-109365013D01*
X160296926Y-109348738D01*
X160259390Y-109324736D01*
X160210696Y-109292060D01*
X160149471Y-109249761D01*
X160074346Y-109196891D01*
X159983948Y-109132503D01*
X159876906Y-109055648D01*
X159751848Y-108965380D01*
X159607404Y-108860749D01*
X159442202Y-108740809D01*
X159310703Y-108645242D01*
X159150395Y-108528648D01*
X159009613Y-108426088D01*
X158886796Y-108336369D01*
X158780381Y-108258300D01*
X158688805Y-108190688D01*
X158610506Y-108132338D01*
X158543921Y-108082060D01*
X158487489Y-108038661D01*
X158439646Y-108000946D01*
X158398831Y-107967725D01*
X158363480Y-107937803D01*
X158332032Y-107909989D01*
X158302924Y-107883090D01*
X158274594Y-107855913D01*
X158245478Y-107827265D01*
X158139027Y-107721692D01*
X158138969Y-109141054D01*
X157507831Y-109141054D01*
X157507824Y-109118623D01*
X157507772Y-108793021D01*
X157507762Y-108689839D01*
X157507755Y-108371303D01*
X157507795Y-108078787D01*
X157507890Y-107811188D01*
X157508047Y-107567404D01*
X157508275Y-107346332D01*
X157508581Y-107146872D01*
X157508975Y-106967921D01*
X157509284Y-106866396D01*
X158139027Y-106866396D01*
X158139027Y-107472373D01*
X158231702Y-107421146D01*
X158324378Y-107369919D01*
X161015405Y-107369919D01*
X161108081Y-107421146D01*
X161200756Y-107472373D01*
X161200756Y-106389211D01*
X158351838Y-106381379D01*
X158269832Y-106342981D01*
X158229185Y-106322736D01*
X158188468Y-106299813D01*
X158163426Y-106282501D01*
X158163378Y-106282458D01*
X158157560Y-106278255D01*
X158152749Y-106278652D01*
X158148850Y-106285935D01*
X158145768Y-106302389D01*
X158143406Y-106330301D01*
X158141670Y-106371957D01*
X158140464Y-106429642D01*
X158139692Y-106505642D01*
X158139259Y-106602244D01*
X158139069Y-106721734D01*
X158139027Y-106866396D01*
X157509284Y-106866396D01*
X157509462Y-106808376D01*
X157510053Y-106667136D01*
X157510753Y-106543099D01*
X157511573Y-106435163D01*
X157512519Y-106342226D01*
X157513600Y-106263185D01*
X157514823Y-106196939D01*
X157516197Y-106142385D01*
X157517729Y-106098422D01*
X157519428Y-106063947D01*
X157521302Y-106037859D01*
X157523358Y-106019056D01*
X157525604Y-106006435D01*
X157528050Y-105998894D01*
X157529138Y-105996495D01*
X157532713Y-105986673D01*
X157535324Y-105977666D01*
X157538107Y-105969437D01*
X157542200Y-105961950D01*
X157548740Y-105955168D01*
X157558863Y-105949055D01*
X157573707Y-105943575D01*
X157594409Y-105938690D01*
X157622105Y-105934364D01*
X157657932Y-105930561D01*
X157703027Y-105927244D01*
X157758528Y-105924376D01*
X157825571Y-105921922D01*
X157905293Y-105919844D01*
X157998830Y-105918107D01*
X158107321Y-105916673D01*
X158231902Y-105915506D01*
X158373710Y-105914570D01*
X158533881Y-105913828D01*
X158713553Y-105913243D01*
X158913863Y-105912779D01*
X159135948Y-105912400D01*
X159380944Y-105912069D01*
X159649988Y-105911749D01*
X159944218Y-105911404D01*
X160264770Y-105910998D01*
X160303576Y-105910945D01*
X160622097Y-105910492D01*
X160914428Y-105910059D01*
X161181707Y-105909677D01*
X161425071Y-105909380D01*
X161645658Y-105909198D01*
X161844605Y-105909165D01*
X162023050Y-105909311D01*
X162182129Y-105909670D01*
X162322981Y-105910274D01*
X162446743Y-105911154D01*
X162554553Y-105912342D01*
X162647547Y-105913871D01*
X162726863Y-105915772D01*
X162793640Y-105918078D01*
X162849013Y-105920821D01*
X162894121Y-105924032D01*
X162930101Y-105927745D01*
X162958091Y-105931990D01*
X162979228Y-105936801D01*
X162994649Y-105942208D01*
X163005492Y-105948245D01*
X163012894Y-105954943D01*
X163017993Y-105962335D01*
X163021927Y-105970451D01*
X163025832Y-105979325D01*
X163030846Y-105988989D01*
X163032444Y-105991817D01*
X163047911Y-106034604D01*
X163054268Y-106081443D01*
X163054266Y-106134244D01*
X162934133Y-106135124D01*
X162920308Y-106135347D01*
X162779785Y-106152129D01*
X162647565Y-106194873D01*
X162525048Y-106262983D01*
X162413637Y-106355868D01*
X162368197Y-106405712D01*
X162292880Y-106516695D01*
X162240357Y-106637788D01*
X162210658Y-106765465D01*
X162203810Y-106896197D01*
X162219841Y-107026460D01*
X162258779Y-107152725D01*
X162320652Y-107271466D01*
X162405489Y-107379157D01*
X162435398Y-107409094D01*
X162546138Y-107497577D01*
X162666316Y-107560364D01*
X162796709Y-107597789D01*
X162938090Y-107610189D01*
X163054270Y-107610189D01*
X163054270Y-109581088D01*
X163054275Y-109704220D01*
X163054311Y-109968743D01*
X163054337Y-110207702D01*
X163054301Y-110422418D01*
X163054151Y-110614213D01*
X163053834Y-110784407D01*
X163053298Y-110934323D01*
X163052492Y-111065282D01*
X163051362Y-111178605D01*
X163049856Y-111275614D01*
X163047923Y-111357629D01*
X163045509Y-111425974D01*
X163042564Y-111481968D01*
X163039034Y-111526933D01*
X163034867Y-111562191D01*
X163030011Y-111589063D01*
X163024414Y-111608871D01*
X163018024Y-111622935D01*
X163010788Y-111632578D01*
X163002654Y-111639121D01*
X162993569Y-111643885D01*
X162983482Y-111648192D01*
X162972341Y-111653363D01*
X162972159Y-111653455D01*
X162964866Y-111655966D01*
X162952653Y-111658268D01*
X162934395Y-111660372D01*
X162908963Y-111662286D01*
X162875231Y-111664018D01*
X162832072Y-111665578D01*
X162778359Y-111666973D01*
X162712965Y-111668213D01*
X162634762Y-111669307D01*
X162542624Y-111670263D01*
X162435424Y-111671090D01*
X162312034Y-111671797D01*
X162171329Y-111672393D01*
X162012180Y-111672885D01*
X161833460Y-111673284D01*
X161634043Y-111673597D01*
X161412802Y-111673833D01*
X161168610Y-111674002D01*
X160900339Y-111674112D01*
X160606863Y-111674172D01*
X160287054Y-111674189D01*
X160224227Y-111674190D01*
X159907751Y-111674220D01*
X159617385Y-111674267D01*
X159351993Y-111674295D01*
X159110440Y-111674267D01*
X158891590Y-111674150D01*
X158694309Y-111673905D01*
X158517461Y-111673498D01*
X158359910Y-111672893D01*
X158220521Y-111672054D01*
X158139027Y-111671315D01*
X158098160Y-111670945D01*
X157991690Y-111669532D01*
G36*
X158831933Y-102679313D02*
G01*
X158880510Y-102708896D01*
X158967711Y-102762043D01*
X159045669Y-102809614D01*
X159111542Y-102849868D01*
X159162484Y-102881068D01*
X159195653Y-102901476D01*
X159208205Y-102909352D01*
X159207830Y-102911542D01*
X159195546Y-102929188D01*
X159170053Y-102960189D01*
X159135306Y-102999647D01*
X159075271Y-103069920D01*
X158986494Y-103195371D01*
X158924606Y-103317089D01*
X158893700Y-103405045D01*
X158862115Y-103553817D01*
X158856516Y-103699989D01*
X158876523Y-103841443D01*
X158921754Y-103976058D01*
X158991827Y-104101714D01*
X159086361Y-104216293D01*
X159155989Y-104280049D01*
X159284776Y-104369867D01*
X159434227Y-104443567D01*
X159605108Y-104501501D01*
X159798183Y-104544021D01*
X159810169Y-104545951D01*
X159887857Y-104554863D01*
X159984383Y-104561497D01*
X160093151Y-104565800D01*
X160207566Y-104567719D01*
X160321032Y-104567198D01*
X160426954Y-104564185D01*
X160518737Y-104558626D01*
X160589783Y-104550467D01*
X160750720Y-104519194D01*
X160938714Y-104466574D01*
X161103300Y-104400395D01*
X161244351Y-104320747D01*
X161361740Y-104227717D01*
X161455337Y-104121394D01*
X161525018Y-104001867D01*
X161570653Y-103869224D01*
X161576317Y-103839795D01*
X161583712Y-103766044D01*
X161586126Y-103679856D01*
X161583692Y-103590884D01*
X161576540Y-103508786D01*
X161564805Y-103443217D01*
X161527439Y-103333986D01*
X161459222Y-103207227D01*
X161369450Y-103094358D01*
X161350539Y-103074437D01*
X161317082Y-103038340D01*
X161294562Y-103012829D01*
X161287072Y-103002464D01*
X161290654Y-102999913D01*
X161313277Y-102984206D01*
X161354353Y-102955832D01*
X161411164Y-102916664D01*
X161480988Y-102868578D01*
X161561107Y-102813448D01*
X161648799Y-102753149D01*
X162007598Y-102506514D01*
X162024105Y-102561611D01*
X162025976Y-102567360D01*
X162040834Y-102604785D01*
X162064792Y-102658744D01*
X162094969Y-102722902D01*
X162128483Y-102790929D01*
X162143300Y-102820572D01*
X162219799Y-102985176D01*
X162278955Y-103136890D01*
X162322282Y-103281548D01*
X162351293Y-103424986D01*
X162367501Y-103573038D01*
X162372420Y-103731541D01*
X162369922Y-103841847D01*
X162352985Y-104026348D01*
X162318826Y-104197749D01*
X162266009Y-104362427D01*
X162193095Y-104526756D01*
X162099999Y-104689424D01*
X161973086Y-104863999D01*
X161826350Y-105025888D01*
X161663424Y-105171528D01*
X161487941Y-105297352D01*
X161303532Y-105399797D01*
X161283804Y-105409096D01*
X161093387Y-105486973D01*
X160895523Y-105546148D01*
X160686430Y-105587387D01*
X160462330Y-105611452D01*
X160219441Y-105619111D01*
X159968357Y-105609799D01*
X159721088Y-105580244D01*
X159489617Y-105529987D01*
X159272301Y-105458577D01*
X159067498Y-105365566D01*
X158873567Y-105250504D01*
X158725406Y-105142422D01*
X158558700Y-104993184D01*
X158415911Y-104830521D01*
X158297086Y-104654505D01*
X158202271Y-104465207D01*
X158131513Y-104262697D01*
X158084858Y-104047048D01*
X158084495Y-104044587D01*
X158080851Y-104003058D01*
X158078148Y-103940388D01*
X158076513Y-103862373D01*
X158076070Y-103774808D01*
X158076948Y-103683487D01*
X158078233Y-103619484D01*
X158081210Y-103524523D01*
X158085472Y-103448428D01*
X158091474Y-103385712D01*
X158099671Y-103330885D01*
X158110518Y-103278460D01*
X158124535Y-103219477D01*
X158140497Y-103157940D01*
X158157242Y-103102286D01*
X158176732Y-103047463D01*
X158200927Y-102988422D01*
X158231790Y-102920111D01*
X158271281Y-102837478D01*
X158321361Y-102735473D01*
X158460785Y-102453352D01*
X158831933Y-102679313D01*
G37*
X158831933Y-102679313D02*
X158880510Y-102708896D01*
X158967711Y-102762043D01*
X159045669Y-102809614D01*
X159111542Y-102849868D01*
X159162484Y-102881068D01*
X159195653Y-102901476D01*
X159208205Y-102909352D01*
X159207830Y-102911542D01*
X159195546Y-102929188D01*
X159170053Y-102960189D01*
X159135306Y-102999647D01*
X159075271Y-103069920D01*
X158986494Y-103195371D01*
X158924606Y-103317089D01*
X158893700Y-103405045D01*
X158862115Y-103553817D01*
X158856516Y-103699989D01*
X158876523Y-103841443D01*
X158921754Y-103976058D01*
X158991827Y-104101714D01*
X159086361Y-104216293D01*
X159155989Y-104280049D01*
X159284776Y-104369867D01*
X159434227Y-104443567D01*
X159605108Y-104501501D01*
X159798183Y-104544021D01*
X159810169Y-104545951D01*
X159887857Y-104554863D01*
X159984383Y-104561497D01*
X160093151Y-104565800D01*
X160207566Y-104567719D01*
X160321032Y-104567198D01*
X160426954Y-104564185D01*
X160518737Y-104558626D01*
X160589783Y-104550467D01*
X160750720Y-104519194D01*
X160938714Y-104466574D01*
X161103300Y-104400395D01*
X161244351Y-104320747D01*
X161361740Y-104227717D01*
X161455337Y-104121394D01*
X161525018Y-104001867D01*
X161570653Y-103869224D01*
X161576317Y-103839795D01*
X161583712Y-103766044D01*
X161586126Y-103679856D01*
X161583692Y-103590884D01*
X161576540Y-103508786D01*
X161564805Y-103443217D01*
X161527439Y-103333986D01*
X161459222Y-103207227D01*
X161369450Y-103094358D01*
X161350539Y-103074437D01*
X161317082Y-103038340D01*
X161294562Y-103012829D01*
X161287072Y-103002464D01*
X161290654Y-102999913D01*
X161313277Y-102984206D01*
X161354353Y-102955832D01*
X161411164Y-102916664D01*
X161480988Y-102868578D01*
X161561107Y-102813448D01*
X161648799Y-102753149D01*
X162007598Y-102506514D01*
X162024105Y-102561611D01*
X162025976Y-102567360D01*
X162040834Y-102604785D01*
X162064792Y-102658744D01*
X162094969Y-102722902D01*
X162128483Y-102790929D01*
X162143300Y-102820572D01*
X162219799Y-102985176D01*
X162278955Y-103136890D01*
X162322282Y-103281548D01*
X162351293Y-103424986D01*
X162367501Y-103573038D01*
X162372420Y-103731541D01*
X162369922Y-103841847D01*
X162352985Y-104026348D01*
X162318826Y-104197749D01*
X162266009Y-104362427D01*
X162193095Y-104526756D01*
X162099999Y-104689424D01*
X161973086Y-104863999D01*
X161826350Y-105025888D01*
X161663424Y-105171528D01*
X161487941Y-105297352D01*
X161303532Y-105399797D01*
X161283804Y-105409096D01*
X161093387Y-105486973D01*
X160895523Y-105546148D01*
X160686430Y-105587387D01*
X160462330Y-105611452D01*
X160219441Y-105619111D01*
X159968357Y-105609799D01*
X159721088Y-105580244D01*
X159489617Y-105529987D01*
X159272301Y-105458577D01*
X159067498Y-105365566D01*
X158873567Y-105250504D01*
X158725406Y-105142422D01*
X158558700Y-104993184D01*
X158415911Y-104830521D01*
X158297086Y-104654505D01*
X158202271Y-104465207D01*
X158131513Y-104262697D01*
X158084858Y-104047048D01*
X158084495Y-104044587D01*
X158080851Y-104003058D01*
X158078148Y-103940388D01*
X158076513Y-103862373D01*
X158076070Y-103774808D01*
X158076948Y-103683487D01*
X158078233Y-103619484D01*
X158081210Y-103524523D01*
X158085472Y-103448428D01*
X158091474Y-103385712D01*
X158099671Y-103330885D01*
X158110518Y-103278460D01*
X158124535Y-103219477D01*
X158140497Y-103157940D01*
X158157242Y-103102286D01*
X158176732Y-103047463D01*
X158200927Y-102988422D01*
X158231790Y-102920111D01*
X158271281Y-102837478D01*
X158321361Y-102735473D01*
X158460785Y-102453352D01*
X158831933Y-102679313D01*
G36*
X159076966Y-102460128D02*
G01*
X158966264Y-102453962D01*
X158863261Y-102440635D01*
X158777459Y-102420526D01*
X158689182Y-102388440D01*
X158543701Y-102314063D01*
X158415705Y-102218994D01*
X158306067Y-102104218D01*
X158215658Y-101970719D01*
X158145352Y-101819480D01*
X158096019Y-101651487D01*
X158084892Y-101582983D01*
X158077159Y-101485093D01*
X158075420Y-101378484D01*
X158079535Y-101272065D01*
X158089363Y-101174745D01*
X158102131Y-101108988D01*
X158761204Y-101108988D01*
X158762352Y-101203338D01*
X158777944Y-101292934D01*
X158810154Y-101367718D01*
X158860433Y-101432421D01*
X158879030Y-101450622D01*
X158942454Y-101498011D01*
X159010816Y-101523652D01*
X159093075Y-101531352D01*
X159136533Y-101529266D01*
X159225995Y-101508635D01*
X159302781Y-101465295D01*
X159367757Y-101398457D01*
X159421785Y-101307331D01*
X159465730Y-101191128D01*
X159477262Y-101144281D01*
X159485158Y-101087568D01*
X159489543Y-101016195D01*
X159491018Y-100923811D01*
X159491017Y-100908804D01*
X159490173Y-100839689D01*
X159488134Y-100780320D01*
X159485167Y-100736600D01*
X159481539Y-100714433D01*
X159480361Y-100711882D01*
X159472965Y-100703635D01*
X159458101Y-100697794D01*
X159431773Y-100693955D01*
X159389982Y-100691713D01*
X159328730Y-100690665D01*
X159244019Y-100690406D01*
X159171360Y-100690789D01*
X159095015Y-100692644D01*
X159039832Y-100696279D01*
X159002218Y-100701958D01*
X158978579Y-100709946D01*
X158961699Y-100720222D01*
X158915683Y-100758918D01*
X158867779Y-100810765D01*
X158825096Y-100867592D01*
X158794747Y-100921225D01*
X158783611Y-100950982D01*
X158768784Y-101019499D01*
X158761204Y-101108988D01*
X158102131Y-101108988D01*
X158104764Y-101095433D01*
X158116890Y-101055579D01*
X158152374Y-100965063D01*
X158197425Y-100873052D01*
X158247157Y-100789038D01*
X158296684Y-100722515D01*
X158297399Y-100721697D01*
X158328308Y-100685243D01*
X158350317Y-100657196D01*
X158358702Y-100643569D01*
X158356700Y-100642079D01*
X158335074Y-100638708D01*
X158294740Y-100636365D01*
X158242000Y-100635487D01*
X158125297Y-100635487D01*
X158125297Y-100120622D01*
X158125299Y-100106916D01*
X158125500Y-99991965D01*
X158126001Y-99886464D01*
X158126763Y-99793414D01*
X158127751Y-99715817D01*
X158128926Y-99656674D01*
X158130251Y-99618986D01*
X158131689Y-99605757D01*
X158132946Y-99606065D01*
X158151499Y-99614720D01*
X158186355Y-99632863D01*
X158231230Y-99657244D01*
X158324378Y-99708730D01*
X159292324Y-99716676D01*
X159433305Y-99717857D01*
X159613107Y-99719509D01*
X159769201Y-99721243D01*
X159903795Y-99723200D01*
X160019095Y-99725519D01*
X160117311Y-99728340D01*
X160200648Y-99731804D01*
X160271315Y-99736050D01*
X160331520Y-99741220D01*
X160383469Y-99747452D01*
X160429370Y-99754887D01*
X160471431Y-99763666D01*
X160511859Y-99773927D01*
X160552863Y-99785813D01*
X160596648Y-99799461D01*
X160733915Y-99853230D01*
X160860778Y-99926865D01*
X160969392Y-100018566D01*
X161060326Y-100129175D01*
X161134147Y-100259530D01*
X161191425Y-100410471D01*
X161232727Y-100582837D01*
X161258622Y-100777469D01*
X161263771Y-100845495D01*
X161267536Y-100960062D01*
X161264146Y-101073616D01*
X161253028Y-101191473D01*
X161233612Y-101318950D01*
X161205326Y-101461363D01*
X161167597Y-101624027D01*
X161158468Y-101661627D01*
X161136004Y-101756049D01*
X161115321Y-101845543D01*
X161097639Y-101924681D01*
X161084180Y-101988036D01*
X161076167Y-102030180D01*
X161060197Y-102127414D01*
X160728882Y-101990716D01*
X160646160Y-101956523D01*
X160565104Y-101922885D01*
X160495899Y-101894023D01*
X160441932Y-101871355D01*
X160406588Y-101856297D01*
X160393254Y-101850267D01*
X160393063Y-101849319D01*
X160399016Y-101831844D01*
X160414272Y-101797483D01*
X160436117Y-101752434D01*
X160478657Y-101658802D01*
X160525170Y-101529958D01*
X160560790Y-101398086D01*
X160584622Y-101268344D01*
X160595773Y-101145889D01*
X160593346Y-101035877D01*
X160576448Y-100943465D01*
X160549636Y-100878969D01*
X160494690Y-100805720D01*
X160420148Y-100749333D01*
X160328305Y-100711421D01*
X160221453Y-100693599D01*
X160122973Y-100687323D01*
X160122076Y-101014945D01*
X160121149Y-101125432D01*
X160117859Y-101247638D01*
X160111649Y-101352035D01*
X160101916Y-101444024D01*
X160088057Y-101529004D01*
X160069467Y-101612377D01*
X160045542Y-101699541D01*
X160000004Y-101829960D01*
X159925012Y-101983360D01*
X159833153Y-102117988D01*
X159725720Y-102232516D01*
X159604005Y-102325616D01*
X159469299Y-102395961D01*
X159322895Y-102442223D01*
X159283464Y-102449468D01*
X159185867Y-102458756D01*
X159093075Y-102459926D01*
X159076966Y-102460128D01*
G37*
X159076966Y-102460128D02*
X158966264Y-102453962D01*
X158863261Y-102440635D01*
X158777459Y-102420526D01*
X158689182Y-102388440D01*
X158543701Y-102314063D01*
X158415705Y-102218994D01*
X158306067Y-102104218D01*
X158215658Y-101970719D01*
X158145352Y-101819480D01*
X158096019Y-101651487D01*
X158084892Y-101582983D01*
X158077159Y-101485093D01*
X158075420Y-101378484D01*
X158079535Y-101272065D01*
X158089363Y-101174745D01*
X158102131Y-101108988D01*
X158761204Y-101108988D01*
X158762352Y-101203338D01*
X158777944Y-101292934D01*
X158810154Y-101367718D01*
X158860433Y-101432421D01*
X158879030Y-101450622D01*
X158942454Y-101498011D01*
X159010816Y-101523652D01*
X159093075Y-101531352D01*
X159136533Y-101529266D01*
X159225995Y-101508635D01*
X159302781Y-101465295D01*
X159367757Y-101398457D01*
X159421785Y-101307331D01*
X159465730Y-101191128D01*
X159477262Y-101144281D01*
X159485158Y-101087568D01*
X159489543Y-101016195D01*
X159491018Y-100923811D01*
X159491017Y-100908804D01*
X159490173Y-100839689D01*
X159488134Y-100780320D01*
X159485167Y-100736600D01*
X159481539Y-100714433D01*
X159480361Y-100711882D01*
X159472965Y-100703635D01*
X159458101Y-100697794D01*
X159431773Y-100693955D01*
X159389982Y-100691713D01*
X159328730Y-100690665D01*
X159244019Y-100690406D01*
X159171360Y-100690789D01*
X159095015Y-100692644D01*
X159039832Y-100696279D01*
X159002218Y-100701958D01*
X158978579Y-100709946D01*
X158961699Y-100720222D01*
X158915683Y-100758918D01*
X158867779Y-100810765D01*
X158825096Y-100867592D01*
X158794747Y-100921225D01*
X158783611Y-100950982D01*
X158768784Y-101019499D01*
X158761204Y-101108988D01*
X158102131Y-101108988D01*
X158104764Y-101095433D01*
X158116890Y-101055579D01*
X158152374Y-100965063D01*
X158197425Y-100873052D01*
X158247157Y-100789038D01*
X158296684Y-100722515D01*
X158297399Y-100721697D01*
X158328308Y-100685243D01*
X158350317Y-100657196D01*
X158358702Y-100643569D01*
X158356700Y-100642079D01*
X158335074Y-100638708D01*
X158294740Y-100636365D01*
X158242000Y-100635487D01*
X158125297Y-100635487D01*
X158125297Y-100120622D01*
X158125299Y-100106916D01*
X158125500Y-99991965D01*
X158126001Y-99886464D01*
X158126763Y-99793414D01*
X158127751Y-99715817D01*
X158128926Y-99656674D01*
X158130251Y-99618986D01*
X158131689Y-99605757D01*
X158132946Y-99606065D01*
X158151499Y-99614720D01*
X158186355Y-99632863D01*
X158231230Y-99657244D01*
X158324378Y-99708730D01*
X159292324Y-99716676D01*
X159433305Y-99717857D01*
X159613107Y-99719509D01*
X159769201Y-99721243D01*
X159903795Y-99723200D01*
X160019095Y-99725519D01*
X160117311Y-99728340D01*
X160200648Y-99731804D01*
X160271315Y-99736050D01*
X160331520Y-99741220D01*
X160383469Y-99747452D01*
X160429370Y-99754887D01*
X160471431Y-99763666D01*
X160511859Y-99773927D01*
X160552863Y-99785813D01*
X160596648Y-99799461D01*
X160733915Y-99853230D01*
X160860778Y-99926865D01*
X160969392Y-100018566D01*
X161060326Y-100129175D01*
X161134147Y-100259530D01*
X161191425Y-100410471D01*
X161232727Y-100582837D01*
X161258622Y-100777469D01*
X161263771Y-100845495D01*
X161267536Y-100960062D01*
X161264146Y-101073616D01*
X161253028Y-101191473D01*
X161233612Y-101318950D01*
X161205326Y-101461363D01*
X161167597Y-101624027D01*
X161158468Y-101661627D01*
X161136004Y-101756049D01*
X161115321Y-101845543D01*
X161097639Y-101924681D01*
X161084180Y-101988036D01*
X161076167Y-102030180D01*
X161060197Y-102127414D01*
X160728882Y-101990716D01*
X160646160Y-101956523D01*
X160565104Y-101922885D01*
X160495899Y-101894023D01*
X160441932Y-101871355D01*
X160406588Y-101856297D01*
X160393254Y-101850267D01*
X160393063Y-101849319D01*
X160399016Y-101831844D01*
X160414272Y-101797483D01*
X160436117Y-101752434D01*
X160478657Y-101658802D01*
X160525170Y-101529958D01*
X160560790Y-101398086D01*
X160584622Y-101268344D01*
X160595773Y-101145889D01*
X160593346Y-101035877D01*
X160576448Y-100943465D01*
X160549636Y-100878969D01*
X160494690Y-100805720D01*
X160420148Y-100749333D01*
X160328305Y-100711421D01*
X160221453Y-100693599D01*
X160122973Y-100687323D01*
X160122076Y-101014945D01*
X160121149Y-101125432D01*
X160117859Y-101247638D01*
X160111649Y-101352035D01*
X160101916Y-101444024D01*
X160088057Y-101529004D01*
X160069467Y-101612377D01*
X160045542Y-101699541D01*
X160000004Y-101829960D01*
X159925012Y-101983360D01*
X159833153Y-102117988D01*
X159725720Y-102232516D01*
X159604005Y-102325616D01*
X159469299Y-102395961D01*
X159322895Y-102442223D01*
X159283464Y-102449468D01*
X159185867Y-102458756D01*
X159093075Y-102459926D01*
X159076966Y-102460128D01*
G36*
X159508999Y-99356755D02*
G01*
X159381943Y-99353842D01*
X159269891Y-99345512D01*
X159166748Y-99331120D01*
X159066419Y-99310021D01*
X158962810Y-99281570D01*
X158838967Y-99238428D01*
X158671784Y-99159190D01*
X158522039Y-99061993D01*
X158391148Y-98948325D01*
X158280526Y-98819672D01*
X158191588Y-98677521D01*
X158125750Y-98523359D01*
X158084426Y-98358674D01*
X158084094Y-98356692D01*
X158072514Y-98236337D01*
X158074059Y-98104099D01*
X158087778Y-97969404D01*
X158096026Y-97927159D01*
X158827399Y-97927159D01*
X158827821Y-97974823D01*
X158832581Y-98010304D01*
X158842986Y-98042129D01*
X158860341Y-98078823D01*
X158906831Y-98149342D01*
X158972594Y-98210435D01*
X159057342Y-98259337D01*
X159162403Y-98296515D01*
X159289105Y-98322432D01*
X159438778Y-98337556D01*
X159612748Y-98342350D01*
X159652300Y-98342117D01*
X159835556Y-98335225D01*
X159995015Y-98318488D01*
X160132357Y-98291501D01*
X160249266Y-98253855D01*
X160347423Y-98205144D01*
X160428512Y-98144961D01*
X160453260Y-98119993D01*
X160504819Y-98042613D01*
X160536193Y-97951776D01*
X160547205Y-97851419D01*
X160537676Y-97745475D01*
X160507428Y-97637879D01*
X160456282Y-97532568D01*
X160411018Y-97457054D01*
X158983795Y-97457054D01*
X158938767Y-97525703D01*
X158922547Y-97552103D01*
X158890143Y-97612552D01*
X158864339Y-97669865D01*
X158855602Y-97694965D01*
X158838159Y-97774831D01*
X158829252Y-97875811D01*
X158827399Y-97927159D01*
X158096026Y-97927159D01*
X158112717Y-97841684D01*
X158147923Y-97730366D01*
X158169347Y-97682851D01*
X158201910Y-97620969D01*
X158239154Y-97557380D01*
X158276979Y-97498721D01*
X158311286Y-97451626D01*
X158337976Y-97422730D01*
X158345304Y-97416097D01*
X158347865Y-97408189D01*
X158335149Y-97402903D01*
X158303101Y-97399008D01*
X158247669Y-97395271D01*
X158132162Y-97388406D01*
X158128566Y-96862569D01*
X158124969Y-96336732D01*
X158187054Y-96373116D01*
X158190724Y-96375285D01*
X158207956Y-96385865D01*
X158223307Y-96395463D01*
X158238111Y-96404131D01*
X158253701Y-96411920D01*
X158271411Y-96418882D01*
X158292576Y-96425069D01*
X158318527Y-96430531D01*
X158350600Y-96435322D01*
X158390128Y-96439492D01*
X158438443Y-96443094D01*
X158496881Y-96446178D01*
X158566774Y-96448797D01*
X158649456Y-96451002D01*
X158746261Y-96452844D01*
X158858523Y-96454376D01*
X158987575Y-96455649D01*
X159134750Y-96456715D01*
X159301382Y-96457625D01*
X159488806Y-96458431D01*
X159698354Y-96459185D01*
X159931360Y-96459938D01*
X160189158Y-96460742D01*
X160473081Y-96461649D01*
X162566865Y-96468514D01*
X162570455Y-97014271D01*
X162570696Y-97053959D01*
X162571175Y-97170730D01*
X162571273Y-97277535D01*
X162571008Y-97371458D01*
X162570401Y-97449584D01*
X162569472Y-97508998D01*
X162568241Y-97546784D01*
X162566728Y-97560027D01*
X162561931Y-97558333D01*
X162539190Y-97545694D01*
X162506119Y-97524760D01*
X162502957Y-97522672D01*
X162477423Y-97506442D01*
X162452579Y-97492833D01*
X162425866Y-97481616D01*
X162394726Y-97472559D01*
X162356598Y-97465431D01*
X162308925Y-97460003D01*
X162249147Y-97456043D01*
X162174705Y-97453320D01*
X162083040Y-97451605D01*
X161971592Y-97450665D01*
X161837804Y-97450270D01*
X161679115Y-97450189D01*
X161555219Y-97450333D01*
X161433581Y-97450774D01*
X161323289Y-97451479D01*
X161227027Y-97452417D01*
X161147481Y-97453557D01*
X161087337Y-97454865D01*
X161049282Y-97456310D01*
X161036000Y-97457859D01*
X161038061Y-97462858D01*
X161052578Y-97484831D01*
X161076419Y-97516211D01*
X161108481Y-97561704D01*
X161155721Y-97647178D01*
X161197860Y-97744872D01*
X161230630Y-97845666D01*
X161247340Y-97930352D01*
X161257991Y-98035823D01*
X161261682Y-98149971D01*
X161258406Y-98263989D01*
X161248160Y-98369067D01*
X161230940Y-98456396D01*
X161201932Y-98545317D01*
X161131611Y-98693658D01*
X161038123Y-98831010D01*
X160923623Y-98954841D01*
X160790261Y-99062615D01*
X160640192Y-99151799D01*
X160594174Y-99173940D01*
X160438952Y-99235987D01*
X160270487Y-99284496D01*
X160085808Y-99320080D01*
X159881947Y-99343353D01*
X159655933Y-99354927D01*
X159612748Y-99355465D01*
X159508999Y-99356755D01*
G37*
X159508999Y-99356755D02*
X159381943Y-99353842D01*
X159269891Y-99345512D01*
X159166748Y-99331120D01*
X159066419Y-99310021D01*
X158962810Y-99281570D01*
X158838967Y-99238428D01*
X158671784Y-99159190D01*
X158522039Y-99061993D01*
X158391148Y-98948325D01*
X158280526Y-98819672D01*
X158191588Y-98677521D01*
X158125750Y-98523359D01*
X158084426Y-98358674D01*
X158084094Y-98356692D01*
X158072514Y-98236337D01*
X158074059Y-98104099D01*
X158087778Y-97969404D01*
X158096026Y-97927159D01*
X158827399Y-97927159D01*
X158827821Y-97974823D01*
X158832581Y-98010304D01*
X158842986Y-98042129D01*
X158860341Y-98078823D01*
X158906831Y-98149342D01*
X158972594Y-98210435D01*
X159057342Y-98259337D01*
X159162403Y-98296515D01*
X159289105Y-98322432D01*
X159438778Y-98337556D01*
X159612748Y-98342350D01*
X159652300Y-98342117D01*
X159835556Y-98335225D01*
X159995015Y-98318488D01*
X160132357Y-98291501D01*
X160249266Y-98253855D01*
X160347423Y-98205144D01*
X160428512Y-98144961D01*
X160453260Y-98119993D01*
X160504819Y-98042613D01*
X160536193Y-97951776D01*
X160547205Y-97851419D01*
X160537676Y-97745475D01*
X160507428Y-97637879D01*
X160456282Y-97532568D01*
X160411018Y-97457054D01*
X158983795Y-97457054D01*
X158938767Y-97525703D01*
X158922547Y-97552103D01*
X158890143Y-97612552D01*
X158864339Y-97669865D01*
X158855602Y-97694965D01*
X158838159Y-97774831D01*
X158829252Y-97875811D01*
X158827399Y-97927159D01*
X158096026Y-97927159D01*
X158112717Y-97841684D01*
X158147923Y-97730366D01*
X158169347Y-97682851D01*
X158201910Y-97620969D01*
X158239154Y-97557380D01*
X158276979Y-97498721D01*
X158311286Y-97451626D01*
X158337976Y-97422730D01*
X158345304Y-97416097D01*
X158347865Y-97408189D01*
X158335149Y-97402903D01*
X158303101Y-97399008D01*
X158247669Y-97395271D01*
X158132162Y-97388406D01*
X158128566Y-96862569D01*
X158124969Y-96336732D01*
X158187054Y-96373116D01*
X158190724Y-96375285D01*
X158207956Y-96385865D01*
X158223307Y-96395463D01*
X158238111Y-96404131D01*
X158253701Y-96411920D01*
X158271411Y-96418882D01*
X158292576Y-96425069D01*
X158318527Y-96430531D01*
X158350600Y-96435322D01*
X158390128Y-96439492D01*
X158438443Y-96443094D01*
X158496881Y-96446178D01*
X158566774Y-96448797D01*
X158649456Y-96451002D01*
X158746261Y-96452844D01*
X158858523Y-96454376D01*
X158987575Y-96455649D01*
X159134750Y-96456715D01*
X159301382Y-96457625D01*
X159488806Y-96458431D01*
X159698354Y-96459185D01*
X159931360Y-96459938D01*
X160189158Y-96460742D01*
X160473081Y-96461649D01*
X162566865Y-96468514D01*
X162570455Y-97014271D01*
X162570696Y-97053959D01*
X162571175Y-97170730D01*
X162571273Y-97277535D01*
X162571008Y-97371458D01*
X162570401Y-97449584D01*
X162569472Y-97508998D01*
X162568241Y-97546784D01*
X162566728Y-97560027D01*
X162561931Y-97558333D01*
X162539190Y-97545694D01*
X162506119Y-97524760D01*
X162502957Y-97522672D01*
X162477423Y-97506442D01*
X162452579Y-97492833D01*
X162425866Y-97481616D01*
X162394726Y-97472559D01*
X162356598Y-97465431D01*
X162308925Y-97460003D01*
X162249147Y-97456043D01*
X162174705Y-97453320D01*
X162083040Y-97451605D01*
X161971592Y-97450665D01*
X161837804Y-97450270D01*
X161679115Y-97450189D01*
X161555219Y-97450333D01*
X161433581Y-97450774D01*
X161323289Y-97451479D01*
X161227027Y-97452417D01*
X161147481Y-97453557D01*
X161087337Y-97454865D01*
X161049282Y-97456310D01*
X161036000Y-97457859D01*
X161038061Y-97462858D01*
X161052578Y-97484831D01*
X161076419Y-97516211D01*
X161108481Y-97561704D01*
X161155721Y-97647178D01*
X161197860Y-97744872D01*
X161230630Y-97845666D01*
X161247340Y-97930352D01*
X161257991Y-98035823D01*
X161261682Y-98149971D01*
X161258406Y-98263989D01*
X161248160Y-98369067D01*
X161230940Y-98456396D01*
X161201932Y-98545317D01*
X161131611Y-98693658D01*
X161038123Y-98831010D01*
X160923623Y-98954841D01*
X160790261Y-99062615D01*
X160640192Y-99151799D01*
X160594174Y-99173940D01*
X160438952Y-99235987D01*
X160270487Y-99284496D01*
X160085808Y-99320080D01*
X159881947Y-99343353D01*
X159655933Y-99354927D01*
X159612748Y-99355465D01*
X159508999Y-99356755D01*
G36*
X163078340Y-106321332D02*
G01*
X163164108Y-106349445D01*
X163225427Y-106381930D01*
X163322712Y-106454247D01*
X163399493Y-106539978D01*
X163455762Y-106635973D01*
X163491510Y-106739079D01*
X163506732Y-106846142D01*
X163501419Y-106954012D01*
X163475564Y-107059536D01*
X163429159Y-107159560D01*
X163362197Y-107250934D01*
X163274672Y-107330505D01*
X163166574Y-107395120D01*
X163128494Y-107412443D01*
X163089897Y-107426477D01*
X163051311Y-107434352D01*
X163003585Y-107437803D01*
X162937567Y-107438568D01*
X162882619Y-107438105D01*
X162832120Y-107435319D01*
X162792720Y-107428487D01*
X162755372Y-107415904D01*
X162711027Y-107395864D01*
X162699209Y-107390066D01*
X162590999Y-107321545D01*
X162501967Y-107235365D01*
X162434203Y-107133972D01*
X162389794Y-107019811D01*
X162377402Y-106961234D01*
X162371603Y-106842399D01*
X162390366Y-106727300D01*
X162431768Y-106619312D01*
X162493885Y-106521809D01*
X162574793Y-106438168D01*
X162672568Y-106371763D01*
X162785286Y-106325969D01*
X162877529Y-106309214D01*
X162979323Y-106307705D01*
X163078340Y-106321332D01*
G37*
X163078340Y-106321332D02*
X163164108Y-106349445D01*
X163225427Y-106381930D01*
X163322712Y-106454247D01*
X163399493Y-106539978D01*
X163455762Y-106635973D01*
X163491510Y-106739079D01*
X163506732Y-106846142D01*
X163501419Y-106954012D01*
X163475564Y-107059536D01*
X163429159Y-107159560D01*
X163362197Y-107250934D01*
X163274672Y-107330505D01*
X163166574Y-107395120D01*
X163128494Y-107412443D01*
X163089897Y-107426477D01*
X163051311Y-107434352D01*
X163003585Y-107437803D01*
X162937567Y-107438568D01*
X162882619Y-107438105D01*
X162832120Y-107435319D01*
X162792720Y-107428487D01*
X162755372Y-107415904D01*
X162711027Y-107395864D01*
X162699209Y-107390066D01*
X162590999Y-107321545D01*
X162501967Y-107235365D01*
X162434203Y-107133972D01*
X162389794Y-107019811D01*
X162377402Y-106961234D01*
X162371603Y-106842399D01*
X162390366Y-106727300D01*
X162431768Y-106619312D01*
X162493885Y-106521809D01*
X162574793Y-106438168D01*
X162672568Y-106371763D01*
X162785286Y-106325969D01*
X162877529Y-106309214D01*
X162979323Y-106307705D01*
X163078340Y-106321332D01*
D12*
X156954000Y-96088200D02*
X156946600Y-98958400D01*
X156959472Y-111558771D02*
X156959300Y-110680500D01*
X140695477Y-111582200D02*
X140667391Y-96191884D01*
X140667391Y-96191885D02*
G75*
G02*
X142036800Y-94970600I8119439J-7725823D01*
G01*
X156959472Y-111558771D02*
G75*
G02*
X140695477Y-111582200I-8143008J7631446D01*
G01*
X142036800Y-91465400D02*
X142036800Y-94970600D01*
X155647761Y-94932765D02*
X155651200Y-91465400D01*
X156954000Y-96088200D02*
G75*
G03*
X155647761Y-94932765I-8056269J-7791673D01*
G01*
X151231600Y-89331800D02*
X151231600Y-91465400D01*
X151231600Y-91465400D02*
X155651200Y-91465400D01*
X142036800Y-91465400D02*
X146507200Y-91465400D01*
X146507200Y-89331800D02*
X146507200Y-91465400D01*
X156959300Y-110693200D02*
X156946600Y-98958400D01*
X140029000Y-111628422D02*
X140029000Y-112145578D01*
X138609000Y-111628422D02*
X138609000Y-112145578D01*
X139450578Y-94690000D02*
X138933422Y-94690000D01*
X139450578Y-93270000D02*
X138933422Y-93270000D01*
M02*
