G04 #@! TF.GenerationSoftware,KiCad,Pcbnew,5.99.0-unknown-r19130-2af6d01f*
G04 #@! TF.CreationDate,2020-08-04T10:25:42+02:00*
G04 #@! TF.ProjectId,ada-watch,6164612d-7761-4746-9368-2e6b69636164,rev?*
G04 #@! TF.SameCoordinates,Original*
G04 #@! TF.FileFunction,Copper,L2,Bot*
G04 #@! TF.FilePolarity,Positive*
%FSLAX46Y46*%
G04 Gerber Fmt 4.6, Leading zero omitted, Abs format (unit mm)*
G04 Created by KiCad (PCBNEW 5.99.0-unknown-r19130-2af6d01f) date 2020-08-04 10:25:42*
%MOMM*%
%LPD*%
G01*
G04 APERTURE LIST*
G04 #@! TA.AperFunction,SMDPad,CuDef*
%ADD10R,2.600000X3.000000*%
G04 #@! TD*
G04 #@! TA.AperFunction,SMDPad,CuDef*
%ADD11R,3.600000X2.800000*%
G04 #@! TD*
G04 #@! TA.AperFunction,SMDPad,CuDef*
%ADD12O,1.500000X0.800000*%
G04 #@! TD*
G04 #@! TA.AperFunction,ViaPad*
%ADD13C,0.800000*%
G04 #@! TD*
G04 #@! TA.AperFunction,Conductor*
%ADD14C,0.400000*%
G04 #@! TD*
G04 #@! TA.AperFunction,Conductor*
%ADD15C,0.250000*%
G04 #@! TD*
G04 #@! TA.AperFunction,Conductor*
%ADD16C,0.800000*%
G04 #@! TD*
G04 #@! TA.AperFunction,Conductor*
%ADD17C,0.254000*%
G04 #@! TD*
G04 #@! TA.AperFunction,NonConductor*
%ADD18C,0.254000*%
G04 #@! TD*
G04 APERTURE END LIST*
D10*
X148844000Y-112681000D03*
D11*
X148844000Y-91281000D03*
D12*
X133465000Y-106045000D03*
X133465000Y-104775000D03*
X133465000Y-103505000D03*
X133465000Y-102235000D03*
G04 #@! TA.AperFunction,SMDPad,CuDef*
G36*
G01*
X138862750Y-112337000D02*
X139775250Y-112337000D01*
G75*
G02*
X140019000Y-112580750I0J-243750D01*
G01*
X140019000Y-113068250D01*
G75*
G02*
X139775250Y-113312000I-243750J0D01*
G01*
X138862750Y-113312000D01*
G75*
G02*
X138619000Y-113068250I0J243750D01*
G01*
X138619000Y-112580750D01*
G75*
G02*
X138862750Y-112337000I243750J0D01*
G01*
G37*
G04 #@! TD.AperFunction*
G04 #@! TA.AperFunction,SMDPad,CuDef*
G36*
G01*
X138862750Y-110462000D02*
X139775250Y-110462000D01*
G75*
G02*
X140019000Y-110705750I0J-243750D01*
G01*
X140019000Y-111193250D01*
G75*
G02*
X139775250Y-111437000I-243750J0D01*
G01*
X138862750Y-111437000D01*
G75*
G02*
X138619000Y-111193250I0J243750D01*
G01*
X138619000Y-110705750D01*
G75*
G02*
X138862750Y-110462000I243750J0D01*
G01*
G37*
G04 #@! TD.AperFunction*
G04 #@! TA.AperFunction,SMDPad,CuDef*
G36*
G01*
X138742000Y-93523750D02*
X138742000Y-94436250D01*
G75*
G02*
X138498250Y-94680000I-243750J0D01*
G01*
X138010750Y-94680000D01*
G75*
G02*
X137767000Y-94436250I0J243750D01*
G01*
X137767000Y-93523750D01*
G75*
G02*
X138010750Y-93280000I243750J0D01*
G01*
X138498250Y-93280000D01*
G75*
G02*
X138742000Y-93523750I0J-243750D01*
G01*
G37*
G04 #@! TD.AperFunction*
G04 #@! TA.AperFunction,SMDPad,CuDef*
G36*
G01*
X140617000Y-93523750D02*
X140617000Y-94436250D01*
G75*
G02*
X140373250Y-94680000I-243750J0D01*
G01*
X139885750Y-94680000D01*
G75*
G02*
X139642000Y-94436250I0J243750D01*
G01*
X139642000Y-93523750D01*
G75*
G02*
X139885750Y-93280000I243750J0D01*
G01*
X140373250Y-93280000D01*
G75*
G02*
X140617000Y-93523750I0J-243750D01*
G01*
G37*
G04 #@! TD.AperFunction*
D13*
X151384000Y-114046000D03*
X148844001Y-114808000D03*
X135128000Y-110617000D03*
X136398000Y-110617000D03*
X150258681Y-114808000D03*
X142494000Y-103886000D03*
X139700000Y-104892943D03*
X156718000Y-104775000D03*
X144286469Y-108018650D03*
X144267340Y-109024840D03*
X145542000Y-108775500D03*
X143764000Y-100076000D03*
X151384000Y-100076000D03*
X151384000Y-101346000D03*
X145161000Y-103886000D03*
X148971000Y-103886000D03*
X143564905Y-110472085D03*
X148209000Y-100965000D03*
X160337500Y-100838000D03*
X160337500Y-103441500D03*
X139378497Y-115891497D03*
X142574558Y-115913877D03*
X143101910Y-114390590D03*
X142811500Y-116967000D03*
X144711523Y-115934565D03*
X144716500Y-114808000D03*
X144716500Y-116967000D03*
X143764000Y-101727000D03*
X145034000Y-96647000D03*
X155193998Y-96647000D03*
X156464000Y-101985653D03*
X142494000Y-96647000D03*
X134112000Y-99822000D03*
X150622000Y-103886004D03*
X150114000Y-96647000D03*
X152527000Y-100076000D03*
X152654000Y-96647000D03*
X147574000Y-96647000D03*
X145541682Y-110947200D03*
X134302500Y-107759500D03*
X146939000Y-100076000D03*
X135635282Y-108214488D03*
X138620500Y-102552500D03*
X146939000Y-101727000D03*
X139192000Y-109791501D03*
X147320000Y-108775500D03*
X154305000Y-112014000D03*
X149225000Y-108077000D03*
X138938000Y-113919000D03*
X155448000Y-114681000D03*
X152400000Y-110998000D03*
X152400000Y-110109000D03*
X138641240Y-100711000D03*
X136017000Y-100711000D03*
X137350500Y-111379000D03*
X137350500Y-108966000D03*
X137287000Y-100711000D03*
X153093840Y-102928840D03*
D14*
X139319000Y-112776000D02*
X138938000Y-113157000D01*
X138938000Y-113157000D02*
X138938000Y-113919000D01*
D15*
X149606001Y-115570000D02*
X154559000Y-115570000D01*
X148844001Y-114808000D02*
X149606001Y-115570000D01*
X154559000Y-115570000D02*
X155448000Y-114681000D01*
X156718000Y-104775000D02*
X156718000Y-109601000D01*
X156718000Y-109601000D02*
X154305000Y-112014000D01*
X145362958Y-116586000D02*
X156337000Y-116586000D01*
X144711523Y-115934565D02*
X145362958Y-116586000D01*
X156337000Y-116586000D02*
X160337500Y-112585500D01*
X160337500Y-112585500D02*
X160337500Y-103441500D01*
X145986500Y-116078000D02*
X156140002Y-116078000D01*
X144716500Y-114808000D02*
X145986500Y-116078000D01*
X156140002Y-116078000D02*
X158940500Y-113277502D01*
X158940500Y-102235000D02*
X160337500Y-100838000D01*
X158940500Y-113277502D02*
X158940500Y-102235000D01*
X150114000Y-96647000D02*
X151384000Y-97917000D01*
X151384000Y-97917000D02*
X151384000Y-100076000D01*
X142494000Y-96647000D02*
X143764000Y-97917000D01*
X143764000Y-97917000D02*
X143764000Y-100076000D01*
D16*
X148622000Y-91281000D02*
X148463000Y-91440000D01*
X148971000Y-91281000D02*
X148622000Y-91281000D01*
X148463000Y-91440000D02*
X148082000Y-91440000D01*
X148082000Y-91440000D02*
X145542000Y-93980000D01*
X145542000Y-93980000D02*
X140144500Y-93980000D01*
D14*
X138303000Y-94742000D02*
X138641240Y-95080240D01*
X138303000Y-94107000D02*
X138303000Y-94742000D01*
X138641240Y-95080240D02*
X138641240Y-100711000D01*
X133465000Y-102235000D02*
X133465000Y-100469000D01*
X133465000Y-100469000D02*
X134112000Y-99822000D01*
D15*
X138176000Y-114689000D02*
X138176000Y-106416943D01*
X139378497Y-115891497D02*
X138176000Y-114689000D01*
X138176000Y-106416943D02*
X139700000Y-104892943D01*
X136416999Y-101110999D02*
X136416999Y-109562997D01*
X136017000Y-100711000D02*
X136416999Y-101110999D01*
X136416999Y-109562997D02*
X137350500Y-110496498D01*
X137350500Y-110496498D02*
X137350500Y-111379000D01*
D14*
X134112000Y-99987720D02*
X135635282Y-101511002D01*
X134112000Y-99822000D02*
X134112000Y-99987720D01*
X135635282Y-101511002D02*
X135635282Y-108214488D01*
D15*
X152908000Y-114808000D02*
X150258681Y-114808000D01*
X157734000Y-112077500D02*
X156400500Y-113411000D01*
X157734000Y-104648000D02*
X157734000Y-112077500D01*
X156400500Y-113411000D02*
X154305000Y-113411000D01*
X151384000Y-101346000D02*
X154432000Y-101346000D01*
X154432000Y-101346000D02*
X157734000Y-104648000D01*
X154305000Y-113411000D02*
X152908000Y-114808000D01*
D14*
X133465000Y-106045000D02*
X133465000Y-108954000D01*
X133465000Y-108954000D02*
X135128000Y-110617000D01*
D15*
X135998001Y-110217001D02*
X136398000Y-110617000D01*
X134302500Y-107759500D02*
X134302500Y-108521500D01*
X134302500Y-108521500D02*
X135998001Y-110217001D01*
X146177000Y-100965000D02*
X143290999Y-100965000D01*
X142494000Y-101761999D02*
X142494000Y-103320315D01*
X142494000Y-103320315D02*
X142494000Y-103886000D01*
X146939000Y-101727000D02*
X146177000Y-100965000D01*
X143290999Y-100965000D02*
X142494000Y-101761999D01*
D14*
X148971000Y-91281000D02*
X148495000Y-91281000D01*
D15*
X144816681Y-113564819D02*
X143986513Y-114394987D01*
X144816681Y-110530465D02*
X144816681Y-113564819D01*
X146394001Y-108953145D02*
X144816681Y-110530465D01*
X146394001Y-105119001D02*
X146394001Y-108953145D01*
X145161000Y-103886000D02*
X146394001Y-105119001D01*
X143986513Y-114394987D02*
X143986513Y-116237013D01*
X143986513Y-116237013D02*
X144716500Y-116967000D01*
X143564905Y-110472085D02*
X143564905Y-109727275D01*
X143564905Y-109727275D02*
X144267340Y-109024840D01*
X143319500Y-116459000D02*
X143319500Y-115633500D01*
X142276999Y-109942179D02*
X144221921Y-107997257D01*
X144221921Y-107997257D02*
X144290370Y-107997257D01*
X142276999Y-114590999D02*
X142276999Y-109942179D01*
X144289907Y-113202593D02*
X144289907Y-110027593D01*
X143319500Y-115633500D02*
X142276999Y-114590999D01*
X141414500Y-114753819D02*
X141414500Y-109817617D01*
X142811500Y-116967000D02*
X143319500Y-116459000D01*
X143764000Y-102292685D02*
X143764000Y-101727000D01*
X142574558Y-115913877D02*
X141414500Y-114753819D01*
X143764000Y-107468117D02*
X143764000Y-102292685D01*
X144289907Y-110027593D02*
X145542000Y-108775500D01*
X141414500Y-109817617D02*
X143764000Y-107468117D01*
X143101910Y-114390590D02*
X144289907Y-113202593D01*
X146939000Y-100076000D02*
X146304000Y-99441000D01*
X146304000Y-99441000D02*
X146304000Y-97663000D01*
X147701000Y-96647000D02*
X148844000Y-97790000D01*
X147574000Y-96647000D02*
X147701000Y-96647000D01*
X148844000Y-100330000D02*
X148209000Y-100965000D01*
X148844000Y-97790000D02*
X148844000Y-100330000D01*
X142748004Y-116967000D02*
X142748004Y-117014513D01*
X142811500Y-116967000D02*
X142748004Y-116967000D01*
X156464000Y-97726500D02*
X155384500Y-96647000D01*
X156464000Y-101985653D02*
X156464000Y-97726500D01*
X155384500Y-96647000D02*
X155193998Y-96647000D01*
X153162000Y-100076000D02*
X153924000Y-99314000D01*
X152527000Y-100076000D02*
X153162000Y-100076000D01*
X152908000Y-96647000D02*
X152654000Y-96647000D01*
X153924000Y-99314000D02*
X153924000Y-97663000D01*
X153924000Y-97663000D02*
X152908000Y-96647000D01*
D14*
X133465000Y-106045000D02*
X133465000Y-104775000D01*
X133465000Y-103505000D02*
X133465000Y-102235000D01*
D15*
X146304000Y-97663000D02*
X145288000Y-96647000D01*
X145288000Y-96647000D02*
X145034000Y-96647000D01*
X148971000Y-103886000D02*
X148971000Y-107124500D01*
X148971000Y-107124500D02*
X147320000Y-108775500D01*
X150495000Y-108077000D02*
X149225000Y-108077000D01*
X151130000Y-107442000D02*
X150495000Y-108077000D01*
X150622000Y-103886004D02*
X151130000Y-104394004D01*
X151130000Y-104394004D02*
X151130000Y-107442000D01*
D14*
X139192000Y-110822500D02*
X139319000Y-110949500D01*
X139192000Y-109791501D02*
X139192000Y-110822500D01*
X137752240Y-99822000D02*
X138641240Y-100711000D01*
X134112000Y-99822000D02*
X137752240Y-99822000D01*
X140129500Y-93980000D02*
X140081000Y-94028500D01*
X140081000Y-94028500D02*
X140081000Y-101092000D01*
X140081000Y-101092000D02*
X138620500Y-102552500D01*
X139954000Y-110871000D02*
X139319000Y-110871000D01*
X140589000Y-110236000D02*
X139954000Y-110871000D01*
X138620500Y-102552500D02*
X140589000Y-104521000D01*
X140589000Y-104521000D02*
X140589000Y-110236000D01*
D15*
X137287000Y-108902500D02*
X137287000Y-100711000D01*
X137350500Y-108966000D02*
X137287000Y-108902500D01*
X153991667Y-103826667D02*
X153991667Y-110872648D01*
X153093840Y-102928840D02*
X153991667Y-103826667D01*
X153991667Y-110872648D02*
X151384000Y-113480315D01*
X151384000Y-113480315D02*
X151384000Y-114046000D01*
D17*
X153417000Y-110730309D02*
X151060811Y-113086499D01*
X151028994Y-113107758D01*
X151011443Y-113125309D01*
X150927235Y-113251338D01*
X150922794Y-113255778D01*
X150905173Y-113288744D01*
X150873693Y-113447009D01*
X150785837Y-113540566D01*
X150785837Y-112882809D01*
X150712028Y-112809000D01*
X149045808Y-112808999D01*
X149045807Y-112809000D01*
X146975972Y-112808999D01*
X146902163Y-112882808D01*
X146902163Y-113793000D01*
X145287000Y-113793000D01*
X145287000Y-113773513D01*
X145287235Y-113773161D01*
X145296733Y-113750231D01*
X145321260Y-113626924D01*
X145331145Y-113577229D01*
X145331145Y-113552409D01*
X145323681Y-113514885D01*
X145323681Y-111175499D01*
X146902163Y-111175499D01*
X146902163Y-112479191D01*
X146975972Y-112553000D01*
X148642191Y-112553001D01*
X148716000Y-112479192D01*
X148716000Y-112479191D01*
X148971999Y-112479191D01*
X149045808Y-112553000D01*
X150712028Y-112553001D01*
X150785837Y-112479192D01*
X150785837Y-111172742D01*
X150783681Y-111156366D01*
X150708863Y-110877142D01*
X150696120Y-110852662D01*
X150565010Y-110696410D01*
X150548121Y-110682239D01*
X150373880Y-110581641D01*
X150353163Y-110574100D01*
X150160462Y-110540122D01*
X150149501Y-110539163D01*
X149045809Y-110539163D01*
X148972000Y-110612972D01*
X148971999Y-112479191D01*
X148716000Y-112479191D01*
X148716001Y-110612972D01*
X148642192Y-110539163D01*
X147535742Y-110539163D01*
X147519366Y-110541319D01*
X147240142Y-110616137D01*
X147215662Y-110628880D01*
X147059410Y-110759990D01*
X147045239Y-110776879D01*
X146944641Y-110951120D01*
X146937100Y-110971837D01*
X146903122Y-111164538D01*
X146902163Y-111175499D01*
X145323681Y-111175499D01*
X145323681Y-110740470D01*
X145885082Y-110179069D01*
X147273464Y-109562011D01*
X147476941Y-109549209D01*
X147495356Y-109545244D01*
X147697505Y-109468859D01*
X147713940Y-109459654D01*
X147884691Y-109327206D01*
X147897694Y-109313576D01*
X147934950Y-109260565D01*
X148920875Y-108805522D01*
X148937373Y-108812205D01*
X149147501Y-108862652D01*
X149166268Y-108864278D01*
X149381941Y-108850709D01*
X149400356Y-108846744D01*
X149602505Y-108770359D01*
X149618940Y-108761154D01*
X149683598Y-108711000D01*
X153417000Y-108711000D01*
X153417000Y-110730309D01*
G04 #@! TA.AperFunction,Conductor*
G36*
X153417000Y-110730309D02*
G01*
X151060811Y-113086499D01*
X151028994Y-113107758D01*
X151011443Y-113125309D01*
X150927235Y-113251338D01*
X150922794Y-113255778D01*
X150905173Y-113288744D01*
X150873693Y-113447009D01*
X150785837Y-113540566D01*
X150785837Y-112882809D01*
X150712028Y-112809000D01*
X149045808Y-112808999D01*
X149045807Y-112809000D01*
X146975972Y-112808999D01*
X146902163Y-112882808D01*
X146902163Y-113793000D01*
X145287000Y-113793000D01*
X145287000Y-113773513D01*
X145287235Y-113773161D01*
X145296733Y-113750231D01*
X145321260Y-113626924D01*
X145331145Y-113577229D01*
X145331145Y-113552409D01*
X145323681Y-113514885D01*
X145323681Y-111175499D01*
X146902163Y-111175499D01*
X146902163Y-112479191D01*
X146975972Y-112553000D01*
X148642191Y-112553001D01*
X148716000Y-112479192D01*
X148716000Y-112479191D01*
X148971999Y-112479191D01*
X149045808Y-112553000D01*
X150712028Y-112553001D01*
X150785837Y-112479192D01*
X150785837Y-111172742D01*
X150783681Y-111156366D01*
X150708863Y-110877142D01*
X150696120Y-110852662D01*
X150565010Y-110696410D01*
X150548121Y-110682239D01*
X150373880Y-110581641D01*
X150353163Y-110574100D01*
X150160462Y-110540122D01*
X150149501Y-110539163D01*
X149045809Y-110539163D01*
X148972000Y-110612972D01*
X148971999Y-112479191D01*
X148716000Y-112479191D01*
X148716001Y-110612972D01*
X148642192Y-110539163D01*
X147535742Y-110539163D01*
X147519366Y-110541319D01*
X147240142Y-110616137D01*
X147215662Y-110628880D01*
X147059410Y-110759990D01*
X147045239Y-110776879D01*
X146944641Y-110951120D01*
X146937100Y-110971837D01*
X146903122Y-111164538D01*
X146902163Y-111175499D01*
X145323681Y-111175499D01*
X145323681Y-110740470D01*
X145885082Y-110179069D01*
X147273464Y-109562011D01*
X147476941Y-109549209D01*
X147495356Y-109545244D01*
X147697505Y-109468859D01*
X147713940Y-109459654D01*
X147884691Y-109327206D01*
X147897694Y-109313576D01*
X147934950Y-109260565D01*
X148920875Y-108805522D01*
X148937373Y-108812205D01*
X149147501Y-108862652D01*
X149166268Y-108864278D01*
X149381941Y-108850709D01*
X149400356Y-108846744D01*
X149602505Y-108770359D01*
X149618940Y-108761154D01*
X149683598Y-108711000D01*
X153417000Y-108711000D01*
X153417000Y-110730309D01*
G37*
G04 #@! TD.AperFunction*
D18*
X142052490Y-117184162D02*
X142057888Y-117202209D01*
X142149898Y-117397741D01*
X142160363Y-117413403D01*
X142305800Y-117573237D01*
X142320409Y-117585130D01*
X142506414Y-117695133D01*
X142523873Y-117702205D01*
X142734001Y-117752652D01*
X142752768Y-117754278D01*
X142968441Y-117740709D01*
X142986856Y-117736744D01*
X143189005Y-117660359D01*
X143205440Y-117651154D01*
X143376192Y-117518706D01*
X143389194Y-117505076D01*
X143513452Y-117328275D01*
X143521872Y-117311424D01*
X143588727Y-117105665D01*
X143591826Y-117086580D01*
X143591975Y-117067600D01*
X143940901Y-117067600D01*
X143957490Y-117184162D01*
X143962888Y-117202209D01*
X144054898Y-117397741D01*
X144065363Y-117413403D01*
X144210800Y-117573237D01*
X144225409Y-117585130D01*
X144411414Y-117695133D01*
X144428873Y-117702205D01*
X144639001Y-117752652D01*
X144657768Y-117754278D01*
X144873441Y-117740709D01*
X144891856Y-117736744D01*
X145094005Y-117660359D01*
X145110440Y-117651154D01*
X145281192Y-117518706D01*
X145294194Y-117505076D01*
X145418452Y-117328275D01*
X145426872Y-117311424D01*
X145493727Y-117105665D01*
X145495783Y-117093000D01*
X156287066Y-117093000D01*
X156324590Y-117100464D01*
X156349410Y-117100464D01*
X156399105Y-117090579D01*
X156514629Y-117067600D01*
X160131998Y-117067600D01*
X160132001Y-122366436D01*
X160131790Y-122367297D01*
X160118310Y-122461424D01*
X160104334Y-122492164D01*
X160082291Y-122517747D01*
X160053955Y-122536113D01*
X160008854Y-122549601D01*
X159969296Y-122552541D01*
X159957099Y-122554665D01*
X159952285Y-122556000D01*
X137745560Y-122556000D01*
X137744703Y-122555790D01*
X137650576Y-122542310D01*
X137619836Y-122528334D01*
X137594253Y-122506291D01*
X137575887Y-122477955D01*
X137562399Y-122432854D01*
X137559459Y-122393296D01*
X137557336Y-122381100D01*
X137555999Y-122376280D01*
X137555999Y-119815218D01*
X139446694Y-119815218D01*
X139447649Y-119971629D01*
X139448938Y-119983941D01*
X139456202Y-120019333D01*
X139459604Y-120055312D01*
X139461971Y-120067462D01*
X139506787Y-120217317D01*
X139511480Y-120228773D01*
X139528390Y-120260712D01*
X139541750Y-120294282D01*
X139547432Y-120305279D01*
X139632506Y-120436533D01*
X139640226Y-120446212D01*
X139665424Y-120472124D01*
X139687662Y-120500589D01*
X139696204Y-120509550D01*
X139814696Y-120611651D01*
X139824822Y-120618774D01*
X139856274Y-120636569D01*
X139885616Y-120657653D01*
X139896329Y-120663857D01*
X140038715Y-120728596D01*
X140050433Y-120732591D01*
X140085618Y-120740843D01*
X140119694Y-120752843D01*
X140131717Y-120755791D01*
X140286551Y-120777965D01*
X140298918Y-120778510D01*
X140345281Y-120776000D01*
X157316749Y-120776000D01*
X157336840Y-120779869D01*
X157349168Y-120781007D01*
X157367754Y-120780893D01*
X157380067Y-120779604D01*
X157389912Y-120777583D01*
X157399954Y-120778004D01*
X157412316Y-120777307D01*
X157566869Y-120753244D01*
X157578855Y-120750149D01*
X157612789Y-120737731D01*
X157647866Y-120729050D01*
X157659533Y-120724913D01*
X157801119Y-120658438D01*
X157811756Y-120652104D01*
X157840836Y-120630663D01*
X157872068Y-120612486D01*
X157882107Y-120605239D01*
X157999343Y-120501698D01*
X158007774Y-120492633D01*
X158029670Y-120463892D01*
X158054542Y-120437682D01*
X158062142Y-120427910D01*
X158145607Y-120295627D01*
X158151155Y-120284560D01*
X158164107Y-120250821D01*
X158180622Y-120218686D01*
X158185174Y-120207174D01*
X158228156Y-120056783D01*
X158230375Y-120044604D01*
X158233336Y-120008591D01*
X158240168Y-119973109D01*
X158241306Y-119960782D01*
X158240351Y-119804371D01*
X158239062Y-119792058D01*
X158231797Y-119756669D01*
X158228396Y-119720691D01*
X158226029Y-119708540D01*
X158181213Y-119558683D01*
X158176520Y-119547227D01*
X158159614Y-119515295D01*
X158146252Y-119481719D01*
X158140569Y-119470720D01*
X158055493Y-119339467D01*
X158047774Y-119329789D01*
X158022588Y-119303889D01*
X158000339Y-119275411D01*
X157991797Y-119266449D01*
X157873303Y-119164349D01*
X157863178Y-119157226D01*
X157831726Y-119139432D01*
X157802385Y-119118348D01*
X157791671Y-119112143D01*
X157649284Y-119047404D01*
X157637566Y-119043409D01*
X157602389Y-119035159D01*
X157568307Y-119023157D01*
X157556283Y-119020209D01*
X157401449Y-118998035D01*
X157389082Y-118997490D01*
X157342719Y-119000000D01*
X140371251Y-119000000D01*
X140351160Y-118996131D01*
X140338832Y-118994993D01*
X140320246Y-118995107D01*
X140307933Y-118996396D01*
X140298087Y-118998417D01*
X140288045Y-118997996D01*
X140275684Y-118998693D01*
X140121132Y-119022756D01*
X140109145Y-119025851D01*
X140075214Y-119038268D01*
X140040135Y-119046949D01*
X140028467Y-119051087D01*
X139886882Y-119117562D01*
X139876246Y-119123896D01*
X139847168Y-119145334D01*
X139815931Y-119163514D01*
X139805893Y-119170760D01*
X139688657Y-119274301D01*
X139680226Y-119283366D01*
X139658327Y-119312111D01*
X139633459Y-119338317D01*
X139625859Y-119348089D01*
X139542393Y-119480373D01*
X139536844Y-119491440D01*
X139523895Y-119525175D01*
X139507378Y-119557313D01*
X139502826Y-119568826D01*
X139459844Y-119719217D01*
X139457625Y-119731396D01*
X139454664Y-119767409D01*
X139447832Y-119802891D01*
X139446694Y-119815218D01*
X137555999Y-119815218D01*
X137556001Y-117075515D01*
X137557357Y-117067600D01*
X142035901Y-117067600D01*
X142052490Y-117184162D01*
G04 #@! TA.AperFunction,NonConductor*
G36*
X142052490Y-117184162D02*
G01*
X142057888Y-117202209D01*
X142149898Y-117397741D01*
X142160363Y-117413403D01*
X142305800Y-117573237D01*
X142320409Y-117585130D01*
X142506414Y-117695133D01*
X142523873Y-117702205D01*
X142734001Y-117752652D01*
X142752768Y-117754278D01*
X142968441Y-117740709D01*
X142986856Y-117736744D01*
X143189005Y-117660359D01*
X143205440Y-117651154D01*
X143376192Y-117518706D01*
X143389194Y-117505076D01*
X143513452Y-117328275D01*
X143521872Y-117311424D01*
X143588727Y-117105665D01*
X143591826Y-117086580D01*
X143591975Y-117067600D01*
X143940901Y-117067600D01*
X143957490Y-117184162D01*
X143962888Y-117202209D01*
X144054898Y-117397741D01*
X144065363Y-117413403D01*
X144210800Y-117573237D01*
X144225409Y-117585130D01*
X144411414Y-117695133D01*
X144428873Y-117702205D01*
X144639001Y-117752652D01*
X144657768Y-117754278D01*
X144873441Y-117740709D01*
X144891856Y-117736744D01*
X145094005Y-117660359D01*
X145110440Y-117651154D01*
X145281192Y-117518706D01*
X145294194Y-117505076D01*
X145418452Y-117328275D01*
X145426872Y-117311424D01*
X145493727Y-117105665D01*
X145495783Y-117093000D01*
X156287066Y-117093000D01*
X156324590Y-117100464D01*
X156349410Y-117100464D01*
X156399105Y-117090579D01*
X156514629Y-117067600D01*
X160131998Y-117067600D01*
X160132001Y-122366436D01*
X160131790Y-122367297D01*
X160118310Y-122461424D01*
X160104334Y-122492164D01*
X160082291Y-122517747D01*
X160053955Y-122536113D01*
X160008854Y-122549601D01*
X159969296Y-122552541D01*
X159957099Y-122554665D01*
X159952285Y-122556000D01*
X137745560Y-122556000D01*
X137744703Y-122555790D01*
X137650576Y-122542310D01*
X137619836Y-122528334D01*
X137594253Y-122506291D01*
X137575887Y-122477955D01*
X137562399Y-122432854D01*
X137559459Y-122393296D01*
X137557336Y-122381100D01*
X137555999Y-122376280D01*
X137555999Y-119815218D01*
X139446694Y-119815218D01*
X139447649Y-119971629D01*
X139448938Y-119983941D01*
X139456202Y-120019333D01*
X139459604Y-120055312D01*
X139461971Y-120067462D01*
X139506787Y-120217317D01*
X139511480Y-120228773D01*
X139528390Y-120260712D01*
X139541750Y-120294282D01*
X139547432Y-120305279D01*
X139632506Y-120436533D01*
X139640226Y-120446212D01*
X139665424Y-120472124D01*
X139687662Y-120500589D01*
X139696204Y-120509550D01*
X139814696Y-120611651D01*
X139824822Y-120618774D01*
X139856274Y-120636569D01*
X139885616Y-120657653D01*
X139896329Y-120663857D01*
X140038715Y-120728596D01*
X140050433Y-120732591D01*
X140085618Y-120740843D01*
X140119694Y-120752843D01*
X140131717Y-120755791D01*
X140286551Y-120777965D01*
X140298918Y-120778510D01*
X140345281Y-120776000D01*
X157316749Y-120776000D01*
X157336840Y-120779869D01*
X157349168Y-120781007D01*
X157367754Y-120780893D01*
X157380067Y-120779604D01*
X157389912Y-120777583D01*
X157399954Y-120778004D01*
X157412316Y-120777307D01*
X157566869Y-120753244D01*
X157578855Y-120750149D01*
X157612789Y-120737731D01*
X157647866Y-120729050D01*
X157659533Y-120724913D01*
X157801119Y-120658438D01*
X157811756Y-120652104D01*
X157840836Y-120630663D01*
X157872068Y-120612486D01*
X157882107Y-120605239D01*
X157999343Y-120501698D01*
X158007774Y-120492633D01*
X158029670Y-120463892D01*
X158054542Y-120437682D01*
X158062142Y-120427910D01*
X158145607Y-120295627D01*
X158151155Y-120284560D01*
X158164107Y-120250821D01*
X158180622Y-120218686D01*
X158185174Y-120207174D01*
X158228156Y-120056783D01*
X158230375Y-120044604D01*
X158233336Y-120008591D01*
X158240168Y-119973109D01*
X158241306Y-119960782D01*
X158240351Y-119804371D01*
X158239062Y-119792058D01*
X158231797Y-119756669D01*
X158228396Y-119720691D01*
X158226029Y-119708540D01*
X158181213Y-119558683D01*
X158176520Y-119547227D01*
X158159614Y-119515295D01*
X158146252Y-119481719D01*
X158140569Y-119470720D01*
X158055493Y-119339467D01*
X158047774Y-119329789D01*
X158022588Y-119303889D01*
X158000339Y-119275411D01*
X157991797Y-119266449D01*
X157873303Y-119164349D01*
X157863178Y-119157226D01*
X157831726Y-119139432D01*
X157802385Y-119118348D01*
X157791671Y-119112143D01*
X157649284Y-119047404D01*
X157637566Y-119043409D01*
X157602389Y-119035159D01*
X157568307Y-119023157D01*
X157556283Y-119020209D01*
X157401449Y-118998035D01*
X157389082Y-118997490D01*
X157342719Y-119000000D01*
X140371251Y-119000000D01*
X140351160Y-118996131D01*
X140338832Y-118994993D01*
X140320246Y-118995107D01*
X140307933Y-118996396D01*
X140298087Y-118998417D01*
X140288045Y-118997996D01*
X140275684Y-118998693D01*
X140121132Y-119022756D01*
X140109145Y-119025851D01*
X140075214Y-119038268D01*
X140040135Y-119046949D01*
X140028467Y-119051087D01*
X139886882Y-119117562D01*
X139876246Y-119123896D01*
X139847168Y-119145334D01*
X139815931Y-119163514D01*
X139805893Y-119170760D01*
X139688657Y-119274301D01*
X139680226Y-119283366D01*
X139658327Y-119312111D01*
X139633459Y-119338317D01*
X139625859Y-119348089D01*
X139542393Y-119480373D01*
X139536844Y-119491440D01*
X139523895Y-119525175D01*
X139507378Y-119557313D01*
X139502826Y-119568826D01*
X139459844Y-119719217D01*
X139457625Y-119731396D01*
X139454664Y-119767409D01*
X139447832Y-119802891D01*
X139446694Y-119815218D01*
X137555999Y-119815218D01*
X137556001Y-117075515D01*
X137557357Y-117067600D01*
X142035901Y-117067600D01*
X142052490Y-117184162D01*
G37*
G04 #@! TD.AperFunction*
X159943297Y-85724210D02*
X160037426Y-85737690D01*
X160068166Y-85751667D01*
X160093746Y-85773708D01*
X160112113Y-85802045D01*
X160125601Y-85847146D01*
X160128541Y-85886704D01*
X160130664Y-85898900D01*
X160132001Y-85903720D01*
X160131999Y-91212400D01*
X151028976Y-91212400D01*
X151028976Y-89874810D01*
X151027763Y-89862490D01*
X151004421Y-89745142D01*
X150994923Y-89722211D01*
X150924995Y-89617556D01*
X150907444Y-89600005D01*
X150802789Y-89530077D01*
X150779858Y-89520579D01*
X150662510Y-89497237D01*
X150650190Y-89496024D01*
X147037810Y-89496024D01*
X147025490Y-89497237D01*
X146908142Y-89520579D01*
X146885211Y-89530077D01*
X146780556Y-89600005D01*
X146763005Y-89617556D01*
X146693077Y-89722211D01*
X146683579Y-89745142D01*
X146660237Y-89862490D01*
X146659024Y-89874810D01*
X146659024Y-91212400D01*
X137556874Y-91212400D01*
X137556001Y-91206888D01*
X137556000Y-88381121D01*
X139427639Y-88381121D01*
X139438963Y-88535315D01*
X139441075Y-88547514D01*
X139450080Y-88580094D01*
X139455106Y-88613524D01*
X139458137Y-88625527D01*
X139510509Y-88770996D01*
X139515824Y-88782177D01*
X139533261Y-88811140D01*
X139547090Y-88841984D01*
X139553238Y-88852729D01*
X139642801Y-88978757D01*
X139650927Y-88988097D01*
X139675510Y-89011303D01*
X139697126Y-89037294D01*
X139705937Y-89045991D01*
X139826093Y-89143290D01*
X139836431Y-89150101D01*
X139866348Y-89165841D01*
X139894156Y-89185060D01*
X139904982Y-89191067D01*
X140046876Y-89252470D01*
X140058665Y-89256249D01*
X140091716Y-89263364D01*
X140123664Y-89274397D01*
X140135706Y-89277271D01*
X140288885Y-89298254D01*
X140301256Y-89298724D01*
X140346452Y-89296000D01*
X157329591Y-89296000D01*
X157362644Y-89300088D01*
X157375020Y-89300396D01*
X157463915Y-89293868D01*
X157476115Y-89291756D01*
X157497126Y-89285948D01*
X157518837Y-89284068D01*
X157531008Y-89281796D01*
X157679479Y-89238661D01*
X157690972Y-89234058D01*
X157720971Y-89218475D01*
X157752624Y-89206609D01*
X157763735Y-89201148D01*
X157895136Y-89119676D01*
X157904967Y-89112153D01*
X157929669Y-89089077D01*
X157956967Y-89069134D01*
X157966199Y-89060887D01*
X158070852Y-88947079D01*
X158078299Y-88937188D01*
X158095887Y-88908316D01*
X158116813Y-88881771D01*
X158123488Y-88871344D01*
X158193679Y-88733587D01*
X158198191Y-88722058D01*
X158207364Y-88689531D01*
X158220386Y-88658326D01*
X158224011Y-88646488D01*
X158254571Y-88494928D01*
X158255816Y-88482610D01*
X158255905Y-88448795D01*
X158260053Y-88415255D01*
X158260361Y-88402879D01*
X158249037Y-88248685D01*
X158246925Y-88236486D01*
X158237920Y-88203906D01*
X158232894Y-88170476D01*
X158229863Y-88158473D01*
X158177492Y-88013005D01*
X158172177Y-88001825D01*
X158154742Y-87972864D01*
X158140909Y-87942014D01*
X158134762Y-87931269D01*
X158045199Y-87805243D01*
X158037073Y-87795903D01*
X158012490Y-87772697D01*
X157990874Y-87746706D01*
X157982063Y-87738009D01*
X157861907Y-87640710D01*
X157851569Y-87633899D01*
X157821647Y-87618157D01*
X157793844Y-87598941D01*
X157783020Y-87592934D01*
X157641125Y-87531531D01*
X157629337Y-87527751D01*
X157596287Y-87520636D01*
X157564334Y-87509603D01*
X157552293Y-87506729D01*
X157399115Y-87485746D01*
X157386744Y-87485276D01*
X157341548Y-87488000D01*
X140358409Y-87488000D01*
X140325356Y-87483912D01*
X140312980Y-87483604D01*
X140224086Y-87490132D01*
X140211889Y-87492244D01*
X140190875Y-87498051D01*
X140169158Y-87499932D01*
X140156989Y-87502204D01*
X140008521Y-87545339D01*
X139997028Y-87549942D01*
X139967029Y-87565525D01*
X139935376Y-87577391D01*
X139924265Y-87582852D01*
X139792864Y-87664324D01*
X139783033Y-87671847D01*
X139758331Y-87694922D01*
X139731032Y-87714866D01*
X139721800Y-87723113D01*
X139617149Y-87836921D01*
X139609703Y-87846811D01*
X139592112Y-87875687D01*
X139571187Y-87902230D01*
X139564512Y-87912656D01*
X139494321Y-88050414D01*
X139489809Y-88061942D01*
X139480633Y-88094475D01*
X139467614Y-88125675D01*
X139463989Y-88137512D01*
X139433429Y-88289072D01*
X139432184Y-88301390D01*
X139432095Y-88335205D01*
X139427947Y-88368745D01*
X139427639Y-88381121D01*
X137556000Y-88381121D01*
X137555999Y-85913564D01*
X137556210Y-85912703D01*
X137569690Y-85818574D01*
X137583667Y-85787834D01*
X137605708Y-85762254D01*
X137634045Y-85743887D01*
X137679146Y-85730399D01*
X137718704Y-85727459D01*
X137730901Y-85725335D01*
X137735715Y-85724000D01*
X159942440Y-85724000D01*
X159943297Y-85724210D01*
G04 #@! TA.AperFunction,NonConductor*
G36*
X159943297Y-85724210D02*
G01*
X160037426Y-85737690D01*
X160068166Y-85751667D01*
X160093746Y-85773708D01*
X160112113Y-85802045D01*
X160125601Y-85847146D01*
X160128541Y-85886704D01*
X160130664Y-85898900D01*
X160132001Y-85903720D01*
X160131999Y-91212400D01*
X151028976Y-91212400D01*
X151028976Y-89874810D01*
X151027763Y-89862490D01*
X151004421Y-89745142D01*
X150994923Y-89722211D01*
X150924995Y-89617556D01*
X150907444Y-89600005D01*
X150802789Y-89530077D01*
X150779858Y-89520579D01*
X150662510Y-89497237D01*
X150650190Y-89496024D01*
X147037810Y-89496024D01*
X147025490Y-89497237D01*
X146908142Y-89520579D01*
X146885211Y-89530077D01*
X146780556Y-89600005D01*
X146763005Y-89617556D01*
X146693077Y-89722211D01*
X146683579Y-89745142D01*
X146660237Y-89862490D01*
X146659024Y-89874810D01*
X146659024Y-91212400D01*
X137556874Y-91212400D01*
X137556001Y-91206888D01*
X137556000Y-88381121D01*
X139427639Y-88381121D01*
X139438963Y-88535315D01*
X139441075Y-88547514D01*
X139450080Y-88580094D01*
X139455106Y-88613524D01*
X139458137Y-88625527D01*
X139510509Y-88770996D01*
X139515824Y-88782177D01*
X139533261Y-88811140D01*
X139547090Y-88841984D01*
X139553238Y-88852729D01*
X139642801Y-88978757D01*
X139650927Y-88988097D01*
X139675510Y-89011303D01*
X139697126Y-89037294D01*
X139705937Y-89045991D01*
X139826093Y-89143290D01*
X139836431Y-89150101D01*
X139866348Y-89165841D01*
X139894156Y-89185060D01*
X139904982Y-89191067D01*
X140046876Y-89252470D01*
X140058665Y-89256249D01*
X140091716Y-89263364D01*
X140123664Y-89274397D01*
X140135706Y-89277271D01*
X140288885Y-89298254D01*
X140301256Y-89298724D01*
X140346452Y-89296000D01*
X157329591Y-89296000D01*
X157362644Y-89300088D01*
X157375020Y-89300396D01*
X157463915Y-89293868D01*
X157476115Y-89291756D01*
X157497126Y-89285948D01*
X157518837Y-89284068D01*
X157531008Y-89281796D01*
X157679479Y-89238661D01*
X157690972Y-89234058D01*
X157720971Y-89218475D01*
X157752624Y-89206609D01*
X157763735Y-89201148D01*
X157895136Y-89119676D01*
X157904967Y-89112153D01*
X157929669Y-89089077D01*
X157956967Y-89069134D01*
X157966199Y-89060887D01*
X158070852Y-88947079D01*
X158078299Y-88937188D01*
X158095887Y-88908316D01*
X158116813Y-88881771D01*
X158123488Y-88871344D01*
X158193679Y-88733587D01*
X158198191Y-88722058D01*
X158207364Y-88689531D01*
X158220386Y-88658326D01*
X158224011Y-88646488D01*
X158254571Y-88494928D01*
X158255816Y-88482610D01*
X158255905Y-88448795D01*
X158260053Y-88415255D01*
X158260361Y-88402879D01*
X158249037Y-88248685D01*
X158246925Y-88236486D01*
X158237920Y-88203906D01*
X158232894Y-88170476D01*
X158229863Y-88158473D01*
X158177492Y-88013005D01*
X158172177Y-88001825D01*
X158154742Y-87972864D01*
X158140909Y-87942014D01*
X158134762Y-87931269D01*
X158045199Y-87805243D01*
X158037073Y-87795903D01*
X158012490Y-87772697D01*
X157990874Y-87746706D01*
X157982063Y-87738009D01*
X157861907Y-87640710D01*
X157851569Y-87633899D01*
X157821647Y-87618157D01*
X157793844Y-87598941D01*
X157783020Y-87592934D01*
X157641125Y-87531531D01*
X157629337Y-87527751D01*
X157596287Y-87520636D01*
X157564334Y-87509603D01*
X157552293Y-87506729D01*
X157399115Y-87485746D01*
X157386744Y-87485276D01*
X157341548Y-87488000D01*
X140358409Y-87488000D01*
X140325356Y-87483912D01*
X140312980Y-87483604D01*
X140224086Y-87490132D01*
X140211889Y-87492244D01*
X140190875Y-87498051D01*
X140169158Y-87499932D01*
X140156989Y-87502204D01*
X140008521Y-87545339D01*
X139997028Y-87549942D01*
X139967029Y-87565525D01*
X139935376Y-87577391D01*
X139924265Y-87582852D01*
X139792864Y-87664324D01*
X139783033Y-87671847D01*
X139758331Y-87694922D01*
X139731032Y-87714866D01*
X139721800Y-87723113D01*
X139617149Y-87836921D01*
X139609703Y-87846811D01*
X139592112Y-87875687D01*
X139571187Y-87902230D01*
X139564512Y-87912656D01*
X139494321Y-88050414D01*
X139489809Y-88061942D01*
X139480633Y-88094475D01*
X139467614Y-88125675D01*
X139463989Y-88137512D01*
X139433429Y-88289072D01*
X139432184Y-88301390D01*
X139432095Y-88335205D01*
X139427947Y-88368745D01*
X139427639Y-88381121D01*
X137556000Y-88381121D01*
X137555999Y-85913564D01*
X137556210Y-85912703D01*
X137569690Y-85818574D01*
X137583667Y-85787834D01*
X137605708Y-85762254D01*
X137634045Y-85743887D01*
X137679146Y-85730399D01*
X137718704Y-85727459D01*
X137730901Y-85725335D01*
X137735715Y-85724000D01*
X159942440Y-85724000D01*
X159943297Y-85724210D01*
G37*
G04 #@! TD.AperFunction*
M02*
