G04 #@! TF.GenerationSoftware,KiCad,Pcbnew,5.99.0-unknown-r19130-2af6d01f*
G04 #@! TF.CreationDate,2020-08-04T10:25:42+02:00*
G04 #@! TF.ProjectId,ada-watch,6164612d-7761-4746-9368-2e6b69636164,rev?*
G04 #@! TF.SameCoordinates,Original*
G04 #@! TF.FileFunction,Paste,Top*
G04 #@! TF.FilePolarity,Positive*
%FSLAX46Y46*%
G04 Gerber Fmt 4.6, Leading zero omitted, Abs format (unit mm)*
G04 Created by KiCad (PCBNEW 5.99.0-unknown-r19130-2af6d01f) date 2020-08-04 10:25:42*
%MOMM*%
%LPD*%
G01*
G04 APERTURE LIST*
%ADD10R,2.100000X0.600000*%
%ADD11R,1.450000X0.450000*%
%ADD12R,1.050000X0.650000*%
%ADD13R,0.900000X0.800000*%
G04 APERTURE END LIST*
D10*
X150241000Y-110109000D03*
X157441000Y-110109000D03*
X157441000Y-111009000D03*
X150241000Y-111009000D03*
G36*
G01*
X141509000Y-109281250D02*
X141509000Y-109793750D01*
G75*
G02*
X141290250Y-110012500I-218750J0D01*
G01*
X140852750Y-110012500D01*
G75*
G02*
X140634000Y-109793750I0J218750D01*
G01*
X140634000Y-109281250D01*
G75*
G02*
X140852750Y-109062500I218750J0D01*
G01*
X141290250Y-109062500D01*
G75*
G02*
X141509000Y-109281250I0J-218750D01*
G01*
G37*
G36*
G01*
X143084000Y-109281250D02*
X143084000Y-109793750D01*
G75*
G02*
X142865250Y-110012500I-218750J0D01*
G01*
X142427750Y-110012500D01*
G75*
G02*
X142209000Y-109793750I0J218750D01*
G01*
X142209000Y-109281250D01*
G75*
G02*
X142427750Y-109062500I218750J0D01*
G01*
X142865250Y-109062500D01*
G75*
G02*
X143084000Y-109281250I0J-218750D01*
G01*
G37*
D11*
X146714000Y-110930500D03*
X146714000Y-111580500D03*
X146714000Y-112230500D03*
X146714000Y-112880500D03*
X146714000Y-113530500D03*
X146714000Y-114180500D03*
X146714000Y-114830500D03*
X146714000Y-115480500D03*
X146714000Y-116130500D03*
X146714000Y-116780500D03*
X140814000Y-116780500D03*
X140814000Y-116130500D03*
X140814000Y-115480500D03*
X140814000Y-114830500D03*
X140814000Y-114180500D03*
X140814000Y-113530500D03*
X140814000Y-112880500D03*
X140814000Y-112230500D03*
X140814000Y-111580500D03*
X140814000Y-110930500D03*
D12*
X153500000Y-113606000D03*
X157650000Y-113606000D03*
X153500000Y-115756000D03*
X157650000Y-115756000D03*
G36*
G01*
X136254500Y-105709000D02*
X135779500Y-105709000D01*
G75*
G02*
X135542000Y-105471500I0J237500D01*
G01*
X135542000Y-104896500D01*
G75*
G02*
X135779500Y-104659000I237500J0D01*
G01*
X136254500Y-104659000D01*
G75*
G02*
X136492000Y-104896500I0J-237500D01*
G01*
X136492000Y-105471500D01*
G75*
G02*
X136254500Y-105709000I-237500J0D01*
G01*
G37*
G36*
G01*
X136254500Y-107459000D02*
X135779500Y-107459000D01*
G75*
G02*
X135542000Y-107221500I0J237500D01*
G01*
X135542000Y-106646500D01*
G75*
G02*
X135779500Y-106409000I237500J0D01*
G01*
X136254500Y-106409000D01*
G75*
G02*
X136492000Y-106646500I0J-237500D01*
G01*
X136492000Y-107221500D01*
G75*
G02*
X136254500Y-107459000I-237500J0D01*
G01*
G37*
G36*
G01*
X139589500Y-102853000D02*
X140064500Y-102853000D01*
G75*
G02*
X140302000Y-103090500I0J-237500D01*
G01*
X140302000Y-103665500D01*
G75*
G02*
X140064500Y-103903000I-237500J0D01*
G01*
X139589500Y-103903000D01*
G75*
G02*
X139352000Y-103665500I0J237500D01*
G01*
X139352000Y-103090500D01*
G75*
G02*
X139589500Y-102853000I237500J0D01*
G01*
G37*
G36*
G01*
X139589500Y-101103000D02*
X140064500Y-101103000D01*
G75*
G02*
X140302000Y-101340500I0J-237500D01*
G01*
X140302000Y-101915500D01*
G75*
G02*
X140064500Y-102153000I-237500J0D01*
G01*
X139589500Y-102153000D01*
G75*
G02*
X139352000Y-101915500I0J237500D01*
G01*
X139352000Y-101340500D01*
G75*
G02*
X139589500Y-101103000I237500J0D01*
G01*
G37*
G36*
G01*
X136127500Y-98202000D02*
X135652500Y-98202000D01*
G75*
G02*
X135415000Y-97964500I0J237500D01*
G01*
X135415000Y-97389500D01*
G75*
G02*
X135652500Y-97152000I237500J0D01*
G01*
X136127500Y-97152000D01*
G75*
G02*
X136365000Y-97389500I0J-237500D01*
G01*
X136365000Y-97964500D01*
G75*
G02*
X136127500Y-98202000I-237500J0D01*
G01*
G37*
G36*
G01*
X136127500Y-99952000D02*
X135652500Y-99952000D01*
G75*
G02*
X135415000Y-99714500I0J237500D01*
G01*
X135415000Y-99139500D01*
G75*
G02*
X135652500Y-98902000I237500J0D01*
G01*
X136127500Y-98902000D01*
G75*
G02*
X136365000Y-99139500I0J-237500D01*
G01*
X136365000Y-99714500D01*
G75*
G02*
X136127500Y-99952000I-237500J0D01*
G01*
G37*
G36*
G01*
X161560500Y-98902000D02*
X162035500Y-98902000D01*
G75*
G02*
X162273000Y-99139500I0J-237500D01*
G01*
X162273000Y-99714500D01*
G75*
G02*
X162035500Y-99952000I-237500J0D01*
G01*
X161560500Y-99952000D01*
G75*
G02*
X161323000Y-99714500I0J237500D01*
G01*
X161323000Y-99139500D01*
G75*
G02*
X161560500Y-98902000I237500J0D01*
G01*
G37*
G36*
G01*
X161560500Y-97152000D02*
X162035500Y-97152000D01*
G75*
G02*
X162273000Y-97389500I0J-237500D01*
G01*
X162273000Y-97964500D01*
G75*
G02*
X162035500Y-98202000I-237500J0D01*
G01*
X161560500Y-98202000D01*
G75*
G02*
X161323000Y-97964500I0J237500D01*
G01*
X161323000Y-97389500D01*
G75*
G02*
X161560500Y-97152000I237500J0D01*
G01*
G37*
G36*
G01*
X161560500Y-106776000D02*
X162035500Y-106776000D01*
G75*
G02*
X162273000Y-107013500I0J-237500D01*
G01*
X162273000Y-107588500D01*
G75*
G02*
X162035500Y-107826000I-237500J0D01*
G01*
X161560500Y-107826000D01*
G75*
G02*
X161323000Y-107588500I0J237500D01*
G01*
X161323000Y-107013500D01*
G75*
G02*
X161560500Y-106776000I237500J0D01*
G01*
G37*
G36*
G01*
X161560500Y-105026000D02*
X162035500Y-105026000D01*
G75*
G02*
X162273000Y-105263500I0J-237500D01*
G01*
X162273000Y-105838500D01*
G75*
G02*
X162035500Y-106076000I-237500J0D01*
G01*
X161560500Y-106076000D01*
G75*
G02*
X161323000Y-105838500I0J237500D01*
G01*
X161323000Y-105263500D01*
G75*
G02*
X161560500Y-105026000I237500J0D01*
G01*
G37*
G36*
G01*
X152129500Y-103536000D02*
X151654500Y-103536000D01*
G75*
G02*
X151417000Y-103298500I0J237500D01*
G01*
X151417000Y-102723500D01*
G75*
G02*
X151654500Y-102486000I237500J0D01*
G01*
X152129500Y-102486000D01*
G75*
G02*
X152367000Y-102723500I0J-237500D01*
G01*
X152367000Y-103298500D01*
G75*
G02*
X152129500Y-103536000I-237500J0D01*
G01*
G37*
G36*
G01*
X152129500Y-105286000D02*
X151654500Y-105286000D01*
G75*
G02*
X151417000Y-105048500I0J237500D01*
G01*
X151417000Y-104473500D01*
G75*
G02*
X151654500Y-104236000I237500J0D01*
G01*
X152129500Y-104236000D01*
G75*
G02*
X152367000Y-104473500I0J-237500D01*
G01*
X152367000Y-105048500D01*
G75*
G02*
X152129500Y-105286000I-237500J0D01*
G01*
G37*
G36*
G01*
X149749500Y-101315000D02*
X150224500Y-101315000D01*
G75*
G02*
X150462000Y-101552500I0J-237500D01*
G01*
X150462000Y-102127500D01*
G75*
G02*
X150224500Y-102365000I-237500J0D01*
G01*
X149749500Y-102365000D01*
G75*
G02*
X149512000Y-102127500I0J237500D01*
G01*
X149512000Y-101552500D01*
G75*
G02*
X149749500Y-101315000I237500J0D01*
G01*
G37*
G36*
G01*
X149749500Y-99565000D02*
X150224500Y-99565000D01*
G75*
G02*
X150462000Y-99802500I0J-237500D01*
G01*
X150462000Y-100377500D01*
G75*
G02*
X150224500Y-100615000I-237500J0D01*
G01*
X149749500Y-100615000D01*
G75*
G02*
X149512000Y-100377500I0J237500D01*
G01*
X149512000Y-99802500D01*
G75*
G02*
X149749500Y-99565000I237500J0D01*
G01*
G37*
G36*
G01*
X153559500Y-101301000D02*
X154034500Y-101301000D01*
G75*
G02*
X154272000Y-101538500I0J-237500D01*
G01*
X154272000Y-102113500D01*
G75*
G02*
X154034500Y-102351000I-237500J0D01*
G01*
X153559500Y-102351000D01*
G75*
G02*
X153322000Y-102113500I0J237500D01*
G01*
X153322000Y-101538500D01*
G75*
G02*
X153559500Y-101301000I237500J0D01*
G01*
G37*
G36*
G01*
X153559500Y-99551000D02*
X154034500Y-99551000D01*
G75*
G02*
X154272000Y-99788500I0J-237500D01*
G01*
X154272000Y-100363500D01*
G75*
G02*
X154034500Y-100601000I-237500J0D01*
G01*
X153559500Y-100601000D01*
G75*
G02*
X153322000Y-100363500I0J237500D01*
G01*
X153322000Y-99788500D01*
G75*
G02*
X153559500Y-99551000I237500J0D01*
G01*
G37*
G36*
G01*
X145304500Y-101315000D02*
X145779500Y-101315000D01*
G75*
G02*
X146017000Y-101552500I0J-237500D01*
G01*
X146017000Y-102127500D01*
G75*
G02*
X145779500Y-102365000I-237500J0D01*
G01*
X145304500Y-102365000D01*
G75*
G02*
X145067000Y-102127500I0J237500D01*
G01*
X145067000Y-101552500D01*
G75*
G02*
X145304500Y-101315000I237500J0D01*
G01*
G37*
G36*
G01*
X145304500Y-99565000D02*
X145779500Y-99565000D01*
G75*
G02*
X146017000Y-99802500I0J-237500D01*
G01*
X146017000Y-100377500D01*
G75*
G02*
X145779500Y-100615000I-237500J0D01*
G01*
X145304500Y-100615000D01*
G75*
G02*
X145067000Y-100377500I0J237500D01*
G01*
X145067000Y-99802500D01*
G75*
G02*
X145304500Y-99565000I237500J0D01*
G01*
G37*
G36*
G01*
X155464500Y-104236000D02*
X155939500Y-104236000D01*
G75*
G02*
X156177000Y-104473500I0J-237500D01*
G01*
X156177000Y-105048500D01*
G75*
G02*
X155939500Y-105286000I-237500J0D01*
G01*
X155464500Y-105286000D01*
G75*
G02*
X155227000Y-105048500I0J237500D01*
G01*
X155227000Y-104473500D01*
G75*
G02*
X155464500Y-104236000I237500J0D01*
G01*
G37*
G36*
G01*
X155464500Y-102486000D02*
X155939500Y-102486000D01*
G75*
G02*
X156177000Y-102723500I0J-237500D01*
G01*
X156177000Y-103298500D01*
G75*
G02*
X155939500Y-103536000I-237500J0D01*
G01*
X155464500Y-103536000D01*
G75*
G02*
X155227000Y-103298500I0J237500D01*
G01*
X155227000Y-102723500D01*
G75*
G02*
X155464500Y-102486000I237500J0D01*
G01*
G37*
G36*
G01*
X144001500Y-103536000D02*
X143526500Y-103536000D01*
G75*
G02*
X143289000Y-103298500I0J237500D01*
G01*
X143289000Y-102723500D01*
G75*
G02*
X143526500Y-102486000I237500J0D01*
G01*
X144001500Y-102486000D01*
G75*
G02*
X144239000Y-102723500I0J-237500D01*
G01*
X144239000Y-103298500D01*
G75*
G02*
X144001500Y-103536000I-237500J0D01*
G01*
G37*
G36*
G01*
X144001500Y-105286000D02*
X143526500Y-105286000D01*
G75*
G02*
X143289000Y-105048500I0J237500D01*
G01*
X143289000Y-104473500D01*
G75*
G02*
X143526500Y-104236000I237500J0D01*
G01*
X144001500Y-104236000D01*
G75*
G02*
X144239000Y-104473500I0J-237500D01*
G01*
X144239000Y-105048500D01*
G75*
G02*
X144001500Y-105286000I-237500J0D01*
G01*
G37*
G36*
G01*
X147684500Y-103536000D02*
X147209500Y-103536000D01*
G75*
G02*
X146972000Y-103298500I0J237500D01*
G01*
X146972000Y-102723500D01*
G75*
G02*
X147209500Y-102486000I237500J0D01*
G01*
X147684500Y-102486000D01*
G75*
G02*
X147922000Y-102723500I0J-237500D01*
G01*
X147922000Y-103298500D01*
G75*
G02*
X147684500Y-103536000I-237500J0D01*
G01*
G37*
G36*
G01*
X147684500Y-105286000D02*
X147209500Y-105286000D01*
G75*
G02*
X146972000Y-105048500I0J237500D01*
G01*
X146972000Y-104473500D01*
G75*
G02*
X147209500Y-104236000I237500J0D01*
G01*
X147684500Y-104236000D01*
G75*
G02*
X147922000Y-104473500I0J-237500D01*
G01*
X147922000Y-105048500D01*
G75*
G02*
X147684500Y-105286000I-237500J0D01*
G01*
G37*
G36*
G01*
X141748500Y-101315000D02*
X142223500Y-101315000D01*
G75*
G02*
X142461000Y-101552500I0J-237500D01*
G01*
X142461000Y-102127500D01*
G75*
G02*
X142223500Y-102365000I-237500J0D01*
G01*
X141748500Y-102365000D01*
G75*
G02*
X141511000Y-102127500I0J237500D01*
G01*
X141511000Y-101552500D01*
G75*
G02*
X141748500Y-101315000I237500J0D01*
G01*
G37*
G36*
G01*
X141748500Y-99565000D02*
X142223500Y-99565000D01*
G75*
G02*
X142461000Y-99802500I0J-237500D01*
G01*
X142461000Y-100377500D01*
G75*
G02*
X142223500Y-100615000I-237500J0D01*
G01*
X141748500Y-100615000D01*
G75*
G02*
X141511000Y-100377500I0J237500D01*
G01*
X141511000Y-99802500D01*
G75*
G02*
X141748500Y-99565000I237500J0D01*
G01*
G37*
G36*
G01*
X137157750Y-102902500D02*
X137670250Y-102902500D01*
G75*
G02*
X137889000Y-103121250I0J-218750D01*
G01*
X137889000Y-103558750D01*
G75*
G02*
X137670250Y-103777500I-218750J0D01*
G01*
X137157750Y-103777500D01*
G75*
G02*
X136939000Y-103558750I0J218750D01*
G01*
X136939000Y-103121250D01*
G75*
G02*
X137157750Y-102902500I218750J0D01*
G01*
G37*
G36*
G01*
X137157750Y-101327500D02*
X137670250Y-101327500D01*
G75*
G02*
X137889000Y-101546250I0J-218750D01*
G01*
X137889000Y-101983750D01*
G75*
G02*
X137670250Y-102202500I-218750J0D01*
G01*
X137157750Y-102202500D01*
G75*
G02*
X136939000Y-101983750I0J218750D01*
G01*
X136939000Y-101546250D01*
G75*
G02*
X137157750Y-101327500I218750J0D01*
G01*
G37*
D13*
X158258000Y-106426000D03*
X160258000Y-105476000D03*
X160258000Y-107376000D03*
X158258000Y-98552000D03*
X160258000Y-97602000D03*
X160258000Y-99502000D03*
X139557000Y-98552000D03*
X137557000Y-99502000D03*
X137557000Y-97602000D03*
X139557000Y-106172000D03*
X137557000Y-107122000D03*
X137557000Y-105222000D03*
G36*
G01*
X146367000Y-109900500D02*
X146367000Y-109555500D01*
G75*
G02*
X146514500Y-109408000I147500J0D01*
G01*
X146809500Y-109408000D01*
G75*
G02*
X146957000Y-109555500I0J-147500D01*
G01*
X146957000Y-109900500D01*
G75*
G02*
X146809500Y-110048000I-147500J0D01*
G01*
X146514500Y-110048000D01*
G75*
G02*
X146367000Y-109900500I0J147500D01*
G01*
G37*
G36*
G01*
X145397000Y-109900500D02*
X145397000Y-109555500D01*
G75*
G02*
X145544500Y-109408000I147500J0D01*
G01*
X145839500Y-109408000D01*
G75*
G02*
X145987000Y-109555500I0J-147500D01*
G01*
X145987000Y-109900500D01*
G75*
G02*
X145839500Y-110048000I-147500J0D01*
G01*
X145544500Y-110048000D01*
G75*
G02*
X145397000Y-109900500I0J147500D01*
G01*
G37*
G36*
G01*
X150812000Y-112313500D02*
X150812000Y-111968500D01*
G75*
G02*
X150959500Y-111821000I147500J0D01*
G01*
X151254500Y-111821000D01*
G75*
G02*
X151402000Y-111968500I0J-147500D01*
G01*
X151402000Y-112313500D01*
G75*
G02*
X151254500Y-112461000I-147500J0D01*
G01*
X150959500Y-112461000D01*
G75*
G02*
X150812000Y-112313500I0J147500D01*
G01*
G37*
G36*
G01*
X149842000Y-112313500D02*
X149842000Y-111968500D01*
G75*
G02*
X149989500Y-111821000I147500J0D01*
G01*
X150284500Y-111821000D01*
G75*
G02*
X150432000Y-111968500I0J-147500D01*
G01*
X150432000Y-112313500D01*
G75*
G02*
X150284500Y-112461000I-147500J0D01*
G01*
X149989500Y-112461000D01*
G75*
G02*
X149842000Y-112313500I0J147500D01*
G01*
G37*
G36*
G01*
X150812000Y-109138500D02*
X150812000Y-108793500D01*
G75*
G02*
X150959500Y-108646000I147500J0D01*
G01*
X151254500Y-108646000D01*
G75*
G02*
X151402000Y-108793500I0J-147500D01*
G01*
X151402000Y-109138500D01*
G75*
G02*
X151254500Y-109286000I-147500J0D01*
G01*
X150959500Y-109286000D01*
G75*
G02*
X150812000Y-109138500I0J147500D01*
G01*
G37*
G36*
G01*
X149842000Y-109138500D02*
X149842000Y-108793500D01*
G75*
G02*
X149989500Y-108646000I147500J0D01*
G01*
X150284500Y-108646000D01*
G75*
G02*
X150432000Y-108793500I0J-147500D01*
G01*
X150432000Y-109138500D01*
G75*
G02*
X150284500Y-109286000I-147500J0D01*
G01*
X149989500Y-109286000D01*
G75*
G02*
X149842000Y-109138500I0J147500D01*
G01*
G37*
M02*
