M48
; DRILL file {KiCad 5.99.0-unknown-r19130-2af6d01f} date Tue Aug  4 10:25:40 2020
; FORMAT={-:-/ absolute / inch / decimal}
; #@! TF.CreationDate,2020-08-04T10:25:40+02:00
; #@! TF.GenerationSoftware,Kicad,Pcbnew,5.99.0-unknown-r19130-2af6d01f
FMAT,2
INCH
T1C0.0157
T2C0.0315
T3C0.0276
%
G90
G05
T1
X5.28Y-3.93
X5.2875Y-4.2425
X5.32Y-4.355
X5.34Y-4.2604
X5.355Y-3.965
X5.37Y-4.355
X5.405Y-3.965
X5.4075Y-4.29
X5.4075Y-4.385
X5.4575Y-4.0375
X5.4583Y-3.965
X5.47Y-4.485
X5.48Y-4.3225
X5.4873Y-4.5627
X5.5Y-4.1296
X5.61Y-3.805
X5.61Y-4.09
X5.6132Y-4.5635
X5.6225Y-4.605
X5.6339Y-4.5036
X5.6522Y-4.3493
X5.66Y-3.94
X5.66Y-4.005
X5.6798Y-4.2923
X5.6806Y-4.2527
X5.6973Y-4.5644
X5.6975Y-4.52
X5.6975Y-4.605
X5.71Y-3.805
X5.715Y-4.09
X5.73Y-4.368
X5.73Y-4.2825
X5.785Y-3.94
X5.785Y-4.005
X5.8Y-4.2825
X5.81Y-3.805
X5.835Y-3.975
X5.86Y-4.52
X5.865Y-4.09
X5.875Y-4.255
X5.91Y-3.805
X5.9157Y-4.52
X5.93Y-4.09
X5.96Y-3.94
X5.96Y-3.99
X5.96Y-4.49
X6.0Y-4.335
X6.0Y-4.37
X6.005Y-3.94
X6.01Y-3.805
X6.0273Y-4.0523
X6.075Y-4.41
X6.11Y-3.805
X6.12Y-4.515
X6.16Y-4.0152
X6.17Y-4.125
X6.3125Y-3.97
X6.3125Y-4.0725
T2
X5.61Y-3.8832
X5.61Y-4.1832
X5.71Y-3.8832
X5.71Y-4.1832
X5.81Y-3.8832
X5.81Y-4.1832
X5.91Y-3.8832
X5.91Y-4.1832
X6.01Y-3.8832
X6.01Y-4.1832
X6.11Y-3.8832
X6.11Y-4.1832
T3
X5.3Y-4.0
X5.3Y-4.05
X5.3Y-4.1
X5.3Y-4.15
X5.3Y-4.2
T0
M30
